G04 #@! TF.GenerationSoftware,KiCad,Pcbnew,7.0.0-da2b9df05c~163~ubuntu22.04.1*
G04 #@! TF.CreationDate,2023-02-23T10:10:54+01:00*
G04 #@! TF.ProjectId,dmx_interceptor,646d785f-696e-4746-9572-636570746f72,rev?*
G04 #@! TF.SameCoordinates,Original*
G04 #@! TF.FileFunction,Copper,L1,Top*
G04 #@! TF.FilePolarity,Positive*
%FSLAX46Y46*%
G04 Gerber Fmt 4.6, Leading zero omitted, Abs format (unit mm)*
G04 Created by KiCad (PCBNEW 7.0.0-da2b9df05c~163~ubuntu22.04.1) date 2023-02-23 10:10:54*
%MOMM*%
%LPD*%
G01*
G04 APERTURE LIST*
G04 Aperture macros list*
%AMRoundRect*
0 Rectangle with rounded corners*
0 $1 Rounding radius*
0 $2 $3 $4 $5 $6 $7 $8 $9 X,Y pos of 4 corners*
0 Add a 4 corners polygon primitive as box body*
4,1,4,$2,$3,$4,$5,$6,$7,$8,$9,$2,$3,0*
0 Add four circle primitives for the rounded corners*
1,1,$1+$1,$2,$3*
1,1,$1+$1,$4,$5*
1,1,$1+$1,$6,$7*
1,1,$1+$1,$8,$9*
0 Add four rect primitives between the rounded corners*
20,1,$1+$1,$2,$3,$4,$5,0*
20,1,$1+$1,$4,$5,$6,$7,0*
20,1,$1+$1,$6,$7,$8,$9,0*
20,1,$1+$1,$8,$9,$2,$3,0*%
G04 Aperture macros list end*
G04 #@! TA.AperFunction,ComponentPad*
%ADD10R,2.400000X2.400000*%
G04 #@! TD*
G04 #@! TA.AperFunction,ComponentPad*
%ADD11C,2.400000*%
G04 #@! TD*
G04 #@! TA.AperFunction,ComponentPad*
%ADD12C,1.524000*%
G04 #@! TD*
G04 #@! TA.AperFunction,SMDPad,CuDef*
%ADD13RoundRect,0.200000X0.200000X0.275000X-0.200000X0.275000X-0.200000X-0.275000X0.200000X-0.275000X0*%
G04 #@! TD*
G04 #@! TA.AperFunction,ComponentPad*
%ADD14C,1.879600*%
G04 #@! TD*
G04 #@! TA.AperFunction,ViaPad*
%ADD15C,0.800000*%
G04 #@! TD*
G04 #@! TA.AperFunction,Conductor*
%ADD16C,0.250000*%
G04 #@! TD*
G04 APERTURE END LIST*
D10*
X63099999Y-76199999D03*
D11*
X68180000Y-76200000D03*
D10*
X99899999Y-76299999D03*
D11*
X94820000Y-76300000D03*
D10*
X118599999Y-75699999D03*
D11*
X113520000Y-75700000D03*
X108440000Y-75700000D03*
D12*
X138200000Y-86690000D03*
X138200000Y-89230000D03*
X138200000Y-91770000D03*
X138200000Y-94310000D03*
X97200000Y-86690000D03*
X97200000Y-89230000D03*
X97200000Y-91770000D03*
X97200000Y-94310000D03*
D10*
X137179999Y-75699999D03*
D11*
X132100000Y-75700000D03*
X127020000Y-75700000D03*
D13*
X66300000Y-89600000D03*
X64650000Y-89600000D03*
D12*
X138200000Y-104490000D03*
X138200000Y-107030000D03*
X138200000Y-109570000D03*
X138200000Y-112110000D03*
X97200000Y-104490000D03*
X97200000Y-107030000D03*
X97200000Y-109570000D03*
X97200000Y-112110000D03*
D14*
X87650000Y-71860000D03*
X85110000Y-71860000D03*
X82570000Y-71860000D03*
X80030000Y-71860000D03*
X77490000Y-71860000D03*
X74950000Y-71860000D03*
X85999000Y-85703000D03*
X85999000Y-83163000D03*
X85999000Y-96117000D03*
X85999000Y-93577000D03*
X88920000Y-74400000D03*
X88920000Y-76940000D03*
X88920000Y-79480000D03*
X88920000Y-82020000D03*
X88920000Y-84560000D03*
X88920000Y-87100000D03*
X88920000Y-89640000D03*
X88920000Y-92180000D03*
X88920000Y-94720000D03*
X88920000Y-97260000D03*
X88920000Y-99800000D03*
X88920000Y-102340000D03*
X73680000Y-102340000D03*
X73680000Y-99800000D03*
X73680000Y-97260000D03*
X73680000Y-94720000D03*
X73680000Y-92180000D03*
X73680000Y-89640000D03*
X73680000Y-87100000D03*
X73680000Y-84560000D03*
X73680000Y-82020000D03*
X73680000Y-79480000D03*
X73680000Y-76940000D03*
X73680000Y-74400000D03*
D15*
X67400000Y-112900000D03*
X67400000Y-116300000D03*
X63200000Y-116300000D03*
X76300000Y-113000000D03*
X72100000Y-116400000D03*
X76300000Y-116400000D03*
X72100000Y-113000000D03*
X89400000Y-109500000D03*
X93600000Y-109500000D03*
X85000000Y-109500000D03*
X80800000Y-109500000D03*
X66100000Y-98300000D03*
X128500000Y-110800000D03*
X132700000Y-110800000D03*
X111200000Y-110700000D03*
X102300000Y-110600000D03*
X124100000Y-110800000D03*
X119900000Y-110800000D03*
X106500000Y-110600000D03*
X115400000Y-110700000D03*
X117100000Y-86300000D03*
X65900000Y-73100000D03*
X101600000Y-95500000D03*
X65600000Y-79600000D03*
X78600000Y-102100000D03*
X65900000Y-94600000D03*
X63400000Y-109200000D03*
X132400000Y-95700000D03*
X111000000Y-78900000D03*
X60900000Y-100900000D03*
X76500000Y-79100000D03*
X89400000Y-113100000D03*
X102300000Y-106100000D03*
X80800000Y-113100000D03*
X60900000Y-88100000D03*
X105800000Y-87700000D03*
X133600000Y-79100000D03*
X67600000Y-85200000D03*
X106500000Y-106100000D03*
X111000000Y-72800000D03*
X123400000Y-87900000D03*
X101600000Y-91440000D03*
X76900000Y-91800000D03*
X119600000Y-95700000D03*
X70000000Y-86700000D03*
X134500000Y-73300000D03*
X106200000Y-95500000D03*
X68400000Y-90400000D03*
X116000000Y-78800000D03*
X64800000Y-86700000D03*
X69600000Y-79600000D03*
X97200000Y-79000000D03*
X127800000Y-87900000D03*
X115100000Y-95600000D03*
X85090000Y-102870000D03*
X76900000Y-86000000D03*
X141200000Y-108400000D03*
X97300000Y-96500000D03*
X76300000Y-109300000D03*
X124100000Y-106300000D03*
X60900000Y-96700000D03*
X80800000Y-116500000D03*
X110500000Y-87800000D03*
X76900000Y-97800000D03*
X85000000Y-113100000D03*
X63400000Y-105800000D03*
X111200000Y-106200000D03*
X94600000Y-90170000D03*
X132000000Y-87900000D03*
X93600000Y-113100000D03*
X129700000Y-73300000D03*
X63200000Y-112900000D03*
X93600000Y-116500000D03*
X97300000Y-73000000D03*
X85000000Y-116500000D03*
X89400000Y-116500000D03*
X128500000Y-106300000D03*
X115400000Y-106200000D03*
X119900000Y-106300000D03*
X60900000Y-92300000D03*
X110900000Y-95600000D03*
X92710000Y-85090000D03*
X101500000Y-79000000D03*
X101600000Y-87700000D03*
X125900000Y-79500000D03*
X67600000Y-109200000D03*
D16*
X92920000Y-74400000D02*
X94820000Y-76300000D01*
X88920000Y-74400000D02*
X92920000Y-74400000D01*
X64650000Y-98550000D02*
X68440000Y-102340000D01*
X63100000Y-88050000D02*
X64650000Y-89600000D01*
X68440000Y-102340000D02*
X73680000Y-102340000D01*
X64650000Y-89600000D02*
X64650000Y-98550000D01*
X63100000Y-76200000D02*
X63100000Y-88050000D01*
X83730000Y-104230000D02*
X90070000Y-104230000D01*
X92700000Y-101600000D02*
X92710000Y-101600000D01*
X91350000Y-104230000D02*
X92710000Y-102870000D01*
X92700000Y-89700000D02*
X92700000Y-100330000D01*
X83730000Y-104230000D02*
X78600000Y-99100000D01*
X78600000Y-99100000D02*
X78600000Y-78600000D01*
X92710000Y-102870000D02*
X92710000Y-100340000D01*
X95710000Y-86690000D02*
X92700000Y-89700000D01*
X78600000Y-78600000D02*
X76940000Y-76940000D01*
X92700000Y-100330000D02*
X92700000Y-101600000D01*
X97200000Y-86690000D02*
X95710000Y-86690000D01*
X76940000Y-76940000D02*
X73680000Y-76940000D01*
X92710000Y-100340000D02*
X92700000Y-100330000D01*
X90070000Y-104230000D02*
X91350000Y-104230000D01*
G04 #@! TA.AperFunction,Conductor*
G36*
X143137000Y-67716881D02*
G01*
X143183119Y-67763000D01*
X143200000Y-67826000D01*
X143200000Y-119074000D01*
X143183119Y-119137000D01*
X143137000Y-119183119D01*
X143074000Y-119200000D01*
X58926000Y-119200000D01*
X58863000Y-119183119D01*
X58816881Y-119137000D01*
X58800000Y-119074000D01*
X58800000Y-112110000D01*
X95924647Y-112110000D01*
X95925126Y-112115475D01*
X95943542Y-112325983D01*
X95943543Y-112325989D01*
X95944022Y-112331463D01*
X95945443Y-112336769D01*
X95945445Y-112336776D01*
X95982260Y-112474167D01*
X96001560Y-112546196D01*
X96095512Y-112747677D01*
X96098665Y-112752180D01*
X96098668Y-112752185D01*
X96172794Y-112858046D01*
X96223023Y-112929781D01*
X96380219Y-113086977D01*
X96484582Y-113160053D01*
X96557188Y-113210893D01*
X96562323Y-113214488D01*
X96763804Y-113308440D01*
X96978537Y-113365978D01*
X97200000Y-113385353D01*
X97421463Y-113365978D01*
X97636196Y-113308440D01*
X97837677Y-113214488D01*
X97901946Y-113169486D01*
X137503145Y-113169486D01*
X137510697Y-113177728D01*
X137558065Y-113210896D01*
X137567561Y-113216378D01*
X137758992Y-113305644D01*
X137769284Y-113309390D01*
X137973309Y-113364058D01*
X137984104Y-113365962D01*
X138194525Y-113384372D01*
X138205475Y-113384372D01*
X138415895Y-113365962D01*
X138426690Y-113364058D01*
X138630715Y-113309390D01*
X138641007Y-113305644D01*
X138832436Y-113216379D01*
X138841937Y-113210893D01*
X138889301Y-113177728D01*
X138896853Y-113169486D01*
X138890843Y-113160053D01*
X138211729Y-112480939D01*
X138199999Y-112474167D01*
X138188271Y-112480938D01*
X137509152Y-113160056D01*
X137503145Y-113169486D01*
X97901946Y-113169486D01*
X98019781Y-113086977D01*
X98176977Y-112929781D01*
X98304488Y-112747677D01*
X98398440Y-112546196D01*
X98455978Y-112331463D01*
X98474874Y-112115475D01*
X136925628Y-112115475D01*
X136944037Y-112325895D01*
X136945941Y-112336690D01*
X137000609Y-112540715D01*
X137004355Y-112551007D01*
X137093621Y-112742438D01*
X137099103Y-112751934D01*
X137132270Y-112799301D01*
X137140512Y-112806853D01*
X137149942Y-112800846D01*
X137829059Y-112121730D01*
X137835832Y-112109999D01*
X138564167Y-112109999D01*
X138570939Y-112121729D01*
X139250053Y-112800843D01*
X139259486Y-112806853D01*
X139267728Y-112799301D01*
X139300893Y-112751937D01*
X139306379Y-112742436D01*
X139395644Y-112551007D01*
X139399390Y-112540715D01*
X139454058Y-112336690D01*
X139455962Y-112325895D01*
X139474372Y-112115475D01*
X139474372Y-112104525D01*
X139455962Y-111894104D01*
X139454058Y-111883309D01*
X139399390Y-111679284D01*
X139395644Y-111668992D01*
X139306378Y-111477562D01*
X139300896Y-111468066D01*
X139267728Y-111420697D01*
X139259486Y-111413145D01*
X139250056Y-111419152D01*
X138570938Y-112098271D01*
X138564167Y-112109999D01*
X137835832Y-112109999D01*
X137829060Y-112098270D01*
X137149944Y-111419154D01*
X137140512Y-111413145D01*
X137132270Y-111420698D01*
X137099102Y-111468068D01*
X137093622Y-111477558D01*
X137004355Y-111668992D01*
X137000609Y-111679284D01*
X136945941Y-111883309D01*
X136944037Y-111894104D01*
X136925628Y-112104525D01*
X136925628Y-112115475D01*
X98474874Y-112115475D01*
X98475353Y-112110000D01*
X98455978Y-111888537D01*
X98398440Y-111673804D01*
X98304488Y-111472324D01*
X98176977Y-111290219D01*
X98019781Y-111133023D01*
X97915411Y-111059942D01*
X97842185Y-111008668D01*
X97842180Y-111008665D01*
X97837677Y-111005512D01*
X97727626Y-110954194D01*
X97674610Y-110907700D01*
X97654877Y-110840000D01*
X97674610Y-110772300D01*
X97727627Y-110725805D01*
X97837677Y-110674488D01*
X98019781Y-110546977D01*
X98176977Y-110389781D01*
X98304488Y-110207677D01*
X98398440Y-110006196D01*
X98455978Y-109791463D01*
X98475353Y-109570000D01*
X136924647Y-109570000D01*
X136925126Y-109575475D01*
X136943542Y-109785983D01*
X136943543Y-109785989D01*
X136944022Y-109791463D01*
X136945443Y-109796769D01*
X136945445Y-109796776D01*
X136993279Y-109975291D01*
X137001560Y-110006196D01*
X137095512Y-110207677D01*
X137098665Y-110212180D01*
X137098668Y-110212185D01*
X137172794Y-110318046D01*
X137223023Y-110389781D01*
X137380219Y-110546977D01*
X137562323Y-110674488D01*
X137629732Y-110705921D01*
X137672964Y-110726081D01*
X137725981Y-110772576D01*
X137745714Y-110840276D01*
X137725982Y-110907975D01*
X137672965Y-110954470D01*
X137567563Y-111003620D01*
X137558068Y-111009102D01*
X137510698Y-111042270D01*
X137503145Y-111050512D01*
X137509154Y-111059944D01*
X138188270Y-111739060D01*
X138199999Y-111745832D01*
X138211730Y-111739059D01*
X138890846Y-111059942D01*
X138896853Y-111050512D01*
X138889301Y-111042270D01*
X138841934Y-111009103D01*
X138832433Y-111003618D01*
X138727034Y-110954469D01*
X138674017Y-110907974D01*
X138654285Y-110840274D01*
X138674018Y-110772574D01*
X138727034Y-110726081D01*
X138837677Y-110674488D01*
X139019781Y-110546977D01*
X139176977Y-110389781D01*
X139304488Y-110207677D01*
X139398440Y-110006196D01*
X139455978Y-109791463D01*
X139475353Y-109570000D01*
X139455978Y-109348537D01*
X139398440Y-109133804D01*
X139304488Y-108932324D01*
X139176977Y-108750219D01*
X139019781Y-108593023D01*
X138948046Y-108542794D01*
X138842185Y-108468668D01*
X138842180Y-108468665D01*
X138837677Y-108465512D01*
X138727626Y-108414194D01*
X138674610Y-108367700D01*
X138654877Y-108300000D01*
X138674610Y-108232300D01*
X138727627Y-108185805D01*
X138837677Y-108134488D01*
X139019781Y-108006977D01*
X139176977Y-107849781D01*
X139304488Y-107667677D01*
X139398440Y-107466196D01*
X139455978Y-107251463D01*
X139475353Y-107030000D01*
X139455978Y-106808537D01*
X139398440Y-106593804D01*
X139304488Y-106392324D01*
X139176977Y-106210219D01*
X139019781Y-106053023D01*
X138948046Y-106002794D01*
X138842185Y-105928668D01*
X138842180Y-105928665D01*
X138837677Y-105925512D01*
X138727626Y-105874194D01*
X138674610Y-105827700D01*
X138654877Y-105760000D01*
X138674610Y-105692300D01*
X138727627Y-105645805D01*
X138837677Y-105594488D01*
X139019781Y-105466977D01*
X139176977Y-105309781D01*
X139304488Y-105127677D01*
X139398440Y-104926196D01*
X139455978Y-104711463D01*
X139475353Y-104490000D01*
X139455978Y-104268537D01*
X139398440Y-104053804D01*
X139304488Y-103852324D01*
X139176977Y-103670219D01*
X139019781Y-103513023D01*
X138909134Y-103435547D01*
X138842185Y-103388668D01*
X138842180Y-103388665D01*
X138837677Y-103385512D01*
X138832689Y-103383186D01*
X138641178Y-103293883D01*
X138641176Y-103293882D01*
X138636196Y-103291560D01*
X138605291Y-103283279D01*
X138426776Y-103235445D01*
X138426769Y-103235443D01*
X138421463Y-103234022D01*
X138415989Y-103233543D01*
X138415983Y-103233542D01*
X138205475Y-103215126D01*
X138200000Y-103214647D01*
X138194525Y-103215126D01*
X137984016Y-103233542D01*
X137984008Y-103233543D01*
X137978537Y-103234022D01*
X137973232Y-103235443D01*
X137973223Y-103235445D01*
X137769114Y-103290137D01*
X137769112Y-103290137D01*
X137763804Y-103291560D01*
X137758827Y-103293880D01*
X137758821Y-103293883D01*
X137567311Y-103383186D01*
X137567306Y-103383188D01*
X137562324Y-103385512D01*
X137557824Y-103388662D01*
X137557815Y-103388668D01*
X137384730Y-103509864D01*
X137384727Y-103509866D01*
X137380219Y-103513023D01*
X137376327Y-103516914D01*
X137376321Y-103516920D01*
X137226920Y-103666321D01*
X137226914Y-103666327D01*
X137223023Y-103670219D01*
X137219866Y-103674727D01*
X137219864Y-103674730D01*
X137098668Y-103847815D01*
X137098662Y-103847824D01*
X137095512Y-103852324D01*
X137093188Y-103857306D01*
X137093186Y-103857311D01*
X137003883Y-104048821D01*
X137003880Y-104048827D01*
X137001560Y-104053804D01*
X137000137Y-104059112D01*
X137000137Y-104059114D01*
X136945445Y-104263223D01*
X136945443Y-104263232D01*
X136944022Y-104268537D01*
X136943543Y-104274008D01*
X136943542Y-104274016D01*
X136925453Y-104480784D01*
X136924647Y-104490000D01*
X136925126Y-104495475D01*
X136943542Y-104705983D01*
X136943543Y-104705989D01*
X136944022Y-104711463D01*
X136945443Y-104716769D01*
X136945445Y-104716776D01*
X136985693Y-104866980D01*
X137001560Y-104926196D01*
X137095512Y-105127677D01*
X137098665Y-105132180D01*
X137098668Y-105132185D01*
X137172794Y-105238046D01*
X137223023Y-105309781D01*
X137380219Y-105466977D01*
X137562323Y-105594488D01*
X137672373Y-105645805D01*
X137725390Y-105692300D01*
X137745123Y-105760000D01*
X137725390Y-105827700D01*
X137672373Y-105874195D01*
X137567311Y-105923186D01*
X137567306Y-105923188D01*
X137562324Y-105925512D01*
X137557824Y-105928662D01*
X137557815Y-105928668D01*
X137384730Y-106049864D01*
X137384727Y-106049866D01*
X137380219Y-106053023D01*
X137376327Y-106056914D01*
X137376321Y-106056920D01*
X137226920Y-106206321D01*
X137226914Y-106206327D01*
X137223023Y-106210219D01*
X137219866Y-106214727D01*
X137219864Y-106214730D01*
X137098668Y-106387815D01*
X137098662Y-106387824D01*
X137095512Y-106392324D01*
X137093188Y-106397306D01*
X137093186Y-106397311D01*
X137003883Y-106588821D01*
X137003880Y-106588827D01*
X137001560Y-106593804D01*
X137000137Y-106599112D01*
X137000137Y-106599114D01*
X136945445Y-106803223D01*
X136945443Y-106803232D01*
X136944022Y-106808537D01*
X136943543Y-106814008D01*
X136943542Y-106814016D01*
X136925453Y-107020784D01*
X136924647Y-107030000D01*
X136925126Y-107035475D01*
X136943542Y-107245983D01*
X136943543Y-107245989D01*
X136944022Y-107251463D01*
X136945443Y-107256769D01*
X136945445Y-107256776D01*
X136993279Y-107435291D01*
X137001560Y-107466196D01*
X137095512Y-107667677D01*
X137098665Y-107672180D01*
X137098668Y-107672185D01*
X137172794Y-107778046D01*
X137223023Y-107849781D01*
X137380219Y-108006977D01*
X137562323Y-108134488D01*
X137672373Y-108185805D01*
X137725390Y-108232300D01*
X137745123Y-108300000D01*
X137725390Y-108367700D01*
X137672373Y-108414195D01*
X137567311Y-108463186D01*
X137567306Y-108463188D01*
X137562324Y-108465512D01*
X137557824Y-108468662D01*
X137557815Y-108468668D01*
X137384730Y-108589864D01*
X137384727Y-108589866D01*
X137380219Y-108593023D01*
X137376327Y-108596914D01*
X137376321Y-108596920D01*
X137226920Y-108746321D01*
X137226914Y-108746327D01*
X137223023Y-108750219D01*
X137219866Y-108754727D01*
X137219864Y-108754730D01*
X137098668Y-108927815D01*
X137098662Y-108927824D01*
X137095512Y-108932324D01*
X137093188Y-108937306D01*
X137093186Y-108937311D01*
X137003883Y-109128821D01*
X137003880Y-109128827D01*
X137001560Y-109133804D01*
X137000137Y-109139112D01*
X137000137Y-109139114D01*
X136945445Y-109343223D01*
X136945443Y-109343232D01*
X136944022Y-109348537D01*
X136943543Y-109354008D01*
X136943542Y-109354016D01*
X136925453Y-109560784D01*
X136924647Y-109570000D01*
X98475353Y-109570000D01*
X98455978Y-109348537D01*
X98398440Y-109133804D01*
X98304488Y-108932324D01*
X98176977Y-108750219D01*
X98019781Y-108593023D01*
X97948046Y-108542794D01*
X97842185Y-108468668D01*
X97842180Y-108468665D01*
X97837677Y-108465512D01*
X97727626Y-108414194D01*
X97674610Y-108367700D01*
X97654877Y-108300000D01*
X97674610Y-108232300D01*
X97727627Y-108185805D01*
X97837677Y-108134488D01*
X98019781Y-108006977D01*
X98176977Y-107849781D01*
X98304488Y-107667677D01*
X98398440Y-107466196D01*
X98455978Y-107251463D01*
X98475353Y-107030000D01*
X98455978Y-106808537D01*
X98398440Y-106593804D01*
X98304488Y-106392324D01*
X98176977Y-106210219D01*
X98019781Y-106053023D01*
X97948046Y-106002794D01*
X97842185Y-105928668D01*
X97842180Y-105928665D01*
X97837677Y-105925512D01*
X97727626Y-105874194D01*
X97674610Y-105827700D01*
X97654877Y-105760000D01*
X97674610Y-105692300D01*
X97727627Y-105645805D01*
X97837677Y-105594488D01*
X98019781Y-105466977D01*
X98176977Y-105309781D01*
X98304488Y-105127677D01*
X98398440Y-104926196D01*
X98455978Y-104711463D01*
X98475353Y-104490000D01*
X98455978Y-104268537D01*
X98398440Y-104053804D01*
X98304488Y-103852324D01*
X98176977Y-103670219D01*
X98019781Y-103513023D01*
X97909134Y-103435547D01*
X97842185Y-103388668D01*
X97842180Y-103388665D01*
X97837677Y-103385512D01*
X97832689Y-103383186D01*
X97641178Y-103293883D01*
X97641176Y-103293882D01*
X97636196Y-103291560D01*
X97605291Y-103283279D01*
X97426776Y-103235445D01*
X97426769Y-103235443D01*
X97421463Y-103234022D01*
X97415989Y-103233543D01*
X97415983Y-103233542D01*
X97205475Y-103215126D01*
X97200000Y-103214647D01*
X97194525Y-103215126D01*
X96984016Y-103233542D01*
X96984008Y-103233543D01*
X96978537Y-103234022D01*
X96973232Y-103235443D01*
X96973223Y-103235445D01*
X96769114Y-103290137D01*
X96769112Y-103290137D01*
X96763804Y-103291560D01*
X96758827Y-103293880D01*
X96758821Y-103293883D01*
X96567311Y-103383186D01*
X96567306Y-103383188D01*
X96562324Y-103385512D01*
X96557824Y-103388662D01*
X96557815Y-103388668D01*
X96384730Y-103509864D01*
X96384727Y-103509866D01*
X96380219Y-103513023D01*
X96376327Y-103516914D01*
X96376321Y-103516920D01*
X96226920Y-103666321D01*
X96226914Y-103666327D01*
X96223023Y-103670219D01*
X96219866Y-103674727D01*
X96219864Y-103674730D01*
X96098668Y-103847815D01*
X96098662Y-103847824D01*
X96095512Y-103852324D01*
X96093188Y-103857306D01*
X96093186Y-103857311D01*
X96003883Y-104048821D01*
X96003880Y-104048827D01*
X96001560Y-104053804D01*
X96000137Y-104059112D01*
X96000137Y-104059114D01*
X95945445Y-104263223D01*
X95945443Y-104263232D01*
X95944022Y-104268537D01*
X95943543Y-104274008D01*
X95943542Y-104274016D01*
X95925453Y-104480784D01*
X95924647Y-104490000D01*
X95925126Y-104495475D01*
X95943542Y-104705983D01*
X95943543Y-104705989D01*
X95944022Y-104711463D01*
X95945443Y-104716769D01*
X95945445Y-104716776D01*
X95985693Y-104866980D01*
X96001560Y-104926196D01*
X96095512Y-105127677D01*
X96098665Y-105132180D01*
X96098668Y-105132185D01*
X96172794Y-105238046D01*
X96223023Y-105309781D01*
X96380219Y-105466977D01*
X96562323Y-105594488D01*
X96672373Y-105645805D01*
X96725390Y-105692300D01*
X96745123Y-105760000D01*
X96725390Y-105827700D01*
X96672373Y-105874195D01*
X96567311Y-105923186D01*
X96567306Y-105923188D01*
X96562324Y-105925512D01*
X96557824Y-105928662D01*
X96557815Y-105928668D01*
X96384730Y-106049864D01*
X96384727Y-106049866D01*
X96380219Y-106053023D01*
X96376327Y-106056914D01*
X96376321Y-106056920D01*
X96226920Y-106206321D01*
X96226914Y-106206327D01*
X96223023Y-106210219D01*
X96219866Y-106214727D01*
X96219864Y-106214730D01*
X96098668Y-106387815D01*
X96098662Y-106387824D01*
X96095512Y-106392324D01*
X96093188Y-106397306D01*
X96093186Y-106397311D01*
X96003883Y-106588821D01*
X96003880Y-106588827D01*
X96001560Y-106593804D01*
X96000137Y-106599112D01*
X96000137Y-106599114D01*
X95945445Y-106803223D01*
X95945443Y-106803232D01*
X95944022Y-106808537D01*
X95943543Y-106814008D01*
X95943542Y-106814016D01*
X95925453Y-107020784D01*
X95924647Y-107030000D01*
X95925126Y-107035475D01*
X95943542Y-107245983D01*
X95943543Y-107245989D01*
X95944022Y-107251463D01*
X95945443Y-107256769D01*
X95945445Y-107256776D01*
X95993279Y-107435291D01*
X96001560Y-107466196D01*
X96095512Y-107667677D01*
X96098665Y-107672180D01*
X96098668Y-107672185D01*
X96172794Y-107778046D01*
X96223023Y-107849781D01*
X96380219Y-108006977D01*
X96562323Y-108134488D01*
X96672373Y-108185805D01*
X96725390Y-108232300D01*
X96745123Y-108300000D01*
X96725390Y-108367700D01*
X96672373Y-108414195D01*
X96567311Y-108463186D01*
X96567306Y-108463188D01*
X96562324Y-108465512D01*
X96557824Y-108468662D01*
X96557815Y-108468668D01*
X96384730Y-108589864D01*
X96384727Y-108589866D01*
X96380219Y-108593023D01*
X96376327Y-108596914D01*
X96376321Y-108596920D01*
X96226920Y-108746321D01*
X96226914Y-108746327D01*
X96223023Y-108750219D01*
X96219866Y-108754727D01*
X96219864Y-108754730D01*
X96098668Y-108927815D01*
X96098662Y-108927824D01*
X96095512Y-108932324D01*
X96093188Y-108937306D01*
X96093186Y-108937311D01*
X96003883Y-109128821D01*
X96003880Y-109128827D01*
X96001560Y-109133804D01*
X96000137Y-109139112D01*
X96000137Y-109139114D01*
X95945445Y-109343223D01*
X95945443Y-109343232D01*
X95944022Y-109348537D01*
X95943543Y-109354008D01*
X95943542Y-109354016D01*
X95925453Y-109560784D01*
X95924647Y-109570000D01*
X95925126Y-109575475D01*
X95943542Y-109785983D01*
X95943543Y-109785989D01*
X95944022Y-109791463D01*
X95945443Y-109796769D01*
X95945445Y-109796776D01*
X95993279Y-109975291D01*
X96001560Y-110006196D01*
X96095512Y-110207677D01*
X96098665Y-110212180D01*
X96098668Y-110212185D01*
X96172794Y-110318046D01*
X96223023Y-110389781D01*
X96380219Y-110546977D01*
X96562323Y-110674488D01*
X96672373Y-110725805D01*
X96725390Y-110772300D01*
X96745123Y-110840000D01*
X96725390Y-110907700D01*
X96672373Y-110954195D01*
X96567311Y-111003186D01*
X96567306Y-111003188D01*
X96562324Y-111005512D01*
X96557824Y-111008662D01*
X96557815Y-111008668D01*
X96384730Y-111129864D01*
X96384727Y-111129866D01*
X96380219Y-111133023D01*
X96376327Y-111136914D01*
X96376321Y-111136920D01*
X96226920Y-111286321D01*
X96226914Y-111286327D01*
X96223023Y-111290219D01*
X96219866Y-111294727D01*
X96219864Y-111294730D01*
X96098668Y-111467815D01*
X96098662Y-111467824D01*
X96095512Y-111472324D01*
X96093188Y-111477306D01*
X96093186Y-111477311D01*
X96003883Y-111668821D01*
X96003880Y-111668827D01*
X96001560Y-111673804D01*
X96000137Y-111679112D01*
X96000137Y-111679114D01*
X95945445Y-111883223D01*
X95945443Y-111883232D01*
X95944022Y-111888537D01*
X95943543Y-111894008D01*
X95943542Y-111894016D01*
X95925673Y-112098270D01*
X95924647Y-112110000D01*
X58800000Y-112110000D01*
X58800000Y-77448638D01*
X61391500Y-77448638D01*
X61391859Y-77451985D01*
X61391860Y-77451988D01*
X61397168Y-77501367D01*
X61397169Y-77501373D01*
X61398011Y-77509201D01*
X61400762Y-77516578D01*
X61400763Y-77516580D01*
X61445962Y-77637763D01*
X61445964Y-77637766D01*
X61449111Y-77646204D01*
X61454508Y-77653414D01*
X61454510Y-77653417D01*
X61529189Y-77753175D01*
X61536739Y-77763261D01*
X61543950Y-77768659D01*
X61634511Y-77836453D01*
X61653796Y-77850889D01*
X61790799Y-77901989D01*
X61851362Y-77908500D01*
X62340500Y-77908500D01*
X62403500Y-77925381D01*
X62449619Y-77971500D01*
X62466500Y-78034500D01*
X62466500Y-87971233D01*
X62465972Y-87982416D01*
X62464298Y-87989909D01*
X62464547Y-87997833D01*
X62464547Y-87997835D01*
X62466438Y-88057986D01*
X62466500Y-88061945D01*
X62466500Y-88089856D01*
X62466995Y-88093774D01*
X62466997Y-88093806D01*
X62467008Y-88093888D01*
X62467937Y-88105697D01*
X62469077Y-88141969D01*
X62469078Y-88141976D01*
X62469327Y-88149889D01*
X62471537Y-88157498D01*
X62471538Y-88157500D01*
X62474978Y-88169342D01*
X62478986Y-88188693D01*
X62481526Y-88208797D01*
X62484444Y-88216169D01*
X62484445Y-88216170D01*
X62497800Y-88249901D01*
X62501645Y-88261130D01*
X62511771Y-88295986D01*
X62511773Y-88295992D01*
X62513982Y-88303593D01*
X62518014Y-88310411D01*
X62518015Y-88310413D01*
X62524293Y-88321029D01*
X62532990Y-88338782D01*
X62540448Y-88357617D01*
X62545107Y-88364030D01*
X62545108Y-88364031D01*
X62566432Y-88393381D01*
X62572948Y-88403301D01*
X62584821Y-88423376D01*
X62595458Y-88441362D01*
X62601062Y-88446966D01*
X62601063Y-88446967D01*
X62609778Y-88455682D01*
X62622618Y-88470715D01*
X62634528Y-88487107D01*
X62640635Y-88492159D01*
X62640636Y-88492160D01*
X62668598Y-88515292D01*
X62677378Y-88523282D01*
X63704595Y-89550500D01*
X63731909Y-89591377D01*
X63741500Y-89639595D01*
X63741500Y-89929400D01*
X63741500Y-89929421D01*
X63741501Y-89932264D01*
X63741759Y-89935113D01*
X63741760Y-89935116D01*
X63747383Y-89997011D01*
X63747384Y-89997019D01*
X63747987Y-90003649D01*
X63749968Y-90010008D01*
X63749969Y-90010010D01*
X63760956Y-90045269D01*
X63799173Y-90167913D01*
X63803115Y-90174434D01*
X63803116Y-90174436D01*
X63822788Y-90206977D01*
X63888184Y-90315155D01*
X63893576Y-90320547D01*
X63979595Y-90406566D01*
X64006909Y-90447443D01*
X64016500Y-90495661D01*
X64016500Y-98471233D01*
X64015972Y-98482416D01*
X64014298Y-98489909D01*
X64014547Y-98497833D01*
X64014547Y-98497835D01*
X64016438Y-98557986D01*
X64016500Y-98561945D01*
X64016500Y-98589856D01*
X64016995Y-98593774D01*
X64016997Y-98593806D01*
X64017008Y-98593888D01*
X64017937Y-98605697D01*
X64019077Y-98641969D01*
X64019078Y-98641976D01*
X64019327Y-98649889D01*
X64021537Y-98657498D01*
X64021538Y-98657500D01*
X64024978Y-98669342D01*
X64028986Y-98688693D01*
X64031526Y-98708797D01*
X64034444Y-98716169D01*
X64034445Y-98716170D01*
X64047800Y-98749901D01*
X64051645Y-98761130D01*
X64061771Y-98795986D01*
X64061773Y-98795992D01*
X64063982Y-98803593D01*
X64068014Y-98810411D01*
X64068015Y-98810413D01*
X64074293Y-98821029D01*
X64082990Y-98838782D01*
X64090448Y-98857617D01*
X64095107Y-98864030D01*
X64095108Y-98864031D01*
X64116432Y-98893381D01*
X64122948Y-98903301D01*
X64125365Y-98907387D01*
X64145458Y-98941362D01*
X64151062Y-98946966D01*
X64151063Y-98946967D01*
X64159778Y-98955682D01*
X64172618Y-98970715D01*
X64184528Y-98987107D01*
X64190635Y-98992159D01*
X64190636Y-98992160D01*
X64218598Y-99015292D01*
X64227378Y-99023282D01*
X67936342Y-102732246D01*
X67943884Y-102740533D01*
X67948000Y-102747018D01*
X67953779Y-102752444D01*
X67953780Y-102752446D01*
X67997667Y-102793658D01*
X68000508Y-102796412D01*
X68020230Y-102816134D01*
X68023414Y-102818604D01*
X68032437Y-102826309D01*
X68064679Y-102856586D01*
X68071628Y-102860406D01*
X68082429Y-102866344D01*
X68098959Y-102877202D01*
X68108694Y-102884754D01*
X68108697Y-102884756D01*
X68114959Y-102889613D01*
X68155536Y-102907172D01*
X68166171Y-102912381D01*
X68204940Y-102933695D01*
X68224566Y-102938734D01*
X68243259Y-102945134D01*
X68261855Y-102953181D01*
X68305518Y-102960095D01*
X68317129Y-102962500D01*
X68359970Y-102973500D01*
X68380231Y-102973500D01*
X68399939Y-102975050D01*
X68419943Y-102978219D01*
X68427835Y-102977473D01*
X68433062Y-102976979D01*
X68463954Y-102974058D01*
X68475811Y-102973500D01*
X72295818Y-102973500D01*
X72360335Y-102991271D01*
X72400165Y-103032805D01*
X72401892Y-103031677D01*
X72533171Y-103232613D01*
X72695731Y-103409201D01*
X72885140Y-103556624D01*
X73096231Y-103670860D01*
X73323245Y-103748795D01*
X73559990Y-103788300D01*
X73794799Y-103788300D01*
X73800010Y-103788300D01*
X74036755Y-103748795D01*
X74263769Y-103670860D01*
X74474860Y-103556624D01*
X74664269Y-103409201D01*
X74826829Y-103232613D01*
X74958108Y-103031677D01*
X75054522Y-102811874D01*
X75113443Y-102579199D01*
X75133264Y-102340000D01*
X75113443Y-102100801D01*
X75054522Y-101868126D01*
X74958108Y-101648323D01*
X74826829Y-101447387D01*
X74664269Y-101270799D01*
X74534030Y-101169430D01*
X74498226Y-101125339D01*
X74485423Y-101070000D01*
X74498226Y-101014661D01*
X74534030Y-100970569D01*
X74664269Y-100869201D01*
X74826829Y-100692613D01*
X74958108Y-100491677D01*
X75054522Y-100271874D01*
X75113443Y-100039199D01*
X75133264Y-99800000D01*
X75113443Y-99560801D01*
X75054522Y-99328126D01*
X74958108Y-99108323D01*
X74826829Y-98907387D01*
X74664269Y-98730799D01*
X74534030Y-98629430D01*
X74498226Y-98585339D01*
X74485423Y-98530000D01*
X74498226Y-98474661D01*
X74534030Y-98430569D01*
X74664269Y-98329201D01*
X74826829Y-98152613D01*
X74958108Y-97951677D01*
X75054522Y-97731874D01*
X75113443Y-97499199D01*
X75133264Y-97260000D01*
X75113443Y-97020801D01*
X75054522Y-96788126D01*
X74958108Y-96568323D01*
X74826829Y-96367387D01*
X74664269Y-96190799D01*
X74534030Y-96089430D01*
X74498226Y-96045339D01*
X74485423Y-95990000D01*
X74498226Y-95934661D01*
X74534030Y-95890569D01*
X74664269Y-95789201D01*
X74826829Y-95612613D01*
X74958108Y-95411677D01*
X75054522Y-95191874D01*
X75113443Y-94959199D01*
X75133264Y-94720000D01*
X75113443Y-94480801D01*
X75054522Y-94248126D01*
X74958108Y-94028323D01*
X74826829Y-93827387D01*
X74664269Y-93650799D01*
X74534030Y-93549430D01*
X74498226Y-93505339D01*
X74485423Y-93450000D01*
X74498226Y-93394661D01*
X74534030Y-93350569D01*
X74664269Y-93249201D01*
X74826829Y-93072613D01*
X74958108Y-92871677D01*
X75054522Y-92651874D01*
X75113443Y-92419199D01*
X75133264Y-92180000D01*
X75113443Y-91940801D01*
X75054522Y-91708126D01*
X74958108Y-91488323D01*
X74826829Y-91287387D01*
X74664269Y-91110799D01*
X74534030Y-91009430D01*
X74498226Y-90965339D01*
X74485423Y-90910000D01*
X74498226Y-90854661D01*
X74534030Y-90810569D01*
X74664269Y-90709201D01*
X74826829Y-90532613D01*
X74958108Y-90331677D01*
X75054522Y-90111874D01*
X75113443Y-89879199D01*
X75133264Y-89640000D01*
X75113443Y-89400801D01*
X75054522Y-89168126D01*
X74958108Y-88948323D01*
X74826829Y-88747387D01*
X74664269Y-88570799D01*
X74534030Y-88469430D01*
X74498226Y-88425339D01*
X74485423Y-88370000D01*
X74498226Y-88314661D01*
X74534030Y-88270569D01*
X74664269Y-88169201D01*
X74826829Y-87992613D01*
X74958108Y-87791677D01*
X75054522Y-87571874D01*
X75113443Y-87339199D01*
X75133264Y-87100000D01*
X75113443Y-86860801D01*
X75054522Y-86628126D01*
X74958108Y-86408323D01*
X74826829Y-86207387D01*
X74664269Y-86030799D01*
X74534030Y-85929430D01*
X74498226Y-85885339D01*
X74485423Y-85830000D01*
X74498226Y-85774661D01*
X74534030Y-85730569D01*
X74664269Y-85629201D01*
X74826829Y-85452613D01*
X74958108Y-85251677D01*
X75054522Y-85031874D01*
X75113443Y-84799199D01*
X75133264Y-84560000D01*
X75113443Y-84320801D01*
X75054522Y-84088126D01*
X74958108Y-83868323D01*
X74826829Y-83667387D01*
X74664269Y-83490799D01*
X74660158Y-83487599D01*
X74660157Y-83487598D01*
X74526946Y-83383916D01*
X74488151Y-83333237D01*
X74479167Y-83270049D01*
X74502298Y-83210565D01*
X74503777Y-83208522D01*
X74497011Y-83196222D01*
X73691730Y-82390940D01*
X73679999Y-82384167D01*
X73668270Y-82390939D01*
X72862989Y-83196220D01*
X72856221Y-83208522D01*
X72857701Y-83210565D01*
X72880832Y-83270049D01*
X72871848Y-83333237D01*
X72833053Y-83383915D01*
X72699849Y-83487592D01*
X72699836Y-83487603D01*
X72695731Y-83490799D01*
X72692203Y-83494630D01*
X72692199Y-83494635D01*
X72536706Y-83663546D01*
X72536701Y-83663552D01*
X72533171Y-83667387D01*
X72530321Y-83671748D01*
X72530318Y-83671753D01*
X72410807Y-83854677D01*
X72401892Y-83868323D01*
X72399802Y-83873086D01*
X72399799Y-83873093D01*
X72307573Y-84083348D01*
X72307570Y-84083356D01*
X72305478Y-84088126D01*
X72246557Y-84320801D01*
X72246127Y-84325989D01*
X72246126Y-84325996D01*
X72232837Y-84486376D01*
X72226736Y-84560000D01*
X72246557Y-84799199D01*
X72305478Y-85031874D01*
X72307571Y-85036647D01*
X72307573Y-85036651D01*
X72399799Y-85246906D01*
X72401892Y-85251677D01*
X72533171Y-85452613D01*
X72695731Y-85629201D01*
X72699840Y-85632399D01*
X72699842Y-85632401D01*
X72825967Y-85730568D01*
X72861773Y-85774661D01*
X72874576Y-85830000D01*
X72861773Y-85885339D01*
X72825967Y-85929432D01*
X72699842Y-86027598D01*
X72699833Y-86027606D01*
X72695731Y-86030799D01*
X72692203Y-86034630D01*
X72692199Y-86034635D01*
X72536706Y-86203546D01*
X72536701Y-86203552D01*
X72533171Y-86207387D01*
X72530321Y-86211748D01*
X72530318Y-86211753D01*
X72410807Y-86394677D01*
X72401892Y-86408323D01*
X72399802Y-86413086D01*
X72399799Y-86413093D01*
X72307573Y-86623348D01*
X72307570Y-86623356D01*
X72305478Y-86628126D01*
X72246557Y-86860801D01*
X72246127Y-86865989D01*
X72246126Y-86865996D01*
X72227812Y-87087009D01*
X72226736Y-87100000D01*
X72227166Y-87105189D01*
X72246050Y-87333091D01*
X72246557Y-87339199D01*
X72305478Y-87571874D01*
X72307571Y-87576647D01*
X72307573Y-87576651D01*
X72348579Y-87670135D01*
X72401892Y-87791677D01*
X72533171Y-87992613D01*
X72695731Y-88169201D01*
X72699840Y-88172399D01*
X72699842Y-88172401D01*
X72825967Y-88270568D01*
X72861773Y-88314661D01*
X72874576Y-88370000D01*
X72861773Y-88425339D01*
X72825967Y-88469432D01*
X72699842Y-88567598D01*
X72699833Y-88567606D01*
X72695731Y-88570799D01*
X72692203Y-88574630D01*
X72692199Y-88574635D01*
X72536706Y-88743546D01*
X72536701Y-88743552D01*
X72533171Y-88747387D01*
X72530321Y-88751748D01*
X72530318Y-88751753D01*
X72438755Y-88891900D01*
X72401892Y-88948323D01*
X72399802Y-88953086D01*
X72399799Y-88953093D01*
X72307573Y-89163348D01*
X72307570Y-89163356D01*
X72305478Y-89168126D01*
X72304197Y-89173182D01*
X72304196Y-89173187D01*
X72247838Y-89395742D01*
X72246557Y-89400801D01*
X72246127Y-89405989D01*
X72246126Y-89405996D01*
X72231094Y-89587405D01*
X72226736Y-89640000D01*
X72227166Y-89645189D01*
X72245975Y-89872185D01*
X72246557Y-89879199D01*
X72305478Y-90111874D01*
X72307571Y-90116647D01*
X72307573Y-90116651D01*
X72397010Y-90320547D01*
X72401892Y-90331677D01*
X72533171Y-90532613D01*
X72695731Y-90709201D01*
X72699840Y-90712399D01*
X72699842Y-90712401D01*
X72825967Y-90810568D01*
X72861773Y-90854661D01*
X72874576Y-90910000D01*
X72861773Y-90965339D01*
X72825967Y-91009432D01*
X72699842Y-91107598D01*
X72699833Y-91107606D01*
X72695731Y-91110799D01*
X72692203Y-91114630D01*
X72692199Y-91114635D01*
X72536706Y-91283546D01*
X72536701Y-91283552D01*
X72533171Y-91287387D01*
X72530321Y-91291748D01*
X72530318Y-91291753D01*
X72404741Y-91483962D01*
X72401892Y-91488323D01*
X72399802Y-91493086D01*
X72399799Y-91493093D01*
X72307573Y-91703348D01*
X72307570Y-91703356D01*
X72305478Y-91708126D01*
X72246557Y-91940801D01*
X72246127Y-91945989D01*
X72246126Y-91945996D01*
X72230987Y-92128700D01*
X72226736Y-92180000D01*
X72227166Y-92185189D01*
X72245975Y-92412185D01*
X72246557Y-92419199D01*
X72305478Y-92651874D01*
X72307571Y-92656647D01*
X72307573Y-92656651D01*
X72348579Y-92750135D01*
X72401892Y-92871677D01*
X72533171Y-93072613D01*
X72695731Y-93249201D01*
X72699840Y-93252399D01*
X72699842Y-93252401D01*
X72825967Y-93350568D01*
X72861773Y-93394661D01*
X72874576Y-93450000D01*
X72861773Y-93505339D01*
X72825967Y-93549432D01*
X72699842Y-93647598D01*
X72699833Y-93647606D01*
X72695731Y-93650799D01*
X72692203Y-93654630D01*
X72692199Y-93654635D01*
X72536706Y-93823546D01*
X72536701Y-93823552D01*
X72533171Y-93827387D01*
X72530321Y-93831748D01*
X72530318Y-93831753D01*
X72404741Y-94023962D01*
X72401892Y-94028323D01*
X72399802Y-94033086D01*
X72399799Y-94033093D01*
X72307573Y-94243348D01*
X72307570Y-94243356D01*
X72305478Y-94248126D01*
X72304197Y-94253182D01*
X72304196Y-94253187D01*
X72289809Y-94310000D01*
X72246557Y-94480801D01*
X72246127Y-94485989D01*
X72246126Y-94485996D01*
X72233169Y-94642364D01*
X72226736Y-94720000D01*
X72227166Y-94725189D01*
X72245975Y-94952185D01*
X72246557Y-94959199D01*
X72305478Y-95191874D01*
X72307571Y-95196647D01*
X72307573Y-95196651D01*
X72399799Y-95406906D01*
X72401892Y-95411677D01*
X72533171Y-95612613D01*
X72695731Y-95789201D01*
X72699840Y-95792399D01*
X72699842Y-95792401D01*
X72825967Y-95890568D01*
X72861773Y-95934661D01*
X72874576Y-95990000D01*
X72861773Y-96045339D01*
X72825967Y-96089432D01*
X72699842Y-96187598D01*
X72699833Y-96187606D01*
X72695731Y-96190799D01*
X72692203Y-96194630D01*
X72692199Y-96194635D01*
X72536706Y-96363546D01*
X72536701Y-96363552D01*
X72533171Y-96367387D01*
X72530321Y-96371748D01*
X72530318Y-96371753D01*
X72404741Y-96563962D01*
X72401892Y-96568323D01*
X72399802Y-96573086D01*
X72399799Y-96573093D01*
X72307573Y-96783348D01*
X72307570Y-96783356D01*
X72305478Y-96788126D01*
X72304197Y-96793182D01*
X72304196Y-96793187D01*
X72286432Y-96863337D01*
X72246557Y-97020801D01*
X72246127Y-97025989D01*
X72246126Y-97025996D01*
X72233169Y-97182364D01*
X72226736Y-97260000D01*
X72227166Y-97265189D01*
X72242302Y-97447860D01*
X72246557Y-97499199D01*
X72305478Y-97731874D01*
X72401892Y-97951677D01*
X72533171Y-98152613D01*
X72695731Y-98329201D01*
X72699840Y-98332399D01*
X72699842Y-98332401D01*
X72825967Y-98430568D01*
X72861773Y-98474661D01*
X72874576Y-98530000D01*
X72861773Y-98585339D01*
X72825967Y-98629432D01*
X72699842Y-98727598D01*
X72699833Y-98727606D01*
X72695731Y-98730799D01*
X72692203Y-98734630D01*
X72692199Y-98734635D01*
X72536706Y-98903546D01*
X72536701Y-98903552D01*
X72533171Y-98907387D01*
X72530321Y-98911748D01*
X72530318Y-98911753D01*
X72446589Y-99039909D01*
X72401892Y-99108323D01*
X72399802Y-99113086D01*
X72399799Y-99113093D01*
X72307573Y-99323348D01*
X72307570Y-99323356D01*
X72305478Y-99328126D01*
X72304197Y-99333182D01*
X72304196Y-99333187D01*
X72247838Y-99555742D01*
X72246557Y-99560801D01*
X72246127Y-99565989D01*
X72246126Y-99565996D01*
X72227812Y-99787009D01*
X72226736Y-99800000D01*
X72246557Y-100039199D01*
X72247838Y-100044257D01*
X72293518Y-100224647D01*
X72305478Y-100271874D01*
X72307571Y-100276647D01*
X72307573Y-100276651D01*
X72366040Y-100409942D01*
X72401892Y-100491677D01*
X72533171Y-100692613D01*
X72695731Y-100869201D01*
X72699840Y-100872399D01*
X72699842Y-100872401D01*
X72825967Y-100970568D01*
X72861773Y-101014661D01*
X72874576Y-101070000D01*
X72861773Y-101125339D01*
X72825967Y-101169432D01*
X72699842Y-101267598D01*
X72699833Y-101267606D01*
X72695731Y-101270799D01*
X72692203Y-101274630D01*
X72692199Y-101274635D01*
X72536706Y-101443546D01*
X72536701Y-101443552D01*
X72533171Y-101447387D01*
X72530321Y-101451748D01*
X72530318Y-101451753D01*
X72401892Y-101648323D01*
X72400165Y-101647194D01*
X72360335Y-101688729D01*
X72295818Y-101706500D01*
X68754595Y-101706500D01*
X68706377Y-101696909D01*
X68665500Y-101669595D01*
X65320405Y-98324500D01*
X65293091Y-98283623D01*
X65283500Y-98235405D01*
X65283500Y-90495661D01*
X65293091Y-90447443D01*
X65320405Y-90406566D01*
X65386259Y-90340712D01*
X65442743Y-90308100D01*
X65507965Y-90308100D01*
X65564449Y-90340712D01*
X65654763Y-90431026D01*
X65666679Y-90440362D01*
X65800774Y-90521425D01*
X65814565Y-90527632D01*
X65965081Y-90574535D01*
X65978078Y-90577121D01*
X66032794Y-90582093D01*
X66042493Y-90579493D01*
X66046000Y-90566410D01*
X66046000Y-90566409D01*
X66554000Y-90566409D01*
X66557506Y-90579492D01*
X66567205Y-90582092D01*
X66621912Y-90577121D01*
X66634926Y-90574533D01*
X66785434Y-90527632D01*
X66799225Y-90521425D01*
X66933320Y-90440362D01*
X66945236Y-90431026D01*
X67056026Y-90320236D01*
X67065362Y-90308320D01*
X67146425Y-90174225D01*
X67152632Y-90160434D01*
X67199535Y-90009918D01*
X67202121Y-89996921D01*
X67207741Y-89935074D01*
X67208000Y-89929363D01*
X67208000Y-89870590D01*
X67204493Y-89857506D01*
X67191410Y-89854000D01*
X66570590Y-89854000D01*
X66557506Y-89857506D01*
X66554000Y-89870590D01*
X66554000Y-90566409D01*
X66046000Y-90566409D01*
X66046000Y-89329410D01*
X66554000Y-89329410D01*
X66557506Y-89342493D01*
X66570590Y-89346000D01*
X67191409Y-89346000D01*
X67204492Y-89342493D01*
X67207999Y-89329410D01*
X67207999Y-89270639D01*
X67207739Y-89264922D01*
X67202121Y-89203087D01*
X67199533Y-89190073D01*
X67152632Y-89039565D01*
X67146425Y-89025774D01*
X67065362Y-88891679D01*
X67056026Y-88879763D01*
X66945236Y-88768973D01*
X66933320Y-88759637D01*
X66799225Y-88678574D01*
X66785434Y-88672367D01*
X66634918Y-88625464D01*
X66621921Y-88622878D01*
X66567205Y-88617906D01*
X66557506Y-88620506D01*
X66554000Y-88633590D01*
X66554000Y-89329410D01*
X66046000Y-89329410D01*
X66046000Y-88633591D01*
X66042493Y-88620507D01*
X66032794Y-88617907D01*
X65978087Y-88622878D01*
X65965073Y-88625466D01*
X65814565Y-88672367D01*
X65800774Y-88678574D01*
X65666679Y-88759637D01*
X65654763Y-88768973D01*
X65564449Y-88859288D01*
X65507965Y-88891900D01*
X65442743Y-88891900D01*
X65386259Y-88859288D01*
X65295547Y-88768576D01*
X65290155Y-88763184D01*
X65257670Y-88743546D01*
X65149436Y-88678116D01*
X65149434Y-88678115D01*
X65142913Y-88674173D01*
X64978649Y-88622987D01*
X64972016Y-88622384D01*
X64972010Y-88622383D01*
X64910114Y-88616758D01*
X64910094Y-88616757D01*
X64907265Y-88616500D01*
X64904403Y-88616500D01*
X64614595Y-88616500D01*
X64566377Y-88606909D01*
X64525500Y-88579595D01*
X63770405Y-87824500D01*
X63743091Y-87783623D01*
X63733500Y-87735405D01*
X63733500Y-82025189D01*
X72227668Y-82025189D01*
X72246621Y-82253921D01*
X72248333Y-82264175D01*
X72304673Y-82486658D01*
X72308046Y-82496483D01*
X72400240Y-82706664D01*
X72405183Y-82715799D01*
X72484356Y-82836982D01*
X72492447Y-82844826D01*
X72501981Y-82838806D01*
X73309058Y-82031730D01*
X73315831Y-82019999D01*
X74044167Y-82019999D01*
X74050940Y-82031730D01*
X74858019Y-82838808D01*
X74867550Y-82844826D01*
X74875645Y-82836978D01*
X74954816Y-82715799D01*
X74959759Y-82706664D01*
X75051953Y-82496483D01*
X75055326Y-82486658D01*
X75111666Y-82264175D01*
X75113378Y-82253921D01*
X75132332Y-82025189D01*
X75132332Y-82014811D01*
X75113378Y-81786078D01*
X75111666Y-81775824D01*
X75055326Y-81553341D01*
X75051953Y-81543516D01*
X74959759Y-81333335D01*
X74954816Y-81324200D01*
X74875645Y-81203020D01*
X74867550Y-81195172D01*
X74858018Y-81201191D01*
X74050939Y-82008270D01*
X74044167Y-82019999D01*
X73315831Y-82019999D01*
X73309059Y-82008270D01*
X72501982Y-81201193D01*
X72492448Y-81195172D01*
X72484354Y-81203019D01*
X72405186Y-81324196D01*
X72400239Y-81333337D01*
X72308046Y-81543516D01*
X72304673Y-81553341D01*
X72248333Y-81775824D01*
X72246621Y-81786078D01*
X72227668Y-82014811D01*
X72227668Y-82025189D01*
X63733500Y-82025189D01*
X63733500Y-79480000D01*
X72226736Y-79480000D01*
X72246557Y-79719199D01*
X72305478Y-79951874D01*
X72401892Y-80171677D01*
X72533171Y-80372613D01*
X72695731Y-80549201D01*
X72833052Y-80656082D01*
X72871847Y-80706760D01*
X72880832Y-80769947D01*
X72857702Y-80829431D01*
X72856221Y-80831474D01*
X72862990Y-80843779D01*
X73668270Y-81649059D01*
X73679999Y-81655831D01*
X73691730Y-81649058D01*
X74497010Y-80843777D01*
X74503777Y-80831476D01*
X74502298Y-80829434D01*
X74479167Y-80769950D01*
X74488151Y-80706762D01*
X74526947Y-80656083D01*
X74534033Y-80650568D01*
X74664269Y-80549201D01*
X74826829Y-80372613D01*
X74958108Y-80171677D01*
X75054522Y-79951874D01*
X75113443Y-79719199D01*
X75133264Y-79480000D01*
X75113443Y-79240801D01*
X75054522Y-79008126D01*
X74958108Y-78788323D01*
X74826829Y-78587387D01*
X74664269Y-78410799D01*
X74534030Y-78309430D01*
X74498226Y-78265339D01*
X74485423Y-78210000D01*
X74498226Y-78154661D01*
X74534030Y-78110569D01*
X74664269Y-78009201D01*
X74826829Y-77832613D01*
X74958108Y-77631677D01*
X74959834Y-77632805D01*
X74999665Y-77591271D01*
X75064182Y-77573500D01*
X76625406Y-77573500D01*
X76673624Y-77583091D01*
X76714501Y-77610405D01*
X77929595Y-78825499D01*
X77956909Y-78866376D01*
X77966500Y-78914594D01*
X77966500Y-99021233D01*
X77965972Y-99032416D01*
X77964298Y-99039909D01*
X77964547Y-99047833D01*
X77964547Y-99047835D01*
X77966438Y-99107986D01*
X77966500Y-99111945D01*
X77966500Y-99139856D01*
X77966995Y-99143774D01*
X77966997Y-99143806D01*
X77967008Y-99143888D01*
X77967937Y-99155697D01*
X77969077Y-99191969D01*
X77969078Y-99191976D01*
X77969327Y-99199889D01*
X77971537Y-99207498D01*
X77971538Y-99207500D01*
X77974978Y-99219342D01*
X77978986Y-99238693D01*
X77981526Y-99258797D01*
X77984444Y-99266169D01*
X77984445Y-99266170D01*
X77997800Y-99299901D01*
X78001645Y-99311130D01*
X78011771Y-99345986D01*
X78011773Y-99345992D01*
X78013982Y-99353593D01*
X78018014Y-99360411D01*
X78018015Y-99360413D01*
X78024293Y-99371029D01*
X78032990Y-99388782D01*
X78040448Y-99407617D01*
X78045107Y-99414030D01*
X78045108Y-99414031D01*
X78066432Y-99443381D01*
X78072948Y-99453301D01*
X78091422Y-99484538D01*
X78095458Y-99491362D01*
X78101062Y-99496966D01*
X78101063Y-99496967D01*
X78109778Y-99505682D01*
X78122618Y-99520715D01*
X78134528Y-99537107D01*
X78140635Y-99542159D01*
X78140636Y-99542160D01*
X78168598Y-99565292D01*
X78177378Y-99573282D01*
X83226342Y-104622246D01*
X83233884Y-104630533D01*
X83238000Y-104637018D01*
X83243779Y-104642444D01*
X83243780Y-104642446D01*
X83287667Y-104683658D01*
X83290508Y-104686412D01*
X83310231Y-104706135D01*
X83313359Y-104708561D01*
X83313360Y-104708562D01*
X83313414Y-104708604D01*
X83322446Y-104716317D01*
X83354679Y-104746586D01*
X83361624Y-104750404D01*
X83372430Y-104756345D01*
X83388956Y-104767201D01*
X83398690Y-104774751D01*
X83398692Y-104774752D01*
X83404960Y-104779614D01*
X83445530Y-104797170D01*
X83456186Y-104802390D01*
X83487993Y-104819876D01*
X83494940Y-104823695D01*
X83514566Y-104828734D01*
X83533259Y-104835134D01*
X83551855Y-104843181D01*
X83559686Y-104844421D01*
X83559689Y-104844422D01*
X83576128Y-104847025D01*
X83595525Y-104850097D01*
X83607125Y-104852498D01*
X83649970Y-104863500D01*
X83670224Y-104863500D01*
X83689934Y-104865050D01*
X83709943Y-104868220D01*
X83753961Y-104864058D01*
X83765819Y-104863500D01*
X89989970Y-104863500D01*
X90109856Y-104863500D01*
X91271233Y-104863500D01*
X91282416Y-104864027D01*
X91289909Y-104865702D01*
X91357985Y-104863562D01*
X91361945Y-104863500D01*
X91385894Y-104863500D01*
X91389856Y-104863500D01*
X91393856Y-104862994D01*
X91405699Y-104862061D01*
X91449889Y-104860673D01*
X91469333Y-104855023D01*
X91488702Y-104851012D01*
X91508797Y-104848474D01*
X91549915Y-104832193D01*
X91561117Y-104828357D01*
X91603593Y-104816018D01*
X91621039Y-104805699D01*
X91638769Y-104797013D01*
X91657617Y-104789552D01*
X91693387Y-104763561D01*
X91703298Y-104757051D01*
X91741362Y-104734542D01*
X91755688Y-104720215D01*
X91770717Y-104707378D01*
X91787107Y-104695472D01*
X91815294Y-104661397D01*
X91823272Y-104652630D01*
X93102259Y-103373643D01*
X93110533Y-103366114D01*
X93117018Y-103362000D01*
X93163676Y-103312312D01*
X93166368Y-103309534D01*
X93186134Y-103289770D01*
X93188601Y-103286588D01*
X93196310Y-103277561D01*
X93226586Y-103245321D01*
X93236345Y-103227567D01*
X93247199Y-103211043D01*
X93259613Y-103195041D01*
X93277167Y-103154475D01*
X93282392Y-103143808D01*
X93299875Y-103112008D01*
X93299874Y-103112008D01*
X93303695Y-103105060D01*
X93308732Y-103085442D01*
X93315138Y-103066730D01*
X93323181Y-103048145D01*
X93330099Y-103004456D01*
X93332503Y-102992856D01*
X93332910Y-102991271D01*
X93343500Y-102950030D01*
X93343500Y-102929769D01*
X93345051Y-102910058D01*
X93346979Y-102897884D01*
X93348219Y-102890057D01*
X93344058Y-102846045D01*
X93343500Y-102834189D01*
X93343500Y-101671793D01*
X93345732Y-101648184D01*
X93345751Y-101648082D01*
X93347275Y-101640094D01*
X93343748Y-101584048D01*
X93343500Y-101576138D01*
X93343500Y-100418767D01*
X93344027Y-100407583D01*
X93345702Y-100400091D01*
X93343562Y-100332014D01*
X93343500Y-100328055D01*
X93343500Y-100304108D01*
X93343500Y-100300144D01*
X93342994Y-100296147D01*
X93342061Y-100284297D01*
X93340922Y-100248036D01*
X93340673Y-100240110D01*
X93338460Y-100232493D01*
X93337221Y-100224670D01*
X93337365Y-100224647D01*
X93333500Y-100197489D01*
X93333500Y-90014594D01*
X93343091Y-89966376D01*
X93370405Y-89925499D01*
X95935500Y-87360405D01*
X95976377Y-87333091D01*
X96024595Y-87323500D01*
X96026996Y-87323500D01*
X96085176Y-87337737D01*
X96130208Y-87377228D01*
X96223023Y-87509781D01*
X96380219Y-87666977D01*
X96477944Y-87735405D01*
X96552478Y-87787595D01*
X96562323Y-87794488D01*
X96672373Y-87845805D01*
X96725390Y-87892300D01*
X96745123Y-87960000D01*
X96725390Y-88027700D01*
X96672373Y-88074195D01*
X96567311Y-88123186D01*
X96567306Y-88123188D01*
X96562324Y-88125512D01*
X96557824Y-88128662D01*
X96557815Y-88128668D01*
X96384730Y-88249864D01*
X96384727Y-88249866D01*
X96380219Y-88253023D01*
X96376327Y-88256914D01*
X96376321Y-88256920D01*
X96226920Y-88406321D01*
X96226914Y-88406327D01*
X96223023Y-88410219D01*
X96219866Y-88414727D01*
X96219864Y-88414730D01*
X96098668Y-88587815D01*
X96098662Y-88587824D01*
X96095512Y-88592324D01*
X96093188Y-88597306D01*
X96093186Y-88597311D01*
X96003883Y-88788821D01*
X96003880Y-88788827D01*
X96001560Y-88793804D01*
X96000137Y-88799112D01*
X96000137Y-88799114D01*
X95945445Y-89003223D01*
X95945443Y-89003232D01*
X95944022Y-89008537D01*
X95943543Y-89014008D01*
X95943542Y-89014016D01*
X95926892Y-89204337D01*
X95924647Y-89230000D01*
X95925126Y-89235475D01*
X95943542Y-89445983D01*
X95943543Y-89445989D01*
X95944022Y-89451463D01*
X95945443Y-89456769D01*
X95945445Y-89456776D01*
X95989174Y-89619970D01*
X96001560Y-89666196D01*
X96003882Y-89671176D01*
X96003883Y-89671178D01*
X96007970Y-89679943D01*
X96095512Y-89867677D01*
X96098665Y-89872180D01*
X96098668Y-89872185D01*
X96138705Y-89929363D01*
X96223023Y-90049781D01*
X96380219Y-90206977D01*
X96562323Y-90334488D01*
X96672373Y-90385805D01*
X96725390Y-90432300D01*
X96745123Y-90500000D01*
X96725390Y-90567700D01*
X96672373Y-90614195D01*
X96567311Y-90663186D01*
X96567306Y-90663188D01*
X96562324Y-90665512D01*
X96557824Y-90668662D01*
X96557815Y-90668668D01*
X96384730Y-90789864D01*
X96384727Y-90789866D01*
X96380219Y-90793023D01*
X96376327Y-90796914D01*
X96376321Y-90796920D01*
X96226920Y-90946321D01*
X96226914Y-90946327D01*
X96223023Y-90950219D01*
X96219866Y-90954727D01*
X96219864Y-90954730D01*
X96098668Y-91127815D01*
X96098662Y-91127824D01*
X96095512Y-91132324D01*
X96093188Y-91137306D01*
X96093186Y-91137311D01*
X96003883Y-91328821D01*
X96003880Y-91328827D01*
X96001560Y-91333804D01*
X96000137Y-91339112D01*
X96000137Y-91339114D01*
X95945445Y-91543223D01*
X95945443Y-91543232D01*
X95944022Y-91548537D01*
X95943543Y-91554008D01*
X95943542Y-91554016D01*
X95930478Y-91703348D01*
X95924647Y-91770000D01*
X95925126Y-91775475D01*
X95943542Y-91985983D01*
X95943543Y-91985989D01*
X95944022Y-91991463D01*
X95945443Y-91996769D01*
X95945445Y-91996776D01*
X95980795Y-92128700D01*
X96001560Y-92206196D01*
X96003882Y-92211176D01*
X96003883Y-92211178D01*
X96072299Y-92357896D01*
X96095512Y-92407677D01*
X96098665Y-92412180D01*
X96098668Y-92412185D01*
X96107121Y-92424257D01*
X96223023Y-92589781D01*
X96380219Y-92746977D01*
X96562323Y-92874488D01*
X96672373Y-92925805D01*
X96725390Y-92972300D01*
X96745123Y-93040000D01*
X96725390Y-93107700D01*
X96672373Y-93154195D01*
X96567311Y-93203186D01*
X96567306Y-93203188D01*
X96562324Y-93205512D01*
X96557824Y-93208662D01*
X96557815Y-93208668D01*
X96384730Y-93329864D01*
X96384727Y-93329866D01*
X96380219Y-93333023D01*
X96376327Y-93336914D01*
X96376321Y-93336920D01*
X96226920Y-93486321D01*
X96226914Y-93486327D01*
X96223023Y-93490219D01*
X96219866Y-93494727D01*
X96219864Y-93494730D01*
X96098668Y-93667815D01*
X96098662Y-93667824D01*
X96095512Y-93672324D01*
X96093188Y-93677306D01*
X96093186Y-93677311D01*
X96003883Y-93868821D01*
X96003880Y-93868827D01*
X96001560Y-93873804D01*
X96000137Y-93879112D01*
X96000137Y-93879114D01*
X95945445Y-94083223D01*
X95945443Y-94083232D01*
X95944022Y-94088537D01*
X95943543Y-94094008D01*
X95943542Y-94094016D01*
X95928262Y-94268677D01*
X95924647Y-94310000D01*
X95925126Y-94315475D01*
X95943542Y-94525983D01*
X95943543Y-94525989D01*
X95944022Y-94531463D01*
X95945443Y-94536769D01*
X95945445Y-94536776D01*
X95982260Y-94674167D01*
X96001560Y-94746196D01*
X96003882Y-94751176D01*
X96003883Y-94751178D01*
X96093068Y-94942436D01*
X96095512Y-94947677D01*
X96098665Y-94952180D01*
X96098668Y-94952185D01*
X96163377Y-95044598D01*
X96223023Y-95129781D01*
X96380219Y-95286977D01*
X96484582Y-95360053D01*
X96557188Y-95410893D01*
X96562323Y-95414488D01*
X96763804Y-95508440D01*
X96978537Y-95565978D01*
X97200000Y-95585353D01*
X97421463Y-95565978D01*
X97636196Y-95508440D01*
X97837677Y-95414488D01*
X97901946Y-95369486D01*
X137503145Y-95369486D01*
X137510697Y-95377728D01*
X137558065Y-95410896D01*
X137567561Y-95416378D01*
X137758992Y-95505644D01*
X137769284Y-95509390D01*
X137973309Y-95564058D01*
X137984104Y-95565962D01*
X138194525Y-95584372D01*
X138205475Y-95584372D01*
X138415895Y-95565962D01*
X138426690Y-95564058D01*
X138630715Y-95509390D01*
X138641007Y-95505644D01*
X138832436Y-95416379D01*
X138841937Y-95410893D01*
X138889301Y-95377728D01*
X138896853Y-95369486D01*
X138890843Y-95360053D01*
X138211729Y-94680939D01*
X138199999Y-94674167D01*
X138188271Y-94680938D01*
X137509152Y-95360056D01*
X137503145Y-95369486D01*
X97901946Y-95369486D01*
X98019781Y-95286977D01*
X98176977Y-95129781D01*
X98304488Y-94947677D01*
X98398440Y-94746196D01*
X98455978Y-94531463D01*
X98474874Y-94315475D01*
X136925628Y-94315475D01*
X136944037Y-94525895D01*
X136945941Y-94536690D01*
X137000609Y-94740715D01*
X137004355Y-94751007D01*
X137093621Y-94942438D01*
X137099103Y-94951934D01*
X137132270Y-94999301D01*
X137140512Y-95006853D01*
X137149942Y-95000846D01*
X137829059Y-94321730D01*
X137835832Y-94309999D01*
X138564167Y-94309999D01*
X138570939Y-94321729D01*
X139250053Y-95000843D01*
X139259486Y-95006853D01*
X139267728Y-94999301D01*
X139300893Y-94951937D01*
X139306379Y-94942436D01*
X139395644Y-94751007D01*
X139399390Y-94740715D01*
X139454058Y-94536690D01*
X139455962Y-94525895D01*
X139474372Y-94315475D01*
X139474372Y-94304525D01*
X139455962Y-94094104D01*
X139454058Y-94083309D01*
X139399390Y-93879284D01*
X139395644Y-93868992D01*
X139306378Y-93677562D01*
X139300896Y-93668066D01*
X139267728Y-93620697D01*
X139259486Y-93613145D01*
X139250056Y-93619152D01*
X138570938Y-94298271D01*
X138564167Y-94309999D01*
X137835832Y-94309999D01*
X137829060Y-94298270D01*
X137149944Y-93619154D01*
X137140512Y-93613145D01*
X137132270Y-93620698D01*
X137099102Y-93668068D01*
X137093622Y-93677558D01*
X137004355Y-93868992D01*
X137000609Y-93879284D01*
X136945941Y-94083309D01*
X136944037Y-94094104D01*
X136925628Y-94304525D01*
X136925628Y-94315475D01*
X98474874Y-94315475D01*
X98475353Y-94310000D01*
X98455978Y-94088537D01*
X98398440Y-93873804D01*
X98304488Y-93672324D01*
X98287175Y-93647599D01*
X98267257Y-93619152D01*
X98176977Y-93490219D01*
X98019781Y-93333023D01*
X97915411Y-93259942D01*
X97842185Y-93208668D01*
X97842180Y-93208665D01*
X97837677Y-93205512D01*
X97727626Y-93154194D01*
X97674610Y-93107700D01*
X97654877Y-93040000D01*
X97674610Y-92972300D01*
X97727627Y-92925805D01*
X97837677Y-92874488D01*
X98019781Y-92746977D01*
X98176977Y-92589781D01*
X98304488Y-92407677D01*
X98398440Y-92206196D01*
X98455978Y-91991463D01*
X98475353Y-91770000D01*
X136924647Y-91770000D01*
X136925126Y-91775475D01*
X136943542Y-91985983D01*
X136943543Y-91985989D01*
X136944022Y-91991463D01*
X136945443Y-91996769D01*
X136945445Y-91996776D01*
X136980795Y-92128700D01*
X137001560Y-92206196D01*
X137003882Y-92211176D01*
X137003883Y-92211178D01*
X137072299Y-92357896D01*
X137095512Y-92407677D01*
X137098665Y-92412180D01*
X137098668Y-92412185D01*
X137107121Y-92424257D01*
X137223023Y-92589781D01*
X137380219Y-92746977D01*
X137562323Y-92874488D01*
X137629732Y-92905921D01*
X137672964Y-92926081D01*
X137725981Y-92972576D01*
X137745714Y-93040276D01*
X137725982Y-93107975D01*
X137672965Y-93154470D01*
X137567563Y-93203620D01*
X137558068Y-93209102D01*
X137510698Y-93242270D01*
X137503145Y-93250512D01*
X137509154Y-93259944D01*
X138188270Y-93939060D01*
X138199999Y-93945832D01*
X138211730Y-93939059D01*
X138890846Y-93259942D01*
X138896853Y-93250512D01*
X138889301Y-93242270D01*
X138841934Y-93209103D01*
X138832433Y-93203618D01*
X138727034Y-93154469D01*
X138674017Y-93107974D01*
X138654285Y-93040274D01*
X138674018Y-92972574D01*
X138727034Y-92926081D01*
X138837677Y-92874488D01*
X139019781Y-92746977D01*
X139176977Y-92589781D01*
X139304488Y-92407677D01*
X139398440Y-92206196D01*
X139455978Y-91991463D01*
X139475353Y-91770000D01*
X139455978Y-91548537D01*
X139398440Y-91333804D01*
X139304488Y-91132324D01*
X139287175Y-91107599D01*
X139187564Y-90965339D01*
X139176977Y-90950219D01*
X139019781Y-90793023D01*
X138948046Y-90742794D01*
X138842185Y-90668668D01*
X138842180Y-90668665D01*
X138837677Y-90665512D01*
X138727626Y-90614194D01*
X138674610Y-90567700D01*
X138654877Y-90500000D01*
X138674610Y-90432300D01*
X138727627Y-90385805D01*
X138837677Y-90334488D01*
X139019781Y-90206977D01*
X139176977Y-90049781D01*
X139304488Y-89867677D01*
X139398440Y-89666196D01*
X139455978Y-89451463D01*
X139475353Y-89230000D01*
X139455978Y-89008537D01*
X139398440Y-88793804D01*
X139304488Y-88592324D01*
X139287175Y-88567599D01*
X139250550Y-88515292D01*
X139176977Y-88410219D01*
X139019781Y-88253023D01*
X138913867Y-88178861D01*
X138842185Y-88128668D01*
X138842180Y-88128665D01*
X138837677Y-88125512D01*
X138727626Y-88074194D01*
X138674610Y-88027700D01*
X138654877Y-87960000D01*
X138674610Y-87892300D01*
X138727627Y-87845805D01*
X138837677Y-87794488D01*
X139019781Y-87666977D01*
X139176977Y-87509781D01*
X139304488Y-87327677D01*
X139398440Y-87126196D01*
X139455978Y-86911463D01*
X139475353Y-86690000D01*
X139455978Y-86468537D01*
X139398440Y-86253804D01*
X139304488Y-86052324D01*
X139287175Y-86027599D01*
X139227378Y-85942199D01*
X139176977Y-85870219D01*
X139019781Y-85713023D01*
X138948046Y-85662794D01*
X138842185Y-85588668D01*
X138842180Y-85588665D01*
X138837677Y-85585512D01*
X138636196Y-85491560D01*
X138551987Y-85468996D01*
X138426776Y-85435445D01*
X138426769Y-85435443D01*
X138421463Y-85434022D01*
X138415989Y-85433543D01*
X138415983Y-85433542D01*
X138205475Y-85415126D01*
X138200000Y-85414647D01*
X138194525Y-85415126D01*
X137984016Y-85433542D01*
X137984008Y-85433543D01*
X137978537Y-85434022D01*
X137973232Y-85435443D01*
X137973223Y-85435445D01*
X137769114Y-85490137D01*
X137769112Y-85490137D01*
X137763804Y-85491560D01*
X137758827Y-85493880D01*
X137758821Y-85493883D01*
X137567311Y-85583186D01*
X137567306Y-85583188D01*
X137562324Y-85585512D01*
X137557824Y-85588662D01*
X137557815Y-85588668D01*
X137384730Y-85709864D01*
X137384727Y-85709866D01*
X137380219Y-85713023D01*
X137376327Y-85716914D01*
X137376321Y-85716920D01*
X137226920Y-85866321D01*
X137226914Y-85866327D01*
X137223023Y-85870219D01*
X137219866Y-85874727D01*
X137219864Y-85874730D01*
X137098668Y-86047815D01*
X137098662Y-86047824D01*
X137095512Y-86052324D01*
X137093188Y-86057306D01*
X137093186Y-86057311D01*
X137003883Y-86248821D01*
X137003880Y-86248827D01*
X137001560Y-86253804D01*
X137000137Y-86259112D01*
X137000137Y-86259114D01*
X136945445Y-86463223D01*
X136945443Y-86463232D01*
X136944022Y-86468537D01*
X136943543Y-86474008D01*
X136943542Y-86474016D01*
X136930478Y-86623348D01*
X136924647Y-86690000D01*
X136925126Y-86695475D01*
X136943542Y-86905983D01*
X136943543Y-86905989D01*
X136944022Y-86911463D01*
X136945443Y-86916769D01*
X136945445Y-86916776D01*
X136993150Y-87094811D01*
X137001560Y-87126196D01*
X137095512Y-87327677D01*
X137098665Y-87332180D01*
X137098668Y-87332185D01*
X137172794Y-87438046D01*
X137223023Y-87509781D01*
X137380219Y-87666977D01*
X137477944Y-87735405D01*
X137552478Y-87787595D01*
X137562323Y-87794488D01*
X137672373Y-87845805D01*
X137725390Y-87892300D01*
X137745123Y-87960000D01*
X137725390Y-88027700D01*
X137672373Y-88074195D01*
X137567311Y-88123186D01*
X137567306Y-88123188D01*
X137562324Y-88125512D01*
X137557824Y-88128662D01*
X137557815Y-88128668D01*
X137384730Y-88249864D01*
X137384727Y-88249866D01*
X137380219Y-88253023D01*
X137376327Y-88256914D01*
X137376321Y-88256920D01*
X137226920Y-88406321D01*
X137226914Y-88406327D01*
X137223023Y-88410219D01*
X137219866Y-88414727D01*
X137219864Y-88414730D01*
X137098668Y-88587815D01*
X137098662Y-88587824D01*
X137095512Y-88592324D01*
X137093188Y-88597306D01*
X137093186Y-88597311D01*
X137003883Y-88788821D01*
X137003880Y-88788827D01*
X137001560Y-88793804D01*
X137000137Y-88799112D01*
X137000137Y-88799114D01*
X136945445Y-89003223D01*
X136945443Y-89003232D01*
X136944022Y-89008537D01*
X136943543Y-89014008D01*
X136943542Y-89014016D01*
X136926892Y-89204337D01*
X136924647Y-89230000D01*
X136925126Y-89235475D01*
X136943542Y-89445983D01*
X136943543Y-89445989D01*
X136944022Y-89451463D01*
X136945443Y-89456769D01*
X136945445Y-89456776D01*
X136989174Y-89619970D01*
X137001560Y-89666196D01*
X137003882Y-89671176D01*
X137003883Y-89671178D01*
X137007970Y-89679943D01*
X137095512Y-89867677D01*
X137098665Y-89872180D01*
X137098668Y-89872185D01*
X137138705Y-89929363D01*
X137223023Y-90049781D01*
X137380219Y-90206977D01*
X137562323Y-90334488D01*
X137672373Y-90385805D01*
X137725390Y-90432300D01*
X137745123Y-90500000D01*
X137725390Y-90567700D01*
X137672373Y-90614195D01*
X137567311Y-90663186D01*
X137567306Y-90663188D01*
X137562324Y-90665512D01*
X137557824Y-90668662D01*
X137557815Y-90668668D01*
X137384730Y-90789864D01*
X137384727Y-90789866D01*
X137380219Y-90793023D01*
X137376327Y-90796914D01*
X137376321Y-90796920D01*
X137226920Y-90946321D01*
X137226914Y-90946327D01*
X137223023Y-90950219D01*
X137219866Y-90954727D01*
X137219864Y-90954730D01*
X137098668Y-91127815D01*
X137098662Y-91127824D01*
X137095512Y-91132324D01*
X137093188Y-91137306D01*
X137093186Y-91137311D01*
X137003883Y-91328821D01*
X137003880Y-91328827D01*
X137001560Y-91333804D01*
X137000137Y-91339112D01*
X137000137Y-91339114D01*
X136945445Y-91543223D01*
X136945443Y-91543232D01*
X136944022Y-91548537D01*
X136943543Y-91554008D01*
X136943542Y-91554016D01*
X136930478Y-91703348D01*
X136924647Y-91770000D01*
X98475353Y-91770000D01*
X98455978Y-91548537D01*
X98398440Y-91333804D01*
X98304488Y-91132324D01*
X98287175Y-91107599D01*
X98187564Y-90965339D01*
X98176977Y-90950219D01*
X98019781Y-90793023D01*
X97948046Y-90742794D01*
X97842185Y-90668668D01*
X97842180Y-90668665D01*
X97837677Y-90665512D01*
X97727626Y-90614194D01*
X97674610Y-90567700D01*
X97654877Y-90500000D01*
X97674610Y-90432300D01*
X97727627Y-90385805D01*
X97837677Y-90334488D01*
X98019781Y-90206977D01*
X98176977Y-90049781D01*
X98304488Y-89867677D01*
X98398440Y-89666196D01*
X98455978Y-89451463D01*
X98475353Y-89230000D01*
X98455978Y-89008537D01*
X98398440Y-88793804D01*
X98304488Y-88592324D01*
X98287175Y-88567599D01*
X98250550Y-88515292D01*
X98176977Y-88410219D01*
X98019781Y-88253023D01*
X97913867Y-88178861D01*
X97842185Y-88128668D01*
X97842180Y-88128665D01*
X97837677Y-88125512D01*
X97727626Y-88074194D01*
X97674610Y-88027700D01*
X97654877Y-87960000D01*
X97674610Y-87892300D01*
X97727627Y-87845805D01*
X97837677Y-87794488D01*
X98019781Y-87666977D01*
X98176977Y-87509781D01*
X98304488Y-87327677D01*
X98398440Y-87126196D01*
X98455978Y-86911463D01*
X98475353Y-86690000D01*
X98455978Y-86468537D01*
X98398440Y-86253804D01*
X98304488Y-86052324D01*
X98287175Y-86027599D01*
X98227378Y-85942199D01*
X98176977Y-85870219D01*
X98019781Y-85713023D01*
X97948046Y-85662794D01*
X97842185Y-85588668D01*
X97842180Y-85588665D01*
X97837677Y-85585512D01*
X97636196Y-85491560D01*
X97551987Y-85468996D01*
X97426776Y-85435445D01*
X97426769Y-85435443D01*
X97421463Y-85434022D01*
X97415989Y-85433543D01*
X97415983Y-85433542D01*
X97205475Y-85415126D01*
X97200000Y-85414647D01*
X97194525Y-85415126D01*
X96984016Y-85433542D01*
X96984008Y-85433543D01*
X96978537Y-85434022D01*
X96973232Y-85435443D01*
X96973223Y-85435445D01*
X96769114Y-85490137D01*
X96769112Y-85490137D01*
X96763804Y-85491560D01*
X96758827Y-85493880D01*
X96758821Y-85493883D01*
X96567311Y-85583186D01*
X96567306Y-85583188D01*
X96562324Y-85585512D01*
X96557824Y-85588662D01*
X96557815Y-85588668D01*
X96384730Y-85709864D01*
X96384727Y-85709866D01*
X96380219Y-85713023D01*
X96376327Y-85716914D01*
X96376321Y-85716920D01*
X96226920Y-85866321D01*
X96226914Y-85866327D01*
X96223023Y-85870219D01*
X96219866Y-85874727D01*
X96219864Y-85874730D01*
X96130209Y-86002771D01*
X96085176Y-86042263D01*
X96026996Y-86056500D01*
X95788767Y-86056500D01*
X95777583Y-86055972D01*
X95770091Y-86054298D01*
X95762165Y-86054547D01*
X95702001Y-86056438D01*
X95698043Y-86056500D01*
X95670144Y-86056500D01*
X95666219Y-86056995D01*
X95666198Y-86056997D01*
X95666124Y-86057007D01*
X95654313Y-86057936D01*
X95618034Y-86059076D01*
X95618026Y-86059077D01*
X95610111Y-86059326D01*
X95602500Y-86061536D01*
X95602493Y-86061538D01*
X95590648Y-86064979D01*
X95571303Y-86068985D01*
X95559072Y-86070530D01*
X95559059Y-86070533D01*
X95551203Y-86071526D01*
X95543839Y-86074441D01*
X95543829Y-86074444D01*
X95510092Y-86087802D01*
X95498865Y-86091646D01*
X95464018Y-86101770D01*
X95464013Y-86101772D01*
X95456407Y-86103982D01*
X95449590Y-86108012D01*
X95449581Y-86108017D01*
X95438960Y-86114298D01*
X95421221Y-86122989D01*
X95409749Y-86127531D01*
X95409746Y-86127532D01*
X95402383Y-86130448D01*
X95395976Y-86135102D01*
X95395972Y-86135105D01*
X95366611Y-86156437D01*
X95356693Y-86162951D01*
X95325465Y-86181419D01*
X95325457Y-86181425D01*
X95318638Y-86185458D01*
X95313036Y-86191058D01*
X95313029Y-86191065D01*
X95304308Y-86199786D01*
X95289287Y-86212615D01*
X95279307Y-86219866D01*
X95279298Y-86219873D01*
X95272893Y-86224528D01*
X95267845Y-86230628D01*
X95267836Y-86230638D01*
X95244700Y-86258604D01*
X95236713Y-86267381D01*
X92307742Y-89196351D01*
X92299459Y-89203888D01*
X92292982Y-89208000D01*
X92287563Y-89213769D01*
X92287555Y-89213777D01*
X92246370Y-89257635D01*
X92243621Y-89260472D01*
X92226667Y-89277427D01*
X92226660Y-89277434D01*
X92223865Y-89280230D01*
X92221442Y-89283352D01*
X92221426Y-89283371D01*
X92221365Y-89283451D01*
X92213690Y-89292435D01*
X92188838Y-89318902D01*
X92188835Y-89318904D01*
X92183414Y-89324679D01*
X92179600Y-89331614D01*
X92179592Y-89331627D01*
X92173650Y-89342436D01*
X92162803Y-89358949D01*
X92155243Y-89368695D01*
X92155237Y-89368704D01*
X92150386Y-89374959D01*
X92147242Y-89382223D01*
X92147238Y-89382231D01*
X92132824Y-89415540D01*
X92127604Y-89426195D01*
X92110125Y-89457989D01*
X92110121Y-89457997D01*
X92106305Y-89464940D01*
X92104333Y-89472616D01*
X92104331Y-89472624D01*
X92101266Y-89484562D01*
X92094865Y-89503259D01*
X92089968Y-89514576D01*
X92089966Y-89514581D01*
X92086819Y-89521855D01*
X92085579Y-89529680D01*
X92085577Y-89529689D01*
X92079901Y-89565524D01*
X92077495Y-89577144D01*
X92068471Y-89612289D01*
X92068469Y-89612297D01*
X92066500Y-89619970D01*
X92066500Y-89627899D01*
X92066500Y-89640224D01*
X92064949Y-89659935D01*
X92063019Y-89672114D01*
X92063018Y-89672121D01*
X92061780Y-89679943D01*
X92062525Y-89687826D01*
X92062525Y-89687834D01*
X92065941Y-89723961D01*
X92066500Y-89735819D01*
X92066500Y-100251233D01*
X92065972Y-100262416D01*
X92064298Y-100269909D01*
X92064547Y-100277833D01*
X92064547Y-100277835D01*
X92066438Y-100337986D01*
X92066500Y-100341945D01*
X92066500Y-101528207D01*
X92064268Y-101551816D01*
X92064210Y-101552118D01*
X92064209Y-101552123D01*
X92062725Y-101559906D01*
X92063222Y-101567810D01*
X92063222Y-101567816D01*
X92066251Y-101615951D01*
X92066500Y-101623862D01*
X92066500Y-101639856D01*
X92066995Y-101643777D01*
X92066996Y-101643789D01*
X92068504Y-101655728D01*
X92069247Y-101663595D01*
X92072277Y-101711738D01*
X92072775Y-101719650D01*
X92074543Y-101725094D01*
X92076500Y-101745785D01*
X92076500Y-102555405D01*
X92066909Y-102603623D01*
X92039595Y-102644500D01*
X91124500Y-103559595D01*
X91083623Y-103586909D01*
X91035405Y-103596500D01*
X90150030Y-103596500D01*
X90019098Y-103596500D01*
X89962825Y-103583236D01*
X89918400Y-103546236D01*
X89895176Y-103493291D01*
X89898043Y-103435547D01*
X89926397Y-103385163D01*
X89936992Y-103373654D01*
X90066829Y-103232613D01*
X90198108Y-103031677D01*
X90294522Y-102811874D01*
X90353443Y-102579199D01*
X90373264Y-102340000D01*
X90353443Y-102100801D01*
X90294522Y-101868126D01*
X90198108Y-101648323D01*
X90066829Y-101447387D01*
X89904269Y-101270799D01*
X89774030Y-101169430D01*
X89738226Y-101125339D01*
X89725423Y-101070000D01*
X89738226Y-101014661D01*
X89774030Y-100970569D01*
X89904269Y-100869201D01*
X90066829Y-100692613D01*
X90198108Y-100491677D01*
X90294522Y-100271874D01*
X90353443Y-100039199D01*
X90373264Y-99800000D01*
X90353443Y-99560801D01*
X90294522Y-99328126D01*
X90198108Y-99108323D01*
X90066829Y-98907387D01*
X89904269Y-98730799D01*
X89774030Y-98629430D01*
X89738226Y-98585339D01*
X89725423Y-98530000D01*
X89738226Y-98474661D01*
X89774030Y-98430569D01*
X89904269Y-98329201D01*
X90066829Y-98152613D01*
X90198108Y-97951677D01*
X90294522Y-97731874D01*
X90353443Y-97499199D01*
X90373264Y-97260000D01*
X90353443Y-97020801D01*
X90294522Y-96788126D01*
X90198108Y-96568323D01*
X90066829Y-96367387D01*
X89904269Y-96190799D01*
X89774030Y-96089430D01*
X89738226Y-96045339D01*
X89725423Y-95990000D01*
X89738226Y-95934661D01*
X89774030Y-95890569D01*
X89904269Y-95789201D01*
X90066829Y-95612613D01*
X90198108Y-95411677D01*
X90294522Y-95191874D01*
X90353443Y-94959199D01*
X90373264Y-94720000D01*
X90353443Y-94480801D01*
X90294522Y-94248126D01*
X90198108Y-94028323D01*
X90066829Y-93827387D01*
X89904269Y-93650799D01*
X89774030Y-93549430D01*
X89738226Y-93505339D01*
X89725423Y-93450000D01*
X89738226Y-93394661D01*
X89774030Y-93350569D01*
X89904269Y-93249201D01*
X90066829Y-93072613D01*
X90198108Y-92871677D01*
X90294522Y-92651874D01*
X90353443Y-92419199D01*
X90373264Y-92180000D01*
X90353443Y-91940801D01*
X90294522Y-91708126D01*
X90198108Y-91488323D01*
X90066829Y-91287387D01*
X89904269Y-91110799D01*
X89774030Y-91009430D01*
X89738226Y-90965339D01*
X89725423Y-90910000D01*
X89738226Y-90854661D01*
X89774030Y-90810569D01*
X89904269Y-90709201D01*
X90066829Y-90532613D01*
X90198108Y-90331677D01*
X90294522Y-90111874D01*
X90353443Y-89879199D01*
X90373264Y-89640000D01*
X90353443Y-89400801D01*
X90294522Y-89168126D01*
X90198108Y-88948323D01*
X90066829Y-88747387D01*
X89904269Y-88570799D01*
X89774030Y-88469430D01*
X89738226Y-88425339D01*
X89725423Y-88370000D01*
X89738226Y-88314661D01*
X89774030Y-88270569D01*
X89904269Y-88169201D01*
X90066829Y-87992613D01*
X90198108Y-87791677D01*
X90294522Y-87571874D01*
X90353443Y-87339199D01*
X90373264Y-87100000D01*
X90353443Y-86860801D01*
X90294522Y-86628126D01*
X90198108Y-86408323D01*
X90066829Y-86207387D01*
X89904269Y-86030799D01*
X89774030Y-85929430D01*
X89738226Y-85885339D01*
X89725423Y-85830000D01*
X89738226Y-85774661D01*
X89774030Y-85730569D01*
X89904269Y-85629201D01*
X90066829Y-85452613D01*
X90198108Y-85251677D01*
X90294522Y-85031874D01*
X90353443Y-84799199D01*
X90373264Y-84560000D01*
X90353443Y-84320801D01*
X90294522Y-84088126D01*
X90198108Y-83868323D01*
X90066829Y-83667387D01*
X89904269Y-83490799D01*
X89774030Y-83389430D01*
X89738226Y-83345339D01*
X89725423Y-83290000D01*
X89738226Y-83234661D01*
X89774030Y-83190569D01*
X89904269Y-83089201D01*
X90066829Y-82912613D01*
X90198108Y-82711677D01*
X90294522Y-82491874D01*
X90353443Y-82259199D01*
X90373264Y-82020000D01*
X90353443Y-81780801D01*
X90294522Y-81548126D01*
X90198108Y-81328323D01*
X90066829Y-81127387D01*
X89904269Y-80950799D01*
X89774030Y-80849430D01*
X89738226Y-80805339D01*
X89725423Y-80750000D01*
X89738226Y-80694661D01*
X89774030Y-80650569D01*
X89904269Y-80549201D01*
X90066829Y-80372613D01*
X90198108Y-80171677D01*
X90294522Y-79951874D01*
X90353443Y-79719199D01*
X90373264Y-79480000D01*
X90353443Y-79240801D01*
X90294522Y-79008126D01*
X90198108Y-78788323D01*
X90066829Y-78587387D01*
X89904269Y-78410799D01*
X89900158Y-78407599D01*
X89900157Y-78407598D01*
X89766946Y-78303916D01*
X89728151Y-78253237D01*
X89719167Y-78190049D01*
X89742298Y-78130565D01*
X89743777Y-78128522D01*
X89737011Y-78116222D01*
X88931730Y-77310940D01*
X88919999Y-77304167D01*
X88908270Y-77310939D01*
X88102989Y-78116220D01*
X88096221Y-78128522D01*
X88097701Y-78130565D01*
X88120832Y-78190049D01*
X88111848Y-78253237D01*
X88073053Y-78303915D01*
X87939849Y-78407592D01*
X87939836Y-78407603D01*
X87935731Y-78410799D01*
X87932203Y-78414630D01*
X87932199Y-78414635D01*
X87776706Y-78583546D01*
X87776701Y-78583552D01*
X87773171Y-78587387D01*
X87770321Y-78591748D01*
X87770318Y-78591753D01*
X87730849Y-78652165D01*
X87641892Y-78788323D01*
X87639802Y-78793086D01*
X87639799Y-78793093D01*
X87547573Y-79003348D01*
X87547570Y-79003356D01*
X87545478Y-79008126D01*
X87486557Y-79240801D01*
X87486127Y-79245989D01*
X87486126Y-79245996D01*
X87467812Y-79467009D01*
X87466736Y-79480000D01*
X87486557Y-79719199D01*
X87545478Y-79951874D01*
X87641892Y-80171677D01*
X87773171Y-80372613D01*
X87935731Y-80549201D01*
X87939840Y-80552399D01*
X87939842Y-80552401D01*
X88065967Y-80650568D01*
X88101773Y-80694661D01*
X88114576Y-80750000D01*
X88101773Y-80805339D01*
X88065967Y-80849432D01*
X87939842Y-80947598D01*
X87939833Y-80947606D01*
X87935731Y-80950799D01*
X87932203Y-80954630D01*
X87932199Y-80954635D01*
X87776706Y-81123546D01*
X87776701Y-81123552D01*
X87773171Y-81127387D01*
X87770321Y-81131748D01*
X87770318Y-81131753D01*
X87723757Y-81203020D01*
X87641892Y-81328323D01*
X87639802Y-81333086D01*
X87639799Y-81333093D01*
X87547573Y-81543348D01*
X87547570Y-81543356D01*
X87545478Y-81548126D01*
X87544197Y-81553182D01*
X87544196Y-81553187D01*
X87503296Y-81714700D01*
X87486557Y-81780801D01*
X87486127Y-81785989D01*
X87486126Y-81785996D01*
X87482097Y-81834620D01*
X87466736Y-82020000D01*
X87467166Y-82025189D01*
X87486119Y-82253921D01*
X87486557Y-82259199D01*
X87526432Y-82416661D01*
X87526431Y-82478524D01*
X87496987Y-82532930D01*
X87445198Y-82566765D01*
X87383546Y-82571873D01*
X87326895Y-82547023D01*
X87288899Y-82498204D01*
X87283902Y-82486812D01*
X87277108Y-82471323D01*
X87145829Y-82270387D01*
X86983269Y-82093799D01*
X86979160Y-82090601D01*
X86979157Y-82090598D01*
X86797970Y-81949575D01*
X86793860Y-81946376D01*
X86582769Y-81832140D01*
X86577843Y-81830448D01*
X86577841Y-81830448D01*
X86448358Y-81785996D01*
X86355755Y-81754205D01*
X86320323Y-81748292D01*
X86124147Y-81715557D01*
X86124144Y-81715556D01*
X86119010Y-81714700D01*
X85878990Y-81714700D01*
X85873856Y-81715556D01*
X85873852Y-81715557D01*
X85647380Y-81753348D01*
X85647378Y-81753348D01*
X85642245Y-81754205D01*
X85637320Y-81755895D01*
X85637319Y-81755896D01*
X85420158Y-81830448D01*
X85420152Y-81830450D01*
X85415231Y-81832140D01*
X85410649Y-81834619D01*
X85410648Y-81834620D01*
X85208722Y-81943896D01*
X85208718Y-81943898D01*
X85204140Y-81946376D01*
X85200034Y-81949571D01*
X85200029Y-81949575D01*
X85018842Y-82090598D01*
X85018833Y-82090606D01*
X85014731Y-82093799D01*
X85011203Y-82097630D01*
X85011199Y-82097635D01*
X84855706Y-82266546D01*
X84855701Y-82266552D01*
X84852171Y-82270387D01*
X84849321Y-82274748D01*
X84849318Y-82274753D01*
X84723741Y-82466962D01*
X84720892Y-82471323D01*
X84718802Y-82476086D01*
X84718799Y-82476093D01*
X84626573Y-82686348D01*
X84626570Y-82686356D01*
X84624478Y-82691126D01*
X84623197Y-82696182D01*
X84623196Y-82696187D01*
X84587080Y-82838808D01*
X84565557Y-82923801D01*
X84565127Y-82928989D01*
X84565126Y-82928996D01*
X84552169Y-83085364D01*
X84545736Y-83163000D01*
X84546166Y-83168189D01*
X84560682Y-83343376D01*
X84565557Y-83402199D01*
X84624478Y-83634874D01*
X84626571Y-83639647D01*
X84626573Y-83639651D01*
X84718799Y-83849906D01*
X84720892Y-83854677D01*
X84852171Y-84055613D01*
X85014731Y-84232201D01*
X85018840Y-84235399D01*
X85018842Y-84235401D01*
X85144967Y-84333568D01*
X85180773Y-84377661D01*
X85193576Y-84433000D01*
X85180773Y-84488339D01*
X85144967Y-84532432D01*
X85018842Y-84630598D01*
X85018833Y-84630606D01*
X85014731Y-84633799D01*
X85011203Y-84637630D01*
X85011199Y-84637635D01*
X84855706Y-84806546D01*
X84855701Y-84806552D01*
X84852171Y-84810387D01*
X84849321Y-84814748D01*
X84849318Y-84814753D01*
X84723741Y-85006962D01*
X84720892Y-85011323D01*
X84718802Y-85016086D01*
X84718799Y-85016093D01*
X84626573Y-85226348D01*
X84626570Y-85226356D01*
X84624478Y-85231126D01*
X84623197Y-85236182D01*
X84623196Y-85236187D01*
X84573098Y-85434022D01*
X84565557Y-85463801D01*
X84565127Y-85468989D01*
X84565126Y-85468996D01*
X84555210Y-85588668D01*
X84545736Y-85703000D01*
X84546166Y-85708189D01*
X84560682Y-85883376D01*
X84565557Y-85942199D01*
X84624478Y-86174874D01*
X84626571Y-86179647D01*
X84626573Y-86179651D01*
X84661205Y-86258604D01*
X84720892Y-86394677D01*
X84852171Y-86595613D01*
X85014731Y-86772201D01*
X85204140Y-86919624D01*
X85415231Y-87033860D01*
X85642245Y-87111795D01*
X85878990Y-87151300D01*
X86113799Y-87151300D01*
X86119010Y-87151300D01*
X86355755Y-87111795D01*
X86582769Y-87033860D01*
X86793860Y-86919624D01*
X86983269Y-86772201D01*
X87145829Y-86595613D01*
X87277108Y-86394677D01*
X87373522Y-86174874D01*
X87432443Y-85942199D01*
X87452264Y-85703000D01*
X87432443Y-85463801D01*
X87392568Y-85306337D01*
X87392568Y-85244476D01*
X87422011Y-85190070D01*
X87473800Y-85156234D01*
X87535451Y-85151125D01*
X87592103Y-85175975D01*
X87630099Y-85224793D01*
X87639796Y-85246900D01*
X87639799Y-85246906D01*
X87641892Y-85251677D01*
X87773171Y-85452613D01*
X87935731Y-85629201D01*
X87939840Y-85632399D01*
X87939842Y-85632401D01*
X88065967Y-85730568D01*
X88101773Y-85774661D01*
X88114576Y-85830000D01*
X88101773Y-85885339D01*
X88065967Y-85929432D01*
X87939842Y-86027598D01*
X87939833Y-86027606D01*
X87935731Y-86030799D01*
X87932203Y-86034630D01*
X87932199Y-86034635D01*
X87776706Y-86203546D01*
X87776701Y-86203552D01*
X87773171Y-86207387D01*
X87770321Y-86211748D01*
X87770318Y-86211753D01*
X87650807Y-86394677D01*
X87641892Y-86408323D01*
X87639802Y-86413086D01*
X87639799Y-86413093D01*
X87547573Y-86623348D01*
X87547570Y-86623356D01*
X87545478Y-86628126D01*
X87486557Y-86860801D01*
X87486127Y-86865989D01*
X87486126Y-86865996D01*
X87467812Y-87087009D01*
X87466736Y-87100000D01*
X87467166Y-87105189D01*
X87486050Y-87333091D01*
X87486557Y-87339199D01*
X87545478Y-87571874D01*
X87547571Y-87576647D01*
X87547573Y-87576651D01*
X87588579Y-87670135D01*
X87641892Y-87791677D01*
X87773171Y-87992613D01*
X87935731Y-88169201D01*
X87939840Y-88172399D01*
X87939842Y-88172401D01*
X88065967Y-88270568D01*
X88101773Y-88314661D01*
X88114576Y-88370000D01*
X88101773Y-88425339D01*
X88065967Y-88469432D01*
X87939842Y-88567598D01*
X87939833Y-88567606D01*
X87935731Y-88570799D01*
X87932203Y-88574630D01*
X87932199Y-88574635D01*
X87776706Y-88743546D01*
X87776701Y-88743552D01*
X87773171Y-88747387D01*
X87770321Y-88751748D01*
X87770318Y-88751753D01*
X87678755Y-88891900D01*
X87641892Y-88948323D01*
X87639802Y-88953086D01*
X87639799Y-88953093D01*
X87547573Y-89163348D01*
X87547570Y-89163356D01*
X87545478Y-89168126D01*
X87544197Y-89173182D01*
X87544196Y-89173187D01*
X87487838Y-89395742D01*
X87486557Y-89400801D01*
X87486127Y-89405989D01*
X87486126Y-89405996D01*
X87471094Y-89587405D01*
X87466736Y-89640000D01*
X87467166Y-89645189D01*
X87485975Y-89872185D01*
X87486557Y-89879199D01*
X87545478Y-90111874D01*
X87547571Y-90116647D01*
X87547573Y-90116651D01*
X87637010Y-90320547D01*
X87641892Y-90331677D01*
X87773171Y-90532613D01*
X87935731Y-90709201D01*
X87939840Y-90712399D01*
X87939842Y-90712401D01*
X88065967Y-90810568D01*
X88101773Y-90854661D01*
X88114576Y-90910000D01*
X88101773Y-90965339D01*
X88065967Y-91009432D01*
X87939842Y-91107598D01*
X87939833Y-91107606D01*
X87935731Y-91110799D01*
X87932203Y-91114630D01*
X87932199Y-91114635D01*
X87776706Y-91283546D01*
X87776701Y-91283552D01*
X87773171Y-91287387D01*
X87770321Y-91291748D01*
X87770318Y-91291753D01*
X87644741Y-91483962D01*
X87641892Y-91488323D01*
X87639802Y-91493086D01*
X87639799Y-91493093D01*
X87547573Y-91703348D01*
X87547570Y-91703356D01*
X87545478Y-91708126D01*
X87486557Y-91940801D01*
X87486127Y-91945989D01*
X87486126Y-91945996D01*
X87470987Y-92128700D01*
X87466736Y-92180000D01*
X87467166Y-92185189D01*
X87485975Y-92412185D01*
X87486557Y-92419199D01*
X87545478Y-92651874D01*
X87547571Y-92656647D01*
X87547573Y-92656651D01*
X87588579Y-92750135D01*
X87641892Y-92871677D01*
X87773171Y-93072613D01*
X87935731Y-93249201D01*
X87939840Y-93252399D01*
X87939842Y-93252401D01*
X88065967Y-93350568D01*
X88101773Y-93394661D01*
X88114576Y-93450000D01*
X88101773Y-93505339D01*
X88065967Y-93549432D01*
X87939842Y-93647598D01*
X87939833Y-93647606D01*
X87935731Y-93650799D01*
X87932203Y-93654630D01*
X87932199Y-93654635D01*
X87776706Y-93823546D01*
X87776701Y-93823552D01*
X87773171Y-93827387D01*
X87770321Y-93831748D01*
X87770318Y-93831753D01*
X87644741Y-94023962D01*
X87641892Y-94028323D01*
X87639800Y-94033092D01*
X87639798Y-94033096D01*
X87630099Y-94055207D01*
X87592102Y-94104025D01*
X87535450Y-94128874D01*
X87473799Y-94123765D01*
X87422010Y-94089929D01*
X87392567Y-94035523D01*
X87392568Y-93973661D01*
X87432443Y-93816199D01*
X87452264Y-93577000D01*
X87432443Y-93337801D01*
X87373522Y-93105126D01*
X87277108Y-92885323D01*
X87145829Y-92684387D01*
X86983269Y-92507799D01*
X86979160Y-92504601D01*
X86979157Y-92504598D01*
X86797970Y-92363575D01*
X86793860Y-92360376D01*
X86582769Y-92246140D01*
X86577843Y-92244448D01*
X86577841Y-92244448D01*
X86374997Y-92174811D01*
X86355755Y-92168205D01*
X86320323Y-92162292D01*
X86124147Y-92129557D01*
X86124144Y-92129556D01*
X86119010Y-92128700D01*
X85878990Y-92128700D01*
X85873856Y-92129556D01*
X85873852Y-92129557D01*
X85647380Y-92167348D01*
X85647378Y-92167348D01*
X85642245Y-92168205D01*
X85637320Y-92169895D01*
X85637319Y-92169896D01*
X85420158Y-92244448D01*
X85420152Y-92244450D01*
X85415231Y-92246140D01*
X85410649Y-92248619D01*
X85410648Y-92248620D01*
X85208722Y-92357896D01*
X85208718Y-92357898D01*
X85204140Y-92360376D01*
X85200034Y-92363571D01*
X85200029Y-92363575D01*
X85018842Y-92504598D01*
X85018833Y-92504606D01*
X85014731Y-92507799D01*
X85011203Y-92511630D01*
X85011199Y-92511635D01*
X84855706Y-92680546D01*
X84855701Y-92680552D01*
X84852171Y-92684387D01*
X84849321Y-92688748D01*
X84849318Y-92688753D01*
X84723741Y-92880962D01*
X84720892Y-92885323D01*
X84718802Y-92890086D01*
X84718799Y-92890093D01*
X84626573Y-93100348D01*
X84626570Y-93100356D01*
X84624478Y-93105126D01*
X84623197Y-93110182D01*
X84623196Y-93110187D01*
X84588965Y-93245364D01*
X84565557Y-93337801D01*
X84565127Y-93342989D01*
X84565126Y-93342996D01*
X84553250Y-93486321D01*
X84545736Y-93577000D01*
X84546166Y-93582189D01*
X84554068Y-93677558D01*
X84565557Y-93816199D01*
X84624478Y-94048874D01*
X84626571Y-94053647D01*
X84626573Y-94053651D01*
X84714097Y-94253187D01*
X84720892Y-94268677D01*
X84852171Y-94469613D01*
X85014731Y-94646201D01*
X85018840Y-94649399D01*
X85018842Y-94649401D01*
X85144967Y-94747568D01*
X85180773Y-94791661D01*
X85193576Y-94847000D01*
X85180773Y-94902339D01*
X85144967Y-94946432D01*
X85018842Y-95044598D01*
X85018833Y-95044606D01*
X85014731Y-95047799D01*
X85011203Y-95051630D01*
X85011199Y-95051635D01*
X84855706Y-95220546D01*
X84855701Y-95220552D01*
X84852171Y-95224387D01*
X84849321Y-95228748D01*
X84849318Y-95228753D01*
X84730033Y-95411331D01*
X84720892Y-95425323D01*
X84718802Y-95430086D01*
X84718799Y-95430093D01*
X84626573Y-95640348D01*
X84626570Y-95640356D01*
X84624478Y-95645126D01*
X84565557Y-95877801D01*
X84565127Y-95882989D01*
X84565126Y-95882996D01*
X84551837Y-96043376D01*
X84545736Y-96117000D01*
X84565557Y-96356199D01*
X84624478Y-96588874D01*
X84626571Y-96593647D01*
X84626573Y-96593651D01*
X84714097Y-96793187D01*
X84720892Y-96808677D01*
X84852171Y-97009613D01*
X85014731Y-97186201D01*
X85204140Y-97333624D01*
X85415231Y-97447860D01*
X85642245Y-97525795D01*
X85878990Y-97565300D01*
X86113799Y-97565300D01*
X86119010Y-97565300D01*
X86355755Y-97525795D01*
X86582769Y-97447860D01*
X86793860Y-97333624D01*
X86983269Y-97186201D01*
X87145829Y-97009613D01*
X87277108Y-96808677D01*
X87288899Y-96781795D01*
X87326894Y-96732977D01*
X87383545Y-96708126D01*
X87445197Y-96713233D01*
X87496987Y-96747068D01*
X87526431Y-96801475D01*
X87526432Y-96863337D01*
X87486557Y-97020801D01*
X87486127Y-97025989D01*
X87486126Y-97025996D01*
X87473169Y-97182364D01*
X87466736Y-97260000D01*
X87467166Y-97265189D01*
X87482302Y-97447860D01*
X87486557Y-97499199D01*
X87545478Y-97731874D01*
X87641892Y-97951677D01*
X87773171Y-98152613D01*
X87935731Y-98329201D01*
X87939840Y-98332399D01*
X87939842Y-98332401D01*
X88065967Y-98430568D01*
X88101773Y-98474661D01*
X88114576Y-98530000D01*
X88101773Y-98585339D01*
X88065967Y-98629432D01*
X87939842Y-98727598D01*
X87939833Y-98727606D01*
X87935731Y-98730799D01*
X87932203Y-98734630D01*
X87932199Y-98734635D01*
X87776706Y-98903546D01*
X87776701Y-98903552D01*
X87773171Y-98907387D01*
X87770321Y-98911748D01*
X87770318Y-98911753D01*
X87686589Y-99039909D01*
X87641892Y-99108323D01*
X87639802Y-99113086D01*
X87639799Y-99113093D01*
X87547573Y-99323348D01*
X87547570Y-99323356D01*
X87545478Y-99328126D01*
X87544197Y-99333182D01*
X87544196Y-99333187D01*
X87487838Y-99555742D01*
X87486557Y-99560801D01*
X87486127Y-99565989D01*
X87486126Y-99565996D01*
X87467812Y-99787009D01*
X87466736Y-99800000D01*
X87486557Y-100039199D01*
X87487838Y-100044257D01*
X87533518Y-100224647D01*
X87545478Y-100271874D01*
X87547571Y-100276647D01*
X87547573Y-100276651D01*
X87606040Y-100409942D01*
X87641892Y-100491677D01*
X87773171Y-100692613D01*
X87935731Y-100869201D01*
X87939840Y-100872399D01*
X87939842Y-100872401D01*
X88065967Y-100970568D01*
X88101773Y-101014661D01*
X88114576Y-101070000D01*
X88101773Y-101125339D01*
X88065967Y-101169432D01*
X87939842Y-101267598D01*
X87939833Y-101267606D01*
X87935731Y-101270799D01*
X87932203Y-101274630D01*
X87932199Y-101274635D01*
X87776706Y-101443546D01*
X87776701Y-101443552D01*
X87773171Y-101447387D01*
X87770321Y-101451748D01*
X87770318Y-101451753D01*
X87663042Y-101615951D01*
X87641892Y-101648323D01*
X87639802Y-101653086D01*
X87639799Y-101653093D01*
X87547573Y-101863348D01*
X87547570Y-101863356D01*
X87545478Y-101868126D01*
X87486557Y-102100801D01*
X87486127Y-102105989D01*
X87486126Y-102105996D01*
X87467812Y-102327009D01*
X87466736Y-102340000D01*
X87486557Y-102579199D01*
X87545478Y-102811874D01*
X87547571Y-102816647D01*
X87547573Y-102816651D01*
X87627389Y-102998614D01*
X87641892Y-103031677D01*
X87773171Y-103232613D01*
X87826125Y-103290137D01*
X87913603Y-103385163D01*
X87941957Y-103435547D01*
X87944824Y-103493291D01*
X87921600Y-103546236D01*
X87877175Y-103583236D01*
X87820902Y-103596500D01*
X84044594Y-103596500D01*
X83996376Y-103586909D01*
X83955499Y-103559595D01*
X79270405Y-98874500D01*
X79243091Y-98833623D01*
X79233500Y-98785405D01*
X79233500Y-78678768D01*
X79234027Y-78667584D01*
X79235702Y-78660092D01*
X79233561Y-78592001D01*
X79233500Y-78588044D01*
X79233500Y-78564109D01*
X79233500Y-78560144D01*
X79232995Y-78556152D01*
X79232062Y-78544305D01*
X79230674Y-78500111D01*
X79225017Y-78480642D01*
X79221013Y-78461302D01*
X79218474Y-78441203D01*
X79202200Y-78400099D01*
X79198356Y-78388872D01*
X79188230Y-78354017D01*
X79188229Y-78354016D01*
X79186019Y-78346407D01*
X79175703Y-78328964D01*
X79167005Y-78311209D01*
X79159552Y-78292383D01*
X79133561Y-78256609D01*
X79127055Y-78246705D01*
X79104542Y-78208638D01*
X79090217Y-78194313D01*
X79077382Y-78179286D01*
X79065472Y-78162893D01*
X79059367Y-78157842D01*
X79059360Y-78157835D01*
X79031394Y-78134700D01*
X79022615Y-78126711D01*
X77841094Y-76945189D01*
X87467668Y-76945189D01*
X87486621Y-77173921D01*
X87488333Y-77184175D01*
X87544673Y-77406658D01*
X87548046Y-77416483D01*
X87640240Y-77626664D01*
X87645183Y-77635799D01*
X87724356Y-77756982D01*
X87732447Y-77764826D01*
X87741981Y-77758806D01*
X88549058Y-76951730D01*
X88555831Y-76939999D01*
X89284167Y-76939999D01*
X89290939Y-76951728D01*
X90098018Y-77758807D01*
X90107550Y-77764826D01*
X90115645Y-77756978D01*
X90194816Y-77635799D01*
X90199759Y-77626664D01*
X90291953Y-77416483D01*
X90295326Y-77406658D01*
X90351666Y-77184175D01*
X90353378Y-77173921D01*
X90372332Y-76945189D01*
X90372332Y-76934811D01*
X90353378Y-76706078D01*
X90351666Y-76695824D01*
X90295326Y-76473341D01*
X90291953Y-76463516D01*
X90199759Y-76253335D01*
X90194816Y-76244200D01*
X90115645Y-76123020D01*
X90107550Y-76115172D01*
X90098019Y-76121190D01*
X89290940Y-76928268D01*
X89284167Y-76939999D01*
X88555831Y-76939999D01*
X88549059Y-76928270D01*
X87741982Y-76121193D01*
X87732448Y-76115172D01*
X87724354Y-76123019D01*
X87645186Y-76244196D01*
X87640239Y-76253337D01*
X87548046Y-76463516D01*
X87544673Y-76473341D01*
X87488333Y-76695824D01*
X87486621Y-76706078D01*
X87467668Y-76934811D01*
X87467668Y-76945189D01*
X77841094Y-76945189D01*
X77443646Y-76547741D01*
X77436112Y-76539463D01*
X77432000Y-76532982D01*
X77382347Y-76486355D01*
X77379505Y-76483600D01*
X77362574Y-76466669D01*
X77362573Y-76466668D01*
X77359770Y-76463865D01*
X77356575Y-76461386D01*
X77347554Y-76453682D01*
X77336571Y-76443369D01*
X77315321Y-76423414D01*
X77308377Y-76419596D01*
X77308371Y-76419592D01*
X77297566Y-76413652D01*
X77281047Y-76402801D01*
X77265041Y-76390386D01*
X77257766Y-76387238D01*
X77257763Y-76387236D01*
X77224466Y-76372828D01*
X77213804Y-76367605D01*
X77182007Y-76350124D01*
X77182005Y-76350123D01*
X77175060Y-76346305D01*
X77167383Y-76344334D01*
X77167381Y-76344333D01*
X77155438Y-76341267D01*
X77136734Y-76334863D01*
X77125420Y-76329967D01*
X77125418Y-76329966D01*
X77118145Y-76326819D01*
X77110319Y-76325579D01*
X77110318Y-76325579D01*
X77074475Y-76319902D01*
X77062859Y-76317496D01*
X77020030Y-76306500D01*
X77012101Y-76306500D01*
X76999776Y-76306500D01*
X76980065Y-76304949D01*
X76967885Y-76303019D01*
X76967878Y-76303018D01*
X76960057Y-76301780D01*
X76952173Y-76302525D01*
X76952165Y-76302525D01*
X76916039Y-76305941D01*
X76904181Y-76306500D01*
X75064182Y-76306500D01*
X74999665Y-76288729D01*
X74959834Y-76247194D01*
X74958108Y-76248323D01*
X74826829Y-76047387D01*
X74664269Y-75870799D01*
X74534030Y-75769430D01*
X74498226Y-75725339D01*
X74485423Y-75670000D01*
X74498226Y-75614661D01*
X74534030Y-75570569D01*
X74664269Y-75469201D01*
X74826829Y-75292613D01*
X74958108Y-75091677D01*
X75054522Y-74871874D01*
X75113443Y-74639199D01*
X75133264Y-74400000D01*
X75113443Y-74160801D01*
X75054522Y-73928126D01*
X74958108Y-73708323D01*
X74826829Y-73507387D01*
X74827532Y-73506927D01*
X74803349Y-73446803D01*
X74815477Y-73378464D01*
X74861954Y-73326916D01*
X74928676Y-73307800D01*
X75064757Y-73307800D01*
X75075105Y-73306942D01*
X75301492Y-73269165D01*
X75311562Y-73266615D01*
X75528636Y-73192094D01*
X75538153Y-73187919D01*
X75740004Y-73078683D01*
X75748697Y-73073003D01*
X75765540Y-73059893D01*
X75773777Y-73048522D01*
X76666221Y-73048522D01*
X76674458Y-73059892D01*
X76691300Y-73073002D01*
X76699997Y-73078684D01*
X76901846Y-73187919D01*
X76911363Y-73192094D01*
X77128437Y-73266615D01*
X77138507Y-73269165D01*
X77364894Y-73306942D01*
X77375243Y-73307800D01*
X77604757Y-73307800D01*
X77615105Y-73306942D01*
X77841492Y-73269165D01*
X77851562Y-73266615D01*
X78068636Y-73192094D01*
X78078153Y-73187919D01*
X78280004Y-73078683D01*
X78288697Y-73073003D01*
X78305540Y-73059893D01*
X78313777Y-73048522D01*
X78307011Y-73036222D01*
X77501730Y-72230940D01*
X77489999Y-72224167D01*
X77478270Y-72230939D01*
X76672989Y-73036220D01*
X76666221Y-73048522D01*
X75773777Y-73048522D01*
X75767011Y-73036222D01*
X74950000Y-72219210D01*
X74590789Y-71859999D01*
X75314167Y-71859999D01*
X75320940Y-71871730D01*
X76128019Y-72678808D01*
X76138363Y-72685339D01*
X76143494Y-72683607D01*
X76188015Y-72658513D01*
X76251979Y-72658512D01*
X76296506Y-72683608D01*
X76301634Y-72685339D01*
X76311981Y-72678806D01*
X77119058Y-71871730D01*
X77125831Y-71859999D01*
X77854167Y-71859999D01*
X77860940Y-71871730D01*
X78668017Y-72678806D01*
X78678364Y-72685339D01*
X78688798Y-72681817D01*
X78713610Y-72666616D01*
X78768339Y-72660617D01*
X78820400Y-72678527D01*
X78859855Y-72716926D01*
X78880314Y-72748242D01*
X78880320Y-72748250D01*
X78883171Y-72752613D01*
X79045731Y-72929201D01*
X79049840Y-72932399D01*
X79049842Y-72932401D01*
X79075739Y-72952557D01*
X79235140Y-73076624D01*
X79446231Y-73190860D01*
X79673245Y-73268795D01*
X79909990Y-73308300D01*
X80144799Y-73308300D01*
X80150010Y-73308300D01*
X80386755Y-73268795D01*
X80613769Y-73190860D01*
X80824860Y-73076624D01*
X81014269Y-72929201D01*
X81176829Y-72752613D01*
X81194517Y-72725538D01*
X81240030Y-72683642D01*
X81300000Y-72668455D01*
X81359970Y-72683642D01*
X81405482Y-72725538D01*
X81423171Y-72752613D01*
X81585731Y-72929201D01*
X81589840Y-72932399D01*
X81589842Y-72932401D01*
X81615739Y-72952557D01*
X81775140Y-73076624D01*
X81986231Y-73190860D01*
X82213245Y-73268795D01*
X82449990Y-73308300D01*
X82684799Y-73308300D01*
X82690010Y-73308300D01*
X82926755Y-73268795D01*
X83153769Y-73190860D01*
X83364860Y-73076624D01*
X83554269Y-72929201D01*
X83716829Y-72752613D01*
X83734517Y-72725538D01*
X83780030Y-72683642D01*
X83840000Y-72668455D01*
X83899970Y-72683642D01*
X83945482Y-72725538D01*
X83963171Y-72752613D01*
X84125731Y-72929201D01*
X84129840Y-72932399D01*
X84129842Y-72932401D01*
X84155739Y-72952557D01*
X84315140Y-73076624D01*
X84526231Y-73190860D01*
X84753245Y-73268795D01*
X84989990Y-73308300D01*
X85224799Y-73308300D01*
X85230010Y-73308300D01*
X85466755Y-73268795D01*
X85693769Y-73190860D01*
X85904860Y-73076624D01*
X86094269Y-72929201D01*
X86256829Y-72752613D01*
X86274517Y-72725538D01*
X86320030Y-72683642D01*
X86380000Y-72668455D01*
X86439970Y-72683642D01*
X86485482Y-72725538D01*
X86503171Y-72752613D01*
X86665731Y-72929201D01*
X86669840Y-72932399D01*
X86669842Y-72932401D01*
X86695739Y-72952557D01*
X86855140Y-73076624D01*
X87066231Y-73190860D01*
X87293245Y-73268795D01*
X87529990Y-73308300D01*
X87535201Y-73308300D01*
X87670935Y-73308300D01*
X87737658Y-73327417D01*
X87784135Y-73378966D01*
X87796262Y-73447306D01*
X87772318Y-73506830D01*
X87773171Y-73507387D01*
X87770369Y-73511674D01*
X87770367Y-73511677D01*
X87770325Y-73511742D01*
X87770321Y-73511748D01*
X87644741Y-73703962D01*
X87641892Y-73708323D01*
X87639802Y-73713086D01*
X87639799Y-73713093D01*
X87547573Y-73923348D01*
X87547570Y-73923356D01*
X87545478Y-73928126D01*
X87544197Y-73933182D01*
X87544196Y-73933187D01*
X87500015Y-74107656D01*
X87486557Y-74160801D01*
X87486127Y-74165989D01*
X87486126Y-74165996D01*
X87469744Y-74363695D01*
X87466736Y-74400000D01*
X87467166Y-74405189D01*
X87485905Y-74631340D01*
X87486557Y-74639199D01*
X87505550Y-74714200D01*
X87539134Y-74846824D01*
X87545478Y-74871874D01*
X87547571Y-74876647D01*
X87547573Y-74876651D01*
X87620580Y-75043091D01*
X87641892Y-75091677D01*
X87773171Y-75292613D01*
X87935731Y-75469201D01*
X88073052Y-75576082D01*
X88111847Y-75626760D01*
X88120832Y-75689947D01*
X88097702Y-75749431D01*
X88096221Y-75751474D01*
X88102990Y-75763779D01*
X88908270Y-76569059D01*
X88919999Y-76575831D01*
X88931730Y-76569058D01*
X89737010Y-75763777D01*
X89743777Y-75751476D01*
X89742298Y-75749434D01*
X89719167Y-75689950D01*
X89728151Y-75626762D01*
X89766947Y-75576083D01*
X89797191Y-75552543D01*
X89904269Y-75469201D01*
X90066829Y-75292613D01*
X90198108Y-75091677D01*
X90199834Y-75092805D01*
X90239665Y-75051271D01*
X90304182Y-75033500D01*
X92605406Y-75033500D01*
X92653624Y-75043091D01*
X92694501Y-75070405D01*
X93191084Y-75566988D01*
X93218095Y-75607140D01*
X93227979Y-75654511D01*
X93219280Y-75702112D01*
X93182826Y-75794999D01*
X93181779Y-75799582D01*
X93181776Y-75799595D01*
X93126895Y-76040045D01*
X93125845Y-76044647D01*
X93125492Y-76049346D01*
X93125492Y-76049352D01*
X93114555Y-76195303D01*
X93106709Y-76300000D01*
X93107061Y-76304697D01*
X93125274Y-76547741D01*
X93125845Y-76555353D01*
X93126894Y-76559951D01*
X93126895Y-76559954D01*
X93160247Y-76706078D01*
X93182826Y-76805001D01*
X93184549Y-76809392D01*
X93184550Y-76809394D01*
X93206505Y-76865334D01*
X93276378Y-77043369D01*
X93278733Y-77047449D01*
X93278737Y-77047456D01*
X93351800Y-77174003D01*
X93404413Y-77265131D01*
X93475313Y-77354037D01*
X93548067Y-77445269D01*
X93564069Y-77465334D01*
X93567518Y-77468534D01*
X93748325Y-77636299D01*
X93748330Y-77636303D01*
X93751781Y-77639505D01*
X93755675Y-77642160D01*
X93755679Y-77642163D01*
X93819683Y-77685800D01*
X93963355Y-77783754D01*
X94194065Y-77894858D01*
X94198569Y-77896247D01*
X94198571Y-77896248D01*
X94250473Y-77912257D01*
X94438757Y-77970335D01*
X94691966Y-78008500D01*
X94943318Y-78008500D01*
X94948034Y-78008500D01*
X95201243Y-77970335D01*
X95445935Y-77894858D01*
X95676646Y-77783754D01*
X95888219Y-77639505D01*
X95989831Y-77545223D01*
X98192000Y-77545223D01*
X98192359Y-77551938D01*
X98197662Y-77601257D01*
X98201259Y-77616478D01*
X98246405Y-77737519D01*
X98254954Y-77753175D01*
X98331697Y-77855692D01*
X98344307Y-77868302D01*
X98446824Y-77945045D01*
X98462480Y-77953594D01*
X98583521Y-77998740D01*
X98598742Y-78002337D01*
X98648061Y-78007640D01*
X98654777Y-78008000D01*
X99629410Y-78008000D01*
X99642493Y-78004493D01*
X99646000Y-77991410D01*
X100154000Y-77991410D01*
X100157506Y-78004493D01*
X100170590Y-78008000D01*
X101145223Y-78008000D01*
X101151938Y-78007640D01*
X101201257Y-78002337D01*
X101216478Y-77998740D01*
X101337519Y-77953594D01*
X101353175Y-77945045D01*
X101455692Y-77868302D01*
X101468302Y-77855692D01*
X101545045Y-77753175D01*
X101553594Y-77737519D01*
X101598740Y-77616478D01*
X101602337Y-77601257D01*
X101607640Y-77551938D01*
X101608000Y-77545223D01*
X101608000Y-77074431D01*
X107428236Y-77074431D01*
X107435902Y-77082615D01*
X107579711Y-77180663D01*
X107587855Y-77185365D01*
X107809998Y-77292343D01*
X107818754Y-77295780D01*
X108054367Y-77368457D01*
X108063524Y-77370547D01*
X108307341Y-77407297D01*
X108316719Y-77408000D01*
X108563281Y-77408000D01*
X108572658Y-77407297D01*
X108816475Y-77370547D01*
X108825632Y-77368457D01*
X109061245Y-77295780D01*
X109070001Y-77292343D01*
X109292145Y-77185365D01*
X109300289Y-77180664D01*
X109444096Y-77082615D01*
X109451763Y-77074430D01*
X109445750Y-77064960D01*
X108451729Y-76070939D01*
X108440000Y-76064167D01*
X108428270Y-76070939D01*
X107434250Y-77064958D01*
X107428236Y-77074431D01*
X101608000Y-77074431D01*
X101608000Y-76570590D01*
X101604493Y-76557506D01*
X101591410Y-76554000D01*
X100170590Y-76554000D01*
X100157506Y-76557506D01*
X100154000Y-76570590D01*
X100154000Y-77991410D01*
X99646000Y-77991410D01*
X99646000Y-76570590D01*
X99642493Y-76557506D01*
X99629410Y-76554000D01*
X98208590Y-76554000D01*
X98195506Y-76557506D01*
X98192000Y-76570590D01*
X98192000Y-77545223D01*
X95989831Y-77545223D01*
X96075931Y-77465334D01*
X96235587Y-77265131D01*
X96363622Y-77043369D01*
X96457174Y-76805001D01*
X96514155Y-76555353D01*
X96533291Y-76300000D01*
X96514155Y-76044647D01*
X96510677Y-76029410D01*
X98192000Y-76029410D01*
X98195506Y-76042493D01*
X98208590Y-76046000D01*
X99629410Y-76046000D01*
X99642493Y-76042493D01*
X99646000Y-76029410D01*
X100154000Y-76029410D01*
X100157506Y-76042493D01*
X100170590Y-76046000D01*
X101591410Y-76046000D01*
X101604493Y-76042493D01*
X101608000Y-76029410D01*
X101608000Y-75704697D01*
X106727563Y-75704697D01*
X106745988Y-75950572D01*
X106747391Y-75959879D01*
X106802255Y-76200253D01*
X106805029Y-76209246D01*
X106895106Y-76438758D01*
X106899189Y-76447238D01*
X107022471Y-76660767D01*
X107027762Y-76668528D01*
X107054160Y-76701631D01*
X107065577Y-76709731D01*
X107077829Y-76702959D01*
X108069060Y-75711729D01*
X108075832Y-75699999D01*
X108804167Y-75699999D01*
X108810939Y-75711729D01*
X109802169Y-76702959D01*
X109814422Y-76709731D01*
X109825838Y-76701631D01*
X109852234Y-76668533D01*
X109857531Y-76660763D01*
X109980810Y-76447238D01*
X109984893Y-76438758D01*
X110074970Y-76209246D01*
X110077744Y-76200253D01*
X110132608Y-75959879D01*
X110134011Y-75950572D01*
X110152437Y-75704697D01*
X110152437Y-75700000D01*
X111806709Y-75700000D01*
X111807061Y-75704697D01*
X111825486Y-75950572D01*
X111825845Y-75955353D01*
X111826894Y-75959951D01*
X111826895Y-75959954D01*
X111881742Y-76200253D01*
X111882826Y-76205001D01*
X111884549Y-76209392D01*
X111884550Y-76209394D01*
X111901701Y-76253093D01*
X111976378Y-76443369D01*
X111978733Y-76447449D01*
X111978737Y-76447456D01*
X112049829Y-76570590D01*
X112104413Y-76665131D01*
X112264069Y-76865334D01*
X112267518Y-76868534D01*
X112448325Y-77036299D01*
X112448330Y-77036303D01*
X112451781Y-77039505D01*
X112455675Y-77042160D01*
X112455679Y-77042163D01*
X112595899Y-77137763D01*
X112663355Y-77183754D01*
X112894065Y-77294858D01*
X113138757Y-77370335D01*
X113391966Y-77408500D01*
X113643318Y-77408500D01*
X113648034Y-77408500D01*
X113901243Y-77370335D01*
X114145935Y-77294858D01*
X114376646Y-77183754D01*
X114588219Y-77039505D01*
X114686150Y-76948638D01*
X116891500Y-76948638D01*
X116891859Y-76951985D01*
X116891860Y-76951988D01*
X116897168Y-77001367D01*
X116897169Y-77001373D01*
X116898011Y-77009201D01*
X116900762Y-77016578D01*
X116900763Y-77016580D01*
X116945962Y-77137763D01*
X116945964Y-77137766D01*
X116949111Y-77146204D01*
X116954508Y-77153414D01*
X116954510Y-77153417D01*
X116978752Y-77185800D01*
X117036739Y-77263261D01*
X117043950Y-77268659D01*
X117100430Y-77310940D01*
X117153796Y-77350889D01*
X117290799Y-77401989D01*
X117351362Y-77408500D01*
X119845269Y-77408500D01*
X119848638Y-77408500D01*
X119909201Y-77401989D01*
X120046204Y-77350889D01*
X120163261Y-77263261D01*
X120250889Y-77146204D01*
X120277659Y-77074431D01*
X126008236Y-77074431D01*
X126015902Y-77082615D01*
X126159711Y-77180663D01*
X126167855Y-77185365D01*
X126389998Y-77292343D01*
X126398754Y-77295780D01*
X126634367Y-77368457D01*
X126643524Y-77370547D01*
X126887341Y-77407297D01*
X126896719Y-77408000D01*
X127143281Y-77408000D01*
X127152658Y-77407297D01*
X127396475Y-77370547D01*
X127405632Y-77368457D01*
X127641245Y-77295780D01*
X127650001Y-77292343D01*
X127872145Y-77185365D01*
X127880289Y-77180664D01*
X128024096Y-77082615D01*
X128031763Y-77074430D01*
X128025750Y-77064960D01*
X127031729Y-76070939D01*
X127020000Y-76064167D01*
X127008270Y-76070939D01*
X126014250Y-77064958D01*
X126008236Y-77074431D01*
X120277659Y-77074431D01*
X120301989Y-77009201D01*
X120308500Y-76948638D01*
X120308500Y-75704697D01*
X125307563Y-75704697D01*
X125325988Y-75950572D01*
X125327391Y-75959879D01*
X125382255Y-76200253D01*
X125385029Y-76209246D01*
X125475106Y-76438758D01*
X125479189Y-76447238D01*
X125602471Y-76660767D01*
X125607762Y-76668528D01*
X125634160Y-76701631D01*
X125645577Y-76709731D01*
X125657829Y-76702959D01*
X126649060Y-75711729D01*
X126655832Y-75699999D01*
X127384167Y-75699999D01*
X127390939Y-75711729D01*
X128382169Y-76702959D01*
X128394422Y-76709731D01*
X128405838Y-76701631D01*
X128432234Y-76668533D01*
X128437531Y-76660763D01*
X128560810Y-76447238D01*
X128564893Y-76438758D01*
X128654970Y-76209246D01*
X128657744Y-76200253D01*
X128712608Y-75959879D01*
X128714011Y-75950572D01*
X128732437Y-75704697D01*
X128732437Y-75700000D01*
X130386709Y-75700000D01*
X130387061Y-75704697D01*
X130405486Y-75950572D01*
X130405845Y-75955353D01*
X130406894Y-75959951D01*
X130406895Y-75959954D01*
X130461742Y-76200253D01*
X130462826Y-76205001D01*
X130464549Y-76209392D01*
X130464550Y-76209394D01*
X130481701Y-76253093D01*
X130556378Y-76443369D01*
X130558733Y-76447449D01*
X130558737Y-76447456D01*
X130629829Y-76570590D01*
X130684413Y-76665131D01*
X130844069Y-76865334D01*
X130847518Y-76868534D01*
X131028325Y-77036299D01*
X131028330Y-77036303D01*
X131031781Y-77039505D01*
X131035675Y-77042160D01*
X131035679Y-77042163D01*
X131175899Y-77137763D01*
X131243355Y-77183754D01*
X131474065Y-77294858D01*
X131718757Y-77370335D01*
X131971966Y-77408500D01*
X132223318Y-77408500D01*
X132228034Y-77408500D01*
X132481243Y-77370335D01*
X132725935Y-77294858D01*
X132956646Y-77183754D01*
X133168219Y-77039505D01*
X133266150Y-76948638D01*
X135471500Y-76948638D01*
X135471859Y-76951985D01*
X135471860Y-76951988D01*
X135477168Y-77001367D01*
X135477169Y-77001373D01*
X135478011Y-77009201D01*
X135480762Y-77016578D01*
X135480763Y-77016580D01*
X135525962Y-77137763D01*
X135525964Y-77137766D01*
X135529111Y-77146204D01*
X135534508Y-77153414D01*
X135534510Y-77153417D01*
X135558752Y-77185800D01*
X135616739Y-77263261D01*
X135623950Y-77268659D01*
X135680430Y-77310940D01*
X135733796Y-77350889D01*
X135870799Y-77401989D01*
X135931362Y-77408500D01*
X138425269Y-77408500D01*
X138428638Y-77408500D01*
X138489201Y-77401989D01*
X138626204Y-77350889D01*
X138743261Y-77263261D01*
X138830889Y-77146204D01*
X138881989Y-77009201D01*
X138888500Y-76948638D01*
X138888500Y-74451362D01*
X138881989Y-74390799D01*
X138830889Y-74253796D01*
X138802779Y-74216246D01*
X138761274Y-74160801D01*
X138743261Y-74136739D01*
X138703786Y-74107188D01*
X138633417Y-74054510D01*
X138633414Y-74054508D01*
X138626204Y-74049111D01*
X138617766Y-74045964D01*
X138617763Y-74045962D01*
X138496580Y-74000763D01*
X138496578Y-74000762D01*
X138489201Y-73998011D01*
X138481373Y-73997169D01*
X138481367Y-73997168D01*
X138431988Y-73991860D01*
X138431985Y-73991859D01*
X138428638Y-73991500D01*
X135931362Y-73991500D01*
X135928015Y-73991859D01*
X135928011Y-73991860D01*
X135878632Y-73997168D01*
X135878625Y-73997169D01*
X135870799Y-73998011D01*
X135863423Y-74000761D01*
X135863419Y-74000763D01*
X135742236Y-74045962D01*
X135742230Y-74045965D01*
X135733796Y-74049111D01*
X135726588Y-74054506D01*
X135726582Y-74054510D01*
X135623950Y-74131340D01*
X135623946Y-74131343D01*
X135616739Y-74136739D01*
X135611343Y-74143946D01*
X135611340Y-74143950D01*
X135534510Y-74246582D01*
X135534506Y-74246588D01*
X135529111Y-74253796D01*
X135525965Y-74262230D01*
X135525962Y-74262236D01*
X135480763Y-74383419D01*
X135480761Y-74383423D01*
X135478011Y-74390799D01*
X135477169Y-74398625D01*
X135477168Y-74398632D01*
X135471860Y-74448011D01*
X135471500Y-74451362D01*
X135471500Y-76948638D01*
X133266150Y-76948638D01*
X133355931Y-76865334D01*
X133515587Y-76665131D01*
X133643622Y-76443369D01*
X133737174Y-76205001D01*
X133794155Y-75955353D01*
X133813291Y-75700000D01*
X133794155Y-75444647D01*
X133737174Y-75194999D01*
X133643622Y-74956631D01*
X133515587Y-74734869D01*
X133371756Y-74554510D01*
X133358865Y-74538345D01*
X133358864Y-74538344D01*
X133355931Y-74534666D01*
X133168219Y-74360495D01*
X133164334Y-74357846D01*
X133164330Y-74357843D01*
X132993525Y-74241390D01*
X132956646Y-74216246D01*
X132952399Y-74214200D01*
X132952396Y-74214199D01*
X132730184Y-74107188D01*
X132730181Y-74107187D01*
X132725935Y-74105142D01*
X132721437Y-74103754D01*
X132721428Y-74103751D01*
X132485744Y-74031053D01*
X132485739Y-74031051D01*
X132481243Y-74029665D01*
X132476589Y-74028963D01*
X132476587Y-74028963D01*
X132232695Y-73992202D01*
X132232688Y-73992201D01*
X132228034Y-73991500D01*
X131971966Y-73991500D01*
X131967312Y-73992201D01*
X131967304Y-73992202D01*
X131723412Y-74028963D01*
X131723407Y-74028964D01*
X131718757Y-74029665D01*
X131714263Y-74031051D01*
X131714255Y-74031053D01*
X131478571Y-74103751D01*
X131478558Y-74103756D01*
X131474065Y-74105142D01*
X131469822Y-74107184D01*
X131469815Y-74107188D01*
X131247603Y-74214200D01*
X131247600Y-74214201D01*
X131243355Y-74216246D01*
X131239466Y-74218896D01*
X131239458Y-74218902D01*
X131035679Y-74357836D01*
X131035667Y-74357845D01*
X131031781Y-74360495D01*
X131028337Y-74363689D01*
X131028325Y-74363700D01*
X130847518Y-74531465D01*
X130847512Y-74531470D01*
X130844069Y-74534666D01*
X130841141Y-74538336D01*
X130841134Y-74538345D01*
X130697146Y-74718902D01*
X130684413Y-74734869D01*
X130682059Y-74738945D01*
X130682057Y-74738949D01*
X130558737Y-74952543D01*
X130558730Y-74952555D01*
X130556378Y-74956631D01*
X130554655Y-74961019D01*
X130554654Y-74961023D01*
X130464550Y-75190605D01*
X130464548Y-75190611D01*
X130462826Y-75194999D01*
X130461777Y-75199594D01*
X130461776Y-75199598D01*
X130430682Y-75335832D01*
X130405845Y-75444647D01*
X130405492Y-75449346D01*
X130405492Y-75449352D01*
X130392197Y-75626762D01*
X130386709Y-75700000D01*
X128732437Y-75700000D01*
X128732437Y-75695303D01*
X128714011Y-75449427D01*
X128712608Y-75440120D01*
X128657744Y-75199746D01*
X128654970Y-75190753D01*
X128564893Y-74961241D01*
X128560810Y-74952761D01*
X128437528Y-74739232D01*
X128432237Y-74731471D01*
X128405838Y-74698367D01*
X128394421Y-74690267D01*
X128382169Y-74697039D01*
X127390939Y-75688270D01*
X127384167Y-75699999D01*
X126655832Y-75699999D01*
X126649060Y-75688270D01*
X125657830Y-74697040D01*
X125645577Y-74690268D01*
X125634159Y-74698369D01*
X125607771Y-74731460D01*
X125602466Y-74739240D01*
X125479189Y-74952761D01*
X125475106Y-74961241D01*
X125385029Y-75190753D01*
X125382255Y-75199746D01*
X125327391Y-75440120D01*
X125325988Y-75449427D01*
X125307563Y-75695303D01*
X125307563Y-75704697D01*
X120308500Y-75704697D01*
X120308500Y-74451362D01*
X120301989Y-74390799D01*
X120277659Y-74325568D01*
X126008236Y-74325568D01*
X126014250Y-74335040D01*
X127008270Y-75329060D01*
X127020000Y-75335832D01*
X127031729Y-75329060D01*
X128025748Y-74335040D01*
X128031762Y-74325567D01*
X128024096Y-74317383D01*
X127880289Y-74219336D01*
X127872145Y-74214634D01*
X127650001Y-74107656D01*
X127641245Y-74104219D01*
X127405632Y-74031542D01*
X127396475Y-74029452D01*
X127152658Y-73992702D01*
X127143281Y-73992000D01*
X126896719Y-73992000D01*
X126887341Y-73992702D01*
X126643524Y-74029452D01*
X126634367Y-74031542D01*
X126398754Y-74104219D01*
X126389998Y-74107656D01*
X126167854Y-74214635D01*
X126159709Y-74219337D01*
X126015903Y-74317382D01*
X126008236Y-74325568D01*
X120277659Y-74325568D01*
X120250889Y-74253796D01*
X120222779Y-74216246D01*
X120181274Y-74160801D01*
X120163261Y-74136739D01*
X120123786Y-74107188D01*
X120053417Y-74054510D01*
X120053414Y-74054508D01*
X120046204Y-74049111D01*
X120037766Y-74045964D01*
X120037763Y-74045962D01*
X119916580Y-74000763D01*
X119916578Y-74000762D01*
X119909201Y-73998011D01*
X119901373Y-73997169D01*
X119901367Y-73997168D01*
X119851988Y-73991860D01*
X119851985Y-73991859D01*
X119848638Y-73991500D01*
X117351362Y-73991500D01*
X117348015Y-73991859D01*
X117348011Y-73991860D01*
X117298632Y-73997168D01*
X117298625Y-73997169D01*
X117290799Y-73998011D01*
X117283423Y-74000761D01*
X117283419Y-74000763D01*
X117162236Y-74045962D01*
X117162230Y-74045965D01*
X117153796Y-74049111D01*
X117146588Y-74054506D01*
X117146582Y-74054510D01*
X117043950Y-74131340D01*
X117043946Y-74131343D01*
X117036739Y-74136739D01*
X117031343Y-74143946D01*
X117031340Y-74143950D01*
X116954510Y-74246582D01*
X116954506Y-74246588D01*
X116949111Y-74253796D01*
X116945965Y-74262230D01*
X116945962Y-74262236D01*
X116900763Y-74383419D01*
X116900761Y-74383423D01*
X116898011Y-74390799D01*
X116897169Y-74398625D01*
X116897168Y-74398632D01*
X116891860Y-74448011D01*
X116891500Y-74451362D01*
X116891500Y-76948638D01*
X114686150Y-76948638D01*
X114775931Y-76865334D01*
X114935587Y-76665131D01*
X115063622Y-76443369D01*
X115157174Y-76205001D01*
X115214155Y-75955353D01*
X115233291Y-75700000D01*
X115214155Y-75444647D01*
X115157174Y-75194999D01*
X115063622Y-74956631D01*
X114935587Y-74734869D01*
X114791756Y-74554510D01*
X114778865Y-74538345D01*
X114778864Y-74538344D01*
X114775931Y-74534666D01*
X114588219Y-74360495D01*
X114584334Y-74357846D01*
X114584330Y-74357843D01*
X114413525Y-74241390D01*
X114376646Y-74216246D01*
X114372399Y-74214200D01*
X114372396Y-74214199D01*
X114150184Y-74107188D01*
X114150181Y-74107187D01*
X114145935Y-74105142D01*
X114141437Y-74103754D01*
X114141428Y-74103751D01*
X113905744Y-74031053D01*
X113905739Y-74031051D01*
X113901243Y-74029665D01*
X113896589Y-74028963D01*
X113896587Y-74028963D01*
X113652695Y-73992202D01*
X113652688Y-73992201D01*
X113648034Y-73991500D01*
X113391966Y-73991500D01*
X113387312Y-73992201D01*
X113387304Y-73992202D01*
X113143412Y-74028963D01*
X113143407Y-74028964D01*
X113138757Y-74029665D01*
X113134263Y-74031051D01*
X113134255Y-74031053D01*
X112898571Y-74103751D01*
X112898558Y-74103756D01*
X112894065Y-74105142D01*
X112889822Y-74107184D01*
X112889815Y-74107188D01*
X112667603Y-74214200D01*
X112667600Y-74214201D01*
X112663355Y-74216246D01*
X112659466Y-74218896D01*
X112659458Y-74218902D01*
X112455679Y-74357836D01*
X112455667Y-74357845D01*
X112451781Y-74360495D01*
X112448337Y-74363689D01*
X112448325Y-74363700D01*
X112267518Y-74531465D01*
X112267512Y-74531470D01*
X112264069Y-74534666D01*
X112261141Y-74538336D01*
X112261134Y-74538345D01*
X112117146Y-74718902D01*
X112104413Y-74734869D01*
X112102059Y-74738945D01*
X112102057Y-74738949D01*
X111978737Y-74952543D01*
X111978730Y-74952555D01*
X111976378Y-74956631D01*
X111974655Y-74961019D01*
X111974654Y-74961023D01*
X111884550Y-75190605D01*
X111884548Y-75190611D01*
X111882826Y-75194999D01*
X111881777Y-75199594D01*
X111881776Y-75199598D01*
X111850682Y-75335832D01*
X111825845Y-75444647D01*
X111825492Y-75449346D01*
X111825492Y-75449352D01*
X111812197Y-75626762D01*
X111806709Y-75700000D01*
X110152437Y-75700000D01*
X110152437Y-75695303D01*
X110134011Y-75449427D01*
X110132608Y-75440120D01*
X110077744Y-75199746D01*
X110074970Y-75190753D01*
X109984893Y-74961241D01*
X109980810Y-74952761D01*
X109857528Y-74739232D01*
X109852237Y-74731471D01*
X109825838Y-74698367D01*
X109814421Y-74690267D01*
X109802169Y-74697039D01*
X108810939Y-75688270D01*
X108804167Y-75699999D01*
X108075832Y-75699999D01*
X108069060Y-75688270D01*
X107077830Y-74697040D01*
X107065577Y-74690268D01*
X107054159Y-74698369D01*
X107027771Y-74731460D01*
X107022466Y-74739240D01*
X106899189Y-74952761D01*
X106895106Y-74961241D01*
X106805029Y-75190753D01*
X106802255Y-75199746D01*
X106747391Y-75440120D01*
X106745988Y-75449427D01*
X106727563Y-75695303D01*
X106727563Y-75704697D01*
X101608000Y-75704697D01*
X101608000Y-75054777D01*
X101607640Y-75048061D01*
X101602337Y-74998742D01*
X101598740Y-74983521D01*
X101553594Y-74862480D01*
X101545045Y-74846824D01*
X101468302Y-74744307D01*
X101455692Y-74731697D01*
X101353175Y-74654954D01*
X101337519Y-74646405D01*
X101216478Y-74601259D01*
X101201257Y-74597662D01*
X101151938Y-74592359D01*
X101145223Y-74592000D01*
X100170590Y-74592000D01*
X100157506Y-74595506D01*
X100154000Y-74608590D01*
X100154000Y-76029410D01*
X99646000Y-76029410D01*
X99646000Y-74608590D01*
X99642493Y-74595506D01*
X99629410Y-74592000D01*
X98654777Y-74592000D01*
X98648061Y-74592359D01*
X98598742Y-74597662D01*
X98583521Y-74601259D01*
X98462480Y-74646405D01*
X98446824Y-74654954D01*
X98344307Y-74731697D01*
X98331697Y-74744307D01*
X98254954Y-74846824D01*
X98246405Y-74862480D01*
X98201259Y-74983521D01*
X98197662Y-74998742D01*
X98192359Y-75048061D01*
X98192000Y-75054777D01*
X98192000Y-76029410D01*
X96510677Y-76029410D01*
X96457174Y-75794999D01*
X96363622Y-75556631D01*
X96235587Y-75334869D01*
X96075931Y-75134666D01*
X95888219Y-74960495D01*
X95884334Y-74957846D01*
X95884330Y-74957843D01*
X95680540Y-74818901D01*
X95676646Y-74816246D01*
X95672399Y-74814200D01*
X95672396Y-74814199D01*
X95450184Y-74707188D01*
X95450181Y-74707187D01*
X95445935Y-74705142D01*
X95441437Y-74703754D01*
X95441428Y-74703751D01*
X95205744Y-74631053D01*
X95205739Y-74631051D01*
X95201243Y-74629665D01*
X95196589Y-74628963D01*
X95196587Y-74628963D01*
X94952695Y-74592202D01*
X94952688Y-74592201D01*
X94948034Y-74591500D01*
X94691966Y-74591500D01*
X94687312Y-74592201D01*
X94687304Y-74592202D01*
X94443412Y-74628963D01*
X94443407Y-74628964D01*
X94438757Y-74629665D01*
X94434263Y-74631051D01*
X94434255Y-74631053D01*
X94210809Y-74699977D01*
X94143340Y-74701870D01*
X94084574Y-74668670D01*
X93779604Y-74363700D01*
X93741472Y-74325568D01*
X107428236Y-74325568D01*
X107434250Y-74335040D01*
X108428270Y-75329060D01*
X108440000Y-75335832D01*
X108451729Y-75329060D01*
X109445748Y-74335040D01*
X109451762Y-74325567D01*
X109444096Y-74317383D01*
X109300289Y-74219336D01*
X109292145Y-74214634D01*
X109070001Y-74107656D01*
X109061245Y-74104219D01*
X108825632Y-74031542D01*
X108816475Y-74029452D01*
X108572658Y-73992702D01*
X108563281Y-73992000D01*
X108316719Y-73992000D01*
X108307341Y-73992702D01*
X108063524Y-74029452D01*
X108054367Y-74031542D01*
X107818754Y-74104219D01*
X107809998Y-74107656D01*
X107587854Y-74214635D01*
X107579709Y-74219337D01*
X107435903Y-74317382D01*
X107428236Y-74325568D01*
X93741472Y-74325568D01*
X93423641Y-74007736D01*
X93416111Y-73999461D01*
X93412000Y-73992982D01*
X93362347Y-73946355D01*
X93359505Y-73943600D01*
X93342574Y-73926669D01*
X93339770Y-73923865D01*
X93336575Y-73921386D01*
X93327554Y-73913682D01*
X93301097Y-73888838D01*
X93295321Y-73883414D01*
X93288377Y-73879596D01*
X93288371Y-73879592D01*
X93277566Y-73873652D01*
X93261047Y-73862801D01*
X93245041Y-73850386D01*
X93237766Y-73847238D01*
X93237763Y-73847236D01*
X93204466Y-73832828D01*
X93193804Y-73827605D01*
X93162007Y-73810124D01*
X93162005Y-73810123D01*
X93155060Y-73806305D01*
X93147383Y-73804334D01*
X93147381Y-73804333D01*
X93135438Y-73801267D01*
X93116734Y-73794863D01*
X93105420Y-73789967D01*
X93105418Y-73789966D01*
X93098145Y-73786819D01*
X93090319Y-73785579D01*
X93090318Y-73785579D01*
X93054475Y-73779902D01*
X93042859Y-73777496D01*
X93000030Y-73766500D01*
X92992101Y-73766500D01*
X92979776Y-73766500D01*
X92960065Y-73764949D01*
X92947885Y-73763019D01*
X92947878Y-73763018D01*
X92940057Y-73761780D01*
X92932173Y-73762525D01*
X92932165Y-73762525D01*
X92896039Y-73765941D01*
X92884181Y-73766500D01*
X90304182Y-73766500D01*
X90239665Y-73748729D01*
X90199834Y-73707194D01*
X90198108Y-73708323D01*
X90066829Y-73507387D01*
X89904269Y-73330799D01*
X89900160Y-73327601D01*
X89900157Y-73327598D01*
X89718970Y-73186575D01*
X89714860Y-73183376D01*
X89503769Y-73069140D01*
X89498843Y-73067448D01*
X89498841Y-73067448D01*
X89398038Y-73032842D01*
X89276755Y-72991205D01*
X89241323Y-72985292D01*
X89045147Y-72952557D01*
X89045144Y-72952556D01*
X89040010Y-72951700D01*
X88899065Y-72951700D01*
X88832342Y-72932583D01*
X88785865Y-72881034D01*
X88773738Y-72812694D01*
X88797681Y-72753169D01*
X88796829Y-72752613D01*
X88799521Y-72748492D01*
X88928108Y-72551677D01*
X89024522Y-72331874D01*
X89083443Y-72099199D01*
X89103264Y-71860000D01*
X89083443Y-71620801D01*
X89024522Y-71388126D01*
X88928108Y-71168323D01*
X88796829Y-70967387D01*
X88634269Y-70790799D01*
X88630160Y-70787601D01*
X88630157Y-70787598D01*
X88448970Y-70646575D01*
X88444860Y-70643376D01*
X88233769Y-70529140D01*
X88228843Y-70527448D01*
X88228841Y-70527448D01*
X88128038Y-70492842D01*
X88006755Y-70451205D01*
X87971323Y-70445292D01*
X87775147Y-70412557D01*
X87775144Y-70412556D01*
X87770010Y-70411700D01*
X87529990Y-70411700D01*
X87524856Y-70412556D01*
X87524852Y-70412557D01*
X87298380Y-70450348D01*
X87298378Y-70450348D01*
X87293245Y-70451205D01*
X87288320Y-70452895D01*
X87288319Y-70452896D01*
X87071158Y-70527448D01*
X87071152Y-70527450D01*
X87066231Y-70529140D01*
X87061649Y-70531619D01*
X87061648Y-70531620D01*
X86859722Y-70640896D01*
X86859718Y-70640898D01*
X86855140Y-70643376D01*
X86851034Y-70646571D01*
X86851029Y-70646575D01*
X86669842Y-70787598D01*
X86669833Y-70787606D01*
X86665731Y-70790799D01*
X86662203Y-70794630D01*
X86662199Y-70794635D01*
X86506706Y-70963546D01*
X86506701Y-70963552D01*
X86503171Y-70967387D01*
X86500320Y-70971750D01*
X86500312Y-70971761D01*
X86485482Y-70994460D01*
X86439969Y-71036358D01*
X86380000Y-71051544D01*
X86320031Y-71036358D01*
X86274518Y-70994460D01*
X86259687Y-70971761D01*
X86259681Y-70971753D01*
X86256829Y-70967387D01*
X86094269Y-70790799D01*
X86090160Y-70787601D01*
X86090157Y-70787598D01*
X85908970Y-70646575D01*
X85904860Y-70643376D01*
X85693769Y-70529140D01*
X85688843Y-70527448D01*
X85688841Y-70527448D01*
X85588038Y-70492842D01*
X85466755Y-70451205D01*
X85431323Y-70445292D01*
X85235147Y-70412557D01*
X85235144Y-70412556D01*
X85230010Y-70411700D01*
X84989990Y-70411700D01*
X84984856Y-70412556D01*
X84984852Y-70412557D01*
X84758380Y-70450348D01*
X84758378Y-70450348D01*
X84753245Y-70451205D01*
X84748320Y-70452895D01*
X84748319Y-70452896D01*
X84531158Y-70527448D01*
X84531152Y-70527450D01*
X84526231Y-70529140D01*
X84521649Y-70531619D01*
X84521648Y-70531620D01*
X84319722Y-70640896D01*
X84319718Y-70640898D01*
X84315140Y-70643376D01*
X84311034Y-70646571D01*
X84311029Y-70646575D01*
X84129842Y-70787598D01*
X84129833Y-70787606D01*
X84125731Y-70790799D01*
X84122203Y-70794630D01*
X84122199Y-70794635D01*
X83966706Y-70963546D01*
X83966701Y-70963552D01*
X83963171Y-70967387D01*
X83960320Y-70971750D01*
X83960312Y-70971761D01*
X83945482Y-70994460D01*
X83899969Y-71036358D01*
X83840000Y-71051544D01*
X83780031Y-71036358D01*
X83734518Y-70994460D01*
X83719687Y-70971761D01*
X83719681Y-70971753D01*
X83716829Y-70967387D01*
X83554269Y-70790799D01*
X83550160Y-70787601D01*
X83550157Y-70787598D01*
X83368970Y-70646575D01*
X83364860Y-70643376D01*
X83153769Y-70529140D01*
X83148843Y-70527448D01*
X83148841Y-70527448D01*
X83048038Y-70492842D01*
X82926755Y-70451205D01*
X82891323Y-70445292D01*
X82695147Y-70412557D01*
X82695144Y-70412556D01*
X82690010Y-70411700D01*
X82449990Y-70411700D01*
X82444856Y-70412556D01*
X82444852Y-70412557D01*
X82218380Y-70450348D01*
X82218378Y-70450348D01*
X82213245Y-70451205D01*
X82208320Y-70452895D01*
X82208319Y-70452896D01*
X81991158Y-70527448D01*
X81991152Y-70527450D01*
X81986231Y-70529140D01*
X81981649Y-70531619D01*
X81981648Y-70531620D01*
X81779722Y-70640896D01*
X81779718Y-70640898D01*
X81775140Y-70643376D01*
X81771034Y-70646571D01*
X81771029Y-70646575D01*
X81589842Y-70787598D01*
X81589833Y-70787606D01*
X81585731Y-70790799D01*
X81582203Y-70794630D01*
X81582199Y-70794635D01*
X81426706Y-70963546D01*
X81426701Y-70963552D01*
X81423171Y-70967387D01*
X81420320Y-70971750D01*
X81420312Y-70971761D01*
X81405482Y-70994460D01*
X81359969Y-71036358D01*
X81300000Y-71051544D01*
X81240031Y-71036358D01*
X81194518Y-70994460D01*
X81179687Y-70971761D01*
X81179681Y-70971753D01*
X81176829Y-70967387D01*
X81014269Y-70790799D01*
X81010160Y-70787601D01*
X81010157Y-70787598D01*
X80828970Y-70646575D01*
X80824860Y-70643376D01*
X80613769Y-70529140D01*
X80608843Y-70527448D01*
X80608841Y-70527448D01*
X80508038Y-70492842D01*
X80386755Y-70451205D01*
X80351323Y-70445292D01*
X80155147Y-70412557D01*
X80155144Y-70412556D01*
X80150010Y-70411700D01*
X79909990Y-70411700D01*
X79904856Y-70412556D01*
X79904852Y-70412557D01*
X79678380Y-70450348D01*
X79678378Y-70450348D01*
X79673245Y-70451205D01*
X79668320Y-70452895D01*
X79668319Y-70452896D01*
X79451158Y-70527448D01*
X79451152Y-70527450D01*
X79446231Y-70529140D01*
X79441649Y-70531619D01*
X79441648Y-70531620D01*
X79239722Y-70640896D01*
X79239718Y-70640898D01*
X79235140Y-70643376D01*
X79231034Y-70646571D01*
X79231029Y-70646575D01*
X79049842Y-70787598D01*
X79049833Y-70787606D01*
X79045731Y-70790799D01*
X79042203Y-70794630D01*
X79042199Y-70794635D01*
X78886707Y-70963545D01*
X78886702Y-70963550D01*
X78883171Y-70967387D01*
X78880320Y-70971751D01*
X78859853Y-71003077D01*
X78820398Y-71041474D01*
X78768337Y-71059382D01*
X78713610Y-71053382D01*
X78688800Y-71038181D01*
X78678364Y-71034659D01*
X78668016Y-71041193D01*
X77860939Y-71848270D01*
X77854167Y-71859999D01*
X77125831Y-71859999D01*
X77119059Y-71848270D01*
X76311982Y-71041193D01*
X76301634Y-71034659D01*
X76296505Y-71036390D01*
X76251978Y-71061486D01*
X76188016Y-71061485D01*
X76143495Y-71036391D01*
X76138363Y-71034659D01*
X76128018Y-71041191D01*
X75320939Y-71848270D01*
X75314167Y-71859999D01*
X74590789Y-71859999D01*
X73771982Y-71041193D01*
X73762448Y-71035172D01*
X73754354Y-71043019D01*
X73675186Y-71164196D01*
X73670239Y-71173337D01*
X73578046Y-71383516D01*
X73574673Y-71393341D01*
X73518333Y-71615824D01*
X73516621Y-71626078D01*
X73497668Y-71854811D01*
X73497668Y-71865189D01*
X73516621Y-72093921D01*
X73518333Y-72104175D01*
X73574673Y-72326658D01*
X73578046Y-72336483D01*
X73670239Y-72546662D01*
X73675186Y-72555803D01*
X73800713Y-72747937D01*
X73801002Y-72748308D01*
X73801076Y-72748492D01*
X73803567Y-72752305D01*
X73802808Y-72752800D01*
X73826899Y-72812701D01*
X73814769Y-72881038D01*
X73768292Y-72932585D01*
X73701571Y-72951700D01*
X73559990Y-72951700D01*
X73554856Y-72952556D01*
X73554852Y-72952557D01*
X73328380Y-72990348D01*
X73328378Y-72990348D01*
X73323245Y-72991205D01*
X73318320Y-72992895D01*
X73318319Y-72992896D01*
X73101158Y-73067448D01*
X73101152Y-73067450D01*
X73096231Y-73069140D01*
X73091649Y-73071619D01*
X73091648Y-73071620D01*
X72889722Y-73180896D01*
X72889718Y-73180898D01*
X72885140Y-73183376D01*
X72881034Y-73186571D01*
X72881029Y-73186575D01*
X72699842Y-73327598D01*
X72699833Y-73327606D01*
X72695731Y-73330799D01*
X72692203Y-73334630D01*
X72692199Y-73334635D01*
X72536706Y-73503546D01*
X72536701Y-73503552D01*
X72533171Y-73507387D01*
X72530321Y-73511748D01*
X72530318Y-73511753D01*
X72404741Y-73703962D01*
X72401892Y-73708323D01*
X72399802Y-73713086D01*
X72399799Y-73713093D01*
X72307573Y-73923348D01*
X72307570Y-73923356D01*
X72305478Y-73928126D01*
X72304197Y-73933182D01*
X72304196Y-73933187D01*
X72260015Y-74107656D01*
X72246557Y-74160801D01*
X72246127Y-74165989D01*
X72246126Y-74165996D01*
X72229744Y-74363695D01*
X72226736Y-74400000D01*
X72227166Y-74405189D01*
X72245905Y-74631340D01*
X72246557Y-74639199D01*
X72265550Y-74714200D01*
X72299134Y-74846824D01*
X72305478Y-74871874D01*
X72307571Y-74876647D01*
X72307573Y-74876651D01*
X72380580Y-75043091D01*
X72401892Y-75091677D01*
X72533171Y-75292613D01*
X72695731Y-75469201D01*
X72699840Y-75472399D01*
X72699842Y-75472401D01*
X72825967Y-75570568D01*
X72861773Y-75614661D01*
X72874576Y-75670000D01*
X72861773Y-75725339D01*
X72825967Y-75769432D01*
X72699842Y-75867598D01*
X72699833Y-75867606D01*
X72695731Y-75870799D01*
X72692203Y-75874630D01*
X72692199Y-75874635D01*
X72536706Y-76043546D01*
X72536701Y-76043552D01*
X72533171Y-76047387D01*
X72530321Y-76051748D01*
X72530318Y-76051753D01*
X72483757Y-76123020D01*
X72401892Y-76248323D01*
X72399802Y-76253086D01*
X72399799Y-76253093D01*
X72307573Y-76463348D01*
X72307570Y-76463356D01*
X72305478Y-76468126D01*
X72304197Y-76473182D01*
X72304196Y-76473187D01*
X72254728Y-76668533D01*
X72246557Y-76700801D01*
X72246127Y-76705989D01*
X72246126Y-76705996D01*
X72233228Y-76861654D01*
X72226736Y-76940000D01*
X72227166Y-76945189D01*
X72246119Y-77173921D01*
X72246557Y-77179199D01*
X72248228Y-77185799D01*
X72293692Y-77365334D01*
X72305478Y-77411874D01*
X72307571Y-77416647D01*
X72307573Y-77416651D01*
X72392561Y-77610405D01*
X72401892Y-77631677D01*
X72533171Y-77832613D01*
X72695731Y-78009201D01*
X72699840Y-78012399D01*
X72699842Y-78012401D01*
X72825967Y-78110568D01*
X72861773Y-78154661D01*
X72874576Y-78210000D01*
X72861773Y-78265339D01*
X72825967Y-78309432D01*
X72699842Y-78407598D01*
X72699833Y-78407606D01*
X72695731Y-78410799D01*
X72692203Y-78414630D01*
X72692199Y-78414635D01*
X72536706Y-78583546D01*
X72536701Y-78583552D01*
X72533171Y-78587387D01*
X72530321Y-78591748D01*
X72530318Y-78591753D01*
X72490849Y-78652165D01*
X72401892Y-78788323D01*
X72399802Y-78793086D01*
X72399799Y-78793093D01*
X72307573Y-79003348D01*
X72307570Y-79003356D01*
X72305478Y-79008126D01*
X72246557Y-79240801D01*
X72246127Y-79245989D01*
X72246126Y-79245996D01*
X72227812Y-79467009D01*
X72226736Y-79480000D01*
X63733500Y-79480000D01*
X63733500Y-78034500D01*
X63750381Y-77971500D01*
X63796500Y-77925381D01*
X63859500Y-77908500D01*
X64345269Y-77908500D01*
X64348638Y-77908500D01*
X64409201Y-77901989D01*
X64546204Y-77850889D01*
X64663261Y-77763261D01*
X64750889Y-77646204D01*
X64801989Y-77509201D01*
X64808500Y-77448638D01*
X64808500Y-76200000D01*
X66466709Y-76200000D01*
X66467061Y-76204697D01*
X66484617Y-76438976D01*
X66485845Y-76455353D01*
X66486894Y-76459951D01*
X66486895Y-76459954D01*
X66532729Y-76660763D01*
X66542826Y-76705001D01*
X66544549Y-76709392D01*
X66544550Y-76709394D01*
X66582073Y-76805001D01*
X66636378Y-76943369D01*
X66638733Y-76947449D01*
X66638737Y-76947456D01*
X66690031Y-77036299D01*
X66764413Y-77165131D01*
X66780549Y-77185365D01*
X66912549Y-77350889D01*
X66924069Y-77365334D01*
X66960607Y-77399236D01*
X67108325Y-77536299D01*
X67108330Y-77536303D01*
X67111781Y-77539505D01*
X67115675Y-77542160D01*
X67115679Y-77542163D01*
X67239974Y-77626906D01*
X67323355Y-77683754D01*
X67554065Y-77794858D01*
X67798757Y-77870335D01*
X68051966Y-77908500D01*
X68303318Y-77908500D01*
X68308034Y-77908500D01*
X68561243Y-77870335D01*
X68805935Y-77794858D01*
X69036646Y-77683754D01*
X69248219Y-77539505D01*
X69435931Y-77365334D01*
X69595587Y-77165131D01*
X69723622Y-76943369D01*
X69817174Y-76705001D01*
X69874155Y-76455353D01*
X69893291Y-76200000D01*
X69874155Y-75944647D01*
X69817174Y-75694999D01*
X69723622Y-75456631D01*
X69719419Y-75449352D01*
X69649968Y-75329060D01*
X69595587Y-75234869D01*
X69435931Y-75034666D01*
X69248219Y-74860495D01*
X69244334Y-74857846D01*
X69244330Y-74857843D01*
X69055171Y-74728876D01*
X69036646Y-74716246D01*
X69032399Y-74714200D01*
X69032396Y-74714199D01*
X68810184Y-74607188D01*
X68810181Y-74607187D01*
X68805935Y-74605142D01*
X68801437Y-74603754D01*
X68801428Y-74603751D01*
X68565744Y-74531053D01*
X68565739Y-74531051D01*
X68561243Y-74529665D01*
X68556589Y-74528963D01*
X68556587Y-74528963D01*
X68312695Y-74492202D01*
X68312688Y-74492201D01*
X68308034Y-74491500D01*
X68051966Y-74491500D01*
X68047312Y-74492201D01*
X68047304Y-74492202D01*
X67803412Y-74528963D01*
X67803407Y-74528964D01*
X67798757Y-74529665D01*
X67794263Y-74531051D01*
X67794255Y-74531053D01*
X67558571Y-74603751D01*
X67558558Y-74603756D01*
X67554065Y-74605142D01*
X67549822Y-74607184D01*
X67549815Y-74607188D01*
X67327603Y-74714200D01*
X67327600Y-74714201D01*
X67323355Y-74716246D01*
X67319466Y-74718896D01*
X67319458Y-74718902D01*
X67115679Y-74857836D01*
X67115667Y-74857845D01*
X67111781Y-74860495D01*
X67108337Y-74863689D01*
X67108325Y-74863700D01*
X66927518Y-75031465D01*
X66927512Y-75031470D01*
X66924069Y-75034666D01*
X66921141Y-75038336D01*
X66921134Y-75038345D01*
X66767348Y-75231188D01*
X66764413Y-75234869D01*
X66762059Y-75238945D01*
X66762057Y-75238949D01*
X66638737Y-75452543D01*
X66638730Y-75452555D01*
X66636378Y-75456631D01*
X66634655Y-75461019D01*
X66634654Y-75461023D01*
X66544550Y-75690605D01*
X66544548Y-75690611D01*
X66542826Y-75694999D01*
X66541777Y-75699594D01*
X66541776Y-75699598D01*
X66503431Y-75867599D01*
X66485845Y-75944647D01*
X66485492Y-75949346D01*
X66485492Y-75949352D01*
X66476888Y-76064167D01*
X66466709Y-76200000D01*
X64808500Y-76200000D01*
X64808500Y-74951362D01*
X64801989Y-74890799D01*
X64750889Y-74753796D01*
X64739992Y-74739240D01*
X64668659Y-74643950D01*
X64663261Y-74636739D01*
X64656049Y-74631340D01*
X64553417Y-74554510D01*
X64553414Y-74554508D01*
X64546204Y-74549111D01*
X64537766Y-74545964D01*
X64537763Y-74545962D01*
X64416580Y-74500763D01*
X64416578Y-74500762D01*
X64409201Y-74498011D01*
X64401373Y-74497169D01*
X64401367Y-74497168D01*
X64351988Y-74491860D01*
X64351985Y-74491859D01*
X64348638Y-74491500D01*
X61851362Y-74491500D01*
X61848015Y-74491859D01*
X61848011Y-74491860D01*
X61798632Y-74497168D01*
X61798625Y-74497169D01*
X61790799Y-74498011D01*
X61783423Y-74500761D01*
X61783419Y-74500763D01*
X61662236Y-74545962D01*
X61662230Y-74545965D01*
X61653796Y-74549111D01*
X61646588Y-74554506D01*
X61646582Y-74554510D01*
X61543950Y-74631340D01*
X61543946Y-74631343D01*
X61536739Y-74636739D01*
X61531343Y-74643946D01*
X61531340Y-74643950D01*
X61454510Y-74746582D01*
X61454506Y-74746588D01*
X61449111Y-74753796D01*
X61445965Y-74762230D01*
X61445962Y-74762236D01*
X61400763Y-74883419D01*
X61400761Y-74883423D01*
X61398011Y-74890799D01*
X61397169Y-74898625D01*
X61397168Y-74898632D01*
X61391860Y-74948011D01*
X61391500Y-74951362D01*
X61391500Y-77448638D01*
X58800000Y-77448638D01*
X58800000Y-70671476D01*
X74126221Y-70671476D01*
X74132988Y-70683777D01*
X74938268Y-71489058D01*
X74949999Y-71495831D01*
X74961728Y-71489059D01*
X75767008Y-70683779D01*
X75773775Y-70671476D01*
X76666221Y-70671476D01*
X76672988Y-70683777D01*
X77478268Y-71489058D01*
X77489999Y-71495831D01*
X77501728Y-71489059D01*
X78307008Y-70683779D01*
X78313776Y-70671475D01*
X78305541Y-70660106D01*
X78288694Y-70646994D01*
X78280005Y-70641317D01*
X78078153Y-70532080D01*
X78068636Y-70527905D01*
X77851562Y-70453384D01*
X77841492Y-70450834D01*
X77615105Y-70413057D01*
X77604757Y-70412200D01*
X77375243Y-70412200D01*
X77364894Y-70413057D01*
X77138507Y-70450834D01*
X77128437Y-70453384D01*
X76911363Y-70527905D01*
X76901846Y-70532080D01*
X76699996Y-70641316D01*
X76691303Y-70646995D01*
X76674459Y-70660105D01*
X76666221Y-70671476D01*
X75773775Y-70671476D01*
X75773776Y-70671475D01*
X75765541Y-70660106D01*
X75748694Y-70646994D01*
X75740005Y-70641317D01*
X75538153Y-70532080D01*
X75528636Y-70527905D01*
X75311562Y-70453384D01*
X75301492Y-70450834D01*
X75075105Y-70413057D01*
X75064757Y-70412200D01*
X74835243Y-70412200D01*
X74824894Y-70413057D01*
X74598507Y-70450834D01*
X74588437Y-70453384D01*
X74371363Y-70527905D01*
X74361846Y-70532080D01*
X74159996Y-70641316D01*
X74151303Y-70646995D01*
X74134459Y-70660105D01*
X74126221Y-70671476D01*
X58800000Y-70671476D01*
X58800000Y-67826000D01*
X58816881Y-67763000D01*
X58863000Y-67716881D01*
X58926000Y-67700000D01*
X143074000Y-67700000D01*
X143137000Y-67716881D01*
G37*
G04 #@! TD.AperFunction*
M02*
