M48
; DRILL file {KiCad 7.0.2-6a45011f42~172~ubuntu22.04.1} date wo 24 mei 2023 14:11:38 CEST
; FORMAT={-:-/ absolute / metric / decimal}
; #@! TF.CreationDate,2023-05-24T14:11:38+02:00
; #@! TF.GenerationSoftware,Kicad,Pcbnew,7.0.2-6a45011f42~172~ubuntu22.04.1
; #@! TF.FileFunction,Plated,1,4,PTH
FMAT,2
METRIC
; #@! TA.AperFunction,Plated,PTH,ViaDrill
T1C0.400
; #@! TA.AperFunction,Plated,PTH,ComponentDrill
T2C0.750
; #@! TA.AperFunction,Plated,PTH,ComponentDrill
T3C0.762
; #@! TA.AperFunction,Plated,PTH,ComponentDrill
T4C1.016
; #@! TA.AperFunction,Plated,PTH,ComponentDrill
T5C1.600
%
G90
G05
T1
X60.9Y-96.7
X60.9Y-100.9
X61.722Y-105.41
X61.722Y-109.982
X66.1Y-98.3
X68.326Y-109.22
X72.1Y-113.0
X72.1Y-116.4
X76.3Y-109.3
X76.3Y-113.0
X76.3Y-116.4
X76.5Y-79.1
X76.9Y-86.0
X76.9Y-91.8
X76.9Y-97.8
X78.6Y-102.1
X80.8Y-109.5
X80.8Y-113.1
X80.8Y-116.5
X85.0Y-109.5
X85.0Y-113.1
X85.0Y-116.5
X85.09Y-102.87
X89.4Y-109.5
X89.4Y-113.1
X89.4Y-116.5
X92.71Y-85.09
X93.6Y-109.5
X93.6Y-113.1
X93.6Y-116.5
X94.6Y-90.17
X97.2Y-79.0
X97.3Y-73.0
X97.3Y-96.5
X101.5Y-79.0
X101.6Y-87.7
X101.6Y-91.44
X101.6Y-95.5
X102.3Y-106.1
X102.3Y-110.6
X105.8Y-87.7
X106.2Y-95.5
X106.5Y-106.1
X106.5Y-110.6
X110.5Y-87.8
X110.9Y-95.6
X111.0Y-72.8
X111.0Y-78.9
X111.2Y-106.2
X111.2Y-110.7
X115.1Y-95.6
X115.4Y-106.2
X115.4Y-110.7
X116.0Y-78.8
X117.1Y-86.3
X119.6Y-95.7
X123.4Y-87.9
X124.1Y-106.3
X124.1Y-110.8
X125.9Y-79.5
X127.8Y-87.9
X128.5Y-106.3
X128.5Y-110.8
X129.7Y-73.3
X132.0Y-87.9
X132.4Y-95.7
X132.7Y-110.8
X133.6Y-79.1
X134.5Y-73.3
X141.2Y-108.4
T2
X66.04Y-102.418
X66.04Y-109.418
T3
X97.2Y-86.69
X97.2Y-89.23
X97.2Y-91.77
X97.2Y-94.31
X97.2Y-104.49
X97.2Y-107.03
X97.2Y-109.57
X97.2Y-112.11
X138.2Y-86.69
X138.2Y-89.23
X138.2Y-91.77
X138.2Y-94.31
X138.2Y-104.49
X138.2Y-107.03
X138.2Y-109.57
X138.2Y-112.11
T4
X73.68Y-74.4
X73.68Y-76.94
X73.68Y-79.48
X73.68Y-82.02
X73.68Y-84.56
X73.68Y-87.1
X73.68Y-89.64
X73.68Y-92.18
X73.68Y-94.72
X73.68Y-97.26
X73.68Y-99.8
X73.68Y-102.34
X74.95Y-71.86
X77.49Y-71.86
X80.03Y-71.86
X82.57Y-71.86
X85.11Y-71.86
X85.999Y-83.163
X85.999Y-85.703
X85.999Y-93.577
X85.999Y-96.117
X87.65Y-71.86
X88.92Y-74.4
X88.92Y-76.94
X88.92Y-79.48
X88.92Y-82.02
X88.92Y-84.56
X88.92Y-87.1
X88.92Y-89.64
X88.92Y-92.18
X88.92Y-94.72
X88.92Y-97.26
X88.92Y-99.8
X88.92Y-102.34
T5
X65.532Y-84.328
X65.532Y-89.408
X94.82Y-76.3
X99.9Y-76.3
X108.44Y-75.7
X113.52Y-75.7
X118.6Y-75.7
X127.02Y-75.7
X132.1Y-75.7
X137.18Y-75.7
T0
M30
