G04 #@! TF.GenerationSoftware,KiCad,Pcbnew,7.0.2-6a45011f42~172~ubuntu22.04.1*
G04 #@! TF.CreationDate,2023-05-24T14:11:10+02:00*
G04 #@! TF.ProjectId,dmx_interceptor,646d785f-696e-4746-9572-636570746f72,rev?*
G04 #@! TF.SameCoordinates,Original*
G04 #@! TF.FileFunction,Legend,Top*
G04 #@! TF.FilePolarity,Positive*
%FSLAX46Y46*%
G04 Gerber Fmt 4.6, Leading zero omitted, Abs format (unit mm)*
G04 Created by KiCad (PCBNEW 7.0.2-6a45011f42~172~ubuntu22.04.1) date 2023-05-24 14:11:10*
%MOMM*%
%LPD*%
G01*
G04 APERTURE LIST*
%ADD10C,0.100000*%
%ADD11C,0.150000*%
%ADD12C,0.127000*%
%ADD13C,0.200000*%
%ADD14C,0.120000*%
%ADD15C,0.300000*%
%ADD16C,3.200000*%
%ADD17R,2.400000X2.400000*%
%ADD18C,2.400000*%
%ADD19C,1.524000*%
%ADD20C,1.258000*%
%ADD21C,1.879600*%
G04 APERTURE END LIST*
D10*
X124272857Y-70220095D02*
X124006190Y-69839142D01*
X123815714Y-70220095D02*
X123815714Y-69420095D01*
X123815714Y-69420095D02*
X124120476Y-69420095D01*
X124120476Y-69420095D02*
X124196666Y-69458190D01*
X124196666Y-69458190D02*
X124234761Y-69496285D01*
X124234761Y-69496285D02*
X124272857Y-69572476D01*
X124272857Y-69572476D02*
X124272857Y-69686761D01*
X124272857Y-69686761D02*
X124234761Y-69762952D01*
X124234761Y-69762952D02*
X124196666Y-69801047D01*
X124196666Y-69801047D02*
X124120476Y-69839142D01*
X124120476Y-69839142D02*
X123815714Y-69839142D01*
X124539523Y-69420095D02*
X125072857Y-70220095D01*
X125072857Y-69420095D02*
X124539523Y-70220095D01*
X126406190Y-69458190D02*
X126330000Y-69420095D01*
X126330000Y-69420095D02*
X126215714Y-69420095D01*
X126215714Y-69420095D02*
X126101428Y-69458190D01*
X126101428Y-69458190D02*
X126025238Y-69534380D01*
X126025238Y-69534380D02*
X125987143Y-69610571D01*
X125987143Y-69610571D02*
X125949047Y-69762952D01*
X125949047Y-69762952D02*
X125949047Y-69877238D01*
X125949047Y-69877238D02*
X125987143Y-70029619D01*
X125987143Y-70029619D02*
X126025238Y-70105809D01*
X126025238Y-70105809D02*
X126101428Y-70182000D01*
X126101428Y-70182000D02*
X126215714Y-70220095D01*
X126215714Y-70220095D02*
X126291905Y-70220095D01*
X126291905Y-70220095D02*
X126406190Y-70182000D01*
X126406190Y-70182000D02*
X126444286Y-70143904D01*
X126444286Y-70143904D02*
X126444286Y-69877238D01*
X126444286Y-69877238D02*
X126291905Y-69877238D01*
X126787143Y-70220095D02*
X126787143Y-69420095D01*
X126787143Y-69420095D02*
X127244286Y-70220095D01*
X127244286Y-70220095D02*
X127244286Y-69420095D01*
X127625238Y-70220095D02*
X127625238Y-69420095D01*
X127625238Y-69420095D02*
X127815714Y-69420095D01*
X127815714Y-69420095D02*
X127930000Y-69458190D01*
X127930000Y-69458190D02*
X128006190Y-69534380D01*
X128006190Y-69534380D02*
X128044285Y-69610571D01*
X128044285Y-69610571D02*
X128082381Y-69762952D01*
X128082381Y-69762952D02*
X128082381Y-69877238D01*
X128082381Y-69877238D02*
X128044285Y-70029619D01*
X128044285Y-70029619D02*
X128006190Y-70105809D01*
X128006190Y-70105809D02*
X127930000Y-70182000D01*
X127930000Y-70182000D02*
X127815714Y-70220095D01*
X127815714Y-70220095D02*
X127625238Y-70220095D01*
X128996666Y-69382000D02*
X128310952Y-70410571D01*
X129682380Y-70220095D02*
X129225237Y-70220095D01*
X129453809Y-70220095D02*
X129453809Y-69420095D01*
X129453809Y-69420095D02*
X129377618Y-69534380D01*
X129377618Y-69534380D02*
X129301428Y-69610571D01*
X129301428Y-69610571D02*
X129225237Y-69648666D01*
X105146666Y-68150095D02*
X105603809Y-68150095D01*
X105375237Y-68950095D02*
X105375237Y-68150095D01*
X105794285Y-68150095D02*
X106327619Y-68950095D01*
X106327619Y-68150095D02*
X105794285Y-68950095D01*
X107660952Y-68188190D02*
X107584762Y-68150095D01*
X107584762Y-68150095D02*
X107470476Y-68150095D01*
X107470476Y-68150095D02*
X107356190Y-68188190D01*
X107356190Y-68188190D02*
X107280000Y-68264380D01*
X107280000Y-68264380D02*
X107241905Y-68340571D01*
X107241905Y-68340571D02*
X107203809Y-68492952D01*
X107203809Y-68492952D02*
X107203809Y-68607238D01*
X107203809Y-68607238D02*
X107241905Y-68759619D01*
X107241905Y-68759619D02*
X107280000Y-68835809D01*
X107280000Y-68835809D02*
X107356190Y-68912000D01*
X107356190Y-68912000D02*
X107470476Y-68950095D01*
X107470476Y-68950095D02*
X107546667Y-68950095D01*
X107546667Y-68950095D02*
X107660952Y-68912000D01*
X107660952Y-68912000D02*
X107699048Y-68873904D01*
X107699048Y-68873904D02*
X107699048Y-68607238D01*
X107699048Y-68607238D02*
X107546667Y-68607238D01*
X108041905Y-68950095D02*
X108041905Y-68150095D01*
X108041905Y-68150095D02*
X108499048Y-68950095D01*
X108499048Y-68950095D02*
X108499048Y-68150095D01*
X108880000Y-68950095D02*
X108880000Y-68150095D01*
X108880000Y-68150095D02*
X109070476Y-68150095D01*
X109070476Y-68150095D02*
X109184762Y-68188190D01*
X109184762Y-68188190D02*
X109260952Y-68264380D01*
X109260952Y-68264380D02*
X109299047Y-68340571D01*
X109299047Y-68340571D02*
X109337143Y-68492952D01*
X109337143Y-68492952D02*
X109337143Y-68607238D01*
X109337143Y-68607238D02*
X109299047Y-68759619D01*
X109299047Y-68759619D02*
X109260952Y-68835809D01*
X109260952Y-68835809D02*
X109184762Y-68912000D01*
X109184762Y-68912000D02*
X109070476Y-68950095D01*
X109070476Y-68950095D02*
X108880000Y-68950095D01*
X110251428Y-68112000D02*
X109565714Y-69140571D01*
X110937142Y-68950095D02*
X110479999Y-68950095D01*
X110708571Y-68950095D02*
X110708571Y-68150095D01*
X110708571Y-68150095D02*
X110632380Y-68264380D01*
X110632380Y-68264380D02*
X110556190Y-68340571D01*
X110556190Y-68340571D02*
X110479999Y-68378666D01*
X115951428Y-68150095D02*
X116408571Y-68150095D01*
X116179999Y-68950095D02*
X116179999Y-68150095D01*
X116599047Y-68150095D02*
X117132381Y-68950095D01*
X117132381Y-68150095D02*
X116599047Y-68950095D01*
X118313333Y-68531047D02*
X118427619Y-68569142D01*
X118427619Y-68569142D02*
X118465714Y-68607238D01*
X118465714Y-68607238D02*
X118503810Y-68683428D01*
X118503810Y-68683428D02*
X118503810Y-68797714D01*
X118503810Y-68797714D02*
X118465714Y-68873904D01*
X118465714Y-68873904D02*
X118427619Y-68912000D01*
X118427619Y-68912000D02*
X118351429Y-68950095D01*
X118351429Y-68950095D02*
X118046667Y-68950095D01*
X118046667Y-68950095D02*
X118046667Y-68150095D01*
X118046667Y-68150095D02*
X118313333Y-68150095D01*
X118313333Y-68150095D02*
X118389524Y-68188190D01*
X118389524Y-68188190D02*
X118427619Y-68226285D01*
X118427619Y-68226285D02*
X118465714Y-68302476D01*
X118465714Y-68302476D02*
X118465714Y-68378666D01*
X118465714Y-68378666D02*
X118427619Y-68454857D01*
X118427619Y-68454857D02*
X118389524Y-68492952D01*
X118389524Y-68492952D02*
X118313333Y-68531047D01*
X118313333Y-68531047D02*
X118046667Y-68531047D01*
X119418095Y-68112000D02*
X118732381Y-69140571D01*
X119646666Y-68226285D02*
X119684762Y-68188190D01*
X119684762Y-68188190D02*
X119760952Y-68150095D01*
X119760952Y-68150095D02*
X119951428Y-68150095D01*
X119951428Y-68150095D02*
X120027619Y-68188190D01*
X120027619Y-68188190D02*
X120065714Y-68226285D01*
X120065714Y-68226285D02*
X120103809Y-68302476D01*
X120103809Y-68302476D02*
X120103809Y-68378666D01*
X120103809Y-68378666D02*
X120065714Y-68492952D01*
X120065714Y-68492952D02*
X119608571Y-68950095D01*
X119608571Y-68950095D02*
X120103809Y-68950095D01*
X121018095Y-68112000D02*
X120332381Y-69140571D01*
X121284762Y-68645333D02*
X121894286Y-68645333D01*
X110428571Y-69170095D02*
X110885714Y-69170095D01*
X110657142Y-69970095D02*
X110657142Y-69170095D01*
X111076190Y-69170095D02*
X111609524Y-69970095D01*
X111609524Y-69170095D02*
X111076190Y-69970095D01*
X112485714Y-69741523D02*
X112866667Y-69741523D01*
X112409524Y-69970095D02*
X112676191Y-69170095D01*
X112676191Y-69170095D02*
X112942857Y-69970095D01*
X113780952Y-69132000D02*
X113095238Y-70160571D01*
X113971428Y-69170095D02*
X114466666Y-69170095D01*
X114466666Y-69170095D02*
X114200000Y-69474857D01*
X114200000Y-69474857D02*
X114314285Y-69474857D01*
X114314285Y-69474857D02*
X114390476Y-69512952D01*
X114390476Y-69512952D02*
X114428571Y-69551047D01*
X114428571Y-69551047D02*
X114466666Y-69627238D01*
X114466666Y-69627238D02*
X114466666Y-69817714D01*
X114466666Y-69817714D02*
X114428571Y-69893904D01*
X114428571Y-69893904D02*
X114390476Y-69932000D01*
X114390476Y-69932000D02*
X114314285Y-69970095D01*
X114314285Y-69970095D02*
X114085714Y-69970095D01*
X114085714Y-69970095D02*
X114009523Y-69932000D01*
X114009523Y-69932000D02*
X113971428Y-69893904D01*
X115380952Y-69132000D02*
X114695238Y-70160571D01*
X115647619Y-69665333D02*
X116257143Y-69665333D01*
X115952381Y-69970095D02*
X115952381Y-69360571D01*
X129804762Y-68950095D02*
X129538095Y-68569142D01*
X129347619Y-68950095D02*
X129347619Y-68150095D01*
X129347619Y-68150095D02*
X129652381Y-68150095D01*
X129652381Y-68150095D02*
X129728571Y-68188190D01*
X129728571Y-68188190D02*
X129766666Y-68226285D01*
X129766666Y-68226285D02*
X129804762Y-68302476D01*
X129804762Y-68302476D02*
X129804762Y-68416761D01*
X129804762Y-68416761D02*
X129766666Y-68492952D01*
X129766666Y-68492952D02*
X129728571Y-68531047D01*
X129728571Y-68531047D02*
X129652381Y-68569142D01*
X129652381Y-68569142D02*
X129347619Y-68569142D01*
X130071428Y-68150095D02*
X130604762Y-68950095D01*
X130604762Y-68150095D02*
X130071428Y-68950095D01*
X131480952Y-68721523D02*
X131861905Y-68721523D01*
X131404762Y-68950095D02*
X131671429Y-68150095D01*
X131671429Y-68150095D02*
X131938095Y-68950095D01*
X132776190Y-68112000D02*
X132090476Y-69140571D01*
X132966666Y-68150095D02*
X133461904Y-68150095D01*
X133461904Y-68150095D02*
X133195238Y-68454857D01*
X133195238Y-68454857D02*
X133309523Y-68454857D01*
X133309523Y-68454857D02*
X133385714Y-68492952D01*
X133385714Y-68492952D02*
X133423809Y-68531047D01*
X133423809Y-68531047D02*
X133461904Y-68607238D01*
X133461904Y-68607238D02*
X133461904Y-68797714D01*
X133461904Y-68797714D02*
X133423809Y-68873904D01*
X133423809Y-68873904D02*
X133385714Y-68912000D01*
X133385714Y-68912000D02*
X133309523Y-68950095D01*
X133309523Y-68950095D02*
X133080952Y-68950095D01*
X133080952Y-68950095D02*
X133004761Y-68912000D01*
X133004761Y-68912000D02*
X132966666Y-68873904D01*
X134376190Y-68112000D02*
X133690476Y-69140571D01*
X134642857Y-68645333D02*
X135252381Y-68645333D01*
X134947619Y-68950095D02*
X134947619Y-68340571D01*
X95090476Y-69362619D02*
X95090476Y-68362619D01*
X95090476Y-68362619D02*
X95471428Y-68362619D01*
X95471428Y-68362619D02*
X95566666Y-68410238D01*
X95566666Y-68410238D02*
X95614285Y-68457857D01*
X95614285Y-68457857D02*
X95661904Y-68553095D01*
X95661904Y-68553095D02*
X95661904Y-68695952D01*
X95661904Y-68695952D02*
X95614285Y-68791190D01*
X95614285Y-68791190D02*
X95566666Y-68838809D01*
X95566666Y-68838809D02*
X95471428Y-68886428D01*
X95471428Y-68886428D02*
X95090476Y-68886428D01*
X96280952Y-68362619D02*
X96471428Y-68362619D01*
X96471428Y-68362619D02*
X96566666Y-68410238D01*
X96566666Y-68410238D02*
X96661904Y-68505476D01*
X96661904Y-68505476D02*
X96709523Y-68695952D01*
X96709523Y-68695952D02*
X96709523Y-69029285D01*
X96709523Y-69029285D02*
X96661904Y-69219761D01*
X96661904Y-69219761D02*
X96566666Y-69315000D01*
X96566666Y-69315000D02*
X96471428Y-69362619D01*
X96471428Y-69362619D02*
X96280952Y-69362619D01*
X96280952Y-69362619D02*
X96185714Y-69315000D01*
X96185714Y-69315000D02*
X96090476Y-69219761D01*
X96090476Y-69219761D02*
X96042857Y-69029285D01*
X96042857Y-69029285D02*
X96042857Y-68695952D01*
X96042857Y-68695952D02*
X96090476Y-68505476D01*
X96090476Y-68505476D02*
X96185714Y-68410238D01*
X96185714Y-68410238D02*
X96280952Y-68362619D01*
X97042857Y-68362619D02*
X97280952Y-69362619D01*
X97280952Y-69362619D02*
X97471428Y-68648333D01*
X97471428Y-68648333D02*
X97661904Y-69362619D01*
X97661904Y-69362619D02*
X97900000Y-68362619D01*
X98280952Y-68838809D02*
X98614285Y-68838809D01*
X98757142Y-69362619D02*
X98280952Y-69362619D01*
X98280952Y-69362619D02*
X98280952Y-68362619D01*
X98280952Y-68362619D02*
X98757142Y-68362619D01*
X99757142Y-69362619D02*
X99423809Y-68886428D01*
X99185714Y-69362619D02*
X99185714Y-68362619D01*
X99185714Y-68362619D02*
X99566666Y-68362619D01*
X99566666Y-68362619D02*
X99661904Y-68410238D01*
X99661904Y-68410238D02*
X99709523Y-68457857D01*
X99709523Y-68457857D02*
X99757142Y-68553095D01*
X99757142Y-68553095D02*
X99757142Y-68695952D01*
X99757142Y-68695952D02*
X99709523Y-68791190D01*
X99709523Y-68791190D02*
X99661904Y-68838809D01*
X99661904Y-68838809D02*
X99566666Y-68886428D01*
X99566666Y-68886428D02*
X99185714Y-68886428D01*
D11*
X93719048Y-69481666D02*
X94480953Y-69481666D01*
X94100000Y-69862619D02*
X94100000Y-69100714D01*
X61121000Y-81136856D02*
X61168619Y-81041618D01*
X61168619Y-81041618D02*
X61168619Y-80851142D01*
X61168619Y-80851142D02*
X61121000Y-80755904D01*
X61121000Y-80755904D02*
X61025761Y-80708285D01*
X61025761Y-80708285D02*
X60978142Y-80708285D01*
X60978142Y-80708285D02*
X60882904Y-80755904D01*
X60882904Y-80755904D02*
X60835285Y-80851142D01*
X60835285Y-80851142D02*
X60835285Y-80993999D01*
X60835285Y-80993999D02*
X60787666Y-81089237D01*
X60787666Y-81089237D02*
X60692428Y-81136856D01*
X60692428Y-81136856D02*
X60644809Y-81136856D01*
X60644809Y-81136856D02*
X60549571Y-81089237D01*
X60549571Y-81089237D02*
X60501952Y-80993999D01*
X60501952Y-80993999D02*
X60501952Y-80851142D01*
X60501952Y-80851142D02*
X60549571Y-80755904D01*
X60501952Y-80374951D02*
X61168619Y-80184475D01*
X61168619Y-80184475D02*
X60692428Y-79993999D01*
X60692428Y-79993999D02*
X61168619Y-79803523D01*
X61168619Y-79803523D02*
X60501952Y-79613047D01*
X61168619Y-79232094D02*
X60501952Y-79232094D01*
X60168619Y-79232094D02*
X60216238Y-79279713D01*
X60216238Y-79279713D02*
X60263857Y-79232094D01*
X60263857Y-79232094D02*
X60216238Y-79184475D01*
X60216238Y-79184475D02*
X60168619Y-79232094D01*
X60168619Y-79232094D02*
X60263857Y-79232094D01*
X60501952Y-78898761D02*
X60501952Y-78517809D01*
X60168619Y-78755904D02*
X61025761Y-78755904D01*
X61025761Y-78755904D02*
X61121000Y-78708285D01*
X61121000Y-78708285D02*
X61168619Y-78613047D01*
X61168619Y-78613047D02*
X61168619Y-78517809D01*
X61121000Y-77755904D02*
X61168619Y-77851142D01*
X61168619Y-77851142D02*
X61168619Y-78041618D01*
X61168619Y-78041618D02*
X61121000Y-78136856D01*
X61121000Y-78136856D02*
X61073380Y-78184475D01*
X61073380Y-78184475D02*
X60978142Y-78232094D01*
X60978142Y-78232094D02*
X60692428Y-78232094D01*
X60692428Y-78232094D02*
X60597190Y-78184475D01*
X60597190Y-78184475D02*
X60549571Y-78136856D01*
X60549571Y-78136856D02*
X60501952Y-78041618D01*
X60501952Y-78041618D02*
X60501952Y-77851142D01*
X60501952Y-77851142D02*
X60549571Y-77755904D01*
X61168619Y-77327332D02*
X60168619Y-77327332D01*
X61168619Y-76898761D02*
X60644809Y-76898761D01*
X60644809Y-76898761D02*
X60549571Y-76946380D01*
X60549571Y-76946380D02*
X60501952Y-77041618D01*
X60501952Y-77041618D02*
X60501952Y-77184475D01*
X60501952Y-77184475D02*
X60549571Y-77279713D01*
X60549571Y-77279713D02*
X60597190Y-77327332D01*
D10*
X134877619Y-70220095D02*
X134610952Y-69839142D01*
X134420476Y-70220095D02*
X134420476Y-69420095D01*
X134420476Y-69420095D02*
X134725238Y-69420095D01*
X134725238Y-69420095D02*
X134801428Y-69458190D01*
X134801428Y-69458190D02*
X134839523Y-69496285D01*
X134839523Y-69496285D02*
X134877619Y-69572476D01*
X134877619Y-69572476D02*
X134877619Y-69686761D01*
X134877619Y-69686761D02*
X134839523Y-69762952D01*
X134839523Y-69762952D02*
X134801428Y-69801047D01*
X134801428Y-69801047D02*
X134725238Y-69839142D01*
X134725238Y-69839142D02*
X134420476Y-69839142D01*
X135144285Y-69420095D02*
X135677619Y-70220095D01*
X135677619Y-69420095D02*
X135144285Y-70220095D01*
X136858571Y-69801047D02*
X136972857Y-69839142D01*
X136972857Y-69839142D02*
X137010952Y-69877238D01*
X137010952Y-69877238D02*
X137049048Y-69953428D01*
X137049048Y-69953428D02*
X137049048Y-70067714D01*
X137049048Y-70067714D02*
X137010952Y-70143904D01*
X137010952Y-70143904D02*
X136972857Y-70182000D01*
X136972857Y-70182000D02*
X136896667Y-70220095D01*
X136896667Y-70220095D02*
X136591905Y-70220095D01*
X136591905Y-70220095D02*
X136591905Y-69420095D01*
X136591905Y-69420095D02*
X136858571Y-69420095D01*
X136858571Y-69420095D02*
X136934762Y-69458190D01*
X136934762Y-69458190D02*
X136972857Y-69496285D01*
X136972857Y-69496285D02*
X137010952Y-69572476D01*
X137010952Y-69572476D02*
X137010952Y-69648666D01*
X137010952Y-69648666D02*
X136972857Y-69724857D01*
X136972857Y-69724857D02*
X136934762Y-69762952D01*
X136934762Y-69762952D02*
X136858571Y-69801047D01*
X136858571Y-69801047D02*
X136591905Y-69801047D01*
X137963333Y-69382000D02*
X137277619Y-70410571D01*
X138191904Y-69496285D02*
X138230000Y-69458190D01*
X138230000Y-69458190D02*
X138306190Y-69420095D01*
X138306190Y-69420095D02*
X138496666Y-69420095D01*
X138496666Y-69420095D02*
X138572857Y-69458190D01*
X138572857Y-69458190D02*
X138610952Y-69496285D01*
X138610952Y-69496285D02*
X138649047Y-69572476D01*
X138649047Y-69572476D02*
X138649047Y-69648666D01*
X138649047Y-69648666D02*
X138610952Y-69762952D01*
X138610952Y-69762952D02*
X138153809Y-70220095D01*
X138153809Y-70220095D02*
X138649047Y-70220095D01*
X139563333Y-69382000D02*
X138877619Y-70410571D01*
X139830000Y-69915333D02*
X140439524Y-69915333D01*
D11*
X100319048Y-69481666D02*
X101080953Y-69481666D01*
X115271428Y-116462619D02*
X115604761Y-117462619D01*
X115604761Y-117462619D02*
X115938094Y-116462619D01*
X116795237Y-117462619D02*
X116223809Y-117462619D01*
X116509523Y-117462619D02*
X116509523Y-116462619D01*
X116509523Y-116462619D02*
X116414285Y-116605476D01*
X116414285Y-116605476D02*
X116319047Y-116700714D01*
X116319047Y-116700714D02*
X116223809Y-116748333D01*
X117223809Y-117367380D02*
X117271428Y-117415000D01*
X117271428Y-117415000D02*
X117223809Y-117462619D01*
X117223809Y-117462619D02*
X117176190Y-117415000D01*
X117176190Y-117415000D02*
X117223809Y-117367380D01*
X117223809Y-117367380D02*
X117223809Y-117462619D01*
X117604761Y-116462619D02*
X118223808Y-116462619D01*
X118223808Y-116462619D02*
X117890475Y-116843571D01*
X117890475Y-116843571D02*
X118033332Y-116843571D01*
X118033332Y-116843571D02*
X118128570Y-116891190D01*
X118128570Y-116891190D02*
X118176189Y-116938809D01*
X118176189Y-116938809D02*
X118223808Y-117034047D01*
X118223808Y-117034047D02*
X118223808Y-117272142D01*
X118223808Y-117272142D02*
X118176189Y-117367380D01*
X118176189Y-117367380D02*
X118128570Y-117415000D01*
X118128570Y-117415000D02*
X118033332Y-117462619D01*
X118033332Y-117462619D02*
X117747618Y-117462619D01*
X117747618Y-117462619D02*
X117652380Y-117415000D01*
X117652380Y-117415000D02*
X117604761Y-117367380D01*
X119414285Y-117081666D02*
X120176190Y-117081666D01*
X121414285Y-117462619D02*
X121414285Y-116462619D01*
X121414285Y-116462619D02*
X121747618Y-117176904D01*
X121747618Y-117176904D02*
X122080951Y-116462619D01*
X122080951Y-116462619D02*
X122080951Y-117462619D01*
X122985713Y-117462619D02*
X122985713Y-116938809D01*
X122985713Y-116938809D02*
X122938094Y-116843571D01*
X122938094Y-116843571D02*
X122842856Y-116795952D01*
X122842856Y-116795952D02*
X122652380Y-116795952D01*
X122652380Y-116795952D02*
X122557142Y-116843571D01*
X122985713Y-117415000D02*
X122890475Y-117462619D01*
X122890475Y-117462619D02*
X122652380Y-117462619D01*
X122652380Y-117462619D02*
X122557142Y-117415000D01*
X122557142Y-117415000D02*
X122509523Y-117319761D01*
X122509523Y-117319761D02*
X122509523Y-117224523D01*
X122509523Y-117224523D02*
X122557142Y-117129285D01*
X122557142Y-117129285D02*
X122652380Y-117081666D01*
X122652380Y-117081666D02*
X122890475Y-117081666D01*
X122890475Y-117081666D02*
X122985713Y-117034047D01*
X123461904Y-117462619D02*
X123461904Y-116795952D01*
X123461904Y-116986428D02*
X123509523Y-116891190D01*
X123509523Y-116891190D02*
X123557142Y-116843571D01*
X123557142Y-116843571D02*
X123652380Y-116795952D01*
X123652380Y-116795952D02*
X123747618Y-116795952D01*
X123938095Y-116795952D02*
X124319047Y-116795952D01*
X124080952Y-116462619D02*
X124080952Y-117319761D01*
X124080952Y-117319761D02*
X124128571Y-117415000D01*
X124128571Y-117415000D02*
X124223809Y-117462619D01*
X124223809Y-117462619D02*
X124319047Y-117462619D01*
X125414286Y-117462619D02*
X125414286Y-116462619D01*
X125414286Y-116938809D02*
X125985714Y-116938809D01*
X125985714Y-117462619D02*
X125985714Y-116462619D01*
X126890476Y-117462619D02*
X126890476Y-116938809D01*
X126890476Y-116938809D02*
X126842857Y-116843571D01*
X126842857Y-116843571D02*
X126747619Y-116795952D01*
X126747619Y-116795952D02*
X126557143Y-116795952D01*
X126557143Y-116795952D02*
X126461905Y-116843571D01*
X126890476Y-117415000D02*
X126795238Y-117462619D01*
X126795238Y-117462619D02*
X126557143Y-117462619D01*
X126557143Y-117462619D02*
X126461905Y-117415000D01*
X126461905Y-117415000D02*
X126414286Y-117319761D01*
X126414286Y-117319761D02*
X126414286Y-117224523D01*
X126414286Y-117224523D02*
X126461905Y-117129285D01*
X126461905Y-117129285D02*
X126557143Y-117081666D01*
X126557143Y-117081666D02*
X126795238Y-117081666D01*
X126795238Y-117081666D02*
X126890476Y-117034047D01*
X127795238Y-117462619D02*
X127795238Y-116938809D01*
X127795238Y-116938809D02*
X127747619Y-116843571D01*
X127747619Y-116843571D02*
X127652381Y-116795952D01*
X127652381Y-116795952D02*
X127461905Y-116795952D01*
X127461905Y-116795952D02*
X127366667Y-116843571D01*
X127795238Y-117415000D02*
X127700000Y-117462619D01*
X127700000Y-117462619D02*
X127461905Y-117462619D01*
X127461905Y-117462619D02*
X127366667Y-117415000D01*
X127366667Y-117415000D02*
X127319048Y-117319761D01*
X127319048Y-117319761D02*
X127319048Y-117224523D01*
X127319048Y-117224523D02*
X127366667Y-117129285D01*
X127366667Y-117129285D02*
X127461905Y-117081666D01*
X127461905Y-117081666D02*
X127700000Y-117081666D01*
X127700000Y-117081666D02*
X127795238Y-117034047D01*
X128271429Y-117462619D02*
X128271429Y-116795952D01*
X128271429Y-116986428D02*
X128319048Y-116891190D01*
X128319048Y-116891190D02*
X128366667Y-116843571D01*
X128366667Y-116843571D02*
X128461905Y-116795952D01*
X128461905Y-116795952D02*
X128557143Y-116795952D01*
X128890477Y-117462619D02*
X128890477Y-116795952D01*
X128890477Y-116891190D02*
X128938096Y-116843571D01*
X128938096Y-116843571D02*
X129033334Y-116795952D01*
X129033334Y-116795952D02*
X129176191Y-116795952D01*
X129176191Y-116795952D02*
X129271429Y-116843571D01*
X129271429Y-116843571D02*
X129319048Y-116938809D01*
X129319048Y-116938809D02*
X129319048Y-117462619D01*
X129319048Y-116938809D02*
X129366667Y-116843571D01*
X129366667Y-116843571D02*
X129461905Y-116795952D01*
X129461905Y-116795952D02*
X129604762Y-116795952D01*
X129604762Y-116795952D02*
X129700001Y-116843571D01*
X129700001Y-116843571D02*
X129747620Y-116938809D01*
X129747620Y-116938809D02*
X129747620Y-117462619D01*
X130652381Y-117462619D02*
X130652381Y-116938809D01*
X130652381Y-116938809D02*
X130604762Y-116843571D01*
X130604762Y-116843571D02*
X130509524Y-116795952D01*
X130509524Y-116795952D02*
X130319048Y-116795952D01*
X130319048Y-116795952D02*
X130223810Y-116843571D01*
X130652381Y-117415000D02*
X130557143Y-117462619D01*
X130557143Y-117462619D02*
X130319048Y-117462619D01*
X130319048Y-117462619D02*
X130223810Y-117415000D01*
X130223810Y-117415000D02*
X130176191Y-117319761D01*
X130176191Y-117319761D02*
X130176191Y-117224523D01*
X130176191Y-117224523D02*
X130223810Y-117129285D01*
X130223810Y-117129285D02*
X130319048Y-117081666D01*
X130319048Y-117081666D02*
X130557143Y-117081666D01*
X130557143Y-117081666D02*
X130652381Y-117034047D01*
X131128572Y-116795952D02*
X131128572Y-117462619D01*
X131128572Y-116891190D02*
X131176191Y-116843571D01*
X131176191Y-116843571D02*
X131271429Y-116795952D01*
X131271429Y-116795952D02*
X131414286Y-116795952D01*
X131414286Y-116795952D02*
X131509524Y-116843571D01*
X131509524Y-116843571D02*
X131557143Y-116938809D01*
X131557143Y-116938809D02*
X131557143Y-117462619D01*
X132795239Y-117081666D02*
X133557144Y-117081666D01*
X134795239Y-117462619D02*
X134795239Y-116462619D01*
X134795239Y-116462619D02*
X135128572Y-117176904D01*
X135128572Y-117176904D02*
X135461905Y-116462619D01*
X135461905Y-116462619D02*
X135461905Y-117462619D01*
X135938096Y-117462619D02*
X135938096Y-116462619D01*
X135938096Y-116938809D02*
X136509524Y-116938809D01*
X136509524Y-117462619D02*
X136509524Y-116462619D01*
X136890477Y-116462619D02*
X137128572Y-117462619D01*
X137128572Y-117462619D02*
X137319048Y-116748333D01*
X137319048Y-116748333D02*
X137509524Y-117462619D01*
X137509524Y-117462619D02*
X137747620Y-116462619D01*
X138128572Y-117462619D02*
X138128572Y-116462619D01*
X138128572Y-116462619D02*
X138366667Y-116462619D01*
X138366667Y-116462619D02*
X138509524Y-116510238D01*
X138509524Y-116510238D02*
X138604762Y-116605476D01*
X138604762Y-116605476D02*
X138652381Y-116700714D01*
X138652381Y-116700714D02*
X138700000Y-116891190D01*
X138700000Y-116891190D02*
X138700000Y-117034047D01*
X138700000Y-117034047D02*
X138652381Y-117224523D01*
X138652381Y-117224523D02*
X138604762Y-117319761D01*
X138604762Y-117319761D02*
X138509524Y-117415000D01*
X138509524Y-117415000D02*
X138366667Y-117462619D01*
X138366667Y-117462619D02*
X138128572Y-117462619D01*
X139128572Y-117367380D02*
X139176191Y-117415000D01*
X139176191Y-117415000D02*
X139128572Y-117462619D01*
X139128572Y-117462619D02*
X139080953Y-117415000D01*
X139080953Y-117415000D02*
X139128572Y-117367380D01*
X139128572Y-117367380D02*
X139128572Y-117462619D01*
X139604762Y-117462619D02*
X139604762Y-116462619D01*
X139604762Y-116462619D02*
X140176190Y-117462619D01*
X140176190Y-117462619D02*
X140176190Y-116462619D01*
X141128571Y-117462619D02*
X140652381Y-117462619D01*
X140652381Y-117462619D02*
X140652381Y-116462619D01*
X69605666Y-80476666D02*
X70605666Y-80476666D01*
X70605666Y-80476666D02*
X70805666Y-80543333D01*
X70805666Y-80543333D02*
X70939000Y-80676666D01*
X70939000Y-80676666D02*
X71005666Y-80876666D01*
X71005666Y-80876666D02*
X71005666Y-81010000D01*
X69739000Y-79876666D02*
X69672333Y-79809999D01*
X69672333Y-79809999D02*
X69605666Y-79676666D01*
X69605666Y-79676666D02*
X69605666Y-79343333D01*
X69605666Y-79343333D02*
X69672333Y-79209999D01*
X69672333Y-79209999D02*
X69739000Y-79143333D01*
X69739000Y-79143333D02*
X69872333Y-79076666D01*
X69872333Y-79076666D02*
X70005666Y-79076666D01*
X70005666Y-79076666D02*
X70205666Y-79143333D01*
X70205666Y-79143333D02*
X71005666Y-79943333D01*
X71005666Y-79943333D02*
X71005666Y-79076666D01*
X103673333Y-81797666D02*
X103673333Y-82797666D01*
X103673333Y-82797666D02*
X103606666Y-82997666D01*
X103606666Y-82997666D02*
X103473333Y-83131000D01*
X103473333Y-83131000D02*
X103273333Y-83197666D01*
X103273333Y-83197666D02*
X103140000Y-83197666D01*
X105073333Y-83197666D02*
X104273333Y-83197666D01*
X104673333Y-83197666D02*
X104673333Y-81797666D01*
X104673333Y-81797666D02*
X104540000Y-81997666D01*
X104540000Y-81997666D02*
X104406667Y-82131000D01*
X104406667Y-82131000D02*
X104273333Y-82197666D01*
X121453333Y-81797666D02*
X121453333Y-82797666D01*
X121453333Y-82797666D02*
X121386666Y-82997666D01*
X121386666Y-82997666D02*
X121253333Y-83131000D01*
X121253333Y-83131000D02*
X121053333Y-83197666D01*
X121053333Y-83197666D02*
X120920000Y-83197666D01*
X121986667Y-81797666D02*
X122853333Y-81797666D01*
X122853333Y-81797666D02*
X122386667Y-82331000D01*
X122386667Y-82331000D02*
X122586667Y-82331000D01*
X122586667Y-82331000D02*
X122720000Y-82397666D01*
X122720000Y-82397666D02*
X122786667Y-82464333D01*
X122786667Y-82464333D02*
X122853333Y-82597666D01*
X122853333Y-82597666D02*
X122853333Y-82931000D01*
X122853333Y-82931000D02*
X122786667Y-83064333D01*
X122786667Y-83064333D02*
X122720000Y-83131000D01*
X122720000Y-83131000D02*
X122586667Y-83197666D01*
X122586667Y-83197666D02*
X122186667Y-83197666D01*
X122186667Y-83197666D02*
X122053333Y-83131000D01*
X122053333Y-83131000D02*
X121986667Y-83064333D01*
X141162619Y-97809523D02*
X140495952Y-97809523D01*
X140591190Y-97809523D02*
X140543571Y-97761904D01*
X140543571Y-97761904D02*
X140495952Y-97666666D01*
X140495952Y-97666666D02*
X140495952Y-97523809D01*
X140495952Y-97523809D02*
X140543571Y-97428571D01*
X140543571Y-97428571D02*
X140638809Y-97380952D01*
X140638809Y-97380952D02*
X141162619Y-97380952D01*
X140638809Y-97380952D02*
X140543571Y-97333333D01*
X140543571Y-97333333D02*
X140495952Y-97238095D01*
X140495952Y-97238095D02*
X140495952Y-97095238D01*
X140495952Y-97095238D02*
X140543571Y-96999999D01*
X140543571Y-96999999D02*
X140638809Y-96952380D01*
X140638809Y-96952380D02*
X141162619Y-96952380D01*
X141162619Y-96333333D02*
X141115000Y-96428571D01*
X141115000Y-96428571D02*
X141067380Y-96476190D01*
X141067380Y-96476190D02*
X140972142Y-96523809D01*
X140972142Y-96523809D02*
X140686428Y-96523809D01*
X140686428Y-96523809D02*
X140591190Y-96476190D01*
X140591190Y-96476190D02*
X140543571Y-96428571D01*
X140543571Y-96428571D02*
X140495952Y-96333333D01*
X140495952Y-96333333D02*
X140495952Y-96190476D01*
X140495952Y-96190476D02*
X140543571Y-96095238D01*
X140543571Y-96095238D02*
X140591190Y-96047619D01*
X140591190Y-96047619D02*
X140686428Y-96000000D01*
X140686428Y-96000000D02*
X140972142Y-96000000D01*
X140972142Y-96000000D02*
X141067380Y-96047619D01*
X141067380Y-96047619D02*
X141115000Y-96095238D01*
X141115000Y-96095238D02*
X141162619Y-96190476D01*
X141162619Y-96190476D02*
X141162619Y-96333333D01*
X141162619Y-95142857D02*
X140162619Y-95142857D01*
X141115000Y-95142857D02*
X141162619Y-95238095D01*
X141162619Y-95238095D02*
X141162619Y-95428571D01*
X141162619Y-95428571D02*
X141115000Y-95523809D01*
X141115000Y-95523809D02*
X141067380Y-95571428D01*
X141067380Y-95571428D02*
X140972142Y-95619047D01*
X140972142Y-95619047D02*
X140686428Y-95619047D01*
X140686428Y-95619047D02*
X140591190Y-95571428D01*
X140591190Y-95571428D02*
X140543571Y-95523809D01*
X140543571Y-95523809D02*
X140495952Y-95428571D01*
X140495952Y-95428571D02*
X140495952Y-95238095D01*
X140495952Y-95238095D02*
X140543571Y-95142857D01*
X140257857Y-94714285D02*
X140210238Y-94666666D01*
X140210238Y-94666666D02*
X140162619Y-94571428D01*
X140162619Y-94571428D02*
X140162619Y-94333333D01*
X140162619Y-94333333D02*
X140210238Y-94238095D01*
X140210238Y-94238095D02*
X140257857Y-94190476D01*
X140257857Y-94190476D02*
X140353095Y-94142857D01*
X140353095Y-94142857D02*
X140448333Y-94142857D01*
X140448333Y-94142857D02*
X140591190Y-94190476D01*
X140591190Y-94190476D02*
X141162619Y-94761904D01*
X141162619Y-94761904D02*
X141162619Y-94142857D01*
X99557142Y-89462619D02*
X99223809Y-88986428D01*
X98985714Y-89462619D02*
X98985714Y-88462619D01*
X98985714Y-88462619D02*
X99366666Y-88462619D01*
X99366666Y-88462619D02*
X99461904Y-88510238D01*
X99461904Y-88510238D02*
X99509523Y-88557857D01*
X99509523Y-88557857D02*
X99557142Y-88653095D01*
X99557142Y-88653095D02*
X99557142Y-88795952D01*
X99557142Y-88795952D02*
X99509523Y-88891190D01*
X99509523Y-88891190D02*
X99461904Y-88938809D01*
X99461904Y-88938809D02*
X99366666Y-88986428D01*
X99366666Y-88986428D02*
X98985714Y-88986428D01*
X99985714Y-88938809D02*
X100319047Y-88938809D01*
X100461904Y-89462619D02*
X99985714Y-89462619D01*
X99985714Y-89462619D02*
X99985714Y-88462619D01*
X99985714Y-88462619D02*
X100461904Y-88462619D01*
X99200000Y-94962619D02*
X99200000Y-93962619D01*
X99200000Y-93962619D02*
X99438095Y-93962619D01*
X99438095Y-93962619D02*
X99580952Y-94010238D01*
X99580952Y-94010238D02*
X99676190Y-94105476D01*
X99676190Y-94105476D02*
X99723809Y-94200714D01*
X99723809Y-94200714D02*
X99771428Y-94391190D01*
X99771428Y-94391190D02*
X99771428Y-94534047D01*
X99771428Y-94534047D02*
X99723809Y-94724523D01*
X99723809Y-94724523D02*
X99676190Y-94819761D01*
X99676190Y-94819761D02*
X99580952Y-94915000D01*
X99580952Y-94915000D02*
X99438095Y-94962619D01*
X99438095Y-94962619D02*
X99200000Y-94962619D01*
X100200000Y-94962619D02*
X100200000Y-93962619D01*
X135271428Y-88938809D02*
X135414285Y-88986428D01*
X135414285Y-88986428D02*
X135461904Y-89034047D01*
X135461904Y-89034047D02*
X135509523Y-89129285D01*
X135509523Y-89129285D02*
X135509523Y-89272142D01*
X135509523Y-89272142D02*
X135461904Y-89367380D01*
X135461904Y-89367380D02*
X135414285Y-89415000D01*
X135414285Y-89415000D02*
X135319047Y-89462619D01*
X135319047Y-89462619D02*
X134938095Y-89462619D01*
X134938095Y-89462619D02*
X134938095Y-88462619D01*
X134938095Y-88462619D02*
X135271428Y-88462619D01*
X135271428Y-88462619D02*
X135366666Y-88510238D01*
X135366666Y-88510238D02*
X135414285Y-88557857D01*
X135414285Y-88557857D02*
X135461904Y-88653095D01*
X135461904Y-88653095D02*
X135461904Y-88748333D01*
X135461904Y-88748333D02*
X135414285Y-88843571D01*
X135414285Y-88843571D02*
X135366666Y-88891190D01*
X135366666Y-88891190D02*
X135271428Y-88938809D01*
X135271428Y-88938809D02*
X134938095Y-88938809D01*
X133866667Y-85962619D02*
X134200000Y-86962619D01*
X134200000Y-86962619D02*
X134533333Y-85962619D01*
X135438095Y-86867380D02*
X135390476Y-86915000D01*
X135390476Y-86915000D02*
X135247619Y-86962619D01*
X135247619Y-86962619D02*
X135152381Y-86962619D01*
X135152381Y-86962619D02*
X135009524Y-86915000D01*
X135009524Y-86915000D02*
X134914286Y-86819761D01*
X134914286Y-86819761D02*
X134866667Y-86724523D01*
X134866667Y-86724523D02*
X134819048Y-86534047D01*
X134819048Y-86534047D02*
X134819048Y-86391190D01*
X134819048Y-86391190D02*
X134866667Y-86200714D01*
X134866667Y-86200714D02*
X134914286Y-86105476D01*
X134914286Y-86105476D02*
X135009524Y-86010238D01*
X135009524Y-86010238D02*
X135152381Y-85962619D01*
X135152381Y-85962619D02*
X135247619Y-85962619D01*
X135247619Y-85962619D02*
X135390476Y-86010238D01*
X135390476Y-86010238D02*
X135438095Y-86057857D01*
X136438095Y-86867380D02*
X136390476Y-86915000D01*
X136390476Y-86915000D02*
X136247619Y-86962619D01*
X136247619Y-86962619D02*
X136152381Y-86962619D01*
X136152381Y-86962619D02*
X136009524Y-86915000D01*
X136009524Y-86915000D02*
X135914286Y-86819761D01*
X135914286Y-86819761D02*
X135866667Y-86724523D01*
X135866667Y-86724523D02*
X135819048Y-86534047D01*
X135819048Y-86534047D02*
X135819048Y-86391190D01*
X135819048Y-86391190D02*
X135866667Y-86200714D01*
X135866667Y-86200714D02*
X135914286Y-86105476D01*
X135914286Y-86105476D02*
X136009524Y-86010238D01*
X136009524Y-86010238D02*
X136152381Y-85962619D01*
X136152381Y-85962619D02*
X136247619Y-85962619D01*
X136247619Y-85962619D02*
X136390476Y-86010238D01*
X136390476Y-86010238D02*
X136438095Y-86057857D01*
X134961905Y-92176904D02*
X135438095Y-92176904D01*
X134866667Y-92462619D02*
X135200000Y-91462619D01*
X135200000Y-91462619D02*
X135533333Y-92462619D01*
X98985714Y-92462619D02*
X98985714Y-91462619D01*
X98985714Y-91462619D02*
X99223809Y-91462619D01*
X99223809Y-91462619D02*
X99366666Y-91510238D01*
X99366666Y-91510238D02*
X99461904Y-91605476D01*
X99461904Y-91605476D02*
X99509523Y-91700714D01*
X99509523Y-91700714D02*
X99557142Y-91891190D01*
X99557142Y-91891190D02*
X99557142Y-92034047D01*
X99557142Y-92034047D02*
X99509523Y-92224523D01*
X99509523Y-92224523D02*
X99461904Y-92319761D01*
X99461904Y-92319761D02*
X99366666Y-92415000D01*
X99366666Y-92415000D02*
X99223809Y-92462619D01*
X99223809Y-92462619D02*
X98985714Y-92462619D01*
X99985714Y-91938809D02*
X100319047Y-91938809D01*
X100461904Y-92462619D02*
X99985714Y-92462619D01*
X99985714Y-92462619D02*
X99985714Y-91462619D01*
X99985714Y-91462619D02*
X100461904Y-91462619D01*
X99485714Y-86962619D02*
X99152381Y-86486428D01*
X98914286Y-86962619D02*
X98914286Y-85962619D01*
X98914286Y-85962619D02*
X99295238Y-85962619D01*
X99295238Y-85962619D02*
X99390476Y-86010238D01*
X99390476Y-86010238D02*
X99438095Y-86057857D01*
X99438095Y-86057857D02*
X99485714Y-86153095D01*
X99485714Y-86153095D02*
X99485714Y-86295952D01*
X99485714Y-86295952D02*
X99438095Y-86391190D01*
X99438095Y-86391190D02*
X99390476Y-86438809D01*
X99390476Y-86438809D02*
X99295238Y-86486428D01*
X99295238Y-86486428D02*
X98914286Y-86486428D01*
X100104762Y-85962619D02*
X100295238Y-85962619D01*
X100295238Y-85962619D02*
X100390476Y-86010238D01*
X100390476Y-86010238D02*
X100485714Y-86105476D01*
X100485714Y-86105476D02*
X100533333Y-86295952D01*
X100533333Y-86295952D02*
X100533333Y-86629285D01*
X100533333Y-86629285D02*
X100485714Y-86819761D01*
X100485714Y-86819761D02*
X100390476Y-86915000D01*
X100390476Y-86915000D02*
X100295238Y-86962619D01*
X100295238Y-86962619D02*
X100104762Y-86962619D01*
X100104762Y-86962619D02*
X100009524Y-86915000D01*
X100009524Y-86915000D02*
X99914286Y-86819761D01*
X99914286Y-86819761D02*
X99866667Y-86629285D01*
X99866667Y-86629285D02*
X99866667Y-86295952D01*
X99866667Y-86295952D02*
X99914286Y-86105476D01*
X99914286Y-86105476D02*
X100009524Y-86010238D01*
X100009524Y-86010238D02*
X100104762Y-85962619D01*
X134438095Y-94010238D02*
X134342857Y-93962619D01*
X134342857Y-93962619D02*
X134200000Y-93962619D01*
X134200000Y-93962619D02*
X134057143Y-94010238D01*
X134057143Y-94010238D02*
X133961905Y-94105476D01*
X133961905Y-94105476D02*
X133914286Y-94200714D01*
X133914286Y-94200714D02*
X133866667Y-94391190D01*
X133866667Y-94391190D02*
X133866667Y-94534047D01*
X133866667Y-94534047D02*
X133914286Y-94724523D01*
X133914286Y-94724523D02*
X133961905Y-94819761D01*
X133961905Y-94819761D02*
X134057143Y-94915000D01*
X134057143Y-94915000D02*
X134200000Y-94962619D01*
X134200000Y-94962619D02*
X134295238Y-94962619D01*
X134295238Y-94962619D02*
X134438095Y-94915000D01*
X134438095Y-94915000D02*
X134485714Y-94867380D01*
X134485714Y-94867380D02*
X134485714Y-94534047D01*
X134485714Y-94534047D02*
X134295238Y-94534047D01*
X134914286Y-94962619D02*
X134914286Y-93962619D01*
X134914286Y-93962619D02*
X135485714Y-94962619D01*
X135485714Y-94962619D02*
X135485714Y-93962619D01*
X135961905Y-94962619D02*
X135961905Y-93962619D01*
X135961905Y-93962619D02*
X136200000Y-93962619D01*
X136200000Y-93962619D02*
X136342857Y-94010238D01*
X136342857Y-94010238D02*
X136438095Y-94105476D01*
X136438095Y-94105476D02*
X136485714Y-94200714D01*
X136485714Y-94200714D02*
X136533333Y-94391190D01*
X136533333Y-94391190D02*
X136533333Y-94534047D01*
X136533333Y-94534047D02*
X136485714Y-94724523D01*
X136485714Y-94724523D02*
X136438095Y-94819761D01*
X136438095Y-94819761D02*
X136342857Y-94915000D01*
X136342857Y-94915000D02*
X136200000Y-94962619D01*
X136200000Y-94962619D02*
X135961905Y-94962619D01*
X140503333Y-81797666D02*
X140503333Y-82797666D01*
X140503333Y-82797666D02*
X140436666Y-82997666D01*
X140436666Y-82997666D02*
X140303333Y-83131000D01*
X140303333Y-83131000D02*
X140103333Y-83197666D01*
X140103333Y-83197666D02*
X139970000Y-83197666D01*
X141770000Y-82264333D02*
X141770000Y-83197666D01*
X141436667Y-81731000D02*
X141103333Y-82731000D01*
X141103333Y-82731000D02*
X141970000Y-82731000D01*
X63841204Y-106362926D02*
X63507614Y-105886368D01*
X63269335Y-106362926D02*
X63269335Y-105362154D01*
X63269335Y-105362154D02*
X63650581Y-105362154D01*
X63650581Y-105362154D02*
X63745893Y-105409810D01*
X63745893Y-105409810D02*
X63793548Y-105457466D01*
X63793548Y-105457466D02*
X63841204Y-105552778D01*
X63841204Y-105552778D02*
X63841204Y-105695745D01*
X63841204Y-105695745D02*
X63793548Y-105791057D01*
X63793548Y-105791057D02*
X63745893Y-105838712D01*
X63745893Y-105838712D02*
X63650581Y-105886368D01*
X63650581Y-105886368D02*
X63269335Y-105886368D01*
X64794320Y-106362926D02*
X64222451Y-106362926D01*
X64508386Y-106362926D02*
X64508386Y-105362154D01*
X64508386Y-105362154D02*
X64413074Y-105505122D01*
X64413074Y-105505122D02*
X64317762Y-105600433D01*
X64317762Y-105600433D02*
X64222451Y-105648089D01*
X141162619Y-115609523D02*
X140495952Y-115609523D01*
X140591190Y-115609523D02*
X140543571Y-115561904D01*
X140543571Y-115561904D02*
X140495952Y-115466666D01*
X140495952Y-115466666D02*
X140495952Y-115323809D01*
X140495952Y-115323809D02*
X140543571Y-115228571D01*
X140543571Y-115228571D02*
X140638809Y-115180952D01*
X140638809Y-115180952D02*
X141162619Y-115180952D01*
X140638809Y-115180952D02*
X140543571Y-115133333D01*
X140543571Y-115133333D02*
X140495952Y-115038095D01*
X140495952Y-115038095D02*
X140495952Y-114895238D01*
X140495952Y-114895238D02*
X140543571Y-114799999D01*
X140543571Y-114799999D02*
X140638809Y-114752380D01*
X140638809Y-114752380D02*
X141162619Y-114752380D01*
X141162619Y-114133333D02*
X141115000Y-114228571D01*
X141115000Y-114228571D02*
X141067380Y-114276190D01*
X141067380Y-114276190D02*
X140972142Y-114323809D01*
X140972142Y-114323809D02*
X140686428Y-114323809D01*
X140686428Y-114323809D02*
X140591190Y-114276190D01*
X140591190Y-114276190D02*
X140543571Y-114228571D01*
X140543571Y-114228571D02*
X140495952Y-114133333D01*
X140495952Y-114133333D02*
X140495952Y-113990476D01*
X140495952Y-113990476D02*
X140543571Y-113895238D01*
X140543571Y-113895238D02*
X140591190Y-113847619D01*
X140591190Y-113847619D02*
X140686428Y-113800000D01*
X140686428Y-113800000D02*
X140972142Y-113800000D01*
X140972142Y-113800000D02*
X141067380Y-113847619D01*
X141067380Y-113847619D02*
X141115000Y-113895238D01*
X141115000Y-113895238D02*
X141162619Y-113990476D01*
X141162619Y-113990476D02*
X141162619Y-114133333D01*
X141162619Y-112942857D02*
X140162619Y-112942857D01*
X141115000Y-112942857D02*
X141162619Y-113038095D01*
X141162619Y-113038095D02*
X141162619Y-113228571D01*
X141162619Y-113228571D02*
X141115000Y-113323809D01*
X141115000Y-113323809D02*
X141067380Y-113371428D01*
X141067380Y-113371428D02*
X140972142Y-113419047D01*
X140972142Y-113419047D02*
X140686428Y-113419047D01*
X140686428Y-113419047D02*
X140591190Y-113371428D01*
X140591190Y-113371428D02*
X140543571Y-113323809D01*
X140543571Y-113323809D02*
X140495952Y-113228571D01*
X140495952Y-113228571D02*
X140495952Y-113038095D01*
X140495952Y-113038095D02*
X140543571Y-112942857D01*
X141162619Y-111942857D02*
X141162619Y-112514285D01*
X141162619Y-112228571D02*
X140162619Y-112228571D01*
X140162619Y-112228571D02*
X140305476Y-112323809D01*
X140305476Y-112323809D02*
X140400714Y-112419047D01*
X140400714Y-112419047D02*
X140448333Y-112514285D01*
X134961905Y-109976904D02*
X135438095Y-109976904D01*
X134866667Y-110262619D02*
X135200000Y-109262619D01*
X135200000Y-109262619D02*
X135533333Y-110262619D01*
X99557142Y-107262619D02*
X99223809Y-106786428D01*
X98985714Y-107262619D02*
X98985714Y-106262619D01*
X98985714Y-106262619D02*
X99366666Y-106262619D01*
X99366666Y-106262619D02*
X99461904Y-106310238D01*
X99461904Y-106310238D02*
X99509523Y-106357857D01*
X99509523Y-106357857D02*
X99557142Y-106453095D01*
X99557142Y-106453095D02*
X99557142Y-106595952D01*
X99557142Y-106595952D02*
X99509523Y-106691190D01*
X99509523Y-106691190D02*
X99461904Y-106738809D01*
X99461904Y-106738809D02*
X99366666Y-106786428D01*
X99366666Y-106786428D02*
X98985714Y-106786428D01*
X99985714Y-106738809D02*
X100319047Y-106738809D01*
X100461904Y-107262619D02*
X99985714Y-107262619D01*
X99985714Y-107262619D02*
X99985714Y-106262619D01*
X99985714Y-106262619D02*
X100461904Y-106262619D01*
X133866667Y-103762619D02*
X134200000Y-104762619D01*
X134200000Y-104762619D02*
X134533333Y-103762619D01*
X135438095Y-104667380D02*
X135390476Y-104715000D01*
X135390476Y-104715000D02*
X135247619Y-104762619D01*
X135247619Y-104762619D02*
X135152381Y-104762619D01*
X135152381Y-104762619D02*
X135009524Y-104715000D01*
X135009524Y-104715000D02*
X134914286Y-104619761D01*
X134914286Y-104619761D02*
X134866667Y-104524523D01*
X134866667Y-104524523D02*
X134819048Y-104334047D01*
X134819048Y-104334047D02*
X134819048Y-104191190D01*
X134819048Y-104191190D02*
X134866667Y-104000714D01*
X134866667Y-104000714D02*
X134914286Y-103905476D01*
X134914286Y-103905476D02*
X135009524Y-103810238D01*
X135009524Y-103810238D02*
X135152381Y-103762619D01*
X135152381Y-103762619D02*
X135247619Y-103762619D01*
X135247619Y-103762619D02*
X135390476Y-103810238D01*
X135390476Y-103810238D02*
X135438095Y-103857857D01*
X136438095Y-104667380D02*
X136390476Y-104715000D01*
X136390476Y-104715000D02*
X136247619Y-104762619D01*
X136247619Y-104762619D02*
X136152381Y-104762619D01*
X136152381Y-104762619D02*
X136009524Y-104715000D01*
X136009524Y-104715000D02*
X135914286Y-104619761D01*
X135914286Y-104619761D02*
X135866667Y-104524523D01*
X135866667Y-104524523D02*
X135819048Y-104334047D01*
X135819048Y-104334047D02*
X135819048Y-104191190D01*
X135819048Y-104191190D02*
X135866667Y-104000714D01*
X135866667Y-104000714D02*
X135914286Y-103905476D01*
X135914286Y-103905476D02*
X136009524Y-103810238D01*
X136009524Y-103810238D02*
X136152381Y-103762619D01*
X136152381Y-103762619D02*
X136247619Y-103762619D01*
X136247619Y-103762619D02*
X136390476Y-103810238D01*
X136390476Y-103810238D02*
X136438095Y-103857857D01*
X134438095Y-111810238D02*
X134342857Y-111762619D01*
X134342857Y-111762619D02*
X134200000Y-111762619D01*
X134200000Y-111762619D02*
X134057143Y-111810238D01*
X134057143Y-111810238D02*
X133961905Y-111905476D01*
X133961905Y-111905476D02*
X133914286Y-112000714D01*
X133914286Y-112000714D02*
X133866667Y-112191190D01*
X133866667Y-112191190D02*
X133866667Y-112334047D01*
X133866667Y-112334047D02*
X133914286Y-112524523D01*
X133914286Y-112524523D02*
X133961905Y-112619761D01*
X133961905Y-112619761D02*
X134057143Y-112715000D01*
X134057143Y-112715000D02*
X134200000Y-112762619D01*
X134200000Y-112762619D02*
X134295238Y-112762619D01*
X134295238Y-112762619D02*
X134438095Y-112715000D01*
X134438095Y-112715000D02*
X134485714Y-112667380D01*
X134485714Y-112667380D02*
X134485714Y-112334047D01*
X134485714Y-112334047D02*
X134295238Y-112334047D01*
X134914286Y-112762619D02*
X134914286Y-111762619D01*
X134914286Y-111762619D02*
X135485714Y-112762619D01*
X135485714Y-112762619D02*
X135485714Y-111762619D01*
X135961905Y-112762619D02*
X135961905Y-111762619D01*
X135961905Y-111762619D02*
X136200000Y-111762619D01*
X136200000Y-111762619D02*
X136342857Y-111810238D01*
X136342857Y-111810238D02*
X136438095Y-111905476D01*
X136438095Y-111905476D02*
X136485714Y-112000714D01*
X136485714Y-112000714D02*
X136533333Y-112191190D01*
X136533333Y-112191190D02*
X136533333Y-112334047D01*
X136533333Y-112334047D02*
X136485714Y-112524523D01*
X136485714Y-112524523D02*
X136438095Y-112619761D01*
X136438095Y-112619761D02*
X136342857Y-112715000D01*
X136342857Y-112715000D02*
X136200000Y-112762619D01*
X136200000Y-112762619D02*
X135961905Y-112762619D01*
X98985714Y-110262619D02*
X98985714Y-109262619D01*
X98985714Y-109262619D02*
X99223809Y-109262619D01*
X99223809Y-109262619D02*
X99366666Y-109310238D01*
X99366666Y-109310238D02*
X99461904Y-109405476D01*
X99461904Y-109405476D02*
X99509523Y-109500714D01*
X99509523Y-109500714D02*
X99557142Y-109691190D01*
X99557142Y-109691190D02*
X99557142Y-109834047D01*
X99557142Y-109834047D02*
X99509523Y-110024523D01*
X99509523Y-110024523D02*
X99461904Y-110119761D01*
X99461904Y-110119761D02*
X99366666Y-110215000D01*
X99366666Y-110215000D02*
X99223809Y-110262619D01*
X99223809Y-110262619D02*
X98985714Y-110262619D01*
X99985714Y-109738809D02*
X100319047Y-109738809D01*
X100461904Y-110262619D02*
X99985714Y-110262619D01*
X99985714Y-110262619D02*
X99985714Y-109262619D01*
X99985714Y-109262619D02*
X100461904Y-109262619D01*
X99200000Y-112762619D02*
X99200000Y-111762619D01*
X99200000Y-111762619D02*
X99438095Y-111762619D01*
X99438095Y-111762619D02*
X99580952Y-111810238D01*
X99580952Y-111810238D02*
X99676190Y-111905476D01*
X99676190Y-111905476D02*
X99723809Y-112000714D01*
X99723809Y-112000714D02*
X99771428Y-112191190D01*
X99771428Y-112191190D02*
X99771428Y-112334047D01*
X99771428Y-112334047D02*
X99723809Y-112524523D01*
X99723809Y-112524523D02*
X99676190Y-112619761D01*
X99676190Y-112619761D02*
X99580952Y-112715000D01*
X99580952Y-112715000D02*
X99438095Y-112762619D01*
X99438095Y-112762619D02*
X99200000Y-112762619D01*
X100200000Y-112762619D02*
X100200000Y-111762619D01*
X135271428Y-106738809D02*
X135414285Y-106786428D01*
X135414285Y-106786428D02*
X135461904Y-106834047D01*
X135461904Y-106834047D02*
X135509523Y-106929285D01*
X135509523Y-106929285D02*
X135509523Y-107072142D01*
X135509523Y-107072142D02*
X135461904Y-107167380D01*
X135461904Y-107167380D02*
X135414285Y-107215000D01*
X135414285Y-107215000D02*
X135319047Y-107262619D01*
X135319047Y-107262619D02*
X134938095Y-107262619D01*
X134938095Y-107262619D02*
X134938095Y-106262619D01*
X134938095Y-106262619D02*
X135271428Y-106262619D01*
X135271428Y-106262619D02*
X135366666Y-106310238D01*
X135366666Y-106310238D02*
X135414285Y-106357857D01*
X135414285Y-106357857D02*
X135461904Y-106453095D01*
X135461904Y-106453095D02*
X135461904Y-106548333D01*
X135461904Y-106548333D02*
X135414285Y-106643571D01*
X135414285Y-106643571D02*
X135366666Y-106691190D01*
X135366666Y-106691190D02*
X135271428Y-106738809D01*
X135271428Y-106738809D02*
X134938095Y-106738809D01*
X99485714Y-104762619D02*
X99152381Y-104286428D01*
X98914286Y-104762619D02*
X98914286Y-103762619D01*
X98914286Y-103762619D02*
X99295238Y-103762619D01*
X99295238Y-103762619D02*
X99390476Y-103810238D01*
X99390476Y-103810238D02*
X99438095Y-103857857D01*
X99438095Y-103857857D02*
X99485714Y-103953095D01*
X99485714Y-103953095D02*
X99485714Y-104095952D01*
X99485714Y-104095952D02*
X99438095Y-104191190D01*
X99438095Y-104191190D02*
X99390476Y-104238809D01*
X99390476Y-104238809D02*
X99295238Y-104286428D01*
X99295238Y-104286428D02*
X98914286Y-104286428D01*
X100104762Y-103762619D02*
X100295238Y-103762619D01*
X100295238Y-103762619D02*
X100390476Y-103810238D01*
X100390476Y-103810238D02*
X100485714Y-103905476D01*
X100485714Y-103905476D02*
X100533333Y-104095952D01*
X100533333Y-104095952D02*
X100533333Y-104429285D01*
X100533333Y-104429285D02*
X100485714Y-104619761D01*
X100485714Y-104619761D02*
X100390476Y-104715000D01*
X100390476Y-104715000D02*
X100295238Y-104762619D01*
X100295238Y-104762619D02*
X100104762Y-104762619D01*
X100104762Y-104762619D02*
X100009524Y-104715000D01*
X100009524Y-104715000D02*
X99914286Y-104619761D01*
X99914286Y-104619761D02*
X99866667Y-104429285D01*
X99866667Y-104429285D02*
X99866667Y-104095952D01*
X99866667Y-104095952D02*
X99914286Y-103905476D01*
X99914286Y-103905476D02*
X100009524Y-103810238D01*
X100009524Y-103810238D02*
X100104762Y-103762619D01*
X74713095Y-68927619D02*
X74713095Y-69737142D01*
X74713095Y-69737142D02*
X74760714Y-69832380D01*
X74760714Y-69832380D02*
X74808333Y-69880000D01*
X74808333Y-69880000D02*
X74903571Y-69927619D01*
X74903571Y-69927619D02*
X75094047Y-69927619D01*
X75094047Y-69927619D02*
X75189285Y-69880000D01*
X75189285Y-69880000D02*
X75236904Y-69832380D01*
X75236904Y-69832380D02*
X75284523Y-69737142D01*
X75284523Y-69737142D02*
X75284523Y-68927619D01*
X76284523Y-69927619D02*
X75713095Y-69927619D01*
X75998809Y-69927619D02*
X75998809Y-68927619D01*
X75998809Y-68927619D02*
X75903571Y-69070476D01*
X75903571Y-69070476D02*
X75808333Y-69165714D01*
X75808333Y-69165714D02*
X75713095Y-69213333D01*
D12*
X59892000Y-91948000D02*
X59892000Y-81788000D01*
X71192000Y-91948000D02*
X59892000Y-91948000D01*
X59892000Y-81788000D02*
X71192000Y-81788000D01*
X71192000Y-81788000D02*
X71192000Y-91948000D01*
D13*
X58992000Y-89408000D02*
G75*
G03*
X58992000Y-89408000I-100000J0D01*
G01*
D12*
X102440000Y-81940000D02*
X92280000Y-81940000D01*
X102440000Y-70640000D02*
X102440000Y-81940000D01*
X92280000Y-81940000D02*
X92280000Y-70640000D01*
X92280000Y-70640000D02*
X102440000Y-70640000D01*
D13*
X100000000Y-82940000D02*
G75*
G03*
X100000000Y-82940000I-100000J0D01*
G01*
D12*
X121140000Y-80800000D02*
X105900000Y-80800000D01*
X121140000Y-70600000D02*
X121140000Y-80800000D01*
X105900000Y-80800000D02*
X105900000Y-70600000D01*
X105900000Y-70600000D02*
X121140000Y-70600000D01*
D13*
X118700000Y-81800000D02*
G75*
G03*
X118700000Y-81800000I-100000J0D01*
G01*
D14*
X139700000Y-83500000D02*
X95700000Y-83500000D01*
X139700000Y-83500000D02*
X139700000Y-97500000D01*
X95700000Y-83500000D02*
X95700000Y-97500000D01*
X139700000Y-88500000D02*
X139700000Y-87500000D01*
X139700000Y-97500000D02*
X95700000Y-97500000D01*
D15*
X141000000Y-86690000D02*
G75*
G03*
X141000000Y-86690000I-300000J0D01*
G01*
D12*
X139720000Y-80800000D02*
X124480000Y-80800000D01*
X139720000Y-70600000D02*
X139720000Y-80800000D01*
X124480000Y-80800000D02*
X124480000Y-70600000D01*
X124480000Y-70600000D02*
X139720000Y-70600000D01*
D13*
X137280000Y-81800000D02*
G75*
G03*
X137280000Y-81800000I-100000J0D01*
G01*
D12*
X65115000Y-107668000D02*
X66040000Y-107668000D01*
X66040000Y-107668000D02*
X66040000Y-108468000D01*
X66040000Y-107668000D02*
X66965000Y-107668000D01*
X66965000Y-107668000D02*
X66965000Y-107088000D01*
X65115000Y-107088000D02*
X65115000Y-107668000D01*
X65115000Y-104748000D02*
X65115000Y-104168000D01*
X66965000Y-104748000D02*
X66965000Y-104168000D01*
X65115000Y-104168000D02*
X66040000Y-104168000D01*
X66040000Y-104168000D02*
X66965000Y-104168000D01*
X66040000Y-104168000D02*
X66040000Y-103368000D01*
D14*
X139700000Y-101300000D02*
X95700000Y-101300000D01*
X139700000Y-101300000D02*
X139700000Y-115300000D01*
X95700000Y-101300000D02*
X95700000Y-115300000D01*
X139700000Y-106300000D02*
X139700000Y-105300000D01*
X139700000Y-115300000D02*
X95700000Y-115300000D01*
D15*
X141000000Y-104490000D02*
G75*
G03*
X141000000Y-104490000I-300000J0D01*
G01*
D12*
X72410000Y-70590000D02*
X72410000Y-103610000D01*
X72410000Y-103610000D02*
X90190000Y-103610000D01*
X90190000Y-70590000D02*
X72410000Y-70590000D01*
X90190000Y-103610000D02*
X90190000Y-70590000D01*
%LPC*%
D16*
X119888000Y-90678000D03*
X119888000Y-108204000D03*
X63500000Y-72136000D03*
X63500000Y-114554000D03*
D17*
X65532000Y-89408000D03*
D18*
X65532000Y-84328000D03*
D17*
X99900000Y-76300000D03*
D18*
X94820000Y-76300000D03*
D17*
X118600000Y-75700000D03*
D18*
X113520000Y-75700000D03*
X108440000Y-75700000D03*
D19*
X138200000Y-86690000D03*
X138200000Y-89230000D03*
X138200000Y-91770000D03*
X138200000Y-94310000D03*
X97200000Y-86690000D03*
X97200000Y-89230000D03*
X97200000Y-91770000D03*
X97200000Y-94310000D03*
D17*
X137180000Y-75700000D03*
D18*
X132100000Y-75700000D03*
X127020000Y-75700000D03*
D20*
X66040000Y-109418000D03*
X66040000Y-102418000D03*
D19*
X138200000Y-104490000D03*
X138200000Y-107030000D03*
X138200000Y-109570000D03*
X138200000Y-112110000D03*
X97200000Y-104490000D03*
X97200000Y-107030000D03*
X97200000Y-109570000D03*
X97200000Y-112110000D03*
D21*
X87650000Y-71860000D03*
X85110000Y-71860000D03*
X82570000Y-71860000D03*
X80030000Y-71860000D03*
X77490000Y-71860000D03*
X74950000Y-71860000D03*
X85999000Y-85703000D03*
X85999000Y-83163000D03*
X85999000Y-96117000D03*
X85999000Y-93577000D03*
X88920000Y-74400000D03*
X88920000Y-76940000D03*
X88920000Y-79480000D03*
X88920000Y-82020000D03*
X88920000Y-84560000D03*
X88920000Y-87100000D03*
X88920000Y-89640000D03*
X88920000Y-92180000D03*
X88920000Y-94720000D03*
X88920000Y-97260000D03*
X88920000Y-99800000D03*
X88920000Y-102340000D03*
X73680000Y-102340000D03*
X73680000Y-99800000D03*
X73680000Y-97260000D03*
X73680000Y-94720000D03*
X73680000Y-92180000D03*
X73680000Y-89640000D03*
X73680000Y-87100000D03*
X73680000Y-84560000D03*
X73680000Y-82020000D03*
X73680000Y-79480000D03*
X73680000Y-76940000D03*
X73680000Y-74400000D03*
%LPD*%
M02*
