G04 #@! TF.GenerationSoftware,KiCad,Pcbnew,7.0.2-6a45011f42~172~ubuntu22.04.1*
G04 #@! TF.CreationDate,2023-05-24T14:11:10+02:00*
G04 #@! TF.ProjectId,dmx_interceptor,646d785f-696e-4746-9572-636570746f72,rev?*
G04 #@! TF.SameCoordinates,Original*
G04 #@! TF.FileFunction,Copper,L4,Bot*
G04 #@! TF.FilePolarity,Positive*
%FSLAX46Y46*%
G04 Gerber Fmt 4.6, Leading zero omitted, Abs format (unit mm)*
G04 Created by KiCad (PCBNEW 7.0.2-6a45011f42~172~ubuntu22.04.1) date 2023-05-24 14:11:10*
%MOMM*%
%LPD*%
G01*
G04 APERTURE LIST*
G04 #@! TA.AperFunction,ComponentPad*
%ADD10R,2.400000X2.400000*%
G04 #@! TD*
G04 #@! TA.AperFunction,ComponentPad*
%ADD11C,2.400000*%
G04 #@! TD*
G04 #@! TA.AperFunction,ComponentPad*
%ADD12C,1.524000*%
G04 #@! TD*
G04 #@! TA.AperFunction,ComponentPad*
%ADD13C,1.258000*%
G04 #@! TD*
G04 #@! TA.AperFunction,ComponentPad*
%ADD14C,1.879600*%
G04 #@! TD*
G04 #@! TA.AperFunction,ViaPad*
%ADD15C,0.800000*%
G04 #@! TD*
G04 #@! TA.AperFunction,Conductor*
%ADD16C,0.250000*%
G04 #@! TD*
G04 APERTURE END LIST*
D10*
X65532000Y-89408000D03*
D11*
X65532000Y-84328000D03*
D10*
X99900000Y-76300000D03*
D11*
X94820000Y-76300000D03*
D10*
X118600000Y-75700000D03*
D11*
X113520000Y-75700000D03*
X108440000Y-75700000D03*
D12*
X138200000Y-86690000D03*
X138200000Y-89230000D03*
X138200000Y-91770000D03*
X138200000Y-94310000D03*
X97200000Y-86690000D03*
X97200000Y-89230000D03*
X97200000Y-91770000D03*
X97200000Y-94310000D03*
D10*
X137180000Y-75700000D03*
D11*
X132100000Y-75700000D03*
X127020000Y-75700000D03*
D13*
X66040000Y-109418000D03*
X66040000Y-102418000D03*
D12*
X138200000Y-104490000D03*
X138200000Y-107030000D03*
X138200000Y-109570000D03*
X138200000Y-112110000D03*
X97200000Y-104490000D03*
X97200000Y-107030000D03*
X97200000Y-109570000D03*
X97200000Y-112110000D03*
D14*
X87650000Y-71860000D03*
X85110000Y-71860000D03*
X82570000Y-71860000D03*
X80030000Y-71860000D03*
X77490000Y-71860000D03*
X74950000Y-71860000D03*
X85999000Y-85703000D03*
X85999000Y-83163000D03*
X85999000Y-96117000D03*
X85999000Y-93577000D03*
X88920000Y-74400000D03*
X88920000Y-76940000D03*
X88920000Y-79480000D03*
X88920000Y-82020000D03*
X88920000Y-84560000D03*
X88920000Y-87100000D03*
X88920000Y-89640000D03*
X88920000Y-92180000D03*
X88920000Y-94720000D03*
X88920000Y-97260000D03*
X88920000Y-99800000D03*
X88920000Y-102340000D03*
X73680000Y-102340000D03*
X73680000Y-99800000D03*
X73680000Y-97260000D03*
X73680000Y-94720000D03*
X73680000Y-92180000D03*
X73680000Y-89640000D03*
X73680000Y-87100000D03*
X73680000Y-84560000D03*
X73680000Y-82020000D03*
X73680000Y-79480000D03*
X73680000Y-76940000D03*
X73680000Y-74400000D03*
D15*
X76300000Y-113000000D03*
X72100000Y-116400000D03*
X76300000Y-116400000D03*
X72100000Y-113000000D03*
X89400000Y-109500000D03*
X93600000Y-109500000D03*
X85000000Y-109500000D03*
X80800000Y-109500000D03*
X66100000Y-98300000D03*
X128500000Y-110800000D03*
X132700000Y-110800000D03*
X111200000Y-110700000D03*
X102300000Y-110600000D03*
X124100000Y-110800000D03*
X106500000Y-110600000D03*
X115400000Y-110700000D03*
X117100000Y-86300000D03*
X101600000Y-95500000D03*
X78600000Y-102100000D03*
X61722000Y-109982000D03*
X132400000Y-95700000D03*
X111000000Y-78900000D03*
X60900000Y-100900000D03*
X76500000Y-79100000D03*
X89400000Y-113100000D03*
X102300000Y-106100000D03*
X80800000Y-113100000D03*
X105800000Y-87700000D03*
X133600000Y-79100000D03*
X106500000Y-106100000D03*
X111000000Y-72800000D03*
X123400000Y-87900000D03*
X101600000Y-91440000D03*
X76900000Y-91800000D03*
X119600000Y-95700000D03*
X134500000Y-73300000D03*
X106200000Y-95500000D03*
X116000000Y-78800000D03*
X97200000Y-79000000D03*
X127800000Y-87900000D03*
X115100000Y-95600000D03*
X85090000Y-102870000D03*
X76900000Y-86000000D03*
X141200000Y-108400000D03*
X97300000Y-96500000D03*
X76300000Y-109300000D03*
X124100000Y-106300000D03*
X60900000Y-96700000D03*
X80800000Y-116500000D03*
X110500000Y-87800000D03*
X76900000Y-97800000D03*
X85000000Y-113100000D03*
X61722000Y-105410000D03*
X111200000Y-106200000D03*
X94600000Y-90170000D03*
X132000000Y-87900000D03*
X93600000Y-113100000D03*
X129700000Y-73300000D03*
X93600000Y-116500000D03*
X97300000Y-73000000D03*
X85000000Y-116500000D03*
X89400000Y-116500000D03*
X128500000Y-106300000D03*
X115400000Y-106200000D03*
X110900000Y-95600000D03*
X92710000Y-85090000D03*
X101500000Y-79000000D03*
X101600000Y-87700000D03*
X125900000Y-79500000D03*
X68326000Y-109220000D03*
D16*
X113520000Y-75700000D02*
X115070000Y-75700000D01*
X115070000Y-75700000D02*
X116725000Y-77355000D01*
X126804000Y-97171251D02*
X137749749Y-108117000D01*
X116725000Y-77355000D02*
X116725000Y-79769396D01*
X116725000Y-79769396D02*
X126804000Y-89848396D01*
X126804000Y-89848396D02*
X126804000Y-97171251D01*
X138200000Y-108117000D02*
X138200000Y-109570000D01*
X137749749Y-108117000D02*
X138200000Y-108117000D01*
X118600000Y-75700000D02*
X118600000Y-80246000D01*
X118600000Y-80246000D02*
X127762000Y-89408000D01*
X127762000Y-89408000D02*
X127762000Y-96592000D01*
X127762000Y-96592000D02*
X138200000Y-107030000D01*
X73680000Y-94720000D02*
X70780000Y-94720000D01*
X92600000Y-96370000D02*
X97200000Y-91770000D01*
X92600000Y-102900000D02*
X92600000Y-96370000D01*
X70300000Y-95200000D02*
X70300000Y-104300000D01*
X70780000Y-94720000D02*
X70300000Y-95200000D01*
X72200000Y-106200000D02*
X89300000Y-106200000D01*
X97200000Y-89230000D02*
X97200000Y-91770000D01*
X92600000Y-102900000D02*
X89300000Y-106200000D01*
X70300000Y-104300000D02*
X72200000Y-106200000D01*
X71520000Y-92180000D02*
X68900000Y-94800000D01*
X97200000Y-109570000D02*
X97200000Y-107030000D01*
X68900000Y-94800000D02*
X68900000Y-104700000D01*
X71230000Y-107030000D02*
X97200000Y-107030000D01*
X73680000Y-92180000D02*
X71520000Y-92180000D01*
X68900000Y-104700000D02*
X71230000Y-107030000D01*
X96190000Y-111100000D02*
X72900000Y-111100000D01*
X67400000Y-105600000D02*
X67400000Y-93600000D01*
X71500000Y-74700000D02*
X71800000Y-74400000D01*
X67400000Y-93600000D02*
X71500000Y-89500000D01*
X71500000Y-89500000D02*
X71500000Y-74700000D01*
X72900000Y-111100000D02*
X67400000Y-105600000D01*
X97200000Y-112110000D02*
X96190000Y-111100000D01*
X71800000Y-74400000D02*
X73680000Y-74400000D01*
X138200000Y-89230000D02*
X135100000Y-86130000D01*
X135100000Y-86130000D02*
X135100000Y-77780000D01*
X135100000Y-77780000D02*
X137180000Y-75700000D01*
X132100000Y-75700000D02*
X132100000Y-85670000D01*
X132100000Y-85670000D02*
X138200000Y-91770000D01*
G04 #@! TA.AperFunction,Conductor*
G36*
X68242012Y-104797644D02*
G01*
X68276653Y-104846487D01*
X68281525Y-104858794D01*
X68281526Y-104858797D01*
X68294649Y-104891943D01*
X68297801Y-104899904D01*
X68301644Y-104911130D01*
X68313980Y-104953590D01*
X68324294Y-104971030D01*
X68332987Y-104988774D01*
X68340448Y-105007617D01*
X68340449Y-105007619D01*
X68366431Y-105043380D01*
X68372948Y-105053301D01*
X68395458Y-105091363D01*
X68409778Y-105105683D01*
X68422618Y-105120716D01*
X68434526Y-105137105D01*
X68468598Y-105165292D01*
X68477378Y-105173282D01*
X70722751Y-107418655D01*
X70735835Y-107434985D01*
X70787666Y-107483657D01*
X70790509Y-107486413D01*
X70810231Y-107506135D01*
X70813359Y-107508561D01*
X70813360Y-107508562D01*
X70813414Y-107508604D01*
X70822447Y-107516318D01*
X70854679Y-107546586D01*
X70872432Y-107556346D01*
X70888955Y-107567200D01*
X70904957Y-107579612D01*
X70904960Y-107579614D01*
X70945539Y-107597174D01*
X70956188Y-107602391D01*
X70994935Y-107623693D01*
X70994937Y-107623693D01*
X70994940Y-107623695D01*
X71014574Y-107628736D01*
X71033259Y-107635134D01*
X71051855Y-107643181D01*
X71095530Y-107650098D01*
X71107125Y-107652498D01*
X71149970Y-107663500D01*
X71170224Y-107663500D01*
X71189934Y-107665051D01*
X71209942Y-107668220D01*
X71209942Y-107668219D01*
X71209943Y-107668220D01*
X71253961Y-107664058D01*
X71265819Y-107663500D01*
X96026996Y-107663500D01*
X96095117Y-107683502D01*
X96130209Y-107717229D01*
X96223025Y-107849784D01*
X96380215Y-108006974D01*
X96380218Y-108006976D01*
X96380219Y-108006977D01*
X96512770Y-108099791D01*
X96557098Y-108155247D01*
X96566499Y-108203003D01*
X96566499Y-108396996D01*
X96546497Y-108465117D01*
X96512770Y-108500209D01*
X96380215Y-108593025D01*
X96223025Y-108750215D01*
X96095512Y-108932322D01*
X96061386Y-109005507D01*
X96008939Y-109117981D01*
X96001559Y-109133807D01*
X95944022Y-109348532D01*
X95924647Y-109570000D01*
X95944022Y-109791467D01*
X95983024Y-109937020D01*
X96001560Y-110006196D01*
X96062609Y-110137117D01*
X96095512Y-110207678D01*
X96137911Y-110268229D01*
X96160599Y-110335503D01*
X96143314Y-110404364D01*
X96091544Y-110452948D01*
X96034698Y-110466500D01*
X73214594Y-110466500D01*
X73146473Y-110446498D01*
X73125499Y-110429595D01*
X68070405Y-105374500D01*
X68036379Y-105312188D01*
X68033500Y-105285405D01*
X68033500Y-104892868D01*
X68053502Y-104824747D01*
X68107158Y-104778254D01*
X68177432Y-104768150D01*
X68242012Y-104797644D01*
G37*
G04 #@! TD.AperFunction*
G04 #@! TA.AperFunction,Conductor*
G36*
X73213155Y-82233201D02*
G01*
X73292131Y-82356090D01*
X73402530Y-82451752D01*
X73535408Y-82512435D01*
X73545345Y-82513863D01*
X72850320Y-83208888D01*
X72851315Y-83224905D01*
X72867847Y-83247878D01*
X72871579Y-83318777D01*
X72836387Y-83380438D01*
X72826375Y-83389113D01*
X72695734Y-83490795D01*
X72533171Y-83667386D01*
X72431505Y-83822997D01*
X72401892Y-83868323D01*
X72374886Y-83929889D01*
X72329207Y-83984237D01*
X72261394Y-84005261D01*
X72192980Y-83986285D01*
X72145686Y-83933334D01*
X72133500Y-83879275D01*
X72133500Y-82699478D01*
X72153502Y-82631357D01*
X72207158Y-82584864D01*
X72277432Y-82574760D01*
X72342012Y-82604254D01*
X72374888Y-82648865D01*
X72402334Y-82711437D01*
X72492041Y-82848744D01*
X73189193Y-82151594D01*
X73213155Y-82233201D01*
G37*
G04 #@! TD.AperFunction*
G04 #@! TA.AperFunction,Conductor*
G36*
X72342012Y-80065500D02*
G01*
X72374885Y-80110106D01*
X72401892Y-80171677D01*
X72533171Y-80372613D01*
X72695731Y-80549201D01*
X72826374Y-80650885D01*
X72867845Y-80708509D01*
X72871579Y-80779408D01*
X72851328Y-80814892D01*
X72850321Y-80831111D01*
X73545346Y-81526136D01*
X73535408Y-81527565D01*
X73402530Y-81588248D01*
X73292131Y-81683910D01*
X73213155Y-81806799D01*
X73189193Y-81888403D01*
X72492043Y-81191253D01*
X72492042Y-81191253D01*
X72402331Y-81328564D01*
X72374887Y-81391133D01*
X72329206Y-81445481D01*
X72261394Y-81466505D01*
X72192980Y-81447529D01*
X72145686Y-81394578D01*
X72133500Y-81340519D01*
X72133500Y-80160724D01*
X72153502Y-80092603D01*
X72207158Y-80046110D01*
X72277432Y-80036006D01*
X72342012Y-80065500D01*
G37*
G04 #@! TD.AperFunction*
G04 #@! TA.AperFunction,Conductor*
G36*
X143242121Y-67720002D02*
G01*
X143288614Y-67773658D01*
X143300000Y-67826000D01*
X143300000Y-119074000D01*
X143279998Y-119142121D01*
X143226342Y-119188614D01*
X143174000Y-119200000D01*
X59026000Y-119200000D01*
X58957879Y-119179998D01*
X58911386Y-119126342D01*
X58900000Y-119074000D01*
X58900000Y-114621766D01*
X61645787Y-114621766D01*
X61675413Y-114891015D01*
X61675414Y-114891018D01*
X61743928Y-115153088D01*
X61849870Y-115402390D01*
X61990982Y-115633610D01*
X62164255Y-115841820D01*
X62164256Y-115841821D01*
X62164258Y-115841823D01*
X62365993Y-116022578D01*
X62365995Y-116022579D01*
X62365998Y-116022582D01*
X62591910Y-116172044D01*
X62724104Y-116234014D01*
X62837171Y-116287018D01*
X62837173Y-116287018D01*
X62837176Y-116287020D01*
X63096569Y-116365060D01*
X63096572Y-116365060D01*
X63096574Y-116365061D01*
X63364558Y-116404500D01*
X63364561Y-116404500D01*
X63565330Y-116404500D01*
X63567631Y-116404500D01*
X63770156Y-116389677D01*
X64034553Y-116330780D01*
X64287558Y-116234014D01*
X64523777Y-116101441D01*
X64738177Y-115935888D01*
X64926186Y-115740881D01*
X65083799Y-115520579D01*
X65207656Y-115279675D01*
X65295118Y-115023305D01*
X65344319Y-114756933D01*
X65354212Y-114486235D01*
X65324586Y-114216982D01*
X65256072Y-113954912D01*
X65150130Y-113705610D01*
X65009018Y-113474390D01*
X64835745Y-113266180D01*
X64835741Y-113266176D01*
X64634006Y-113085421D01*
X64634003Y-113085419D01*
X64634002Y-113085418D01*
X64408090Y-112935956D01*
X64394918Y-112929781D01*
X64162828Y-112820981D01*
X63903425Y-112742938D01*
X63635442Y-112703500D01*
X63635439Y-112703500D01*
X63432369Y-112703500D01*
X63430099Y-112703666D01*
X63430075Y-112703667D01*
X63229839Y-112718323D01*
X62965449Y-112777219D01*
X62712441Y-112873985D01*
X62476225Y-113006557D01*
X62261820Y-113172114D01*
X62073815Y-113367117D01*
X61916200Y-113587422D01*
X61792342Y-113828328D01*
X61704882Y-114084693D01*
X61655681Y-114351065D01*
X61645787Y-114621766D01*
X58900000Y-114621766D01*
X58900000Y-109417999D01*
X64898128Y-109417999D01*
X64917571Y-109627816D01*
X64975235Y-109830487D01*
X65069162Y-110019118D01*
X65073683Y-110025105D01*
X65662172Y-109436615D01*
X65661114Y-109449395D01*
X65691837Y-109570719D01*
X65760289Y-109675492D01*
X65859052Y-109752363D01*
X65977424Y-109793000D01*
X66024210Y-109793000D01*
X65435928Y-110381280D01*
X65531022Y-110440160D01*
X65727511Y-110516280D01*
X65934643Y-110555000D01*
X66145357Y-110555000D01*
X66352488Y-110516280D01*
X66548974Y-110440161D01*
X66644070Y-110381279D01*
X66055791Y-109793000D01*
X66071073Y-109793000D01*
X66163446Y-109777586D01*
X66273514Y-109718019D01*
X66358278Y-109625941D01*
X66408551Y-109511330D01*
X66414978Y-109433767D01*
X67006315Y-110025105D01*
X67010837Y-110019117D01*
X67104764Y-109830487D01*
X67162428Y-109627816D01*
X67181871Y-109417999D01*
X67162428Y-109208183D01*
X67104762Y-109005507D01*
X67010839Y-108816884D01*
X67006315Y-108810892D01*
X66417827Y-109399379D01*
X66418886Y-109386605D01*
X66388163Y-109265281D01*
X66319711Y-109160508D01*
X66220948Y-109083637D01*
X66102576Y-109043000D01*
X66055790Y-109043000D01*
X66644070Y-108454719D01*
X66548977Y-108395839D01*
X66352488Y-108319719D01*
X66145357Y-108281000D01*
X65934643Y-108281000D01*
X65727511Y-108319719D01*
X65531019Y-108395840D01*
X65435928Y-108454718D01*
X65435928Y-108454719D01*
X66024209Y-109043000D01*
X66008927Y-109043000D01*
X65916554Y-109058414D01*
X65806486Y-109117981D01*
X65721722Y-109210059D01*
X65671449Y-109324670D01*
X65665022Y-109402230D01*
X65073683Y-108810892D01*
X65069161Y-108816882D01*
X64975237Y-109005507D01*
X64917571Y-109208183D01*
X64898128Y-109417999D01*
X58900000Y-109417999D01*
X58900000Y-102418000D01*
X64897626Y-102418000D01*
X64917077Y-102627908D01*
X64974767Y-102830669D01*
X65068736Y-103019384D01*
X65127147Y-103096732D01*
X65195776Y-103187612D01*
X65351566Y-103329633D01*
X65351568Y-103329634D01*
X65351569Y-103329635D01*
X65509522Y-103427435D01*
X65530801Y-103440610D01*
X65727375Y-103516764D01*
X65934595Y-103555500D01*
X65934597Y-103555500D01*
X66145403Y-103555500D01*
X66145405Y-103555500D01*
X66352625Y-103516764D01*
X66549199Y-103440610D01*
X66574169Y-103425149D01*
X66642612Y-103406294D01*
X66710388Y-103427435D01*
X66755974Y-103481863D01*
X66766499Y-103532276D01*
X66766499Y-105516152D01*
X66764204Y-105536941D01*
X66766438Y-105607984D01*
X66766500Y-105611943D01*
X66766500Y-105639856D01*
X66766995Y-105643774D01*
X66766997Y-105643806D01*
X66767008Y-105643888D01*
X66767937Y-105655697D01*
X66769326Y-105699892D01*
X66774977Y-105719341D01*
X66778986Y-105738696D01*
X66781525Y-105758794D01*
X66797801Y-105799903D01*
X66801644Y-105811130D01*
X66813980Y-105853590D01*
X66824294Y-105871030D01*
X66832987Y-105888774D01*
X66840448Y-105907617D01*
X66840449Y-105907619D01*
X66866431Y-105943380D01*
X66872948Y-105953301D01*
X66895458Y-105991363D01*
X66909778Y-106005683D01*
X66922618Y-106020716D01*
X66934526Y-106037105D01*
X66968598Y-106065292D01*
X66977378Y-106073282D01*
X72392751Y-111488655D01*
X72405835Y-111504985D01*
X72457666Y-111553657D01*
X72460509Y-111556413D01*
X72480231Y-111576135D01*
X72483359Y-111578561D01*
X72483360Y-111578562D01*
X72483414Y-111578604D01*
X72492447Y-111586318D01*
X72524679Y-111616586D01*
X72542432Y-111626346D01*
X72558955Y-111637200D01*
X72574957Y-111649612D01*
X72574960Y-111649614D01*
X72615539Y-111667174D01*
X72626188Y-111672391D01*
X72664935Y-111693693D01*
X72664937Y-111693693D01*
X72664940Y-111693695D01*
X72684574Y-111698736D01*
X72703259Y-111705134D01*
X72721855Y-111713181D01*
X72765530Y-111720098D01*
X72777125Y-111722498D01*
X72819970Y-111733500D01*
X72840224Y-111733500D01*
X72859934Y-111735051D01*
X72879942Y-111738220D01*
X72879942Y-111738219D01*
X72879943Y-111738220D01*
X72923961Y-111734058D01*
X72935819Y-111733500D01*
X95821357Y-111733500D01*
X95889478Y-111753502D01*
X95935971Y-111807158D01*
X95946075Y-111877432D01*
X95944189Y-111886626D01*
X95924647Y-112110000D01*
X95944022Y-112331467D01*
X95986770Y-112491000D01*
X96001560Y-112546196D01*
X96062609Y-112677117D01*
X96095512Y-112747678D01*
X96223025Y-112929784D01*
X96380215Y-113086974D01*
X96562321Y-113214487D01*
X96562322Y-113214487D01*
X96562323Y-113214488D01*
X96763804Y-113308440D01*
X96914739Y-113348883D01*
X96978532Y-113365977D01*
X96978533Y-113365977D01*
X96978537Y-113365978D01*
X97200000Y-113385353D01*
X97421463Y-113365978D01*
X97636196Y-113308440D01*
X97837677Y-113214488D01*
X98019781Y-113086977D01*
X98176977Y-112929781D01*
X98304488Y-112747677D01*
X98398440Y-112546196D01*
X98455978Y-112331463D01*
X98475353Y-112110000D01*
X98455978Y-111888537D01*
X98453002Y-111877432D01*
X98426686Y-111779218D01*
X98398440Y-111673804D01*
X98304488Y-111472324D01*
X98176977Y-111290219D01*
X98176976Y-111290218D01*
X98176974Y-111290215D01*
X98019784Y-111133025D01*
X97837678Y-111005512D01*
X97787247Y-110981996D01*
X97727624Y-110954193D01*
X97674341Y-110907278D01*
X97654880Y-110839001D01*
X97675422Y-110771041D01*
X97727624Y-110725806D01*
X97837677Y-110674488D01*
X98019781Y-110546977D01*
X98176977Y-110389781D01*
X98304488Y-110207677D01*
X98398440Y-110006196D01*
X98455978Y-109791463D01*
X98475353Y-109570000D01*
X98455978Y-109348537D01*
X98398440Y-109133804D01*
X98304488Y-108932324D01*
X98302633Y-108929675D01*
X98176974Y-108750215D01*
X98019784Y-108593025D01*
X97945506Y-108541015D01*
X97887228Y-108500208D01*
X97842901Y-108444752D01*
X97833500Y-108396996D01*
X97833500Y-108271766D01*
X118033787Y-108271766D01*
X118063413Y-108541015D01*
X118077010Y-108593023D01*
X118131928Y-108803088D01*
X118237870Y-109052390D01*
X118378982Y-109283610D01*
X118552255Y-109491820D01*
X118552256Y-109491821D01*
X118552258Y-109491823D01*
X118753993Y-109672578D01*
X118753995Y-109672579D01*
X118753998Y-109672582D01*
X118979910Y-109822044D01*
X118997921Y-109830487D01*
X119225171Y-109937018D01*
X119225173Y-109937018D01*
X119225176Y-109937020D01*
X119484569Y-110015060D01*
X119484572Y-110015060D01*
X119484574Y-110015061D01*
X119752558Y-110054500D01*
X119752561Y-110054500D01*
X119953330Y-110054500D01*
X119955631Y-110054500D01*
X120158156Y-110039677D01*
X120422553Y-109980780D01*
X120675558Y-109884014D01*
X120911777Y-109751441D01*
X121126177Y-109585888D01*
X121314186Y-109390881D01*
X121471799Y-109170579D01*
X121595656Y-108929675D01*
X121683118Y-108673305D01*
X121732319Y-108406933D01*
X121742212Y-108136235D01*
X121712586Y-107866982D01*
X121644072Y-107604912D01*
X121538130Y-107355610D01*
X121397018Y-107124390D01*
X121223745Y-106916180D01*
X121103608Y-106808537D01*
X121022006Y-106735421D01*
X121022003Y-106735419D01*
X121022002Y-106735418D01*
X120796090Y-106585956D01*
X120796086Y-106585954D01*
X120550828Y-106470981D01*
X120291425Y-106392938D01*
X120023442Y-106353500D01*
X120023439Y-106353500D01*
X119820369Y-106353500D01*
X119818099Y-106353666D01*
X119818075Y-106353667D01*
X119617839Y-106368323D01*
X119353449Y-106427219D01*
X119100441Y-106523985D01*
X118864225Y-106656557D01*
X118649820Y-106822114D01*
X118461815Y-107017117D01*
X118304200Y-107237422D01*
X118180342Y-107478328D01*
X118092882Y-107734693D01*
X118043681Y-108001065D01*
X118033787Y-108271766D01*
X97833500Y-108271766D01*
X97833500Y-108203003D01*
X97853502Y-108134882D01*
X97887228Y-108099791D01*
X98019781Y-108006977D01*
X98176977Y-107849781D01*
X98304488Y-107667677D01*
X98398440Y-107466196D01*
X98455978Y-107251463D01*
X98475353Y-107030000D01*
X98455978Y-106808537D01*
X98398440Y-106593804D01*
X98304488Y-106392324D01*
X98300829Y-106387099D01*
X98176974Y-106210215D01*
X98019784Y-106053025D01*
X97837678Y-105925512D01*
X97787247Y-105901996D01*
X97727624Y-105874193D01*
X97674341Y-105827278D01*
X97654880Y-105759001D01*
X97675422Y-105691041D01*
X97727624Y-105645806D01*
X97837677Y-105594488D01*
X98019781Y-105466977D01*
X98176977Y-105309781D01*
X98304488Y-105127677D01*
X98398440Y-104926196D01*
X98455978Y-104711463D01*
X98475353Y-104490000D01*
X98455978Y-104268537D01*
X98445667Y-104230058D01*
X98438883Y-104204739D01*
X98398440Y-104053804D01*
X98304488Y-103852324D01*
X98176977Y-103670219D01*
X98176976Y-103670218D01*
X98176974Y-103670215D01*
X98019784Y-103513025D01*
X97837678Y-103385512D01*
X97717848Y-103329635D01*
X97636196Y-103291560D01*
X97622709Y-103287946D01*
X97421467Y-103234022D01*
X97200000Y-103214647D01*
X96978532Y-103234022D01*
X96763807Y-103291559D01*
X96763806Y-103291559D01*
X96763804Y-103291560D01*
X96720228Y-103311880D01*
X96562322Y-103385512D01*
X96380215Y-103513025D01*
X96223025Y-103670215D01*
X96095512Y-103852322D01*
X96033455Y-103985405D01*
X96009119Y-104037595D01*
X96001559Y-104053807D01*
X95944022Y-104268532D01*
X95924647Y-104490000D01*
X95944022Y-104711467D01*
X95975479Y-104828861D01*
X96001560Y-104926196D01*
X96039528Y-105007619D01*
X96095512Y-105127678D01*
X96223025Y-105309784D01*
X96380215Y-105466974D01*
X96562321Y-105594487D01*
X96562322Y-105594487D01*
X96562323Y-105594488D01*
X96672375Y-105645806D01*
X96725659Y-105692722D01*
X96745120Y-105760999D01*
X96724578Y-105828959D01*
X96672374Y-105874194D01*
X96660862Y-105879563D01*
X96562322Y-105925512D01*
X96380215Y-106053025D01*
X96223025Y-106210215D01*
X96130209Y-106342771D01*
X96074752Y-106387099D01*
X96026996Y-106396500D01*
X90303594Y-106396500D01*
X90235473Y-106376498D01*
X90188980Y-106322842D01*
X90178876Y-106252568D01*
X90208370Y-106187988D01*
X90214499Y-106181405D01*
X91598260Y-104797644D01*
X92988659Y-103407244D01*
X93004980Y-103394169D01*
X93007014Y-103392001D01*
X93007018Y-103392000D01*
X93053660Y-103342329D01*
X93056352Y-103339551D01*
X93076135Y-103319770D01*
X93078613Y-103316574D01*
X93086308Y-103307563D01*
X93116586Y-103275321D01*
X93126342Y-103257571D01*
X93137195Y-103241050D01*
X93149614Y-103225041D01*
X93167175Y-103184454D01*
X93172388Y-103173813D01*
X93193695Y-103135060D01*
X93198733Y-103115434D01*
X93205137Y-103096732D01*
X93213181Y-103078144D01*
X93220096Y-103034482D01*
X93222504Y-103022853D01*
X93233500Y-102980029D01*
X93233500Y-102959775D01*
X93235051Y-102940063D01*
X93238220Y-102920057D01*
X93234059Y-102876036D01*
X93233500Y-102864179D01*
X93233500Y-96684593D01*
X93253502Y-96616472D01*
X93270400Y-96595503D01*
X95715215Y-94150687D01*
X95777525Y-94116664D01*
X95848340Y-94121728D01*
X95905176Y-94164275D01*
X95929987Y-94230795D01*
X95929829Y-94250764D01*
X95924822Y-94308000D01*
X95924647Y-94310000D01*
X95927438Y-94341898D01*
X95944022Y-94531467D01*
X95991325Y-94708000D01*
X96001560Y-94746196D01*
X96061603Y-94874959D01*
X96095512Y-94947678D01*
X96223025Y-95129784D01*
X96380215Y-95286974D01*
X96562321Y-95414487D01*
X96562322Y-95414487D01*
X96562323Y-95414488D01*
X96763804Y-95508440D01*
X96914739Y-95548883D01*
X96978532Y-95565977D01*
X96978533Y-95565977D01*
X96978537Y-95565978D01*
X97200000Y-95585353D01*
X97421463Y-95565978D01*
X97636196Y-95508440D01*
X97837677Y-95414488D01*
X98019781Y-95286977D01*
X98176977Y-95129781D01*
X98304488Y-94947677D01*
X98398440Y-94746196D01*
X98455978Y-94531463D01*
X98475353Y-94310000D01*
X98455978Y-94088537D01*
X98455432Y-94086500D01*
X98433642Y-94005180D01*
X98398440Y-93873804D01*
X98304488Y-93672324D01*
X98176977Y-93490219D01*
X98176976Y-93490218D01*
X98176974Y-93490215D01*
X98019784Y-93333025D01*
X97837678Y-93205512D01*
X97777448Y-93177427D01*
X97727624Y-93154193D01*
X97674341Y-93107278D01*
X97654880Y-93039001D01*
X97675422Y-92971041D01*
X97727624Y-92925806D01*
X97837677Y-92874488D01*
X98019781Y-92746977D01*
X98176977Y-92589781D01*
X98304488Y-92407677D01*
X98398440Y-92206196D01*
X98455978Y-91991463D01*
X98475353Y-91770000D01*
X98455978Y-91548537D01*
X98455565Y-91546997D01*
X98412902Y-91387778D01*
X98398440Y-91333804D01*
X98304488Y-91132324D01*
X98293155Y-91116139D01*
X98191711Y-90971261D01*
X98176977Y-90950219D01*
X98176976Y-90950218D01*
X98176974Y-90950215D01*
X98019784Y-90793025D01*
X97952291Y-90745766D01*
X118033787Y-90745766D01*
X118063413Y-91015015D01*
X118063414Y-91015018D01*
X118131928Y-91277088D01*
X118237870Y-91526390D01*
X118378982Y-91757610D01*
X118552255Y-91965820D01*
X118552256Y-91965821D01*
X118552258Y-91965823D01*
X118753993Y-92146578D01*
X118753995Y-92146579D01*
X118753998Y-92146582D01*
X118979910Y-92296044D01*
X119112104Y-92358014D01*
X119225171Y-92411018D01*
X119225173Y-92411018D01*
X119225176Y-92411020D01*
X119484569Y-92489060D01*
X119484572Y-92489060D01*
X119484574Y-92489061D01*
X119752558Y-92528500D01*
X119752561Y-92528500D01*
X119953330Y-92528500D01*
X119955631Y-92528500D01*
X120158156Y-92513677D01*
X120422553Y-92454780D01*
X120675558Y-92358014D01*
X120911777Y-92225441D01*
X121126177Y-92059888D01*
X121314186Y-91864881D01*
X121471799Y-91644579D01*
X121595656Y-91403675D01*
X121683118Y-91147305D01*
X121732319Y-90880933D01*
X121742212Y-90610235D01*
X121740755Y-90596996D01*
X121722209Y-90428440D01*
X121712586Y-90340982D01*
X121644072Y-90078912D01*
X121538130Y-89829610D01*
X121397018Y-89598390D01*
X121223745Y-89390180D01*
X121222773Y-89389309D01*
X121022006Y-89209421D01*
X121022003Y-89209419D01*
X121022002Y-89209418D01*
X120796090Y-89059956D01*
X120795779Y-89059810D01*
X120550828Y-88944981D01*
X120291425Y-88866938D01*
X120023442Y-88827500D01*
X120023439Y-88827500D01*
X119820369Y-88827500D01*
X119818099Y-88827666D01*
X119818075Y-88827667D01*
X119617839Y-88842323D01*
X119353449Y-88901219D01*
X119100441Y-88997985D01*
X118864225Y-89130557D01*
X118649820Y-89296114D01*
X118461815Y-89491117D01*
X118304200Y-89711422D01*
X118180342Y-89952328D01*
X118092882Y-90208693D01*
X118043681Y-90475065D01*
X118033787Y-90745766D01*
X97952291Y-90745766D01*
X97900071Y-90709201D01*
X97887228Y-90700208D01*
X97842901Y-90644752D01*
X97833500Y-90596996D01*
X97833500Y-90403003D01*
X97853502Y-90334882D01*
X97887228Y-90299791D01*
X98019781Y-90206977D01*
X98176977Y-90049781D01*
X98304488Y-89867677D01*
X98398440Y-89666196D01*
X98455978Y-89451463D01*
X98475353Y-89230000D01*
X98455978Y-89008537D01*
X98450281Y-88987277D01*
X98426686Y-88899218D01*
X98398440Y-88793804D01*
X98304488Y-88592324D01*
X98176977Y-88410219D01*
X98176976Y-88410218D01*
X98176974Y-88410215D01*
X98019784Y-88253025D01*
X97837678Y-88125512D01*
X97780391Y-88098799D01*
X97727624Y-88074193D01*
X97674341Y-88027278D01*
X97654880Y-87959001D01*
X97675422Y-87891041D01*
X97727624Y-87845806D01*
X97837677Y-87794488D01*
X98019781Y-87666977D01*
X98176977Y-87509781D01*
X98304488Y-87327677D01*
X98398440Y-87126196D01*
X98455978Y-86911463D01*
X98475353Y-86690000D01*
X98455978Y-86468537D01*
X98447693Y-86437619D01*
X98421839Y-86341130D01*
X98398440Y-86253804D01*
X98304488Y-86052324D01*
X98176977Y-85870219D01*
X98176976Y-85870218D01*
X98176974Y-85870215D01*
X98019784Y-85713025D01*
X97837678Y-85585512D01*
X97767117Y-85552609D01*
X97636196Y-85491560D01*
X97622709Y-85487946D01*
X97421467Y-85434022D01*
X97200000Y-85414647D01*
X96978532Y-85434022D01*
X96763807Y-85491559D01*
X96763806Y-85491559D01*
X96763804Y-85491560D01*
X96760000Y-85493334D01*
X96562322Y-85585512D01*
X96380215Y-85713025D01*
X96223025Y-85870215D01*
X96095512Y-86052322D01*
X96038368Y-86174869D01*
X96003642Y-86249341D01*
X96001559Y-86253807D01*
X95944022Y-86468532D01*
X95924647Y-86690000D01*
X95944022Y-86911467D01*
X95976818Y-87033860D01*
X96001560Y-87126196D01*
X96062609Y-87257117D01*
X96095512Y-87327678D01*
X96223025Y-87509784D01*
X96380215Y-87666974D01*
X96562321Y-87794487D01*
X96562322Y-87794487D01*
X96562323Y-87794488D01*
X96672375Y-87845806D01*
X96725659Y-87892722D01*
X96745120Y-87960999D01*
X96724578Y-88028959D01*
X96672374Y-88074194D01*
X96642991Y-88087895D01*
X96562322Y-88125512D01*
X96380215Y-88253025D01*
X96223025Y-88410215D01*
X96095512Y-88592322D01*
X96001559Y-88793807D01*
X95944022Y-89008532D01*
X95924647Y-89230000D01*
X95944022Y-89451467D01*
X95983391Y-89598390D01*
X96001560Y-89666196D01*
X96033672Y-89735060D01*
X96095512Y-89867678D01*
X96223025Y-90049784D01*
X96380215Y-90206974D01*
X96380218Y-90206976D01*
X96380219Y-90206977D01*
X96512770Y-90299791D01*
X96557098Y-90355247D01*
X96566499Y-90403003D01*
X96566499Y-90596996D01*
X96546497Y-90665117D01*
X96512770Y-90700209D01*
X96380215Y-90793025D01*
X96223025Y-90950215D01*
X96095512Y-91132322D01*
X96001559Y-91333807D01*
X95944022Y-91548532D01*
X95924647Y-91770000D01*
X95944022Y-91991467D01*
X95954485Y-92030516D01*
X95952795Y-92101492D01*
X95921873Y-92152220D01*
X92211336Y-95862757D01*
X92195016Y-95875833D01*
X92146370Y-95927635D01*
X92143621Y-95930472D01*
X92126667Y-95947427D01*
X92126660Y-95947434D01*
X92123865Y-95950230D01*
X92121442Y-95953352D01*
X92121426Y-95953371D01*
X92121365Y-95953451D01*
X92113689Y-95962436D01*
X92083414Y-95994677D01*
X92073652Y-96012434D01*
X92062801Y-96028952D01*
X92050385Y-96044959D01*
X92032824Y-96085539D01*
X92027604Y-96096195D01*
X92006304Y-96134940D01*
X92001267Y-96154559D01*
X91994864Y-96173261D01*
X91986818Y-96191855D01*
X91979901Y-96235524D01*
X91977495Y-96247144D01*
X91966500Y-96289969D01*
X91966500Y-96310223D01*
X91964949Y-96329933D01*
X91961779Y-96349942D01*
X91965941Y-96393961D01*
X91966500Y-96405819D01*
X91966500Y-102585404D01*
X91946498Y-102653525D01*
X91929595Y-102674499D01*
X89074500Y-105529595D01*
X89012188Y-105563621D01*
X88985405Y-105566500D01*
X72514594Y-105566500D01*
X72446473Y-105546498D01*
X72425499Y-105529595D01*
X70970405Y-104074500D01*
X70936379Y-104012188D01*
X70933500Y-103985405D01*
X70933500Y-95514593D01*
X70953502Y-95446472D01*
X70970397Y-95425506D01*
X71005502Y-95390401D01*
X71067813Y-95356379D01*
X71094594Y-95353500D01*
X72295696Y-95353500D01*
X72363817Y-95373502D01*
X72401179Y-95410584D01*
X72401889Y-95411671D01*
X72401892Y-95411677D01*
X72533171Y-95612613D01*
X72695731Y-95789201D01*
X72790236Y-95862757D01*
X72825967Y-95890568D01*
X72867438Y-95948194D01*
X72871171Y-96019092D01*
X72835982Y-96080754D01*
X72825967Y-96089432D01*
X72695731Y-96190799D01*
X72533171Y-96367386D01*
X72401892Y-96568323D01*
X72305476Y-96788130D01*
X72249390Y-97009613D01*
X72246557Y-97020801D01*
X72226736Y-97260000D01*
X72246557Y-97499199D01*
X72246557Y-97499202D01*
X72246558Y-97499203D01*
X72305476Y-97731869D01*
X72305477Y-97731872D01*
X72305478Y-97731874D01*
X72401892Y-97951677D01*
X72533171Y-98152613D01*
X72695731Y-98329201D01*
X72803130Y-98412793D01*
X72825967Y-98430568D01*
X72867438Y-98488194D01*
X72871171Y-98559092D01*
X72835982Y-98620754D01*
X72825967Y-98629432D01*
X72695731Y-98730799D01*
X72533171Y-98907386D01*
X72401892Y-99108323D01*
X72305476Y-99328130D01*
X72246558Y-99560796D01*
X72246557Y-99560801D01*
X72226736Y-99800000D01*
X72246557Y-100039199D01*
X72246557Y-100039202D01*
X72246558Y-100039203D01*
X72305476Y-100271869D01*
X72305477Y-100271872D01*
X72305478Y-100271874D01*
X72401892Y-100491677D01*
X72533171Y-100692613D01*
X72695731Y-100869201D01*
X72803130Y-100952793D01*
X72825967Y-100970568D01*
X72867438Y-101028194D01*
X72871171Y-101099092D01*
X72835982Y-101160754D01*
X72825967Y-101169432D01*
X72695731Y-101270799D01*
X72533171Y-101447386D01*
X72401892Y-101648323D01*
X72305476Y-101868130D01*
X72270734Y-102005327D01*
X72246557Y-102100801D01*
X72226736Y-102340000D01*
X72246557Y-102579199D01*
X72246557Y-102579202D01*
X72246558Y-102579203D01*
X72305476Y-102811869D01*
X72305477Y-102811872D01*
X72305478Y-102811874D01*
X72401892Y-103031677D01*
X72444395Y-103096732D01*
X72533171Y-103232613D01*
X72695730Y-103409200D01*
X72885140Y-103556625D01*
X73095039Y-103670215D01*
X73096231Y-103670860D01*
X73323245Y-103748795D01*
X73559990Y-103788300D01*
X73559993Y-103788300D01*
X73800007Y-103788300D01*
X73800010Y-103788300D01*
X74036755Y-103748795D01*
X74263769Y-103670860D01*
X74378003Y-103609039D01*
X74474859Y-103556625D01*
X74530876Y-103513025D01*
X74664269Y-103409201D01*
X74826829Y-103232613D01*
X74958108Y-103031677D01*
X75054522Y-102811874D01*
X75113443Y-102579199D01*
X75133264Y-102340000D01*
X75113443Y-102100801D01*
X75054522Y-101868126D01*
X74958108Y-101648323D01*
X74826829Y-101447387D01*
X74664269Y-101270799D01*
X74534031Y-101169430D01*
X74492561Y-101111807D01*
X74488827Y-101040908D01*
X74524017Y-100979246D01*
X74534025Y-100970573D01*
X74664269Y-100869201D01*
X74826829Y-100692613D01*
X74958108Y-100491677D01*
X75054522Y-100271874D01*
X75113443Y-100039199D01*
X75133264Y-99800000D01*
X75113443Y-99560801D01*
X75054522Y-99328126D01*
X74958108Y-99108323D01*
X74826829Y-98907387D01*
X74664269Y-98730799D01*
X74534031Y-98629430D01*
X74492561Y-98571807D01*
X74488827Y-98500908D01*
X74524017Y-98439246D01*
X74534025Y-98430573D01*
X74664269Y-98329201D01*
X74826829Y-98152613D01*
X74958108Y-97951677D01*
X75054522Y-97731874D01*
X75113443Y-97499199D01*
X75133264Y-97260000D01*
X75113443Y-97020801D01*
X75054522Y-96788126D01*
X74958108Y-96568323D01*
X74826829Y-96367387D01*
X74664269Y-96190799D01*
X74534031Y-96089430D01*
X74492561Y-96031807D01*
X74488827Y-95960908D01*
X74524017Y-95899246D01*
X74534025Y-95890573D01*
X74664269Y-95789201D01*
X74826829Y-95612613D01*
X74958108Y-95411677D01*
X75054522Y-95191874D01*
X75113443Y-94959199D01*
X75133264Y-94720000D01*
X75113443Y-94480801D01*
X75054522Y-94248126D01*
X74958108Y-94028323D01*
X74826829Y-93827387D01*
X74664269Y-93650799D01*
X74534031Y-93549430D01*
X74492561Y-93491807D01*
X74488827Y-93420908D01*
X74524017Y-93359246D01*
X74534025Y-93350573D01*
X74664269Y-93249201D01*
X74826829Y-93072613D01*
X74958108Y-92871677D01*
X75054522Y-92651874D01*
X75113443Y-92419199D01*
X75133264Y-92180000D01*
X75113443Y-91940801D01*
X75054522Y-91708126D01*
X74958108Y-91488323D01*
X74826829Y-91287387D01*
X74664269Y-91110799D01*
X74534031Y-91009430D01*
X74492561Y-90951807D01*
X74488827Y-90880908D01*
X74524017Y-90819246D01*
X74534025Y-90810573D01*
X74664269Y-90709201D01*
X74826829Y-90532613D01*
X74958108Y-90331677D01*
X75054522Y-90111874D01*
X75113443Y-89879199D01*
X75133264Y-89640000D01*
X75113443Y-89400801D01*
X75054522Y-89168126D01*
X74958108Y-88948323D01*
X74826829Y-88747387D01*
X74664269Y-88570799D01*
X74534031Y-88469430D01*
X74492561Y-88411807D01*
X74488827Y-88340908D01*
X74524017Y-88279246D01*
X74534025Y-88270573D01*
X74664269Y-88169201D01*
X74826829Y-87992613D01*
X74958108Y-87791677D01*
X75054522Y-87571874D01*
X75113443Y-87339199D01*
X75133264Y-87100000D01*
X75113443Y-86860801D01*
X75054522Y-86628126D01*
X74958108Y-86408323D01*
X74826829Y-86207387D01*
X74664269Y-86030799D01*
X74534031Y-85929430D01*
X74492561Y-85871807D01*
X74488827Y-85800908D01*
X74524017Y-85739246D01*
X74534025Y-85730573D01*
X74664269Y-85629201D01*
X74826829Y-85452613D01*
X74958108Y-85251677D01*
X75054522Y-85031874D01*
X75113443Y-84799199D01*
X75133264Y-84560000D01*
X75113443Y-84320801D01*
X75054522Y-84088126D01*
X74958108Y-83868323D01*
X74826829Y-83667387D01*
X74664269Y-83490799D01*
X74533621Y-83389111D01*
X74492152Y-83331489D01*
X74488418Y-83260591D01*
X74508671Y-83225100D01*
X74509678Y-83208889D01*
X73814653Y-82513863D01*
X73824592Y-82512435D01*
X73957470Y-82451752D01*
X74067869Y-82356090D01*
X74146845Y-82233201D01*
X74170806Y-82151595D01*
X74867956Y-82848745D01*
X74957668Y-82711432D01*
X75054046Y-82491711D01*
X75112946Y-82259121D01*
X75132761Y-82020000D01*
X75112946Y-81780878D01*
X75054046Y-81548288D01*
X74957668Y-81328566D01*
X74867956Y-81191253D01*
X74867955Y-81191253D01*
X74170805Y-81888402D01*
X74146845Y-81806799D01*
X74067869Y-81683910D01*
X73957470Y-81588248D01*
X73824592Y-81527565D01*
X73814652Y-81526135D01*
X74509678Y-80831110D01*
X74508683Y-80815093D01*
X74492153Y-80792124D01*
X74488419Y-80721226D01*
X74523609Y-80659564D01*
X74533625Y-80650885D01*
X74533627Y-80650884D01*
X74664269Y-80549201D01*
X74826829Y-80372613D01*
X74958108Y-80171677D01*
X75054522Y-79951874D01*
X75113443Y-79719199D01*
X75133264Y-79480000D01*
X75113443Y-79240801D01*
X75054522Y-79008126D01*
X74958108Y-78788323D01*
X74826829Y-78587387D01*
X74664269Y-78410799D01*
X74534031Y-78309430D01*
X74492561Y-78251807D01*
X74488827Y-78180908D01*
X74524017Y-78119246D01*
X74534025Y-78110573D01*
X74664269Y-78009201D01*
X74826829Y-77832613D01*
X74958108Y-77631677D01*
X75054522Y-77411874D01*
X75113443Y-77179199D01*
X75133264Y-76940000D01*
X75113443Y-76700801D01*
X75054522Y-76468126D01*
X74958108Y-76248323D01*
X74826829Y-76047387D01*
X74664269Y-75870799D01*
X74534031Y-75769430D01*
X74492561Y-75711807D01*
X74488827Y-75640908D01*
X74524017Y-75579246D01*
X74534025Y-75570573D01*
X74664269Y-75469201D01*
X74826829Y-75292613D01*
X74958108Y-75091677D01*
X75054522Y-74871874D01*
X75113443Y-74639199D01*
X75133264Y-74400000D01*
X75113443Y-74160801D01*
X75054522Y-73928126D01*
X74958108Y-73708323D01*
X74826829Y-73507387D01*
X74826824Y-73507382D01*
X74823776Y-73502716D01*
X74803263Y-73434748D01*
X74822752Y-73366478D01*
X74876056Y-73319583D01*
X74929259Y-73307800D01*
X75069965Y-73307800D01*
X75306634Y-73268306D01*
X75533567Y-73190401D01*
X75744587Y-73076203D01*
X75779678Y-73048889D01*
X75084653Y-72353863D01*
X75094592Y-72352435D01*
X75227470Y-72291752D01*
X75337869Y-72196090D01*
X75416845Y-72073201D01*
X75440806Y-71991595D01*
X76137957Y-72688745D01*
X76159127Y-72686549D01*
X76168516Y-72678537D01*
X76238863Y-72668959D01*
X76275418Y-72685984D01*
X76302042Y-72688745D01*
X76999193Y-71991594D01*
X77023155Y-72073201D01*
X77102131Y-72196090D01*
X77212530Y-72291752D01*
X77345408Y-72352435D01*
X77355345Y-72353863D01*
X76660320Y-73048888D01*
X76660321Y-73048889D01*
X76695413Y-73076203D01*
X76906432Y-73190401D01*
X77133365Y-73268306D01*
X77370035Y-73307800D01*
X77609965Y-73307800D01*
X77846634Y-73268306D01*
X78073567Y-73190401D01*
X78284587Y-73076203D01*
X78319678Y-73048889D01*
X77624653Y-72353863D01*
X77634592Y-72352435D01*
X77767470Y-72291752D01*
X77877869Y-72196090D01*
X77956845Y-72073201D01*
X77980806Y-71991595D01*
X78677957Y-72688745D01*
X78699395Y-72686522D01*
X78708214Y-72678995D01*
X78778561Y-72669416D01*
X78842920Y-72699390D01*
X78865182Y-72725079D01*
X78883171Y-72752613D01*
X78983566Y-72861671D01*
X79045730Y-72929200D01*
X79235140Y-73076625D01*
X79432398Y-73183374D01*
X79446231Y-73190860D01*
X79673245Y-73268795D01*
X79909990Y-73308300D01*
X79909993Y-73308300D01*
X80150007Y-73308300D01*
X80150010Y-73308300D01*
X80386755Y-73268795D01*
X80613769Y-73190860D01*
X80776903Y-73102577D01*
X80824859Y-73076625D01*
X80927789Y-72996511D01*
X81014269Y-72929201D01*
X81176829Y-72752613D01*
X81194518Y-72725538D01*
X81248520Y-72679450D01*
X81318868Y-72669875D01*
X81383226Y-72699852D01*
X81405481Y-72725536D01*
X81423171Y-72752613D01*
X81523566Y-72861671D01*
X81585730Y-72929200D01*
X81775140Y-73076625D01*
X81972398Y-73183374D01*
X81986231Y-73190860D01*
X82213245Y-73268795D01*
X82449990Y-73308300D01*
X82449993Y-73308300D01*
X82690007Y-73308300D01*
X82690010Y-73308300D01*
X82926755Y-73268795D01*
X83153769Y-73190860D01*
X83316903Y-73102577D01*
X83364859Y-73076625D01*
X83467789Y-72996511D01*
X83554269Y-72929201D01*
X83716829Y-72752613D01*
X83734518Y-72725538D01*
X83788520Y-72679450D01*
X83858868Y-72669875D01*
X83923226Y-72699852D01*
X83945481Y-72725536D01*
X83963171Y-72752613D01*
X84063566Y-72861671D01*
X84125730Y-72929200D01*
X84315140Y-73076625D01*
X84512398Y-73183374D01*
X84526231Y-73190860D01*
X84753245Y-73268795D01*
X84989990Y-73308300D01*
X84989993Y-73308300D01*
X85230007Y-73308300D01*
X85230010Y-73308300D01*
X85466755Y-73268795D01*
X85693769Y-73190860D01*
X85856903Y-73102577D01*
X85904859Y-73076625D01*
X86007789Y-72996511D01*
X86094269Y-72929201D01*
X86256829Y-72752613D01*
X86274518Y-72725538D01*
X86328520Y-72679450D01*
X86398868Y-72669875D01*
X86463226Y-72699852D01*
X86485481Y-72725536D01*
X86503171Y-72752613D01*
X86603566Y-72861671D01*
X86665730Y-72929200D01*
X86855140Y-73076625D01*
X87052398Y-73183374D01*
X87066231Y-73190860D01*
X87293245Y-73268795D01*
X87529990Y-73308300D01*
X87529993Y-73308300D01*
X87670414Y-73308300D01*
X87738535Y-73328302D01*
X87785028Y-73381958D01*
X87795132Y-73452232D01*
X87775897Y-73503216D01*
X87773174Y-73507383D01*
X87773171Y-73507387D01*
X87709670Y-73604582D01*
X87641892Y-73708323D01*
X87545476Y-73928130D01*
X87492650Y-74136739D01*
X87486557Y-74160801D01*
X87466736Y-74400000D01*
X87486557Y-74639199D01*
X87486557Y-74639202D01*
X87486558Y-74639203D01*
X87545476Y-74871869D01*
X87545477Y-74871872D01*
X87545478Y-74871874D01*
X87641892Y-75091677D01*
X87741150Y-75243601D01*
X87773171Y-75292613D01*
X87913127Y-75444647D01*
X87935731Y-75469201D01*
X88066374Y-75570885D01*
X88107845Y-75628509D01*
X88111579Y-75699408D01*
X88091328Y-75734892D01*
X88090321Y-75751111D01*
X88785346Y-76446136D01*
X88775408Y-76447565D01*
X88642530Y-76508248D01*
X88532131Y-76603910D01*
X88453155Y-76726799D01*
X88429193Y-76808403D01*
X87732043Y-76111253D01*
X87732042Y-76111253D01*
X87642333Y-76248562D01*
X87545951Y-76468293D01*
X87487053Y-76700878D01*
X87467238Y-76939999D01*
X87487053Y-77179121D01*
X87545953Y-77411711D01*
X87642331Y-77631433D01*
X87732041Y-77768744D01*
X88429193Y-77071594D01*
X88453155Y-77153201D01*
X88532131Y-77276090D01*
X88642530Y-77371752D01*
X88775408Y-77432435D01*
X88785345Y-77433863D01*
X88090320Y-78128888D01*
X88091315Y-78144905D01*
X88107847Y-78167878D01*
X88111579Y-78238777D01*
X88076387Y-78300438D01*
X88066375Y-78309113D01*
X87935734Y-78410795D01*
X87773171Y-78587386D01*
X87641892Y-78788323D01*
X87545476Y-79008130D01*
X87486558Y-79240796D01*
X87486557Y-79240801D01*
X87466736Y-79480000D01*
X87486557Y-79719199D01*
X87486557Y-79719202D01*
X87486558Y-79719203D01*
X87545476Y-79951869D01*
X87545477Y-79951872D01*
X87545478Y-79951874D01*
X87641892Y-80171677D01*
X87773171Y-80372613D01*
X87935731Y-80549201D01*
X88043130Y-80632793D01*
X88065967Y-80650568D01*
X88107438Y-80708194D01*
X88111171Y-80779092D01*
X88075982Y-80840754D01*
X88065967Y-80849432D01*
X87935731Y-80950799D01*
X87773171Y-81127386D01*
X87641892Y-81328323D01*
X87545476Y-81548130D01*
X87486558Y-81780796D01*
X87486557Y-81780801D01*
X87486551Y-81780878D01*
X87466736Y-82019999D01*
X87486557Y-82259198D01*
X87526433Y-82416665D01*
X87523765Y-82487612D01*
X87483164Y-82545854D01*
X87417521Y-82572899D01*
X87347676Y-82560162D01*
X87295805Y-82511686D01*
X87288905Y-82498218D01*
X87277108Y-82471323D01*
X87145829Y-82270387D01*
X86983269Y-82093799D01*
X86982293Y-82093039D01*
X86793859Y-81946374D01*
X86582768Y-81832139D01*
X86429093Y-81779382D01*
X86355755Y-81754205D01*
X86119010Y-81714700D01*
X85878990Y-81714700D01*
X85642245Y-81754205D01*
X85642242Y-81754205D01*
X85642242Y-81754206D01*
X85415231Y-81832139D01*
X85204140Y-81946374D01*
X85014730Y-82093799D01*
X84852171Y-82270386D01*
X84720892Y-82471323D01*
X84624476Y-82691130D01*
X84568390Y-82912613D01*
X84565557Y-82923801D01*
X84545736Y-83163000D01*
X84565557Y-83402199D01*
X84565557Y-83402202D01*
X84565558Y-83402203D01*
X84624476Y-83634869D01*
X84624477Y-83634872D01*
X84624478Y-83634874D01*
X84720892Y-83854677D01*
X84852171Y-84055613D01*
X85014731Y-84232201D01*
X85122130Y-84315793D01*
X85144967Y-84333568D01*
X85186438Y-84391194D01*
X85190171Y-84462092D01*
X85154982Y-84523754D01*
X85144967Y-84532432D01*
X85014731Y-84633799D01*
X84852171Y-84810386D01*
X84720892Y-85011323D01*
X84624476Y-85231130D01*
X84568390Y-85452613D01*
X84565557Y-85463801D01*
X84545736Y-85703000D01*
X84565557Y-85942199D01*
X84565557Y-85942202D01*
X84565558Y-85942203D01*
X84624476Y-86174869D01*
X84624477Y-86174872D01*
X84624478Y-86174874D01*
X84720892Y-86394677D01*
X84817599Y-86542697D01*
X84852171Y-86595613D01*
X85014730Y-86772200D01*
X85204140Y-86919625D01*
X85415230Y-87033859D01*
X85415231Y-87033860D01*
X85642245Y-87111795D01*
X85878990Y-87151300D01*
X85878993Y-87151300D01*
X86119007Y-87151300D01*
X86119010Y-87151300D01*
X86355755Y-87111795D01*
X86582769Y-87033860D01*
X86697004Y-86972039D01*
X86793859Y-86919625D01*
X86837036Y-86886019D01*
X86983269Y-86772201D01*
X87145829Y-86595613D01*
X87277108Y-86394677D01*
X87373522Y-86174874D01*
X87432443Y-85942199D01*
X87452264Y-85703000D01*
X87432443Y-85463801D01*
X87392567Y-85306333D01*
X87395234Y-85235388D01*
X87435834Y-85177146D01*
X87501478Y-85150100D01*
X87571322Y-85162837D01*
X87623193Y-85211313D01*
X87630098Y-85224789D01*
X87637087Y-85240724D01*
X87641892Y-85251677D01*
X87773171Y-85452613D01*
X87935731Y-85629201D01*
X88003494Y-85681943D01*
X88065967Y-85730568D01*
X88107438Y-85788194D01*
X88111171Y-85859092D01*
X88075982Y-85920754D01*
X88065967Y-85929432D01*
X87935731Y-86030799D01*
X87773171Y-86207386D01*
X87641892Y-86408323D01*
X87545476Y-86628130D01*
X87508993Y-86772201D01*
X87486557Y-86860801D01*
X87466736Y-87100000D01*
X87486557Y-87339199D01*
X87486557Y-87339202D01*
X87486558Y-87339203D01*
X87545476Y-87571869D01*
X87545477Y-87571872D01*
X87545478Y-87571874D01*
X87641892Y-87791677D01*
X87773171Y-87992613D01*
X87935731Y-88169201D01*
X88043130Y-88252793D01*
X88065967Y-88270568D01*
X88107438Y-88328194D01*
X88111171Y-88399092D01*
X88075982Y-88460754D01*
X88065967Y-88469432D01*
X87935731Y-88570799D01*
X87773171Y-88747386D01*
X87641892Y-88948323D01*
X87545476Y-89168130D01*
X87487762Y-89396042D01*
X87486557Y-89400801D01*
X87466736Y-89640000D01*
X87486557Y-89879199D01*
X87486557Y-89879202D01*
X87486558Y-89879203D01*
X87545476Y-90111869D01*
X87545477Y-90111872D01*
X87545478Y-90111874D01*
X87641892Y-90331677D01*
X87773171Y-90532613D01*
X87935731Y-90709201D01*
X87982710Y-90745766D01*
X88065967Y-90810568D01*
X88107438Y-90868194D01*
X88111171Y-90939092D01*
X88075982Y-91000754D01*
X88065967Y-91009432D01*
X87935731Y-91110799D01*
X87773171Y-91287386D01*
X87641892Y-91488323D01*
X87545476Y-91708130D01*
X87529809Y-91770000D01*
X87486557Y-91940801D01*
X87466736Y-92180000D01*
X87486557Y-92419199D01*
X87486557Y-92419202D01*
X87486558Y-92419203D01*
X87545476Y-92651869D01*
X87545477Y-92651872D01*
X87545478Y-92651874D01*
X87641892Y-92871677D01*
X87773171Y-93072613D01*
X87935731Y-93249201D01*
X88020962Y-93315539D01*
X88065967Y-93350568D01*
X88107438Y-93408194D01*
X88111171Y-93479092D01*
X88075982Y-93540754D01*
X88065967Y-93549432D01*
X87935731Y-93650799D01*
X87773171Y-93827386D01*
X87641891Y-94028324D01*
X87630098Y-94055211D01*
X87584416Y-94109559D01*
X87516604Y-94130582D01*
X87448190Y-94111605D01*
X87400897Y-94058654D01*
X87389738Y-93988540D01*
X87392567Y-93973665D01*
X87432443Y-93816199D01*
X87452264Y-93577000D01*
X87432443Y-93337801D01*
X87373522Y-93105126D01*
X87277108Y-92885323D01*
X87145829Y-92684387D01*
X86983269Y-92507799D01*
X86983268Y-92507798D01*
X86793859Y-92360374D01*
X86582768Y-92246139D01*
X86390112Y-92180000D01*
X86355755Y-92168205D01*
X86119010Y-92128700D01*
X85878990Y-92128700D01*
X85642245Y-92168205D01*
X85642242Y-92168205D01*
X85642242Y-92168206D01*
X85415231Y-92246139D01*
X85204140Y-92360374D01*
X85014730Y-92507799D01*
X84852171Y-92684386D01*
X84720892Y-92885323D01*
X84624476Y-93105130D01*
X84571194Y-93315539D01*
X84565557Y-93337801D01*
X84545736Y-93577000D01*
X84565557Y-93816199D01*
X84565557Y-93816202D01*
X84565558Y-93816203D01*
X84624476Y-94048869D01*
X84624477Y-94048872D01*
X84624478Y-94048874D01*
X84720892Y-94268677D01*
X84852171Y-94469613D01*
X85014731Y-94646201D01*
X85109548Y-94720000D01*
X85144967Y-94747568D01*
X85186438Y-94805194D01*
X85190171Y-94876092D01*
X85154982Y-94937754D01*
X85144967Y-94946432D01*
X85014731Y-95047799D01*
X84852171Y-95224386D01*
X84720892Y-95425323D01*
X84624476Y-95645130D01*
X84566876Y-95872593D01*
X84565557Y-95877801D01*
X84545736Y-96117000D01*
X84565557Y-96356199D01*
X84565557Y-96356202D01*
X84565558Y-96356203D01*
X84624476Y-96588869D01*
X84624477Y-96588872D01*
X84624478Y-96588874D01*
X84720892Y-96808677D01*
X84756601Y-96863333D01*
X84852171Y-97009613D01*
X85014730Y-97186200D01*
X85204140Y-97333625D01*
X85372695Y-97424841D01*
X85415231Y-97447860D01*
X85642245Y-97525795D01*
X85878990Y-97565300D01*
X85878993Y-97565300D01*
X86119007Y-97565300D01*
X86119010Y-97565300D01*
X86355755Y-97525795D01*
X86582769Y-97447860D01*
X86724510Y-97371154D01*
X86793859Y-97333625D01*
X86849147Y-97290592D01*
X86983269Y-97186201D01*
X87145829Y-97009613D01*
X87277108Y-96808677D01*
X87288902Y-96781787D01*
X87334579Y-96727443D01*
X87402391Y-96706417D01*
X87470805Y-96725392D01*
X87518101Y-96778341D01*
X87529261Y-96848455D01*
X87526433Y-96863333D01*
X87486557Y-97020800D01*
X87473429Y-97179235D01*
X87466736Y-97260000D01*
X87486557Y-97499199D01*
X87486557Y-97499202D01*
X87486558Y-97499203D01*
X87545476Y-97731869D01*
X87545477Y-97731872D01*
X87545478Y-97731874D01*
X87641892Y-97951677D01*
X87773171Y-98152613D01*
X87935731Y-98329201D01*
X88043130Y-98412793D01*
X88065967Y-98430568D01*
X88107438Y-98488194D01*
X88111171Y-98559092D01*
X88075982Y-98620754D01*
X88065967Y-98629432D01*
X87935731Y-98730799D01*
X87773171Y-98907386D01*
X87641892Y-99108323D01*
X87545476Y-99328130D01*
X87486558Y-99560796D01*
X87486557Y-99560801D01*
X87466736Y-99800000D01*
X87486557Y-100039199D01*
X87486557Y-100039202D01*
X87486558Y-100039203D01*
X87545476Y-100271869D01*
X87545477Y-100271872D01*
X87545478Y-100271874D01*
X87641892Y-100491677D01*
X87773171Y-100692613D01*
X87935731Y-100869201D01*
X88043130Y-100952793D01*
X88065967Y-100970568D01*
X88107438Y-101028194D01*
X88111171Y-101099092D01*
X88075982Y-101160754D01*
X88065967Y-101169432D01*
X87935731Y-101270799D01*
X87773171Y-101447386D01*
X87641892Y-101648323D01*
X87545476Y-101868130D01*
X87510734Y-102005327D01*
X87486557Y-102100801D01*
X87466736Y-102340000D01*
X87486557Y-102579199D01*
X87486557Y-102579202D01*
X87486558Y-102579203D01*
X87545476Y-102811869D01*
X87545477Y-102811872D01*
X87545478Y-102811874D01*
X87641892Y-103031677D01*
X87684395Y-103096732D01*
X87773171Y-103232613D01*
X87935730Y-103409200D01*
X88125140Y-103556625D01*
X88335039Y-103670215D01*
X88336231Y-103670860D01*
X88563245Y-103748795D01*
X88799990Y-103788300D01*
X88799993Y-103788300D01*
X89040007Y-103788300D01*
X89040010Y-103788300D01*
X89276755Y-103748795D01*
X89503769Y-103670860D01*
X89618004Y-103609039D01*
X89714859Y-103556625D01*
X89770876Y-103513025D01*
X89904269Y-103409201D01*
X90066829Y-103232613D01*
X90198108Y-103031677D01*
X90294522Y-102811874D01*
X90353443Y-102579199D01*
X90373264Y-102340000D01*
X90353443Y-102100801D01*
X90294522Y-101868126D01*
X90198108Y-101648323D01*
X90066829Y-101447387D01*
X89904269Y-101270799D01*
X89774031Y-101169430D01*
X89732561Y-101111807D01*
X89728827Y-101040908D01*
X89764017Y-100979246D01*
X89774025Y-100970573D01*
X89904269Y-100869201D01*
X90066829Y-100692613D01*
X90198108Y-100491677D01*
X90294522Y-100271874D01*
X90353443Y-100039199D01*
X90373264Y-99800000D01*
X90353443Y-99560801D01*
X90294522Y-99328126D01*
X90198108Y-99108323D01*
X90066829Y-98907387D01*
X89904269Y-98730799D01*
X89774031Y-98629430D01*
X89732561Y-98571807D01*
X89728827Y-98500908D01*
X89764017Y-98439246D01*
X89774025Y-98430573D01*
X89904269Y-98329201D01*
X90066829Y-98152613D01*
X90198108Y-97951677D01*
X90294522Y-97731874D01*
X90353443Y-97499199D01*
X90373264Y-97260000D01*
X90353443Y-97020801D01*
X90294522Y-96788126D01*
X90198108Y-96568323D01*
X90066829Y-96367387D01*
X89904269Y-96190799D01*
X89774031Y-96089430D01*
X89732561Y-96031807D01*
X89728827Y-95960908D01*
X89764017Y-95899246D01*
X89774025Y-95890573D01*
X89904269Y-95789201D01*
X90066829Y-95612613D01*
X90198108Y-95411677D01*
X90294522Y-95191874D01*
X90353443Y-94959199D01*
X90373264Y-94720000D01*
X90353443Y-94480801D01*
X90294522Y-94248126D01*
X90198108Y-94028323D01*
X90066829Y-93827387D01*
X89904269Y-93650799D01*
X89774031Y-93549430D01*
X89732561Y-93491807D01*
X89728827Y-93420908D01*
X89764017Y-93359246D01*
X89774025Y-93350573D01*
X89904269Y-93249201D01*
X90066829Y-93072613D01*
X90198108Y-92871677D01*
X90294522Y-92651874D01*
X90353443Y-92419199D01*
X90373264Y-92180000D01*
X90353443Y-91940801D01*
X90294522Y-91708126D01*
X90198108Y-91488323D01*
X90066829Y-91287387D01*
X89904269Y-91110799D01*
X89774031Y-91009430D01*
X89732561Y-90951807D01*
X89728827Y-90880908D01*
X89764017Y-90819246D01*
X89774025Y-90810573D01*
X89904269Y-90709201D01*
X90066829Y-90532613D01*
X90198108Y-90331677D01*
X90294522Y-90111874D01*
X90353443Y-89879199D01*
X90373264Y-89640000D01*
X90353443Y-89400801D01*
X90294522Y-89168126D01*
X90198108Y-88948323D01*
X90066829Y-88747387D01*
X89904269Y-88570799D01*
X89774031Y-88469430D01*
X89732561Y-88411807D01*
X89728827Y-88340908D01*
X89764017Y-88279246D01*
X89774025Y-88270573D01*
X89904269Y-88169201D01*
X90066829Y-87992613D01*
X90198108Y-87791677D01*
X90294522Y-87571874D01*
X90353443Y-87339199D01*
X90373264Y-87100000D01*
X90353443Y-86860801D01*
X90294522Y-86628126D01*
X90198108Y-86408323D01*
X90066829Y-86207387D01*
X89904269Y-86030799D01*
X89774031Y-85929430D01*
X89732561Y-85871807D01*
X89728827Y-85800908D01*
X89764017Y-85739246D01*
X89774025Y-85730573D01*
X89904269Y-85629201D01*
X90066829Y-85452613D01*
X90198108Y-85251677D01*
X90294522Y-85031874D01*
X90353443Y-84799199D01*
X90373264Y-84560000D01*
X90353443Y-84320801D01*
X90294522Y-84088126D01*
X90198108Y-83868323D01*
X90066829Y-83667387D01*
X89904269Y-83490799D01*
X89774031Y-83389430D01*
X89732561Y-83331807D01*
X89728827Y-83260908D01*
X89764017Y-83199246D01*
X89774025Y-83190573D01*
X89904269Y-83089201D01*
X90066829Y-82912613D01*
X90198108Y-82711677D01*
X90294522Y-82491874D01*
X90353443Y-82259199D01*
X90373264Y-82020000D01*
X90353443Y-81780801D01*
X90294522Y-81548126D01*
X90198108Y-81328323D01*
X90066829Y-81127387D01*
X89904269Y-80950799D01*
X89774031Y-80849430D01*
X89732561Y-80791807D01*
X89728827Y-80720908D01*
X89764017Y-80659246D01*
X89774025Y-80650573D01*
X89904269Y-80549201D01*
X90066829Y-80372613D01*
X90198108Y-80171677D01*
X90294522Y-79951874D01*
X90353443Y-79719199D01*
X90373264Y-79480000D01*
X90353443Y-79240801D01*
X90294522Y-79008126D01*
X90198108Y-78788323D01*
X90066829Y-78587387D01*
X89904269Y-78410799D01*
X89773621Y-78309111D01*
X89732152Y-78251489D01*
X89728418Y-78180591D01*
X89748671Y-78145100D01*
X89749678Y-78128889D01*
X89054653Y-77433863D01*
X89064592Y-77432435D01*
X89197470Y-77371752D01*
X89307869Y-77276090D01*
X89386845Y-77153201D01*
X89410806Y-77071595D01*
X90107956Y-77768745D01*
X90197668Y-77631432D01*
X90294046Y-77411711D01*
X90352946Y-77179121D01*
X90372761Y-76939999D01*
X90352946Y-76700878D01*
X90294046Y-76468288D01*
X90220229Y-76300000D01*
X93106709Y-76300000D01*
X93125845Y-76555354D01*
X93182826Y-76805002D01*
X93276378Y-77043369D01*
X93404413Y-77265131D01*
X93564065Y-77465330D01*
X93564068Y-77465332D01*
X93564069Y-77465334D01*
X93597126Y-77496006D01*
X93751784Y-77639508D01*
X93907924Y-77745962D01*
X93963355Y-77783754D01*
X94017596Y-77809875D01*
X94194064Y-77894858D01*
X94248635Y-77911690D01*
X94438757Y-77970335D01*
X94691966Y-78008500D01*
X94691968Y-78008500D01*
X94948032Y-78008500D01*
X94948034Y-78008500D01*
X95201243Y-77970335D01*
X95445935Y-77894858D01*
X95676646Y-77783754D01*
X95888219Y-77639505D01*
X95989832Y-77545222D01*
X98192000Y-77545222D01*
X98192359Y-77551936D01*
X98198505Y-77609093D01*
X98249554Y-77745962D01*
X98337095Y-77862904D01*
X98454037Y-77950445D01*
X98590906Y-78001494D01*
X98648063Y-78007640D01*
X98654777Y-78008000D01*
X99646000Y-78008000D01*
X99646000Y-77058683D01*
X99720857Y-77084877D01*
X99855074Y-77100000D01*
X99944926Y-77100000D01*
X100079143Y-77084877D01*
X100154000Y-77058683D01*
X100154000Y-78008000D01*
X101145223Y-78008000D01*
X101151936Y-78007640D01*
X101209093Y-78001494D01*
X101345962Y-77950445D01*
X101462904Y-77862904D01*
X101550445Y-77745962D01*
X101601494Y-77609093D01*
X101607640Y-77551936D01*
X101608000Y-77545222D01*
X101608000Y-76554000D01*
X100658684Y-76554000D01*
X100684877Y-76479143D01*
X100705062Y-76300000D01*
X100684877Y-76120857D01*
X100658684Y-76046000D01*
X101608000Y-76046000D01*
X101608000Y-75699999D01*
X106727211Y-75699999D01*
X106746341Y-75955279D01*
X106803305Y-76204854D01*
X106896830Y-76443151D01*
X107024827Y-76664848D01*
X107065250Y-76715537D01*
X107065252Y-76715537D01*
X107721155Y-76059634D01*
X107810577Y-76201948D01*
X107938052Y-76329423D01*
X108080364Y-76418843D01*
X107424421Y-77074786D01*
X107424421Y-77074787D01*
X107583608Y-77183320D01*
X107814247Y-77294390D01*
X108058865Y-77369844D01*
X108312006Y-77408000D01*
X108567994Y-77408000D01*
X108821134Y-77369844D01*
X109065752Y-77294390D01*
X109296392Y-77183320D01*
X109455578Y-77074787D01*
X108799634Y-76418843D01*
X108941948Y-76329423D01*
X109069423Y-76201948D01*
X109158844Y-76059634D01*
X109814747Y-76715538D01*
X109814748Y-76715537D01*
X109855172Y-76664850D01*
X109983169Y-76443152D01*
X110076694Y-76204854D01*
X110133658Y-75955279D01*
X110152788Y-75700000D01*
X110152788Y-75699999D01*
X111806709Y-75699999D01*
X111825845Y-75955354D01*
X111882826Y-76205002D01*
X111976378Y-76443369D01*
X112104413Y-76665131D01*
X112264065Y-76865330D01*
X112264068Y-76865332D01*
X112264069Y-76865334D01*
X112333141Y-76929423D01*
X112451784Y-77039508D01*
X112608279Y-77146204D01*
X112663355Y-77183754D01*
X112782960Y-77241352D01*
X112894064Y-77294858D01*
X112925129Y-77304440D01*
X113138757Y-77370335D01*
X113391966Y-77408500D01*
X113391968Y-77408500D01*
X113648032Y-77408500D01*
X113648034Y-77408500D01*
X113901243Y-77370335D01*
X114145935Y-77294858D01*
X114376646Y-77183754D01*
X114588219Y-77039505D01*
X114775931Y-76865334D01*
X114935587Y-76665131D01*
X114935588Y-76665128D01*
X114938026Y-76662072D01*
X114996136Y-76621284D01*
X115067074Y-76618387D01*
X115125632Y-76651536D01*
X116054595Y-77580499D01*
X116088621Y-77642811D01*
X116091500Y-77669594D01*
X116091500Y-79685543D01*
X116089204Y-79706331D01*
X116091438Y-79777380D01*
X116091500Y-79781339D01*
X116091500Y-79809252D01*
X116091995Y-79813170D01*
X116091997Y-79813202D01*
X116092008Y-79813284D01*
X116092937Y-79825093D01*
X116094326Y-79869288D01*
X116099977Y-79888737D01*
X116103986Y-79908092D01*
X116106525Y-79928190D01*
X116122801Y-79969299D01*
X116126644Y-79980526D01*
X116138980Y-80022986D01*
X116149294Y-80040426D01*
X116157987Y-80058170D01*
X116165448Y-80077013D01*
X116165449Y-80077015D01*
X116191431Y-80112776D01*
X116197948Y-80122697D01*
X116220458Y-80160759D01*
X116234778Y-80175079D01*
X116247618Y-80190112D01*
X116259526Y-80206501D01*
X116293598Y-80234688D01*
X116302378Y-80242678D01*
X126133594Y-90073895D01*
X126167620Y-90136207D01*
X126170499Y-90162990D01*
X126170499Y-97087398D01*
X126168204Y-97108184D01*
X126170438Y-97179235D01*
X126170500Y-97183194D01*
X126170500Y-97211107D01*
X126170995Y-97215025D01*
X126170997Y-97215057D01*
X126171008Y-97215139D01*
X126171937Y-97226948D01*
X126173326Y-97271143D01*
X126178977Y-97290592D01*
X126182986Y-97309947D01*
X126185525Y-97330045D01*
X126201801Y-97371154D01*
X126205644Y-97382381D01*
X126217980Y-97424841D01*
X126228294Y-97442281D01*
X126236987Y-97460025D01*
X126244448Y-97478868D01*
X126244449Y-97478870D01*
X126270431Y-97514631D01*
X126276948Y-97524552D01*
X126299458Y-97562614D01*
X126313778Y-97576934D01*
X126326618Y-97591967D01*
X126338526Y-97608356D01*
X126372598Y-97636543D01*
X126381378Y-97644533D01*
X137242500Y-108505655D01*
X137255583Y-108521985D01*
X137261712Y-108527740D01*
X137297678Y-108588952D01*
X137294841Y-108659892D01*
X137264556Y-108708686D01*
X137223023Y-108750219D01*
X137095512Y-108932322D01*
X137061386Y-109005507D01*
X137008939Y-109117981D01*
X137001559Y-109133807D01*
X136944022Y-109348532D01*
X136924647Y-109570000D01*
X136944022Y-109791467D01*
X136983024Y-109937020D01*
X137001560Y-110006196D01*
X137062609Y-110137117D01*
X137095512Y-110207678D01*
X137223025Y-110389784D01*
X137380215Y-110546974D01*
X137380218Y-110546976D01*
X137380219Y-110546977D01*
X137562323Y-110674488D01*
X137672965Y-110726081D01*
X137726250Y-110772997D01*
X137745711Y-110841274D01*
X137725170Y-110909234D01*
X137672966Y-110954469D01*
X137562575Y-111005946D01*
X137499394Y-111050185D01*
X138178209Y-111729000D01*
X138168431Y-111729000D01*
X138074579Y-111744661D01*
X137962749Y-111805180D01*
X137876629Y-111898731D01*
X137825552Y-112015177D01*
X137819461Y-112088669D01*
X137140185Y-111409394D01*
X137095948Y-111472572D01*
X137002031Y-111673975D01*
X136944517Y-111888623D01*
X136925149Y-112109999D01*
X136944517Y-112331376D01*
X137002031Y-112546024D01*
X137095947Y-112747426D01*
X137140184Y-112810603D01*
X137140185Y-112810603D01*
X137815607Y-112135181D01*
X137815051Y-112141898D01*
X137846266Y-112265162D01*
X137915813Y-112371612D01*
X138016157Y-112449713D01*
X138136422Y-112491000D01*
X138178210Y-112491000D01*
X137499395Y-113169813D01*
X137499395Y-113169814D01*
X137562573Y-113214052D01*
X137763975Y-113307968D01*
X137978623Y-113365482D01*
X138199999Y-113384850D01*
X138421376Y-113365482D01*
X138636024Y-113307968D01*
X138837427Y-113214052D01*
X138900603Y-113169814D01*
X138900603Y-113169812D01*
X138221791Y-112491000D01*
X138231569Y-112491000D01*
X138325421Y-112475339D01*
X138437251Y-112414820D01*
X138523371Y-112321269D01*
X138574448Y-112204823D01*
X138580538Y-112131329D01*
X139259812Y-112810603D01*
X139259814Y-112810603D01*
X139304052Y-112747427D01*
X139397968Y-112546024D01*
X139455482Y-112331376D01*
X139474850Y-112109999D01*
X139455482Y-111888623D01*
X139397968Y-111673975D01*
X139304051Y-111472571D01*
X139259815Y-111409395D01*
X139259813Y-111409395D01*
X138584392Y-112084816D01*
X138584949Y-112078102D01*
X138553734Y-111954838D01*
X138484187Y-111848388D01*
X138383843Y-111770287D01*
X138263578Y-111729000D01*
X138221790Y-111729000D01*
X138900603Y-111050185D01*
X138900603Y-111050184D01*
X138837426Y-111005947D01*
X138727034Y-110954470D01*
X138673749Y-110907552D01*
X138654288Y-110839275D01*
X138674830Y-110771315D01*
X138727032Y-110726082D01*
X138837677Y-110674488D01*
X139019781Y-110546977D01*
X139176977Y-110389781D01*
X139304488Y-110207677D01*
X139398440Y-110006196D01*
X139455978Y-109791463D01*
X139475353Y-109570000D01*
X139455978Y-109348537D01*
X139398440Y-109133804D01*
X139304488Y-108932324D01*
X139302633Y-108929675D01*
X139176974Y-108750215D01*
X139019784Y-108593025D01*
X138945506Y-108541015D01*
X138887228Y-108500208D01*
X138842901Y-108444752D01*
X138833500Y-108396996D01*
X138833500Y-108203004D01*
X138853502Y-108134883D01*
X138887229Y-108099791D01*
X139019781Y-108006977D01*
X139176977Y-107849781D01*
X139304488Y-107667677D01*
X139398440Y-107466196D01*
X139455978Y-107251463D01*
X139475353Y-107030000D01*
X139455978Y-106808537D01*
X139398440Y-106593804D01*
X139304488Y-106392324D01*
X139300829Y-106387099D01*
X139176974Y-106210215D01*
X139019784Y-106053025D01*
X138837678Y-105925512D01*
X138787247Y-105901996D01*
X138727624Y-105874193D01*
X138674341Y-105827278D01*
X138654880Y-105759001D01*
X138675422Y-105691041D01*
X138727624Y-105645806D01*
X138837677Y-105594488D01*
X139019781Y-105466977D01*
X139176977Y-105309781D01*
X139304488Y-105127677D01*
X139398440Y-104926196D01*
X139455978Y-104711463D01*
X139475353Y-104490000D01*
X139455978Y-104268537D01*
X139445667Y-104230058D01*
X139438883Y-104204739D01*
X139398440Y-104053804D01*
X139304488Y-103852324D01*
X139176977Y-103670219D01*
X139176976Y-103670218D01*
X139176974Y-103670215D01*
X139019784Y-103513025D01*
X138837678Y-103385512D01*
X138717848Y-103329635D01*
X138636196Y-103291560D01*
X138622709Y-103287946D01*
X138421467Y-103234022D01*
X138200000Y-103214647D01*
X137978532Y-103234022D01*
X137763807Y-103291559D01*
X137763806Y-103291559D01*
X137763804Y-103291560D01*
X137720228Y-103311880D01*
X137562322Y-103385512D01*
X137380215Y-103513025D01*
X137223025Y-103670215D01*
X137095512Y-103852322D01*
X137033455Y-103985405D01*
X137009119Y-104037595D01*
X137001559Y-104053807D01*
X136944022Y-104268532D01*
X136924647Y-104490000D01*
X136929829Y-104549233D01*
X136915839Y-104618838D01*
X136866439Y-104669829D01*
X136797313Y-104686019D01*
X136730408Y-104662266D01*
X136715213Y-104649308D01*
X128432405Y-96366500D01*
X128398379Y-96304188D01*
X128395500Y-96277405D01*
X128395500Y-89491853D01*
X128397795Y-89471062D01*
X128397179Y-89451467D01*
X128395562Y-89400000D01*
X128395500Y-89396042D01*
X128395500Y-89372108D01*
X128395500Y-89368144D01*
X128394995Y-89364152D01*
X128394062Y-89352306D01*
X128392674Y-89308111D01*
X128387019Y-89288647D01*
X128383013Y-89269307D01*
X128380474Y-89249203D01*
X128364195Y-89208087D01*
X128360356Y-89196872D01*
X128348019Y-89154407D01*
X128337703Y-89136964D01*
X128329007Y-89119214D01*
X128321552Y-89100383D01*
X128295554Y-89064600D01*
X128289058Y-89054710D01*
X128266542Y-89016638D01*
X128252212Y-89002308D01*
X128239378Y-88987281D01*
X128227472Y-88970893D01*
X128225765Y-88969481D01*
X128193394Y-88942700D01*
X128184616Y-88934712D01*
X123711996Y-84462092D01*
X119270402Y-80020497D01*
X119236378Y-79958188D01*
X119233499Y-79931414D01*
X119233500Y-77534500D01*
X119253502Y-77466379D01*
X119307158Y-77419886D01*
X119359500Y-77408500D01*
X119845269Y-77408500D01*
X119848638Y-77408500D01*
X119909201Y-77401989D01*
X120046204Y-77350889D01*
X120163261Y-77263261D01*
X120250889Y-77146204D01*
X120301989Y-77009201D01*
X120308500Y-76948638D01*
X120308500Y-75700000D01*
X125307211Y-75700000D01*
X125326341Y-75955279D01*
X125383305Y-76204854D01*
X125476830Y-76443151D01*
X125604827Y-76664848D01*
X125645250Y-76715537D01*
X125645252Y-76715537D01*
X126301155Y-76059634D01*
X126390577Y-76201948D01*
X126518052Y-76329423D01*
X126660364Y-76418843D01*
X126004421Y-77074786D01*
X126004421Y-77074787D01*
X126163608Y-77183320D01*
X126394247Y-77294390D01*
X126638865Y-77369844D01*
X126892006Y-77408000D01*
X127147994Y-77408000D01*
X127401134Y-77369844D01*
X127645752Y-77294390D01*
X127876392Y-77183320D01*
X128035578Y-77074787D01*
X127379634Y-76418843D01*
X127521948Y-76329423D01*
X127649423Y-76201948D01*
X127738844Y-76059634D01*
X128394747Y-76715538D01*
X128394748Y-76715537D01*
X128435172Y-76664850D01*
X128563169Y-76443152D01*
X128656694Y-76204854D01*
X128713658Y-75955279D01*
X128732788Y-75700000D01*
X128732788Y-75699999D01*
X130386709Y-75699999D01*
X130405845Y-75955354D01*
X130462826Y-76205002D01*
X130556378Y-76443369D01*
X130684413Y-76665131D01*
X130844065Y-76865330D01*
X130844068Y-76865332D01*
X130844069Y-76865334D01*
X130913141Y-76929423D01*
X131031784Y-77039508D01*
X131188279Y-77146204D01*
X131243355Y-77183754D01*
X131331826Y-77226359D01*
X131395168Y-77256863D01*
X131447864Y-77304440D01*
X131466499Y-77370385D01*
X131466499Y-85586152D01*
X131464204Y-85606941D01*
X131466438Y-85677984D01*
X131466500Y-85681943D01*
X131466500Y-85709856D01*
X131466995Y-85713774D01*
X131466997Y-85713806D01*
X131467008Y-85713888D01*
X131467937Y-85725697D01*
X131469326Y-85769892D01*
X131474977Y-85789341D01*
X131478986Y-85808696D01*
X131481525Y-85828794D01*
X131481525Y-85828796D01*
X131481526Y-85828797D01*
X131493520Y-85859092D01*
X131497801Y-85869903D01*
X131501644Y-85881130D01*
X131513980Y-85923590D01*
X131524294Y-85941030D01*
X131532987Y-85958774D01*
X131540448Y-85977617D01*
X131540449Y-85977619D01*
X131566431Y-86013380D01*
X131572948Y-86023301D01*
X131595458Y-86061363D01*
X131609778Y-86075683D01*
X131622618Y-86090716D01*
X131634526Y-86107105D01*
X131668598Y-86135292D01*
X131677378Y-86143282D01*
X136921873Y-91387778D01*
X136955899Y-91450090D01*
X136954485Y-91509481D01*
X136944022Y-91548530D01*
X136924647Y-91770000D01*
X136944022Y-91991467D01*
X136994541Y-92180000D01*
X137001560Y-92206196D01*
X137043457Y-92296044D01*
X137095512Y-92407678D01*
X137223025Y-92589784D01*
X137380215Y-92746974D01*
X137380218Y-92746976D01*
X137380219Y-92746977D01*
X137562323Y-92874488D01*
X137672965Y-92926081D01*
X137726250Y-92972997D01*
X137745711Y-93041274D01*
X137725170Y-93109234D01*
X137672966Y-93154469D01*
X137562575Y-93205946D01*
X137499394Y-93250185D01*
X138178209Y-93929000D01*
X138168431Y-93929000D01*
X138074579Y-93944661D01*
X137962749Y-94005180D01*
X137876629Y-94098731D01*
X137825552Y-94215177D01*
X137819461Y-94288669D01*
X137140185Y-93609394D01*
X137095948Y-93672572D01*
X137002031Y-93873975D01*
X136944517Y-94088623D01*
X136925149Y-94310000D01*
X136944517Y-94531376D01*
X137002031Y-94746024D01*
X137095947Y-94947426D01*
X137140184Y-95010603D01*
X137140185Y-95010603D01*
X137815607Y-94335181D01*
X137815051Y-94341898D01*
X137846266Y-94465162D01*
X137915813Y-94571612D01*
X138016157Y-94649713D01*
X138136422Y-94691000D01*
X138178210Y-94691000D01*
X137499395Y-95369813D01*
X137499395Y-95369814D01*
X137562573Y-95414052D01*
X137763975Y-95507968D01*
X137978623Y-95565482D01*
X138200000Y-95584850D01*
X138421376Y-95565482D01*
X138636024Y-95507968D01*
X138837427Y-95414052D01*
X138900603Y-95369814D01*
X138900603Y-95369812D01*
X138221791Y-94691000D01*
X138231569Y-94691000D01*
X138325421Y-94675339D01*
X138437251Y-94614820D01*
X138523371Y-94521269D01*
X138574448Y-94404823D01*
X138580538Y-94331329D01*
X139259812Y-95010603D01*
X139259814Y-95010603D01*
X139304052Y-94947427D01*
X139397968Y-94746024D01*
X139455482Y-94531376D01*
X139474850Y-94310000D01*
X139455482Y-94088623D01*
X139397968Y-93873975D01*
X139304051Y-93672571D01*
X139259815Y-93609395D01*
X139259813Y-93609395D01*
X138584392Y-94284816D01*
X138584949Y-94278102D01*
X138553734Y-94154838D01*
X138484187Y-94048388D01*
X138383843Y-93970287D01*
X138263578Y-93929000D01*
X138221790Y-93929000D01*
X138900603Y-93250185D01*
X138900603Y-93250184D01*
X138837426Y-93205947D01*
X138727034Y-93154470D01*
X138673749Y-93107552D01*
X138654288Y-93039275D01*
X138674830Y-92971315D01*
X138727032Y-92926082D01*
X138837677Y-92874488D01*
X139019781Y-92746977D01*
X139176977Y-92589781D01*
X139304488Y-92407677D01*
X139398440Y-92206196D01*
X139455978Y-91991463D01*
X139475353Y-91770000D01*
X139455978Y-91548537D01*
X139455565Y-91546997D01*
X139412902Y-91387778D01*
X139398440Y-91333804D01*
X139304488Y-91132324D01*
X139293155Y-91116139D01*
X139191711Y-90971261D01*
X139176977Y-90950219D01*
X139176976Y-90950218D01*
X139176974Y-90950215D01*
X139019784Y-90793025D01*
X138837678Y-90665512D01*
X138787247Y-90641996D01*
X138727624Y-90614193D01*
X138674341Y-90567278D01*
X138654880Y-90499001D01*
X138675422Y-90431041D01*
X138727624Y-90385806D01*
X138837677Y-90334488D01*
X139019781Y-90206977D01*
X139176977Y-90049781D01*
X139304488Y-89867677D01*
X139398440Y-89666196D01*
X139455978Y-89451463D01*
X139475353Y-89230000D01*
X139455978Y-89008537D01*
X139450281Y-88987277D01*
X139426686Y-88899218D01*
X139398440Y-88793804D01*
X139304488Y-88592324D01*
X139176977Y-88410219D01*
X139176976Y-88410218D01*
X139176974Y-88410215D01*
X139019784Y-88253025D01*
X138837678Y-88125512D01*
X138780391Y-88098799D01*
X138727624Y-88074193D01*
X138674341Y-88027278D01*
X138654880Y-87959001D01*
X138675422Y-87891041D01*
X138727624Y-87845806D01*
X138837677Y-87794488D01*
X139019781Y-87666977D01*
X139176977Y-87509781D01*
X139304488Y-87327677D01*
X139398440Y-87126196D01*
X139455978Y-86911463D01*
X139475353Y-86690000D01*
X139455978Y-86468537D01*
X139447693Y-86437619D01*
X139421839Y-86341130D01*
X139398440Y-86253804D01*
X139304488Y-86052324D01*
X139176977Y-85870219D01*
X139176976Y-85870218D01*
X139176974Y-85870215D01*
X139019784Y-85713025D01*
X138837678Y-85585512D01*
X138767117Y-85552609D01*
X138636196Y-85491560D01*
X138622709Y-85487946D01*
X138421467Y-85434022D01*
X138200000Y-85414647D01*
X137978532Y-85434022D01*
X137763807Y-85491559D01*
X137763806Y-85491559D01*
X137763804Y-85491560D01*
X137760000Y-85493334D01*
X137562322Y-85585512D01*
X137380215Y-85713025D01*
X137223025Y-85870215D01*
X137095512Y-86052322D01*
X137038368Y-86174869D01*
X137003642Y-86249341D01*
X137001559Y-86253807D01*
X136944022Y-86468532D01*
X136924647Y-86690000D01*
X136929829Y-86749233D01*
X136915839Y-86818838D01*
X136866439Y-86869829D01*
X136797313Y-86886019D01*
X136730408Y-86862266D01*
X136715218Y-86849313D01*
X135770404Y-85904499D01*
X135736379Y-85842187D01*
X135733500Y-85815404D01*
X135733500Y-78094594D01*
X135753502Y-78026473D01*
X135770405Y-78005499D01*
X136330499Y-77445405D01*
X136392811Y-77411379D01*
X136419594Y-77408500D01*
X138425269Y-77408500D01*
X138428638Y-77408500D01*
X138489201Y-77401989D01*
X138626204Y-77350889D01*
X138743261Y-77263261D01*
X138830889Y-77146204D01*
X138881989Y-77009201D01*
X138888500Y-76948638D01*
X138888500Y-74451362D01*
X138881989Y-74390799D01*
X138830889Y-74253796D01*
X138830888Y-74253794D01*
X138743261Y-74136738D01*
X138626205Y-74049111D01*
X138557702Y-74023561D01*
X138489201Y-73998011D01*
X138428638Y-73991500D01*
X135931362Y-73991500D01*
X135928013Y-73991859D01*
X135928013Y-73991860D01*
X135870799Y-73998011D01*
X135733794Y-74049111D01*
X135616738Y-74136738D01*
X135529111Y-74253794D01*
X135502474Y-74325211D01*
X135478011Y-74390799D01*
X135471500Y-74451362D01*
X135471500Y-74454729D01*
X135471500Y-74454730D01*
X135471500Y-76460403D01*
X135451498Y-76528524D01*
X135434595Y-76549499D01*
X134711333Y-77272760D01*
X134695016Y-77285832D01*
X134646370Y-77337635D01*
X134643621Y-77340472D01*
X134626667Y-77357427D01*
X134626660Y-77357434D01*
X134623865Y-77360230D01*
X134621442Y-77363352D01*
X134621426Y-77363371D01*
X134621365Y-77363451D01*
X134613689Y-77372436D01*
X134583414Y-77404677D01*
X134573652Y-77422434D01*
X134562801Y-77438952D01*
X134550385Y-77454959D01*
X134532824Y-77495539D01*
X134527604Y-77506195D01*
X134506304Y-77544940D01*
X134501267Y-77564559D01*
X134494864Y-77583261D01*
X134486818Y-77601855D01*
X134479901Y-77645524D01*
X134477495Y-77657144D01*
X134466500Y-77699969D01*
X134466500Y-77720223D01*
X134464949Y-77739933D01*
X134461779Y-77759942D01*
X134465941Y-77803961D01*
X134466500Y-77815819D01*
X134466500Y-86046147D01*
X134464204Y-86066935D01*
X134466438Y-86137984D01*
X134466500Y-86141943D01*
X134466500Y-86169856D01*
X134466995Y-86173774D01*
X134466997Y-86173806D01*
X134467008Y-86173888D01*
X134467937Y-86185697D01*
X134469326Y-86229892D01*
X134474977Y-86249341D01*
X134478986Y-86268696D01*
X134481525Y-86288794D01*
X134497801Y-86329903D01*
X134501644Y-86341130D01*
X134513980Y-86383590D01*
X134524294Y-86401030D01*
X134532987Y-86418774D01*
X134540448Y-86437617D01*
X134540449Y-86437619D01*
X134566431Y-86473380D01*
X134572948Y-86483301D01*
X134595458Y-86521363D01*
X134609778Y-86535683D01*
X134622618Y-86550716D01*
X134634526Y-86567105D01*
X134668598Y-86595292D01*
X134677378Y-86603282D01*
X136921873Y-88847778D01*
X136955899Y-88910090D01*
X136954485Y-88969481D01*
X136944022Y-89008530D01*
X136924647Y-89230001D01*
X136929829Y-89289234D01*
X136915839Y-89358839D01*
X136866439Y-89409830D01*
X136797313Y-89426020D01*
X136730408Y-89402267D01*
X136715213Y-89389309D01*
X134897773Y-87571869D01*
X132770402Y-85444497D01*
X132736378Y-85382188D01*
X132733499Y-85355414D01*
X132733499Y-77370384D01*
X132753501Y-77302264D01*
X132804831Y-77256863D01*
X132823745Y-77247754D01*
X132956646Y-77183754D01*
X133168219Y-77039505D01*
X133355931Y-76865334D01*
X133515587Y-76665131D01*
X133643622Y-76443369D01*
X133737174Y-76205001D01*
X133794155Y-75955353D01*
X133813291Y-75700000D01*
X133794155Y-75444647D01*
X133737174Y-75194999D01*
X133643622Y-74956631D01*
X133515587Y-74734869D01*
X133431690Y-74629665D01*
X133355934Y-74534669D01*
X133262541Y-74448013D01*
X133168219Y-74360495D01*
X132956646Y-74216246D01*
X132956645Y-74216245D01*
X132956643Y-74216244D01*
X132725935Y-74105141D01*
X132544286Y-74049111D01*
X132481243Y-74029665D01*
X132228034Y-73991500D01*
X131971966Y-73991500D01*
X131718757Y-74029665D01*
X131705551Y-74033738D01*
X131474064Y-74105141D01*
X131243354Y-74216246D01*
X131031784Y-74360491D01*
X130844065Y-74534669D01*
X130684413Y-74734868D01*
X130556378Y-74956630D01*
X130462826Y-75194997D01*
X130405845Y-75444645D01*
X130386709Y-75699999D01*
X128732788Y-75699999D01*
X128713658Y-75444720D01*
X128656694Y-75195145D01*
X128563169Y-74956847D01*
X128435172Y-74735150D01*
X128394748Y-74684461D01*
X128394747Y-74684460D01*
X127738843Y-75340364D01*
X127649423Y-75198052D01*
X127521948Y-75070577D01*
X127379634Y-74981155D01*
X128035578Y-74325211D01*
X127876392Y-74216679D01*
X127645752Y-74105609D01*
X127401134Y-74030155D01*
X127147994Y-73992000D01*
X126892006Y-73992000D01*
X126638865Y-74030155D01*
X126394247Y-74105609D01*
X126163606Y-74216681D01*
X126004421Y-74325210D01*
X126004421Y-74325212D01*
X126660364Y-74981156D01*
X126518052Y-75070577D01*
X126390577Y-75198052D01*
X126301156Y-75340364D01*
X125645252Y-74684461D01*
X125645250Y-74684461D01*
X125604827Y-74735151D01*
X125476830Y-74956848D01*
X125383305Y-75195145D01*
X125326341Y-75444720D01*
X125307211Y-75700000D01*
X120308500Y-75700000D01*
X120308500Y-74451362D01*
X120301989Y-74390799D01*
X120250889Y-74253796D01*
X120250888Y-74253794D01*
X120163261Y-74136738D01*
X120046205Y-74049111D01*
X119977702Y-74023561D01*
X119909201Y-73998011D01*
X119848638Y-73991500D01*
X117351362Y-73991500D01*
X117348013Y-73991859D01*
X117348013Y-73991860D01*
X117290799Y-73998011D01*
X117153794Y-74049111D01*
X117036738Y-74136738D01*
X116949111Y-74253794D01*
X116922474Y-74325211D01*
X116898011Y-74390799D01*
X116891500Y-74451362D01*
X116891500Y-74454730D01*
X116891500Y-76321405D01*
X116871498Y-76389526D01*
X116817842Y-76436019D01*
X116747568Y-76446123D01*
X116682988Y-76416629D01*
X116676405Y-76410500D01*
X115577244Y-75311339D01*
X115564171Y-75295021D01*
X115512348Y-75246356D01*
X115509506Y-75243601D01*
X115492574Y-75226669D01*
X115489770Y-75223865D01*
X115486575Y-75221386D01*
X115477554Y-75213682D01*
X115445320Y-75183413D01*
X115427567Y-75173653D01*
X115411041Y-75162797D01*
X115395041Y-75150386D01*
X115358720Y-75134669D01*
X115354465Y-75132827D01*
X115343804Y-75127604D01*
X115305063Y-75106305D01*
X115291313Y-75102775D01*
X115285437Y-75101266D01*
X115266731Y-75094862D01*
X115258682Y-75091379D01*
X115248145Y-75086819D01*
X115204474Y-75079901D01*
X115192852Y-75077494D01*
X115164304Y-75070164D01*
X115103297Y-75033850D01*
X115078348Y-74994154D01*
X115077073Y-74990906D01*
X115063622Y-74956631D01*
X114935587Y-74734869D01*
X114851690Y-74629665D01*
X114775934Y-74534669D01*
X114682541Y-74448013D01*
X114588219Y-74360495D01*
X114376646Y-74216246D01*
X114376645Y-74216245D01*
X114376643Y-74216244D01*
X114145935Y-74105141D01*
X113964286Y-74049111D01*
X113901243Y-74029665D01*
X113648034Y-73991500D01*
X113391966Y-73991500D01*
X113138757Y-74029665D01*
X113125551Y-74033738D01*
X112894064Y-74105141D01*
X112663354Y-74216246D01*
X112451784Y-74360491D01*
X112264065Y-74534669D01*
X112104413Y-74734868D01*
X111976378Y-74956630D01*
X111882826Y-75194997D01*
X111825845Y-75444645D01*
X111806709Y-75699999D01*
X110152788Y-75699999D01*
X110133658Y-75444720D01*
X110076694Y-75195145D01*
X109983169Y-74956847D01*
X109855172Y-74735150D01*
X109814748Y-74684461D01*
X109814747Y-74684460D01*
X109158843Y-75340364D01*
X109069423Y-75198052D01*
X108941948Y-75070577D01*
X108799634Y-74981155D01*
X109455578Y-74325211D01*
X109296392Y-74216679D01*
X109065752Y-74105609D01*
X108821134Y-74030155D01*
X108567994Y-73992000D01*
X108312006Y-73992000D01*
X108058865Y-74030155D01*
X107814247Y-74105609D01*
X107583606Y-74216681D01*
X107424421Y-74325210D01*
X107424421Y-74325212D01*
X108080365Y-74981156D01*
X107938052Y-75070577D01*
X107810577Y-75198052D01*
X107721156Y-75340364D01*
X107065252Y-74684461D01*
X107065250Y-74684461D01*
X107024827Y-74735151D01*
X106896830Y-74956848D01*
X106803305Y-75195145D01*
X106746341Y-75444720D01*
X106727211Y-75699999D01*
X101608000Y-75699999D01*
X101608000Y-75054777D01*
X101607640Y-75048063D01*
X101601494Y-74990906D01*
X101550445Y-74854037D01*
X101462904Y-74737095D01*
X101345962Y-74649554D01*
X101209093Y-74598505D01*
X101151936Y-74592359D01*
X101145223Y-74592000D01*
X100154000Y-74592000D01*
X100154000Y-75541316D01*
X100079143Y-75515123D01*
X99944926Y-75500000D01*
X99855074Y-75500000D01*
X99720857Y-75515123D01*
X99646000Y-75541316D01*
X99646000Y-74592000D01*
X98654777Y-74592000D01*
X98648063Y-74592359D01*
X98590906Y-74598505D01*
X98454037Y-74649554D01*
X98337095Y-74737095D01*
X98249554Y-74854037D01*
X98198505Y-74990906D01*
X98192359Y-75048063D01*
X98192000Y-75054777D01*
X98192000Y-76046000D01*
X99141316Y-76046000D01*
X99115123Y-76120857D01*
X99094938Y-76300000D01*
X99115123Y-76479143D01*
X99141316Y-76554000D01*
X98192000Y-76554000D01*
X98192000Y-77545222D01*
X95989832Y-77545222D01*
X96075931Y-77465334D01*
X96235587Y-77265131D01*
X96363622Y-77043369D01*
X96457174Y-76805001D01*
X96514155Y-76555353D01*
X96533291Y-76300000D01*
X96514155Y-76044647D01*
X96457174Y-75794999D01*
X96363622Y-75556631D01*
X96235587Y-75334869D01*
X96195673Y-75284818D01*
X96075934Y-75134669D01*
X96073950Y-75132828D01*
X95888219Y-74960495D01*
X95676646Y-74816246D01*
X95676645Y-74816245D01*
X95676643Y-74816244D01*
X95445935Y-74705141D01*
X95235471Y-74640223D01*
X95201243Y-74629665D01*
X94948034Y-74591500D01*
X94691966Y-74591500D01*
X94438757Y-74629665D01*
X94438753Y-74629666D01*
X94438754Y-74629666D01*
X94194064Y-74705141D01*
X93963354Y-74816246D01*
X93751784Y-74960491D01*
X93564065Y-75134669D01*
X93404413Y-75334868D01*
X93276378Y-75556630D01*
X93182826Y-75794997D01*
X93125845Y-76044645D01*
X93106709Y-76300000D01*
X90220229Y-76300000D01*
X90197668Y-76248566D01*
X90107956Y-76111253D01*
X90107955Y-76111253D01*
X89410805Y-76808402D01*
X89386845Y-76726799D01*
X89307869Y-76603910D01*
X89197470Y-76508248D01*
X89064592Y-76447565D01*
X89054652Y-76446135D01*
X89749678Y-75751110D01*
X89748683Y-75735093D01*
X89732153Y-75712124D01*
X89728419Y-75641226D01*
X89763609Y-75579564D01*
X89773625Y-75570885D01*
X89773627Y-75570884D01*
X89904269Y-75469201D01*
X90066829Y-75292613D01*
X90198108Y-75091677D01*
X90294522Y-74871874D01*
X90353443Y-74639199D01*
X90373264Y-74400000D01*
X90353443Y-74160801D01*
X90294522Y-73928126D01*
X90198108Y-73708323D01*
X90066829Y-73507387D01*
X89904269Y-73330799D01*
X89889859Y-73319583D01*
X89714859Y-73183374D01*
X89503768Y-73069139D01*
X89350093Y-73016382D01*
X89276755Y-72991205D01*
X89040010Y-72951700D01*
X88899586Y-72951700D01*
X88831465Y-72931698D01*
X88784972Y-72878042D01*
X88774868Y-72807768D01*
X88794103Y-72756784D01*
X88796825Y-72752616D01*
X88796829Y-72752613D01*
X88928108Y-72551677D01*
X89024522Y-72331874D01*
X89083443Y-72099199D01*
X89103264Y-71860000D01*
X89083443Y-71620801D01*
X89024522Y-71388126D01*
X88928108Y-71168323D01*
X88796829Y-70967387D01*
X88634269Y-70790799D01*
X88444859Y-70643374D01*
X88233768Y-70529139D01*
X88008176Y-70451693D01*
X88006755Y-70451205D01*
X87770010Y-70411700D01*
X87529990Y-70411700D01*
X87293245Y-70451205D01*
X87293242Y-70451205D01*
X87293242Y-70451206D01*
X87066231Y-70529139D01*
X86855140Y-70643374D01*
X86665730Y-70790799D01*
X86503170Y-70967388D01*
X86485482Y-70994462D01*
X86431478Y-71040549D01*
X86361130Y-71050124D01*
X86296773Y-71020146D01*
X86274518Y-70994462D01*
X86256829Y-70967387D01*
X86094269Y-70790799D01*
X85904859Y-70643374D01*
X85693768Y-70529139D01*
X85468176Y-70451693D01*
X85466755Y-70451205D01*
X85230010Y-70411700D01*
X84989990Y-70411700D01*
X84753245Y-70451205D01*
X84753242Y-70451205D01*
X84753242Y-70451206D01*
X84526231Y-70529139D01*
X84315140Y-70643374D01*
X84125730Y-70790799D01*
X83963170Y-70967388D01*
X83945482Y-70994462D01*
X83891478Y-71040549D01*
X83821130Y-71050124D01*
X83756773Y-71020146D01*
X83734518Y-70994462D01*
X83716829Y-70967387D01*
X83554269Y-70790799D01*
X83554269Y-70790798D01*
X83364859Y-70643374D01*
X83153768Y-70529139D01*
X82928176Y-70451693D01*
X82926755Y-70451205D01*
X82690010Y-70411700D01*
X82449990Y-70411700D01*
X82213245Y-70451205D01*
X82213242Y-70451205D01*
X82213242Y-70451206D01*
X81986231Y-70529139D01*
X81775140Y-70643374D01*
X81585730Y-70790799D01*
X81423170Y-70967388D01*
X81405482Y-70994462D01*
X81351478Y-71040549D01*
X81281130Y-71050124D01*
X81216773Y-71020146D01*
X81194518Y-70994462D01*
X81176829Y-70967387D01*
X81014269Y-70790799D01*
X81014269Y-70790798D01*
X80824859Y-70643374D01*
X80613768Y-70529139D01*
X80388176Y-70451693D01*
X80386755Y-70451205D01*
X80150010Y-70411700D01*
X79909990Y-70411700D01*
X79673245Y-70451205D01*
X79673242Y-70451205D01*
X79673242Y-70451206D01*
X79446231Y-70529139D01*
X79235140Y-70643374D01*
X79045730Y-70790799D01*
X78883170Y-70967388D01*
X78865183Y-70994919D01*
X78811178Y-71041007D01*
X78740830Y-71050581D01*
X78705462Y-71034106D01*
X78677957Y-71031253D01*
X77980805Y-71728403D01*
X77956845Y-71646799D01*
X77877869Y-71523910D01*
X77767470Y-71428248D01*
X77634592Y-71367565D01*
X77624652Y-71366135D01*
X78319678Y-70671110D01*
X78284585Y-70643796D01*
X78073567Y-70529598D01*
X77846634Y-70451693D01*
X77609965Y-70412200D01*
X77370035Y-70412200D01*
X77133365Y-70451693D01*
X76906432Y-70529598D01*
X76695414Y-70643795D01*
X76660321Y-70671109D01*
X76660321Y-70671111D01*
X77355346Y-71366136D01*
X77345408Y-71367565D01*
X77212530Y-71428248D01*
X77102131Y-71523910D01*
X77023155Y-71646799D01*
X76999193Y-71728403D01*
X76302043Y-71031253D01*
X76280866Y-71033449D01*
X76271473Y-71041465D01*
X76201125Y-71051037D01*
X76164584Y-71034014D01*
X76137955Y-71031253D01*
X75440805Y-71728402D01*
X75416845Y-71646799D01*
X75337869Y-71523910D01*
X75227470Y-71428248D01*
X75094592Y-71367565D01*
X75084652Y-71366135D01*
X75779677Y-70671110D01*
X75744585Y-70643796D01*
X75533567Y-70529598D01*
X75306634Y-70451693D01*
X75069965Y-70412200D01*
X74830035Y-70412200D01*
X74593365Y-70451693D01*
X74366432Y-70529598D01*
X74155414Y-70643795D01*
X74120321Y-70671109D01*
X74120321Y-70671111D01*
X74815346Y-71366136D01*
X74805408Y-71367565D01*
X74672530Y-71428248D01*
X74562131Y-71523910D01*
X74483155Y-71646799D01*
X74459193Y-71728403D01*
X73762043Y-71031253D01*
X73762042Y-71031253D01*
X73672333Y-71168562D01*
X73575951Y-71388293D01*
X73517053Y-71620878D01*
X73497238Y-71859999D01*
X73517053Y-72099121D01*
X73575953Y-72331711D01*
X73672333Y-72551436D01*
X73806493Y-72756785D01*
X73827006Y-72824753D01*
X73807517Y-72893023D01*
X73754212Y-72939917D01*
X73701010Y-72951700D01*
X73559990Y-72951700D01*
X73323245Y-72991205D01*
X73323242Y-72991205D01*
X73323242Y-72991206D01*
X73096231Y-73069139D01*
X72885140Y-73183374D01*
X72695730Y-73330799D01*
X72533171Y-73507386D01*
X72526312Y-73517885D01*
X72401892Y-73708323D01*
X72401889Y-73708328D01*
X72401179Y-73709416D01*
X72347175Y-73755504D01*
X72295696Y-73766500D01*
X71883853Y-73766500D01*
X71863064Y-73764204D01*
X71792014Y-73766438D01*
X71788055Y-73766500D01*
X71760144Y-73766500D01*
X71756218Y-73766995D01*
X71756200Y-73766997D01*
X71756108Y-73767009D01*
X71744303Y-73767937D01*
X71700111Y-73769326D01*
X71680658Y-73774978D01*
X71661304Y-73778986D01*
X71641205Y-73781525D01*
X71627090Y-73787113D01*
X71600091Y-73797802D01*
X71588874Y-73801643D01*
X71546407Y-73813982D01*
X71528964Y-73824297D01*
X71511217Y-73832990D01*
X71492384Y-73840446D01*
X71456611Y-73866437D01*
X71446693Y-73872951D01*
X71408638Y-73895457D01*
X71394309Y-73909785D01*
X71379286Y-73922616D01*
X71362893Y-73934527D01*
X71334706Y-73968598D01*
X71326719Y-73977375D01*
X71111331Y-74192762D01*
X71095017Y-74205832D01*
X71046369Y-74257636D01*
X71043621Y-74260472D01*
X71026667Y-74277427D01*
X71026660Y-74277434D01*
X71023865Y-74280230D01*
X71021442Y-74283352D01*
X71021426Y-74283371D01*
X71021365Y-74283451D01*
X71013689Y-74292436D01*
X70983414Y-74324677D01*
X70973652Y-74342434D01*
X70962801Y-74358952D01*
X70950385Y-74374959D01*
X70932824Y-74415539D01*
X70927604Y-74426195D01*
X70906304Y-74464940D01*
X70901267Y-74484559D01*
X70894864Y-74503261D01*
X70886818Y-74521855D01*
X70879901Y-74565524D01*
X70877495Y-74577144D01*
X70866500Y-74619969D01*
X70866500Y-74640223D01*
X70864949Y-74659933D01*
X70861779Y-74679942D01*
X70865941Y-74723961D01*
X70866500Y-74735819D01*
X70866500Y-89185404D01*
X70846498Y-89253525D01*
X70829595Y-89274499D01*
X67011336Y-93092757D01*
X66995016Y-93105833D01*
X66946370Y-93157635D01*
X66943621Y-93160472D01*
X66926667Y-93177427D01*
X66926660Y-93177434D01*
X66923865Y-93180230D01*
X66921442Y-93183352D01*
X66921426Y-93183371D01*
X66921365Y-93183451D01*
X66913689Y-93192436D01*
X66883414Y-93224677D01*
X66873652Y-93242434D01*
X66862801Y-93258952D01*
X66850385Y-93274959D01*
X66832824Y-93315539D01*
X66827604Y-93326195D01*
X66806304Y-93364940D01*
X66801267Y-93384559D01*
X66794864Y-93403261D01*
X66786818Y-93421855D01*
X66779901Y-93465524D01*
X66777495Y-93477144D01*
X66766500Y-93519969D01*
X66766500Y-93540223D01*
X66764949Y-93559933D01*
X66761779Y-93579942D01*
X66765941Y-93623961D01*
X66766500Y-93635819D01*
X66766499Y-101303723D01*
X66746497Y-101371844D01*
X66692841Y-101418337D01*
X66622567Y-101428440D01*
X66574168Y-101410850D01*
X66549197Y-101395388D01*
X66352628Y-101319237D01*
X66352627Y-101319236D01*
X66352625Y-101319236D01*
X66145405Y-101280500D01*
X65934595Y-101280500D01*
X65727375Y-101319236D01*
X65727373Y-101319236D01*
X65727371Y-101319237D01*
X65530799Y-101395390D01*
X65351569Y-101506364D01*
X65195775Y-101648389D01*
X65068736Y-101816615D01*
X64974767Y-102005330D01*
X64917077Y-102208091D01*
X64897626Y-102418000D01*
X58900000Y-102418000D01*
X58900000Y-90656638D01*
X63823500Y-90656638D01*
X63830011Y-90717201D01*
X63855561Y-90785702D01*
X63881111Y-90854205D01*
X63968738Y-90971261D01*
X64085794Y-91058888D01*
X64085795Y-91058888D01*
X64085796Y-91058889D01*
X64222799Y-91109989D01*
X64283362Y-91116500D01*
X64286731Y-91116500D01*
X66777269Y-91116500D01*
X66780638Y-91116500D01*
X66841201Y-91109989D01*
X66978204Y-91058889D01*
X67095261Y-90971261D01*
X67182889Y-90854204D01*
X67233989Y-90717201D01*
X67240500Y-90656638D01*
X67240500Y-88159362D01*
X67233989Y-88098799D01*
X67182889Y-87961796D01*
X67182888Y-87961794D01*
X67095261Y-87844738D01*
X66978205Y-87757111D01*
X66905815Y-87730111D01*
X66841201Y-87706011D01*
X66780638Y-87699500D01*
X64283362Y-87699500D01*
X64280013Y-87699859D01*
X64280013Y-87699860D01*
X64222799Y-87706011D01*
X64085794Y-87757111D01*
X63968738Y-87844738D01*
X63881111Y-87961794D01*
X63865625Y-88003314D01*
X63830011Y-88098799D01*
X63823500Y-88159362D01*
X63823500Y-90656638D01*
X58900000Y-90656638D01*
X58900000Y-84328000D01*
X63818709Y-84328000D01*
X63837845Y-84583354D01*
X63894826Y-84833002D01*
X63988378Y-85071369D01*
X64116413Y-85293131D01*
X64276065Y-85493330D01*
X64463784Y-85667508D01*
X64613950Y-85769889D01*
X64675355Y-85811754D01*
X64791310Y-85867595D01*
X64906064Y-85922858D01*
X64960635Y-85939690D01*
X65150757Y-85998335D01*
X65403966Y-86036500D01*
X65403968Y-86036500D01*
X65660032Y-86036500D01*
X65660034Y-86036500D01*
X65913243Y-85998335D01*
X66157935Y-85922858D01*
X66388646Y-85811754D01*
X66600219Y-85667505D01*
X66787931Y-85493334D01*
X66947587Y-85293131D01*
X67075622Y-85071369D01*
X67169174Y-84833001D01*
X67226155Y-84583353D01*
X67245291Y-84328000D01*
X67226155Y-84072647D01*
X67169174Y-83822999D01*
X67075622Y-83584631D01*
X66947587Y-83362869D01*
X66866276Y-83260908D01*
X66787934Y-83162669D01*
X66775579Y-83151205D01*
X66600219Y-82988495D01*
X66388646Y-82844246D01*
X66388645Y-82844245D01*
X66388643Y-82844244D01*
X66157935Y-82733141D01*
X65957489Y-82671313D01*
X65913243Y-82657665D01*
X65660034Y-82619500D01*
X65403966Y-82619500D01*
X65150757Y-82657665D01*
X65150753Y-82657666D01*
X65150754Y-82657666D01*
X64906064Y-82733141D01*
X64675354Y-82844246D01*
X64463784Y-82988491D01*
X64276065Y-83162669D01*
X64116413Y-83362868D01*
X63988378Y-83584630D01*
X63894826Y-83822997D01*
X63837845Y-84072645D01*
X63818709Y-84328000D01*
X58900000Y-84328000D01*
X58900000Y-72203766D01*
X61645787Y-72203766D01*
X61675413Y-72473015D01*
X61706386Y-72591490D01*
X61743928Y-72735088D01*
X61849870Y-72984390D01*
X61990982Y-73215610D01*
X62164255Y-73423820D01*
X62164256Y-73423821D01*
X62164258Y-73423823D01*
X62365993Y-73604578D01*
X62365995Y-73604579D01*
X62365998Y-73604582D01*
X62591910Y-73754044D01*
X62685250Y-73797800D01*
X62837171Y-73869018D01*
X62837173Y-73869018D01*
X62837176Y-73869020D01*
X63096569Y-73947060D01*
X63096572Y-73947060D01*
X63096574Y-73947061D01*
X63364558Y-73986500D01*
X63364561Y-73986500D01*
X63565330Y-73986500D01*
X63567631Y-73986500D01*
X63770156Y-73971677D01*
X64034553Y-73912780D01*
X64287558Y-73816014D01*
X64523777Y-73683441D01*
X64738177Y-73517888D01*
X64926186Y-73322881D01*
X65083799Y-73102579D01*
X65207656Y-72861675D01*
X65295118Y-72605305D01*
X65344319Y-72338933D01*
X65354212Y-72068235D01*
X65324586Y-71798982D01*
X65256072Y-71536912D01*
X65150130Y-71287610D01*
X65009018Y-71056390D01*
X64835745Y-70848180D01*
X64638123Y-70671110D01*
X64634006Y-70667421D01*
X64634003Y-70667419D01*
X64634002Y-70667418D01*
X64408090Y-70517956D01*
X64408086Y-70517954D01*
X64162828Y-70402981D01*
X63903425Y-70324938D01*
X63635442Y-70285500D01*
X63635439Y-70285500D01*
X63432369Y-70285500D01*
X63430099Y-70285666D01*
X63430075Y-70285667D01*
X63229839Y-70300323D01*
X62965449Y-70359219D01*
X62712441Y-70455985D01*
X62476225Y-70588557D01*
X62261820Y-70754114D01*
X62073815Y-70949117D01*
X61916200Y-71169422D01*
X61792342Y-71410328D01*
X61704882Y-71666693D01*
X61655681Y-71933065D01*
X61645787Y-72203766D01*
X58900000Y-72203766D01*
X58900000Y-67826000D01*
X58920002Y-67757879D01*
X58973658Y-67711386D01*
X59026000Y-67700000D01*
X143174000Y-67700000D01*
X143242121Y-67720002D01*
G37*
G04 #@! TD.AperFunction*
M02*
