G04 #@! TF.GenerationSoftware,KiCad,Pcbnew,7.0.2-6a45011f42~172~ubuntu22.04.1*
G04 #@! TF.CreationDate,2023-05-24T14:11:10+02:00*
G04 #@! TF.ProjectId,dmx_interceptor,646d785f-696e-4746-9572-636570746f72,rev?*
G04 #@! TF.SameCoordinates,Original*
G04 #@! TF.FileFunction,Legend,Bot*
G04 #@! TF.FilePolarity,Positive*
%FSLAX46Y46*%
G04 Gerber Fmt 4.6, Leading zero omitted, Abs format (unit mm)*
G04 Created by KiCad (PCBNEW 7.0.2-6a45011f42~172~ubuntu22.04.1) date 2023-05-24 14:11:10*
%MOMM*%
%LPD*%
G01*
G04 APERTURE LIST*
%ADD10C,3.200000*%
%ADD11R,2.400000X2.400000*%
%ADD12C,2.400000*%
%ADD13C,1.524000*%
%ADD14C,1.258000*%
%ADD15C,1.879600*%
G04 APERTURE END LIST*
%LPC*%
D10*
X119888000Y-90678000D03*
X119888000Y-108204000D03*
X63500000Y-72136000D03*
X63500000Y-114554000D03*
D11*
X65532000Y-89408000D03*
D12*
X65532000Y-84328000D03*
D11*
X99900000Y-76300000D03*
D12*
X94820000Y-76300000D03*
D11*
X118600000Y-75700000D03*
D12*
X113520000Y-75700000D03*
X108440000Y-75700000D03*
D13*
X138200000Y-86690000D03*
X138200000Y-89230000D03*
X138200000Y-91770000D03*
X138200000Y-94310000D03*
X97200000Y-86690000D03*
X97200000Y-89230000D03*
X97200000Y-91770000D03*
X97200000Y-94310000D03*
D11*
X137180000Y-75700000D03*
D12*
X132100000Y-75700000D03*
X127020000Y-75700000D03*
D14*
X66040000Y-109418000D03*
X66040000Y-102418000D03*
D13*
X138200000Y-104490000D03*
X138200000Y-107030000D03*
X138200000Y-109570000D03*
X138200000Y-112110000D03*
X97200000Y-104490000D03*
X97200000Y-107030000D03*
X97200000Y-109570000D03*
X97200000Y-112110000D03*
D15*
X87650000Y-71860000D03*
X85110000Y-71860000D03*
X82570000Y-71860000D03*
X80030000Y-71860000D03*
X77490000Y-71860000D03*
X74950000Y-71860000D03*
X85999000Y-85703000D03*
X85999000Y-83163000D03*
X85999000Y-96117000D03*
X85999000Y-93577000D03*
X88920000Y-74400000D03*
X88920000Y-76940000D03*
X88920000Y-79480000D03*
X88920000Y-82020000D03*
X88920000Y-84560000D03*
X88920000Y-87100000D03*
X88920000Y-89640000D03*
X88920000Y-92180000D03*
X88920000Y-94720000D03*
X88920000Y-97260000D03*
X88920000Y-99800000D03*
X88920000Y-102340000D03*
X73680000Y-102340000D03*
X73680000Y-99800000D03*
X73680000Y-97260000D03*
X73680000Y-94720000D03*
X73680000Y-92180000D03*
X73680000Y-89640000D03*
X73680000Y-87100000D03*
X73680000Y-84560000D03*
X73680000Y-82020000D03*
X73680000Y-79480000D03*
X73680000Y-76940000D03*
X73680000Y-74400000D03*
%LPD*%
M02*
