M48
INCH,TZ
T1C0.0157
T2C0.0300
T3C0.0400
T4C0.0630
%
G90
G05
T1
X23976Y-34685
X23976Y-36339
X23976Y-38071
X23976Y-39724
X24882Y-44449
X24882Y-45787
X24961Y-41654
X24961Y-42992
X25512Y-34134
X25827Y-31339
X25945Y-28780
X25945Y-37244
X26024Y-38701
X26535Y-44449
X26535Y-45787
X26614Y-33543
X26614Y-42992
X26929Y-35591
X27402Y-31339
X27559Y-34134
X28386Y-44488
X28386Y-45827
X30039Y-43031
X30039Y-44488
X30039Y-45827
X30118Y-31142
X30276Y-33858
X30276Y-36142
X30276Y-38504
X30945Y-40197
X31811Y-43110
X31811Y-44528
X31811Y-45866
X33465Y-43110
X33465Y-44528
X33465Y-45866
X33500Y-40500
X35197Y-43110
X35197Y-44528
X35197Y-45866
X36500Y-33500
X36850Y-43110
X36850Y-44528
X36850Y-45866
X37244Y-35500
X38268Y-31102
X38307Y-28740
X38307Y-37992
X39961Y-31102
X40000Y-34528
X40000Y-36000
X40000Y-37598
X40276Y-41772
X40276Y-43543
X41654Y-34528
X41811Y-37598
X41929Y-41772
X41929Y-43543
X43504Y-34567
X43661Y-37638
X43701Y-28661
X43701Y-31063
X43780Y-41811
X43780Y-43583
X45315Y-37638
X45433Y-41811
X45433Y-43583
X45669Y-31024
X46102Y-33976
X47087Y-37677
X47205Y-41850
X47205Y-43622
X48583Y-34606
X48858Y-41850
X48858Y-43622
X49567Y-31299
X50315Y-34606
X50591Y-41850
X50591Y-43622
X51063Y-28858
X51969Y-34606
X52126Y-37677
X52244Y-43622
X52598Y-31142
X52953Y-28858
X55591Y-42677
T2
X38268Y-34130
X38268Y-35130
X38268Y-36130
X38268Y-37130
X38268Y-41138
X38268Y-42138
X38268Y-43138
X38268Y-44138
X54409Y-34130
X54409Y-35130
X54409Y-36130
X54409Y-37130
X54409Y-41138
X54409Y-42138
X54409Y-43138
X54409Y-44138
T3
X29008Y-29291
X29008Y-30291
X29008Y-31291
X29008Y-32291
X29008Y-33291
X29008Y-34291
X29008Y-35291
X29008Y-36291
X29008Y-37291
X29008Y-38291
X29008Y-39291
X29008Y-40291
X29508Y-28291
X30508Y-28291
X31508Y-28291
X32508Y-28291
X33508Y-28291
X33858Y-32741
X33858Y-33741
X33858Y-36841
X33858Y-37841
X34508Y-28291
X35008Y-29291
X35008Y-30291
X35008Y-31291
X35008Y-32291
X35008Y-33291
X35008Y-34291
X35008Y-35291
X35008Y-36291
X35008Y-37291
X35008Y-38291
X35008Y-39291
X35008Y-40291
T4
X24843Y-30000
X26843Y-30000
X37331Y-30039
X39331Y-30039
X42693Y-29803
X44693Y-29803
X46693Y-29803
X50008Y-29803
X52008Y-29803
X54008Y-29803
T0
M30
