%TF.GenerationSoftware,KiCad,Pcbnew,7.0.2-6a45011f42~172~ubuntu22.04.1*%
%TF.CreationDate,2023-05-24T14:11:44+02:00*%
%TF.ProjectId,dmx_interceptor,646d785f-696e-4746-9572-636570746f72,rev?*%
%TF.SameCoordinates,Original*%
%TF.FileFunction,Drillmap*%
%TF.FilePolarity,Positive*%
%FSLAX45Y45*%
G04 Gerber Fmt 4.5, Leading zero omitted, Abs format (unit mm)*
G04 Created by KiCad (PCBNEW 7.0.2-6a45011f42~172~ubuntu22.04.1) date 2023-05-24 14:11:44*
%MOMM*%
%LPD*%
G01*
G04 APERTURE LIST*
%ADD10C,0.050000*%
%ADD11C,0.200000*%
%ADD12C,0.320000*%
G04 APERTURE END LIST*
D10*
X5800000Y-6700000D02*
X14400000Y-6700000D01*
X14400000Y-6700000D02*
X14400000Y-12000000D01*
X14400000Y-12000000D02*
X5800000Y-12000000D01*
X5800000Y-12000000D02*
X5800000Y-6700000D01*
D11*
D12*
X6190000Y-7053600D02*
X6510000Y-7373600D01*
X6510000Y-7053600D02*
X6190000Y-7373600D01*
X6190000Y-11295400D02*
X6510000Y-11615400D01*
X6510000Y-11295400D02*
X6190000Y-11615400D01*
X11828800Y-8907800D02*
X12148800Y-9227800D01*
X12148800Y-8907800D02*
X11828800Y-9227800D01*
X11828800Y-10660400D02*
X12148800Y-10980400D01*
X12148800Y-10660400D02*
X11828800Y-10980400D01*
D11*
X6045119Y-12315024D02*
X6045119Y-12115024D01*
X6045119Y-12115024D02*
X6092738Y-12115024D01*
X6092738Y-12115024D02*
X6121309Y-12124548D01*
X6121309Y-12124548D02*
X6140357Y-12143595D01*
X6140357Y-12143595D02*
X6149881Y-12162643D01*
X6149881Y-12162643D02*
X6159405Y-12200738D01*
X6159405Y-12200738D02*
X6159405Y-12229309D01*
X6159405Y-12229309D02*
X6149881Y-12267405D01*
X6149881Y-12267405D02*
X6140357Y-12286452D01*
X6140357Y-12286452D02*
X6121309Y-12305500D01*
X6121309Y-12305500D02*
X6092738Y-12315024D01*
X6092738Y-12315024D02*
X6045119Y-12315024D01*
X6245119Y-12315024D02*
X6245119Y-12181690D01*
X6245119Y-12219786D02*
X6254643Y-12200738D01*
X6254643Y-12200738D02*
X6264167Y-12191214D01*
X6264167Y-12191214D02*
X6283214Y-12181690D01*
X6283214Y-12181690D02*
X6302262Y-12181690D01*
X6368928Y-12315024D02*
X6368928Y-12181690D01*
X6368928Y-12115024D02*
X6359405Y-12124548D01*
X6359405Y-12124548D02*
X6368928Y-12134071D01*
X6368928Y-12134071D02*
X6378452Y-12124548D01*
X6378452Y-12124548D02*
X6368928Y-12115024D01*
X6368928Y-12115024D02*
X6368928Y-12134071D01*
X6492738Y-12315024D02*
X6473690Y-12305500D01*
X6473690Y-12305500D02*
X6464167Y-12286452D01*
X6464167Y-12286452D02*
X6464167Y-12115024D01*
X6597500Y-12315024D02*
X6578452Y-12305500D01*
X6578452Y-12305500D02*
X6568928Y-12286452D01*
X6568928Y-12286452D02*
X6568928Y-12115024D01*
X6826071Y-12315024D02*
X6826071Y-12115024D01*
X6826071Y-12115024D02*
X6892738Y-12257881D01*
X6892738Y-12257881D02*
X6959405Y-12115024D01*
X6959405Y-12115024D02*
X6959405Y-12315024D01*
X7140357Y-12315024D02*
X7140357Y-12210262D01*
X7140357Y-12210262D02*
X7130833Y-12191214D01*
X7130833Y-12191214D02*
X7111786Y-12181690D01*
X7111786Y-12181690D02*
X7073690Y-12181690D01*
X7073690Y-12181690D02*
X7054643Y-12191214D01*
X7140357Y-12305500D02*
X7121309Y-12315024D01*
X7121309Y-12315024D02*
X7073690Y-12315024D01*
X7073690Y-12315024D02*
X7054643Y-12305500D01*
X7054643Y-12305500D02*
X7045119Y-12286452D01*
X7045119Y-12286452D02*
X7045119Y-12267405D01*
X7045119Y-12267405D02*
X7054643Y-12248357D01*
X7054643Y-12248357D02*
X7073690Y-12238833D01*
X7073690Y-12238833D02*
X7121309Y-12238833D01*
X7121309Y-12238833D02*
X7140357Y-12229309D01*
X7235595Y-12181690D02*
X7235595Y-12381690D01*
X7235595Y-12191214D02*
X7254643Y-12181690D01*
X7254643Y-12181690D02*
X7292738Y-12181690D01*
X7292738Y-12181690D02*
X7311786Y-12191214D01*
X7311786Y-12191214D02*
X7321309Y-12200738D01*
X7321309Y-12200738D02*
X7330833Y-12219786D01*
X7330833Y-12219786D02*
X7330833Y-12276928D01*
X7330833Y-12276928D02*
X7321309Y-12295976D01*
X7321309Y-12295976D02*
X7311786Y-12305500D01*
X7311786Y-12305500D02*
X7292738Y-12315024D01*
X7292738Y-12315024D02*
X7254643Y-12315024D01*
X7254643Y-12315024D02*
X7235595Y-12305500D01*
X7416548Y-12295976D02*
X7426071Y-12305500D01*
X7426071Y-12305500D02*
X7416548Y-12315024D01*
X7416548Y-12315024D02*
X7407024Y-12305500D01*
X7407024Y-12305500D02*
X7416548Y-12295976D01*
X7416548Y-12295976D02*
X7416548Y-12315024D01*
X7416548Y-12191214D02*
X7426071Y-12200738D01*
X7426071Y-12200738D02*
X7416548Y-12210262D01*
X7416548Y-12210262D02*
X7407024Y-12200738D01*
X7407024Y-12200738D02*
X7416548Y-12191214D01*
X7416548Y-12191214D02*
X7416548Y-12210262D01*
X5597500Y-12542500D02*
X5797500Y-12742500D01*
X5797500Y-12542500D02*
X5597500Y-12742500D01*
X6026071Y-12535024D02*
X6149881Y-12535024D01*
X6149881Y-12535024D02*
X6083214Y-12611214D01*
X6083214Y-12611214D02*
X6111786Y-12611214D01*
X6111786Y-12611214D02*
X6130833Y-12620738D01*
X6130833Y-12620738D02*
X6140357Y-12630262D01*
X6140357Y-12630262D02*
X6149881Y-12649309D01*
X6149881Y-12649309D02*
X6149881Y-12696928D01*
X6149881Y-12696928D02*
X6140357Y-12715976D01*
X6140357Y-12715976D02*
X6130833Y-12725500D01*
X6130833Y-12725500D02*
X6111786Y-12735024D01*
X6111786Y-12735024D02*
X6054643Y-12735024D01*
X6054643Y-12735024D02*
X6035595Y-12725500D01*
X6035595Y-12725500D02*
X6026071Y-12715976D01*
X6235595Y-12715976D02*
X6245119Y-12725500D01*
X6245119Y-12725500D02*
X6235595Y-12735024D01*
X6235595Y-12735024D02*
X6226071Y-12725500D01*
X6226071Y-12725500D02*
X6235595Y-12715976D01*
X6235595Y-12715976D02*
X6235595Y-12735024D01*
X6321309Y-12554071D02*
X6330833Y-12544548D01*
X6330833Y-12544548D02*
X6349881Y-12535024D01*
X6349881Y-12535024D02*
X6397500Y-12535024D01*
X6397500Y-12535024D02*
X6416548Y-12544548D01*
X6416548Y-12544548D02*
X6426071Y-12554071D01*
X6426071Y-12554071D02*
X6435595Y-12573119D01*
X6435595Y-12573119D02*
X6435595Y-12592167D01*
X6435595Y-12592167D02*
X6426071Y-12620738D01*
X6426071Y-12620738D02*
X6311786Y-12735024D01*
X6311786Y-12735024D02*
X6435595Y-12735024D01*
X6559405Y-12535024D02*
X6578452Y-12535024D01*
X6578452Y-12535024D02*
X6597500Y-12544548D01*
X6597500Y-12544548D02*
X6607024Y-12554071D01*
X6607024Y-12554071D02*
X6616548Y-12573119D01*
X6616548Y-12573119D02*
X6626071Y-12611214D01*
X6626071Y-12611214D02*
X6626071Y-12658833D01*
X6626071Y-12658833D02*
X6616548Y-12696928D01*
X6616548Y-12696928D02*
X6607024Y-12715976D01*
X6607024Y-12715976D02*
X6597500Y-12725500D01*
X6597500Y-12725500D02*
X6578452Y-12735024D01*
X6578452Y-12735024D02*
X6559405Y-12735024D01*
X6559405Y-12735024D02*
X6540357Y-12725500D01*
X6540357Y-12725500D02*
X6530833Y-12715976D01*
X6530833Y-12715976D02*
X6521309Y-12696928D01*
X6521309Y-12696928D02*
X6511786Y-12658833D01*
X6511786Y-12658833D02*
X6511786Y-12611214D01*
X6511786Y-12611214D02*
X6521309Y-12573119D01*
X6521309Y-12573119D02*
X6530833Y-12554071D01*
X6530833Y-12554071D02*
X6540357Y-12544548D01*
X6540357Y-12544548D02*
X6559405Y-12535024D01*
X6749881Y-12535024D02*
X6768929Y-12535024D01*
X6768929Y-12535024D02*
X6787976Y-12544548D01*
X6787976Y-12544548D02*
X6797500Y-12554071D01*
X6797500Y-12554071D02*
X6807024Y-12573119D01*
X6807024Y-12573119D02*
X6816548Y-12611214D01*
X6816548Y-12611214D02*
X6816548Y-12658833D01*
X6816548Y-12658833D02*
X6807024Y-12696928D01*
X6807024Y-12696928D02*
X6797500Y-12715976D01*
X6797500Y-12715976D02*
X6787976Y-12725500D01*
X6787976Y-12725500D02*
X6768929Y-12735024D01*
X6768929Y-12735024D02*
X6749881Y-12735024D01*
X6749881Y-12735024D02*
X6730833Y-12725500D01*
X6730833Y-12725500D02*
X6721309Y-12715976D01*
X6721309Y-12715976D02*
X6711786Y-12696928D01*
X6711786Y-12696928D02*
X6702262Y-12658833D01*
X6702262Y-12658833D02*
X6702262Y-12611214D01*
X6702262Y-12611214D02*
X6711786Y-12573119D01*
X6711786Y-12573119D02*
X6721309Y-12554071D01*
X6721309Y-12554071D02*
X6730833Y-12544548D01*
X6730833Y-12544548D02*
X6749881Y-12535024D01*
X6902262Y-12735024D02*
X6902262Y-12601690D01*
X6902262Y-12620738D02*
X6911786Y-12611214D01*
X6911786Y-12611214D02*
X6930833Y-12601690D01*
X6930833Y-12601690D02*
X6959405Y-12601690D01*
X6959405Y-12601690D02*
X6978452Y-12611214D01*
X6978452Y-12611214D02*
X6987976Y-12630262D01*
X6987976Y-12630262D02*
X6987976Y-12735024D01*
X6987976Y-12630262D02*
X6997500Y-12611214D01*
X6997500Y-12611214D02*
X7016548Y-12601690D01*
X7016548Y-12601690D02*
X7045119Y-12601690D01*
X7045119Y-12601690D02*
X7064167Y-12611214D01*
X7064167Y-12611214D02*
X7073690Y-12630262D01*
X7073690Y-12630262D02*
X7073690Y-12735024D01*
X7168929Y-12735024D02*
X7168929Y-12601690D01*
X7168929Y-12620738D02*
X7178452Y-12611214D01*
X7178452Y-12611214D02*
X7197500Y-12601690D01*
X7197500Y-12601690D02*
X7226071Y-12601690D01*
X7226071Y-12601690D02*
X7245119Y-12611214D01*
X7245119Y-12611214D02*
X7254643Y-12630262D01*
X7254643Y-12630262D02*
X7254643Y-12735024D01*
X7254643Y-12630262D02*
X7264167Y-12611214D01*
X7264167Y-12611214D02*
X7283214Y-12601690D01*
X7283214Y-12601690D02*
X7311786Y-12601690D01*
X7311786Y-12601690D02*
X7330833Y-12611214D01*
X7330833Y-12611214D02*
X7340357Y-12630262D01*
X7340357Y-12630262D02*
X7340357Y-12735024D01*
X7730833Y-12525500D02*
X7559405Y-12782643D01*
X7987976Y-12535024D02*
X8007024Y-12535024D01*
X8007024Y-12535024D02*
X8026072Y-12544548D01*
X8026072Y-12544548D02*
X8035595Y-12554071D01*
X8035595Y-12554071D02*
X8045119Y-12573119D01*
X8045119Y-12573119D02*
X8054643Y-12611214D01*
X8054643Y-12611214D02*
X8054643Y-12658833D01*
X8054643Y-12658833D02*
X8045119Y-12696928D01*
X8045119Y-12696928D02*
X8035595Y-12715976D01*
X8035595Y-12715976D02*
X8026072Y-12725500D01*
X8026072Y-12725500D02*
X8007024Y-12735024D01*
X8007024Y-12735024D02*
X7987976Y-12735024D01*
X7987976Y-12735024D02*
X7968929Y-12725500D01*
X7968929Y-12725500D02*
X7959405Y-12715976D01*
X7959405Y-12715976D02*
X7949881Y-12696928D01*
X7949881Y-12696928D02*
X7940357Y-12658833D01*
X7940357Y-12658833D02*
X7940357Y-12611214D01*
X7940357Y-12611214D02*
X7949881Y-12573119D01*
X7949881Y-12573119D02*
X7959405Y-12554071D01*
X7959405Y-12554071D02*
X7968929Y-12544548D01*
X7968929Y-12544548D02*
X7987976Y-12535024D01*
X8140357Y-12715976D02*
X8149881Y-12725500D01*
X8149881Y-12725500D02*
X8140357Y-12735024D01*
X8140357Y-12735024D02*
X8130833Y-12725500D01*
X8130833Y-12725500D02*
X8140357Y-12715976D01*
X8140357Y-12715976D02*
X8140357Y-12735024D01*
X8340357Y-12735024D02*
X8226072Y-12735024D01*
X8283214Y-12735024D02*
X8283214Y-12535024D01*
X8283214Y-12535024D02*
X8264167Y-12563595D01*
X8264167Y-12563595D02*
X8245119Y-12582643D01*
X8245119Y-12582643D02*
X8226072Y-12592167D01*
X8416548Y-12554071D02*
X8426072Y-12544548D01*
X8426072Y-12544548D02*
X8445119Y-12535024D01*
X8445119Y-12535024D02*
X8492738Y-12535024D01*
X8492738Y-12535024D02*
X8511786Y-12544548D01*
X8511786Y-12544548D02*
X8521310Y-12554071D01*
X8521310Y-12554071D02*
X8530834Y-12573119D01*
X8530834Y-12573119D02*
X8530834Y-12592167D01*
X8530834Y-12592167D02*
X8521310Y-12620738D01*
X8521310Y-12620738D02*
X8407024Y-12735024D01*
X8407024Y-12735024D02*
X8530834Y-12735024D01*
X8702262Y-12535024D02*
X8664167Y-12535024D01*
X8664167Y-12535024D02*
X8645119Y-12544548D01*
X8645119Y-12544548D02*
X8635595Y-12554071D01*
X8635595Y-12554071D02*
X8616548Y-12582643D01*
X8616548Y-12582643D02*
X8607024Y-12620738D01*
X8607024Y-12620738D02*
X8607024Y-12696928D01*
X8607024Y-12696928D02*
X8616548Y-12715976D01*
X8616548Y-12715976D02*
X8626072Y-12725500D01*
X8626072Y-12725500D02*
X8645119Y-12735024D01*
X8645119Y-12735024D02*
X8683215Y-12735024D01*
X8683215Y-12735024D02*
X8702262Y-12725500D01*
X8702262Y-12725500D02*
X8711786Y-12715976D01*
X8711786Y-12715976D02*
X8721310Y-12696928D01*
X8721310Y-12696928D02*
X8721310Y-12649309D01*
X8721310Y-12649309D02*
X8711786Y-12630262D01*
X8711786Y-12630262D02*
X8702262Y-12620738D01*
X8702262Y-12620738D02*
X8683215Y-12611214D01*
X8683215Y-12611214D02*
X8645119Y-12611214D01*
X8645119Y-12611214D02*
X8626072Y-12620738D01*
X8626072Y-12620738D02*
X8616548Y-12630262D01*
X8616548Y-12630262D02*
X8607024Y-12649309D01*
X8845119Y-12535024D02*
X8864167Y-12535024D01*
X8864167Y-12535024D02*
X8883215Y-12544548D01*
X8883215Y-12544548D02*
X8892738Y-12554071D01*
X8892738Y-12554071D02*
X8902262Y-12573119D01*
X8902262Y-12573119D02*
X8911786Y-12611214D01*
X8911786Y-12611214D02*
X8911786Y-12658833D01*
X8911786Y-12658833D02*
X8902262Y-12696928D01*
X8902262Y-12696928D02*
X8892738Y-12715976D01*
X8892738Y-12715976D02*
X8883215Y-12725500D01*
X8883215Y-12725500D02*
X8864167Y-12735024D01*
X8864167Y-12735024D02*
X8845119Y-12735024D01*
X8845119Y-12735024D02*
X8826072Y-12725500D01*
X8826072Y-12725500D02*
X8816548Y-12715976D01*
X8816548Y-12715976D02*
X8807024Y-12696928D01*
X8807024Y-12696928D02*
X8797500Y-12658833D01*
X8797500Y-12658833D02*
X8797500Y-12611214D01*
X8797500Y-12611214D02*
X8807024Y-12573119D01*
X8807024Y-12573119D02*
X8816548Y-12554071D01*
X8816548Y-12554071D02*
X8826072Y-12544548D01*
X8826072Y-12544548D02*
X8845119Y-12535024D01*
X8987976Y-12535024D02*
X8987976Y-12573119D01*
X9064167Y-12535024D02*
X9064167Y-12573119D01*
X9359405Y-12811214D02*
X9349881Y-12801690D01*
X9349881Y-12801690D02*
X9330834Y-12773119D01*
X9330834Y-12773119D02*
X9321310Y-12754071D01*
X9321310Y-12754071D02*
X9311786Y-12725500D01*
X9311786Y-12725500D02*
X9302262Y-12677881D01*
X9302262Y-12677881D02*
X9302262Y-12639786D01*
X9302262Y-12639786D02*
X9311786Y-12592167D01*
X9311786Y-12592167D02*
X9321310Y-12563595D01*
X9321310Y-12563595D02*
X9330834Y-12544548D01*
X9330834Y-12544548D02*
X9349881Y-12515976D01*
X9349881Y-12515976D02*
X9359405Y-12506452D01*
X9521310Y-12601690D02*
X9521310Y-12735024D01*
X9473691Y-12525500D02*
X9426072Y-12668357D01*
X9426072Y-12668357D02*
X9549881Y-12668357D01*
X9778453Y-12735024D02*
X9778453Y-12535024D01*
X9864167Y-12735024D02*
X9864167Y-12630262D01*
X9864167Y-12630262D02*
X9854643Y-12611214D01*
X9854643Y-12611214D02*
X9835596Y-12601690D01*
X9835596Y-12601690D02*
X9807024Y-12601690D01*
X9807024Y-12601690D02*
X9787977Y-12611214D01*
X9787977Y-12611214D02*
X9778453Y-12620738D01*
X9987977Y-12735024D02*
X9968929Y-12725500D01*
X9968929Y-12725500D02*
X9959405Y-12715976D01*
X9959405Y-12715976D02*
X9949881Y-12696928D01*
X9949881Y-12696928D02*
X9949881Y-12639786D01*
X9949881Y-12639786D02*
X9959405Y-12620738D01*
X9959405Y-12620738D02*
X9968929Y-12611214D01*
X9968929Y-12611214D02*
X9987977Y-12601690D01*
X9987977Y-12601690D02*
X10016548Y-12601690D01*
X10016548Y-12601690D02*
X10035596Y-12611214D01*
X10035596Y-12611214D02*
X10045119Y-12620738D01*
X10045119Y-12620738D02*
X10054643Y-12639786D01*
X10054643Y-12639786D02*
X10054643Y-12696928D01*
X10054643Y-12696928D02*
X10045119Y-12715976D01*
X10045119Y-12715976D02*
X10035596Y-12725500D01*
X10035596Y-12725500D02*
X10016548Y-12735024D01*
X10016548Y-12735024D02*
X9987977Y-12735024D01*
X10168929Y-12735024D02*
X10149881Y-12725500D01*
X10149881Y-12725500D02*
X10140358Y-12706452D01*
X10140358Y-12706452D02*
X10140358Y-12535024D01*
X10321310Y-12725500D02*
X10302262Y-12735024D01*
X10302262Y-12735024D02*
X10264167Y-12735024D01*
X10264167Y-12735024D02*
X10245119Y-12725500D01*
X10245119Y-12725500D02*
X10235596Y-12706452D01*
X10235596Y-12706452D02*
X10235596Y-12630262D01*
X10235596Y-12630262D02*
X10245119Y-12611214D01*
X10245119Y-12611214D02*
X10264167Y-12601690D01*
X10264167Y-12601690D02*
X10302262Y-12601690D01*
X10302262Y-12601690D02*
X10321310Y-12611214D01*
X10321310Y-12611214D02*
X10330834Y-12630262D01*
X10330834Y-12630262D02*
X10330834Y-12649309D01*
X10330834Y-12649309D02*
X10235596Y-12668357D01*
X10407024Y-12725500D02*
X10426072Y-12735024D01*
X10426072Y-12735024D02*
X10464167Y-12735024D01*
X10464167Y-12735024D02*
X10483215Y-12725500D01*
X10483215Y-12725500D02*
X10492739Y-12706452D01*
X10492739Y-12706452D02*
X10492739Y-12696928D01*
X10492739Y-12696928D02*
X10483215Y-12677881D01*
X10483215Y-12677881D02*
X10464167Y-12668357D01*
X10464167Y-12668357D02*
X10435596Y-12668357D01*
X10435596Y-12668357D02*
X10416548Y-12658833D01*
X10416548Y-12658833D02*
X10407024Y-12639786D01*
X10407024Y-12639786D02*
X10407024Y-12630262D01*
X10407024Y-12630262D02*
X10416548Y-12611214D01*
X10416548Y-12611214D02*
X10435596Y-12601690D01*
X10435596Y-12601690D02*
X10464167Y-12601690D01*
X10464167Y-12601690D02*
X10483215Y-12611214D01*
X10559405Y-12811214D02*
X10568929Y-12801690D01*
X10568929Y-12801690D02*
X10587977Y-12773119D01*
X10587977Y-12773119D02*
X10597500Y-12754071D01*
X10597500Y-12754071D02*
X10607024Y-12725500D01*
X10607024Y-12725500D02*
X10616548Y-12677881D01*
X10616548Y-12677881D02*
X10616548Y-12639786D01*
X10616548Y-12639786D02*
X10607024Y-12592167D01*
X10607024Y-12592167D02*
X10597500Y-12563595D01*
X10597500Y-12563595D02*
X10587977Y-12544548D01*
X10587977Y-12544548D02*
X10568929Y-12515976D01*
X10568929Y-12515976D02*
X10559405Y-12506452D01*
X10921310Y-12811214D02*
X10911786Y-12801690D01*
X10911786Y-12801690D02*
X10892739Y-12773119D01*
X10892739Y-12773119D02*
X10883215Y-12754071D01*
X10883215Y-12754071D02*
X10873691Y-12725500D01*
X10873691Y-12725500D02*
X10864167Y-12677881D01*
X10864167Y-12677881D02*
X10864167Y-12639786D01*
X10864167Y-12639786D02*
X10873691Y-12592167D01*
X10873691Y-12592167D02*
X10883215Y-12563595D01*
X10883215Y-12563595D02*
X10892739Y-12544548D01*
X10892739Y-12544548D02*
X10911786Y-12515976D01*
X10911786Y-12515976D02*
X10921310Y-12506452D01*
X10997500Y-12601690D02*
X10997500Y-12735024D01*
X10997500Y-12620738D02*
X11007024Y-12611214D01*
X11007024Y-12611214D02*
X11026072Y-12601690D01*
X11026072Y-12601690D02*
X11054643Y-12601690D01*
X11054643Y-12601690D02*
X11073691Y-12611214D01*
X11073691Y-12611214D02*
X11083215Y-12630262D01*
X11083215Y-12630262D02*
X11083215Y-12735024D01*
X11207024Y-12735024D02*
X11187977Y-12725500D01*
X11187977Y-12725500D02*
X11178453Y-12715976D01*
X11178453Y-12715976D02*
X11168929Y-12696928D01*
X11168929Y-12696928D02*
X11168929Y-12639786D01*
X11168929Y-12639786D02*
X11178453Y-12620738D01*
X11178453Y-12620738D02*
X11187977Y-12611214D01*
X11187977Y-12611214D02*
X11207024Y-12601690D01*
X11207024Y-12601690D02*
X11235596Y-12601690D01*
X11235596Y-12601690D02*
X11254643Y-12611214D01*
X11254643Y-12611214D02*
X11264167Y-12620738D01*
X11264167Y-12620738D02*
X11273691Y-12639786D01*
X11273691Y-12639786D02*
X11273691Y-12696928D01*
X11273691Y-12696928D02*
X11264167Y-12715976D01*
X11264167Y-12715976D02*
X11254643Y-12725500D01*
X11254643Y-12725500D02*
X11235596Y-12735024D01*
X11235596Y-12735024D02*
X11207024Y-12735024D01*
X11330834Y-12601690D02*
X11407024Y-12601690D01*
X11359405Y-12535024D02*
X11359405Y-12706452D01*
X11359405Y-12706452D02*
X11368929Y-12725500D01*
X11368929Y-12725500D02*
X11387977Y-12735024D01*
X11387977Y-12735024D02*
X11407024Y-12735024D01*
X11626072Y-12601690D02*
X11626072Y-12801690D01*
X11626072Y-12611214D02*
X11645119Y-12601690D01*
X11645119Y-12601690D02*
X11683215Y-12601690D01*
X11683215Y-12601690D02*
X11702262Y-12611214D01*
X11702262Y-12611214D02*
X11711786Y-12620738D01*
X11711786Y-12620738D02*
X11721310Y-12639786D01*
X11721310Y-12639786D02*
X11721310Y-12696928D01*
X11721310Y-12696928D02*
X11711786Y-12715976D01*
X11711786Y-12715976D02*
X11702262Y-12725500D01*
X11702262Y-12725500D02*
X11683215Y-12735024D01*
X11683215Y-12735024D02*
X11645119Y-12735024D01*
X11645119Y-12735024D02*
X11626072Y-12725500D01*
X11835596Y-12735024D02*
X11816548Y-12725500D01*
X11816548Y-12725500D02*
X11807024Y-12706452D01*
X11807024Y-12706452D02*
X11807024Y-12535024D01*
X11997500Y-12735024D02*
X11997500Y-12630262D01*
X11997500Y-12630262D02*
X11987977Y-12611214D01*
X11987977Y-12611214D02*
X11968929Y-12601690D01*
X11968929Y-12601690D02*
X11930834Y-12601690D01*
X11930834Y-12601690D02*
X11911786Y-12611214D01*
X11997500Y-12725500D02*
X11978453Y-12735024D01*
X11978453Y-12735024D02*
X11930834Y-12735024D01*
X11930834Y-12735024D02*
X11911786Y-12725500D01*
X11911786Y-12725500D02*
X11902262Y-12706452D01*
X11902262Y-12706452D02*
X11902262Y-12687405D01*
X11902262Y-12687405D02*
X11911786Y-12668357D01*
X11911786Y-12668357D02*
X11930834Y-12658833D01*
X11930834Y-12658833D02*
X11978453Y-12658833D01*
X11978453Y-12658833D02*
X11997500Y-12649309D01*
X12064167Y-12601690D02*
X12140358Y-12601690D01*
X12092739Y-12535024D02*
X12092739Y-12706452D01*
X12092739Y-12706452D02*
X12102262Y-12725500D01*
X12102262Y-12725500D02*
X12121310Y-12735024D01*
X12121310Y-12735024D02*
X12140358Y-12735024D01*
X12283215Y-12725500D02*
X12264167Y-12735024D01*
X12264167Y-12735024D02*
X12226072Y-12735024D01*
X12226072Y-12735024D02*
X12207024Y-12725500D01*
X12207024Y-12725500D02*
X12197500Y-12706452D01*
X12197500Y-12706452D02*
X12197500Y-12630262D01*
X12197500Y-12630262D02*
X12207024Y-12611214D01*
X12207024Y-12611214D02*
X12226072Y-12601690D01*
X12226072Y-12601690D02*
X12264167Y-12601690D01*
X12264167Y-12601690D02*
X12283215Y-12611214D01*
X12283215Y-12611214D02*
X12292739Y-12630262D01*
X12292739Y-12630262D02*
X12292739Y-12649309D01*
X12292739Y-12649309D02*
X12197500Y-12668357D01*
X12464167Y-12735024D02*
X12464167Y-12535024D01*
X12464167Y-12725500D02*
X12445120Y-12735024D01*
X12445120Y-12735024D02*
X12407024Y-12735024D01*
X12407024Y-12735024D02*
X12387977Y-12725500D01*
X12387977Y-12725500D02*
X12378453Y-12715976D01*
X12378453Y-12715976D02*
X12368929Y-12696928D01*
X12368929Y-12696928D02*
X12368929Y-12639786D01*
X12368929Y-12639786D02*
X12378453Y-12620738D01*
X12378453Y-12620738D02*
X12387977Y-12611214D01*
X12387977Y-12611214D02*
X12407024Y-12601690D01*
X12407024Y-12601690D02*
X12445120Y-12601690D01*
X12445120Y-12601690D02*
X12464167Y-12611214D01*
X12540358Y-12811214D02*
X12549881Y-12801690D01*
X12549881Y-12801690D02*
X12568929Y-12773119D01*
X12568929Y-12773119D02*
X12578453Y-12754071D01*
X12578453Y-12754071D02*
X12587977Y-12725500D01*
X12587977Y-12725500D02*
X12597500Y-12677881D01*
X12597500Y-12677881D02*
X12597500Y-12639786D01*
X12597500Y-12639786D02*
X12587977Y-12592167D01*
X12587977Y-12592167D02*
X12578453Y-12563595D01*
X12578453Y-12563595D02*
X12568929Y-12544548D01*
X12568929Y-12544548D02*
X12549881Y-12515976D01*
X12549881Y-12515976D02*
X12540358Y-12506452D01*
M02*
