%TF.GenerationSoftware,KiCad,Pcbnew,7.0.1-3b83917a11~172~ubuntu22.04.1*%
%TF.CreationDate,2023-04-13T21:28:02+02:00*%
%TF.ProjectId,dmx_interceptor,646d785f-696e-4746-9572-636570746f72,rev?*%
%TF.SameCoordinates,Original*%
%TF.FileFunction,Drillmap*%
%TF.FilePolarity,Positive*%
%FSLAX45Y45*%
G04 Gerber Fmt 4.5, Leading zero omitted, Abs format (unit mm)*
G04 Created by KiCad (PCBNEW 7.0.1-3b83917a11~172~ubuntu22.04.1) date 2023-04-13 21:28:02*
%MOMM*%
%LPD*%
G01*
G04 APERTURE LIST*
%ADD10C,0.050000*%
%ADD11C,0.200000*%
G04 APERTURE END LIST*
D10*
X5800000Y-6700000D02*
X14400000Y-6700000D01*
X14400000Y-6700000D02*
X14400000Y-12000000D01*
X14400000Y-12000000D02*
X5800000Y-12000000D01*
X5800000Y-12000000D02*
X5800000Y-6700000D01*
D11*
X6045119Y-12315024D02*
X6045119Y-12115024D01*
X6045119Y-12115024D02*
X6092738Y-12115024D01*
X6092738Y-12115024D02*
X6121309Y-12124548D01*
X6121309Y-12124548D02*
X6140357Y-12143595D01*
X6140357Y-12143595D02*
X6149881Y-12162643D01*
X6149881Y-12162643D02*
X6159405Y-12200738D01*
X6159405Y-12200738D02*
X6159405Y-12229309D01*
X6159405Y-12229309D02*
X6149881Y-12267405D01*
X6149881Y-12267405D02*
X6140357Y-12286452D01*
X6140357Y-12286452D02*
X6121309Y-12305500D01*
X6121309Y-12305500D02*
X6092738Y-12315024D01*
X6092738Y-12315024D02*
X6045119Y-12315024D01*
X6245119Y-12315024D02*
X6245119Y-12181690D01*
X6245119Y-12219786D02*
X6254643Y-12200738D01*
X6254643Y-12200738D02*
X6264167Y-12191214D01*
X6264167Y-12191214D02*
X6283214Y-12181690D01*
X6283214Y-12181690D02*
X6302262Y-12181690D01*
X6368928Y-12315024D02*
X6368928Y-12181690D01*
X6368928Y-12115024D02*
X6359405Y-12124548D01*
X6359405Y-12124548D02*
X6368928Y-12134071D01*
X6368928Y-12134071D02*
X6378452Y-12124548D01*
X6378452Y-12124548D02*
X6368928Y-12115024D01*
X6368928Y-12115024D02*
X6368928Y-12134071D01*
X6492738Y-12315024D02*
X6473690Y-12305500D01*
X6473690Y-12305500D02*
X6464167Y-12286452D01*
X6464167Y-12286452D02*
X6464167Y-12115024D01*
X6597500Y-12315024D02*
X6578452Y-12305500D01*
X6578452Y-12305500D02*
X6568928Y-12286452D01*
X6568928Y-12286452D02*
X6568928Y-12115024D01*
X6826071Y-12315024D02*
X6826071Y-12115024D01*
X6826071Y-12115024D02*
X6892738Y-12257881D01*
X6892738Y-12257881D02*
X6959405Y-12115024D01*
X6959405Y-12115024D02*
X6959405Y-12315024D01*
X7140357Y-12315024D02*
X7140357Y-12210262D01*
X7140357Y-12210262D02*
X7130833Y-12191214D01*
X7130833Y-12191214D02*
X7111786Y-12181690D01*
X7111786Y-12181690D02*
X7073690Y-12181690D01*
X7073690Y-12181690D02*
X7054643Y-12191214D01*
X7140357Y-12305500D02*
X7121309Y-12315024D01*
X7121309Y-12315024D02*
X7073690Y-12315024D01*
X7073690Y-12315024D02*
X7054643Y-12305500D01*
X7054643Y-12305500D02*
X7045119Y-12286452D01*
X7045119Y-12286452D02*
X7045119Y-12267405D01*
X7045119Y-12267405D02*
X7054643Y-12248357D01*
X7054643Y-12248357D02*
X7073690Y-12238833D01*
X7073690Y-12238833D02*
X7121309Y-12238833D01*
X7121309Y-12238833D02*
X7140357Y-12229309D01*
X7235595Y-12181690D02*
X7235595Y-12381690D01*
X7235595Y-12191214D02*
X7254643Y-12181690D01*
X7254643Y-12181690D02*
X7292738Y-12181690D01*
X7292738Y-12181690D02*
X7311786Y-12191214D01*
X7311786Y-12191214D02*
X7321309Y-12200738D01*
X7321309Y-12200738D02*
X7330833Y-12219786D01*
X7330833Y-12219786D02*
X7330833Y-12276928D01*
X7330833Y-12276928D02*
X7321309Y-12295976D01*
X7321309Y-12295976D02*
X7311786Y-12305500D01*
X7311786Y-12305500D02*
X7292738Y-12315024D01*
X7292738Y-12315024D02*
X7254643Y-12315024D01*
X7254643Y-12315024D02*
X7235595Y-12305500D01*
X7416548Y-12295976D02*
X7426071Y-12305500D01*
X7426071Y-12305500D02*
X7416548Y-12315024D01*
X7416548Y-12315024D02*
X7407024Y-12305500D01*
X7407024Y-12305500D02*
X7416548Y-12295976D01*
X7416548Y-12295976D02*
X7416548Y-12315024D01*
X7416548Y-12191214D02*
X7426071Y-12200738D01*
X7426071Y-12200738D02*
X7416548Y-12210262D01*
X7416548Y-12210262D02*
X7407024Y-12200738D01*
X7407024Y-12200738D02*
X7416548Y-12191214D01*
X7416548Y-12191214D02*
X7416548Y-12210262D01*
M02*
