G04 #@! TF.GenerationSoftware,KiCad,Pcbnew,7.0.1-3b83917a11~172~ubuntu22.04.1*
G04 #@! TF.CreationDate,2023-04-13T21:26:50+02:00*
G04 #@! TF.ProjectId,dmx_interceptor,646d785f-696e-4746-9572-636570746f72,rev?*
G04 #@! TF.SameCoordinates,Original*
G04 #@! TF.FileFunction,Copper,L4,Bot*
G04 #@! TF.FilePolarity,Positive*
%FSLAX46Y46*%
G04 Gerber Fmt 4.6, Leading zero omitted, Abs format (unit mm)*
G04 Created by KiCad (PCBNEW 7.0.1-3b83917a11~172~ubuntu22.04.1) date 2023-04-13 21:26:50*
%MOMM*%
%LPD*%
G01*
G04 APERTURE LIST*
G04 #@! TA.AperFunction,ComponentPad*
%ADD10C,1.258000*%
G04 #@! TD*
G04 #@! TA.AperFunction,ComponentPad*
%ADD11R,2.400000X2.400000*%
G04 #@! TD*
G04 #@! TA.AperFunction,ComponentPad*
%ADD12C,2.400000*%
G04 #@! TD*
G04 #@! TA.AperFunction,ComponentPad*
%ADD13C,1.524000*%
G04 #@! TD*
G04 #@! TA.AperFunction,ComponentPad*
%ADD14C,1.879600*%
G04 #@! TD*
G04 #@! TA.AperFunction,ViaPad*
%ADD15C,0.800000*%
G04 #@! TD*
G04 #@! TA.AperFunction,Conductor*
%ADD16C,0.250000*%
G04 #@! TD*
G04 APERTURE END LIST*
D10*
X66040000Y-109418000D03*
X66040000Y-102418000D03*
D11*
X63100000Y-76200000D03*
D12*
X68180000Y-76200000D03*
D11*
X99900000Y-76300000D03*
D12*
X94820000Y-76300000D03*
D11*
X118600000Y-75700000D03*
D12*
X113520000Y-75700000D03*
X108440000Y-75700000D03*
D13*
X138200000Y-86690000D03*
X138200000Y-89230000D03*
X138200000Y-91770000D03*
X138200000Y-94310000D03*
X97200000Y-86690000D03*
X97200000Y-89230000D03*
X97200000Y-91770000D03*
X97200000Y-94310000D03*
D11*
X137180000Y-75700000D03*
D12*
X132100000Y-75700000D03*
X127020000Y-75700000D03*
D13*
X138200000Y-104490000D03*
X138200000Y-107030000D03*
X138200000Y-109570000D03*
X138200000Y-112110000D03*
X97200000Y-104490000D03*
X97200000Y-107030000D03*
X97200000Y-109570000D03*
X97200000Y-112110000D03*
D14*
X73680000Y-74400000D03*
X73680000Y-76940000D03*
X73680000Y-79480000D03*
X73680000Y-82020000D03*
X73680000Y-84560000D03*
X73680000Y-87100000D03*
X73680000Y-89640000D03*
X73680000Y-92180000D03*
X73680000Y-94720000D03*
X73680000Y-97260000D03*
X73680000Y-99800000D03*
X73680000Y-102340000D03*
X88920000Y-102340000D03*
X88920000Y-99800000D03*
X88920000Y-97260000D03*
X88920000Y-94720000D03*
X88920000Y-92180000D03*
X88920000Y-89640000D03*
X88920000Y-87100000D03*
X88920000Y-84560000D03*
X88920000Y-82020000D03*
X88920000Y-79480000D03*
X88920000Y-76940000D03*
X88920000Y-74400000D03*
X85999000Y-93577000D03*
X85999000Y-96117000D03*
X85999000Y-83163000D03*
X85999000Y-85703000D03*
X74950000Y-71860000D03*
X77490000Y-71860000D03*
X80030000Y-71860000D03*
X82570000Y-71860000D03*
X85110000Y-71860000D03*
X87650000Y-71860000D03*
D15*
X67400000Y-112900000D03*
X67400000Y-116300000D03*
X63200000Y-116300000D03*
X76300000Y-113000000D03*
X72100000Y-116400000D03*
X76300000Y-116400000D03*
X72100000Y-113000000D03*
X89400000Y-109500000D03*
X93600000Y-109500000D03*
X85000000Y-109500000D03*
X80800000Y-109500000D03*
X66100000Y-98300000D03*
X128500000Y-110800000D03*
X132700000Y-110800000D03*
X111200000Y-110700000D03*
X102300000Y-110600000D03*
X124100000Y-110800000D03*
X119900000Y-110800000D03*
X106500000Y-110600000D03*
X115400000Y-110700000D03*
X117100000Y-86300000D03*
X65900000Y-73100000D03*
X101600000Y-95500000D03*
X65600000Y-79600000D03*
X78600000Y-102100000D03*
X65900000Y-94600000D03*
X61722000Y-109982000D03*
X132400000Y-95700000D03*
X111000000Y-78900000D03*
X60900000Y-100900000D03*
X76500000Y-79100000D03*
X89400000Y-113100000D03*
X102300000Y-106100000D03*
X80800000Y-113100000D03*
X60900000Y-88100000D03*
X105800000Y-87700000D03*
X133600000Y-79100000D03*
X67600000Y-85200000D03*
X106500000Y-106100000D03*
X111000000Y-72800000D03*
X123400000Y-87900000D03*
X101600000Y-91440000D03*
X76900000Y-91800000D03*
X119600000Y-95700000D03*
X70000000Y-86700000D03*
X134500000Y-73300000D03*
X106200000Y-95500000D03*
X68400000Y-90400000D03*
X116000000Y-78800000D03*
X64800000Y-86700000D03*
X69600000Y-79600000D03*
X97200000Y-79000000D03*
X127800000Y-87900000D03*
X115100000Y-95600000D03*
X85090000Y-102870000D03*
X76900000Y-86000000D03*
X141200000Y-108400000D03*
X97300000Y-96500000D03*
X76300000Y-109300000D03*
X124100000Y-106300000D03*
X60900000Y-96700000D03*
X80800000Y-116500000D03*
X110500000Y-87800000D03*
X76900000Y-97800000D03*
X85000000Y-113100000D03*
X61722000Y-105410000D03*
X111200000Y-106200000D03*
X94600000Y-90170000D03*
X132000000Y-87900000D03*
X93600000Y-113100000D03*
X129700000Y-73300000D03*
X63200000Y-112900000D03*
X93600000Y-116500000D03*
X97300000Y-73000000D03*
X85000000Y-116500000D03*
X89400000Y-116500000D03*
X128500000Y-106300000D03*
X115400000Y-106200000D03*
X119900000Y-106300000D03*
X60900000Y-92300000D03*
X110900000Y-95600000D03*
X92710000Y-85090000D03*
X101500000Y-79000000D03*
X101600000Y-87700000D03*
X125900000Y-79500000D03*
X68326000Y-109220000D03*
D16*
X73680000Y-94720000D02*
X70780000Y-94720000D01*
X92600000Y-96370000D02*
X97200000Y-91770000D01*
X92600000Y-102900000D02*
X92600000Y-96370000D01*
X70300000Y-95200000D02*
X70300000Y-104300000D01*
X70780000Y-94720000D02*
X70300000Y-95200000D01*
X72200000Y-106200000D02*
X89300000Y-106200000D01*
X97200000Y-89230000D02*
X97200000Y-91770000D01*
X92600000Y-102900000D02*
X89300000Y-106200000D01*
X70300000Y-104300000D02*
X72200000Y-106200000D01*
X71520000Y-92180000D02*
X68900000Y-94800000D01*
X97200000Y-109570000D02*
X97200000Y-107030000D01*
X68900000Y-94800000D02*
X68900000Y-104700000D01*
X71230000Y-107030000D02*
X97200000Y-107030000D01*
X73680000Y-92180000D02*
X71520000Y-92180000D01*
X68900000Y-104700000D02*
X71230000Y-107030000D01*
X96190000Y-111100000D02*
X72900000Y-111100000D01*
X67400000Y-105600000D02*
X67400000Y-93600000D01*
X71500000Y-74700000D02*
X71800000Y-74400000D01*
X67400000Y-93600000D02*
X71500000Y-89500000D01*
X71500000Y-89500000D02*
X71500000Y-74700000D01*
X72900000Y-111100000D02*
X67400000Y-105600000D01*
X97200000Y-112110000D02*
X96190000Y-111100000D01*
X71800000Y-74400000D02*
X73680000Y-74400000D01*
X118600000Y-87430000D02*
X138200000Y-107030000D01*
X118600000Y-75700000D02*
X118600000Y-87430000D01*
X113520000Y-84890000D02*
X113520000Y-75700000D01*
X138200000Y-109570000D02*
X113520000Y-84890000D01*
X138200000Y-89230000D02*
X135100000Y-86130000D01*
X135100000Y-86130000D02*
X135100000Y-77780000D01*
X135100000Y-77780000D02*
X137180000Y-75700000D01*
X132100000Y-75700000D02*
X132100000Y-85670000D01*
X132100000Y-85670000D02*
X138200000Y-91770000D01*
G04 #@! TA.AperFunction,Conductor*
G36*
X68234837Y-104791872D02*
G01*
X68276653Y-104846487D01*
X68281525Y-104858794D01*
X68281526Y-104858797D01*
X68295016Y-104892869D01*
X68297801Y-104899903D01*
X68301644Y-104911130D01*
X68313980Y-104953590D01*
X68324294Y-104971030D01*
X68332987Y-104988774D01*
X68340448Y-105007617D01*
X68340449Y-105007619D01*
X68366431Y-105043380D01*
X68372948Y-105053301D01*
X68395458Y-105091363D01*
X68409778Y-105105683D01*
X68422618Y-105120716D01*
X68434526Y-105137105D01*
X68468598Y-105165292D01*
X68477378Y-105173282D01*
X70722751Y-107418655D01*
X70735835Y-107434985D01*
X70787666Y-107483657D01*
X70790509Y-107486413D01*
X70810230Y-107506134D01*
X70813418Y-107508607D01*
X70822446Y-107516317D01*
X70854679Y-107546586D01*
X70872432Y-107556346D01*
X70888955Y-107567200D01*
X70904957Y-107579612D01*
X70904960Y-107579614D01*
X70945539Y-107597174D01*
X70956188Y-107602391D01*
X70994935Y-107623693D01*
X70994937Y-107623693D01*
X70994940Y-107623695D01*
X71014574Y-107628736D01*
X71033259Y-107635134D01*
X71051855Y-107643181D01*
X71095530Y-107650098D01*
X71107125Y-107652498D01*
X71149970Y-107663500D01*
X71170224Y-107663500D01*
X71189934Y-107665051D01*
X71209942Y-107668220D01*
X71209942Y-107668219D01*
X71209943Y-107668220D01*
X71253961Y-107664058D01*
X71265819Y-107663500D01*
X96026996Y-107663500D01*
X96085176Y-107677737D01*
X96130209Y-107717229D01*
X96223025Y-107849784D01*
X96380215Y-108006974D01*
X96512771Y-108099791D01*
X96552263Y-108144824D01*
X96566500Y-108203004D01*
X96566500Y-108396996D01*
X96552263Y-108455176D01*
X96512771Y-108500209D01*
X96380215Y-108593025D01*
X96223025Y-108750215D01*
X96095512Y-108932322D01*
X96001559Y-109133807D01*
X95944022Y-109348532D01*
X95924647Y-109570000D01*
X95944022Y-109791467D01*
X95997946Y-109992709D01*
X96001560Y-110006196D01*
X96062609Y-110137117D01*
X96095512Y-110207678D01*
X96137911Y-110268229D01*
X96160428Y-110332259D01*
X96146461Y-110398680D01*
X96100063Y-110448219D01*
X96034698Y-110466500D01*
X73214594Y-110466500D01*
X73166376Y-110456909D01*
X73125499Y-110429595D01*
X68070405Y-105374500D01*
X68043091Y-105333623D01*
X68033500Y-105285405D01*
X68033500Y-104892869D01*
X68052275Y-104826697D01*
X68103004Y-104780245D01*
X68170570Y-104767356D01*
X68234837Y-104791872D01*
G37*
G04 #@! TD.AperFunction*
G04 #@! TA.AperFunction,Conductor*
G36*
X143237000Y-67716881D02*
G01*
X143283119Y-67763000D01*
X143300000Y-67826000D01*
X143300000Y-119074000D01*
X143283119Y-119137000D01*
X143237000Y-119183119D01*
X143174000Y-119200000D01*
X59026000Y-119200000D01*
X58963000Y-119183119D01*
X58916881Y-119137000D01*
X58900000Y-119074000D01*
X58900000Y-110381280D01*
X65435928Y-110381280D01*
X65531022Y-110440160D01*
X65727511Y-110516280D01*
X65934643Y-110555000D01*
X66145357Y-110555000D01*
X66352488Y-110516280D01*
X66548974Y-110440161D01*
X66644070Y-110381279D01*
X66040001Y-109777210D01*
X66040000Y-109777210D01*
X65435928Y-110381280D01*
X58900000Y-110381280D01*
X58900000Y-109417999D01*
X64898128Y-109417999D01*
X64917571Y-109627816D01*
X64975235Y-109830487D01*
X65069162Y-110019118D01*
X65073683Y-110025105D01*
X65680789Y-109418001D01*
X66399210Y-109418001D01*
X67006314Y-110025105D01*
X67006315Y-110025105D01*
X67010837Y-110019117D01*
X67104764Y-109830487D01*
X67162428Y-109627816D01*
X67181871Y-109418000D01*
X67162428Y-109208183D01*
X67104762Y-109005507D01*
X67010839Y-108816884D01*
X67006315Y-108810893D01*
X66399210Y-109418000D01*
X66399210Y-109418001D01*
X65680789Y-109418001D01*
X65680790Y-109418000D01*
X65680790Y-109417999D01*
X65073683Y-108810892D01*
X65069161Y-108816882D01*
X64975237Y-109005507D01*
X64917571Y-109208183D01*
X64898128Y-109417999D01*
X58900000Y-109417999D01*
X58900000Y-108454719D01*
X65435928Y-108454719D01*
X66039999Y-109058790D01*
X66040000Y-109058790D01*
X66644070Y-108454719D01*
X66548977Y-108395839D01*
X66352488Y-108319719D01*
X66145357Y-108281000D01*
X65934643Y-108281000D01*
X65727511Y-108319719D01*
X65531019Y-108395840D01*
X65435928Y-108454718D01*
X65435928Y-108454719D01*
X58900000Y-108454719D01*
X58900000Y-102417999D01*
X64897626Y-102417999D01*
X64917077Y-102627908D01*
X64974767Y-102830669D01*
X65068736Y-103019384D01*
X65127147Y-103096732D01*
X65195776Y-103187612D01*
X65351566Y-103329633D01*
X65351568Y-103329634D01*
X65351569Y-103329635D01*
X65480071Y-103409200D01*
X65530801Y-103440610D01*
X65727375Y-103516764D01*
X65934595Y-103555500D01*
X66145403Y-103555500D01*
X66145405Y-103555500D01*
X66352625Y-103516764D01*
X66549199Y-103440610D01*
X66574169Y-103425149D01*
X66637590Y-103406311D01*
X66701813Y-103422201D01*
X66749131Y-103468439D01*
X66766500Y-103532277D01*
X66766500Y-105516147D01*
X66764204Y-105536935D01*
X66766438Y-105607986D01*
X66766500Y-105611945D01*
X66766500Y-105639857D01*
X66767007Y-105643873D01*
X66767937Y-105655696D01*
X66769326Y-105699892D01*
X66774977Y-105719341D01*
X66778986Y-105738696D01*
X66781525Y-105758794D01*
X66797801Y-105799903D01*
X66801644Y-105811130D01*
X66813980Y-105853590D01*
X66824294Y-105871030D01*
X66832987Y-105888774D01*
X66840448Y-105907617D01*
X66840449Y-105907619D01*
X66866431Y-105943380D01*
X66872948Y-105953301D01*
X66895458Y-105991363D01*
X66909778Y-106005683D01*
X66922618Y-106020716D01*
X66934526Y-106037105D01*
X66968598Y-106065292D01*
X66977378Y-106073282D01*
X72392751Y-111488655D01*
X72405835Y-111504985D01*
X72457666Y-111553657D01*
X72460509Y-111556413D01*
X72480230Y-111576134D01*
X72483418Y-111578607D01*
X72492446Y-111586317D01*
X72524679Y-111616586D01*
X72542432Y-111626346D01*
X72558955Y-111637200D01*
X72574957Y-111649612D01*
X72574960Y-111649614D01*
X72615539Y-111667174D01*
X72626188Y-111672391D01*
X72664935Y-111693693D01*
X72664937Y-111693693D01*
X72664940Y-111693695D01*
X72684574Y-111698736D01*
X72703259Y-111705134D01*
X72721855Y-111713181D01*
X72765530Y-111720098D01*
X72777125Y-111722498D01*
X72819970Y-111733500D01*
X72840224Y-111733500D01*
X72859934Y-111735051D01*
X72879942Y-111738220D01*
X72879942Y-111738219D01*
X72879943Y-111738220D01*
X72923961Y-111734058D01*
X72935819Y-111733500D01*
X95821357Y-111733500D01*
X95877084Y-111746493D01*
X95921317Y-111782793D01*
X95944935Y-111834913D01*
X95943545Y-111877429D01*
X95944983Y-111877555D01*
X95944023Y-111888532D01*
X95944022Y-111888537D01*
X95924647Y-112109999D01*
X95924647Y-112110000D01*
X95944022Y-112331467D01*
X95980931Y-112469210D01*
X96001560Y-112546196D01*
X96062609Y-112677117D01*
X96095512Y-112747678D01*
X96223025Y-112929784D01*
X96380215Y-113086974D01*
X96562321Y-113214487D01*
X96562322Y-113214487D01*
X96562323Y-113214488D01*
X96763804Y-113308440D01*
X96914739Y-113348883D01*
X96978532Y-113365977D01*
X96978533Y-113365977D01*
X96978537Y-113365978D01*
X97200000Y-113385353D01*
X97421463Y-113365978D01*
X97636196Y-113308440D01*
X97837677Y-113214488D01*
X97901478Y-113169814D01*
X137499395Y-113169814D01*
X137562573Y-113214052D01*
X137763975Y-113307968D01*
X137978623Y-113365482D01*
X138200000Y-113384850D01*
X138421376Y-113365482D01*
X138636024Y-113307968D01*
X138837427Y-113214052D01*
X138900603Y-113169814D01*
X138900603Y-113169812D01*
X138200001Y-112469210D01*
X138200000Y-112469210D01*
X137499395Y-113169813D01*
X137499395Y-113169814D01*
X97901478Y-113169814D01*
X98019781Y-113086977D01*
X98176977Y-112929781D01*
X98304488Y-112747677D01*
X98398440Y-112546196D01*
X98455978Y-112331463D01*
X98475353Y-112110000D01*
X136925149Y-112110000D01*
X136944517Y-112331376D01*
X137002031Y-112546024D01*
X137095947Y-112747426D01*
X137140184Y-112810603D01*
X137140185Y-112810603D01*
X137840789Y-112110001D01*
X138559210Y-112110001D01*
X139259812Y-112810603D01*
X139259814Y-112810603D01*
X139304052Y-112747427D01*
X139397968Y-112546024D01*
X139455482Y-112331376D01*
X139474850Y-112109999D01*
X139455482Y-111888623D01*
X139397968Y-111673975D01*
X139304051Y-111472571D01*
X139259815Y-111409395D01*
X139259813Y-111409395D01*
X138559210Y-112110000D01*
X138559210Y-112110001D01*
X137840789Y-112110001D01*
X137840790Y-112110000D01*
X137840790Y-112109999D01*
X137140185Y-111409394D01*
X137095948Y-111472572D01*
X137002031Y-111673975D01*
X136944517Y-111888623D01*
X136925149Y-112110000D01*
X98475353Y-112110000D01*
X98455978Y-111888537D01*
X98453035Y-111877555D01*
X98426686Y-111779218D01*
X98398440Y-111673804D01*
X98304488Y-111472324D01*
X98176977Y-111290219D01*
X98176976Y-111290218D01*
X98176974Y-111290215D01*
X98019784Y-111133025D01*
X97837678Y-111005512D01*
X97787247Y-110981996D01*
X97727624Y-110954193D01*
X97674609Y-110907700D01*
X97654876Y-110840000D01*
X97674609Y-110772300D01*
X97727624Y-110725806D01*
X97837677Y-110674488D01*
X98019781Y-110546977D01*
X98176977Y-110389781D01*
X98304488Y-110207677D01*
X98398440Y-110006196D01*
X98455978Y-109791463D01*
X98475353Y-109570000D01*
X98455978Y-109348537D01*
X98445513Y-109309483D01*
X98412902Y-109187778D01*
X98398440Y-109133804D01*
X98304488Y-108932324D01*
X98176977Y-108750219D01*
X98176976Y-108750218D01*
X98176974Y-108750215D01*
X98019784Y-108593025D01*
X97887229Y-108500209D01*
X97847737Y-108455176D01*
X97833500Y-108396996D01*
X97833500Y-108203004D01*
X97847737Y-108144824D01*
X97887229Y-108099791D01*
X98019781Y-108006977D01*
X98176977Y-107849781D01*
X98304488Y-107667677D01*
X98398440Y-107466196D01*
X98455978Y-107251463D01*
X98475353Y-107030000D01*
X98455978Y-106808537D01*
X98398440Y-106593804D01*
X98304488Y-106392324D01*
X98297796Y-106382767D01*
X98176974Y-106210215D01*
X98019784Y-106053025D01*
X97837678Y-105925512D01*
X97787247Y-105901996D01*
X97727624Y-105874193D01*
X97674609Y-105827700D01*
X97654876Y-105760000D01*
X97674609Y-105692300D01*
X97727624Y-105645806D01*
X97837677Y-105594488D01*
X98019781Y-105466977D01*
X98176977Y-105309781D01*
X98304488Y-105127677D01*
X98398440Y-104926196D01*
X98455978Y-104711463D01*
X98475353Y-104490000D01*
X98455978Y-104268537D01*
X98445667Y-104230058D01*
X98438883Y-104204739D01*
X98398440Y-104053804D01*
X98304488Y-103852324D01*
X98176977Y-103670219D01*
X98176976Y-103670218D01*
X98176974Y-103670215D01*
X98019784Y-103513025D01*
X97837678Y-103385512D01*
X97717848Y-103329635D01*
X97636196Y-103291560D01*
X97622709Y-103287946D01*
X97421467Y-103234022D01*
X97200000Y-103214647D01*
X96978532Y-103234022D01*
X96763807Y-103291559D01*
X96763806Y-103291559D01*
X96763804Y-103291560D01*
X96729516Y-103307549D01*
X96562322Y-103385512D01*
X96380215Y-103513025D01*
X96223025Y-103670215D01*
X96095512Y-103852322D01*
X96033455Y-103985405D01*
X96009119Y-104037595D01*
X96001559Y-104053807D01*
X95944022Y-104268532D01*
X95924647Y-104490000D01*
X95944022Y-104711467D01*
X95974899Y-104826697D01*
X96001560Y-104926196D01*
X96039528Y-105007619D01*
X96095512Y-105127678D01*
X96223025Y-105309784D01*
X96380215Y-105466974D01*
X96562321Y-105594487D01*
X96562322Y-105594487D01*
X96562323Y-105594488D01*
X96672375Y-105645806D01*
X96725391Y-105692300D01*
X96745124Y-105760000D01*
X96725391Y-105827700D01*
X96672374Y-105874194D01*
X96660862Y-105879563D01*
X96562322Y-105925512D01*
X96380215Y-106053025D01*
X96223025Y-106210215D01*
X96130209Y-106342771D01*
X96085176Y-106382263D01*
X96026996Y-106396500D01*
X90303594Y-106396500D01*
X90246391Y-106382767D01*
X90201658Y-106344561D01*
X90179145Y-106290211D01*
X90183761Y-106231564D01*
X90214499Y-106181405D01*
X91596015Y-104799889D01*
X92988659Y-103407244D01*
X93004980Y-103394169D01*
X93007014Y-103392001D01*
X93007018Y-103392000D01*
X93053660Y-103342329D01*
X93056351Y-103339552D01*
X93076135Y-103319770D01*
X93078621Y-103316564D01*
X93086310Y-103307561D01*
X93116586Y-103275321D01*
X93126342Y-103257571D01*
X93137195Y-103241050D01*
X93149614Y-103225041D01*
X93167175Y-103184454D01*
X93172388Y-103173813D01*
X93193695Y-103135060D01*
X93198733Y-103115434D01*
X93205137Y-103096732D01*
X93213181Y-103078144D01*
X93220096Y-103034482D01*
X93222504Y-103022853D01*
X93233500Y-102980029D01*
X93233500Y-102959776D01*
X93235051Y-102940066D01*
X93238220Y-102920057D01*
X93234059Y-102876039D01*
X93233500Y-102864181D01*
X93233500Y-96684594D01*
X93243091Y-96636376D01*
X93270405Y-96595499D01*
X93875904Y-95990000D01*
X95715215Y-94150687D01*
X95767469Y-94119290D01*
X95828349Y-94116099D01*
X95883601Y-94141863D01*
X95920291Y-94190550D01*
X95929829Y-94250764D01*
X95924822Y-94308000D01*
X95924647Y-94310000D01*
X95928814Y-94357635D01*
X95944022Y-94531467D01*
X95988369Y-94696967D01*
X96001560Y-94746196D01*
X96061603Y-94874959D01*
X96095512Y-94947678D01*
X96223025Y-95129784D01*
X96380215Y-95286974D01*
X96562321Y-95414487D01*
X96562322Y-95414487D01*
X96562323Y-95414488D01*
X96763804Y-95508440D01*
X96914739Y-95548883D01*
X96978532Y-95565977D01*
X96978533Y-95565977D01*
X96978537Y-95565978D01*
X97200000Y-95585353D01*
X97421463Y-95565978D01*
X97636196Y-95508440D01*
X97837677Y-95414488D01*
X98019781Y-95286977D01*
X98176977Y-95129781D01*
X98304488Y-94947677D01*
X98398440Y-94746196D01*
X98455978Y-94531463D01*
X98475353Y-94310000D01*
X98455978Y-94088537D01*
X98455432Y-94086500D01*
X98425198Y-93973665D01*
X98398440Y-93873804D01*
X98304488Y-93672324D01*
X98176977Y-93490219D01*
X98176976Y-93490218D01*
X98176974Y-93490215D01*
X98019784Y-93333025D01*
X97837678Y-93205512D01*
X97741090Y-93160473D01*
X97727624Y-93154193D01*
X97674609Y-93107700D01*
X97654876Y-93040000D01*
X97674609Y-92972300D01*
X97727624Y-92925806D01*
X97837677Y-92874488D01*
X98019781Y-92746977D01*
X98176977Y-92589781D01*
X98304488Y-92407677D01*
X98398440Y-92206196D01*
X98455978Y-91991463D01*
X98475353Y-91770000D01*
X98455978Y-91548537D01*
X98455432Y-91546500D01*
X98412902Y-91387778D01*
X98398440Y-91333804D01*
X98304488Y-91132324D01*
X98176977Y-90950219D01*
X98176976Y-90950218D01*
X98176974Y-90950215D01*
X98019784Y-90793025D01*
X97900071Y-90709201D01*
X97887228Y-90700208D01*
X97847737Y-90655176D01*
X97833500Y-90596996D01*
X97833500Y-90403004D01*
X97847737Y-90344824D01*
X97887229Y-90299791D01*
X98019781Y-90206977D01*
X98176977Y-90049781D01*
X98304488Y-89867677D01*
X98398440Y-89666196D01*
X98455978Y-89451463D01*
X98475353Y-89230000D01*
X98455978Y-89008537D01*
X98398440Y-88793804D01*
X98304488Y-88592324D01*
X98176977Y-88410219D01*
X98176976Y-88410218D01*
X98176974Y-88410215D01*
X98019784Y-88253025D01*
X97837678Y-88125512D01*
X97787247Y-88101996D01*
X97727624Y-88074193D01*
X97674609Y-88027700D01*
X97654876Y-87960000D01*
X97674609Y-87892300D01*
X97727624Y-87845806D01*
X97837677Y-87794488D01*
X98019781Y-87666977D01*
X98176977Y-87509781D01*
X98304488Y-87327677D01*
X98398440Y-87126196D01*
X98455978Y-86911463D01*
X98475353Y-86690000D01*
X98455978Y-86468537D01*
X98447693Y-86437619D01*
X98421839Y-86341130D01*
X98398440Y-86253804D01*
X98304488Y-86052324D01*
X98176977Y-85870219D01*
X98176976Y-85870218D01*
X98176974Y-85870215D01*
X98019784Y-85713025D01*
X97837678Y-85585512D01*
X97767117Y-85552609D01*
X97636196Y-85491560D01*
X97622709Y-85487946D01*
X97421467Y-85434022D01*
X97200000Y-85414647D01*
X96978532Y-85434022D01*
X96763807Y-85491559D01*
X96763806Y-85491559D01*
X96763804Y-85491560D01*
X96703442Y-85519707D01*
X96562322Y-85585512D01*
X96380215Y-85713025D01*
X96223025Y-85870215D01*
X96095512Y-86052322D01*
X96038368Y-86174869D01*
X96003642Y-86249341D01*
X96001559Y-86253807D01*
X95944022Y-86468532D01*
X95924647Y-86689999D01*
X95944022Y-86911467D01*
X95976818Y-87033860D01*
X96001560Y-87126196D01*
X96020865Y-87167595D01*
X96095512Y-87327678D01*
X96223025Y-87509784D01*
X96380215Y-87666974D01*
X96380218Y-87666976D01*
X96380219Y-87666977D01*
X96395359Y-87677578D01*
X96562321Y-87794487D01*
X96562322Y-87794487D01*
X96562323Y-87794488D01*
X96672375Y-87845806D01*
X96725391Y-87892300D01*
X96745124Y-87960000D01*
X96725391Y-88027700D01*
X96672374Y-88074194D01*
X96642991Y-88087895D01*
X96562322Y-88125512D01*
X96380215Y-88253025D01*
X96223025Y-88410215D01*
X96095512Y-88592322D01*
X96001559Y-88793807D01*
X95944022Y-89008532D01*
X95924647Y-89230000D01*
X95944022Y-89451467D01*
X95991489Y-89628610D01*
X96001560Y-89666196D01*
X96033672Y-89735060D01*
X96095512Y-89867678D01*
X96223025Y-90049784D01*
X96380215Y-90206974D01*
X96512771Y-90299791D01*
X96552263Y-90344824D01*
X96566500Y-90403004D01*
X96566500Y-90596996D01*
X96552263Y-90655176D01*
X96512771Y-90700209D01*
X96380215Y-90793025D01*
X96223025Y-90950215D01*
X96095512Y-91132322D01*
X96001559Y-91333807D01*
X95944022Y-91548532D01*
X95924647Y-91770000D01*
X95944022Y-91991467D01*
X95954485Y-92030516D01*
X95954484Y-92095737D01*
X95921873Y-92152220D01*
X92211336Y-95862757D01*
X92195016Y-95875833D01*
X92146370Y-95927635D01*
X92143620Y-95930473D01*
X92123868Y-95950226D01*
X92123864Y-95950230D01*
X92123865Y-95950230D01*
X92121379Y-95953433D01*
X92113687Y-95962439D01*
X92083413Y-95994678D01*
X92073652Y-96012434D01*
X92062801Y-96028952D01*
X92050385Y-96044959D01*
X92032824Y-96085539D01*
X92027604Y-96096195D01*
X92006304Y-96134940D01*
X92001267Y-96154559D01*
X91994864Y-96173261D01*
X91986818Y-96191855D01*
X91979901Y-96235524D01*
X91977495Y-96247144D01*
X91966500Y-96289970D01*
X91966500Y-96310224D01*
X91964949Y-96329934D01*
X91961779Y-96349942D01*
X91965941Y-96393961D01*
X91966500Y-96405819D01*
X91966500Y-102585406D01*
X91956909Y-102633624D01*
X91929595Y-102674501D01*
X89074500Y-105529595D01*
X89033623Y-105556909D01*
X88985405Y-105566500D01*
X72514594Y-105566500D01*
X72466376Y-105556909D01*
X72425499Y-105529595D01*
X70970405Y-104074500D01*
X70943091Y-104033623D01*
X70933500Y-103985405D01*
X70933500Y-95514594D01*
X70943091Y-95466376D01*
X70970405Y-95425499D01*
X71005499Y-95390405D01*
X71046376Y-95363091D01*
X71094594Y-95353500D01*
X72295696Y-95353500D01*
X72355665Y-95368686D01*
X72401179Y-95410584D01*
X72401889Y-95411671D01*
X72401892Y-95411677D01*
X72533171Y-95612613D01*
X72695731Y-95789201D01*
X72790236Y-95862757D01*
X72825967Y-95890568D01*
X72861773Y-95934661D01*
X72874576Y-95990000D01*
X72861773Y-96045339D01*
X72825967Y-96089432D01*
X72695731Y-96190799D01*
X72533171Y-96367386D01*
X72401892Y-96568323D01*
X72305476Y-96788130D01*
X72249390Y-97009613D01*
X72246557Y-97020801D01*
X72226736Y-97260000D01*
X72246557Y-97499199D01*
X72246557Y-97499202D01*
X72246558Y-97499203D01*
X72305476Y-97731869D01*
X72305477Y-97731872D01*
X72305478Y-97731874D01*
X72401892Y-97951677D01*
X72533171Y-98152613D01*
X72695731Y-98329201D01*
X72803130Y-98412793D01*
X72825967Y-98430568D01*
X72861773Y-98474661D01*
X72874576Y-98530000D01*
X72861773Y-98585339D01*
X72825967Y-98629432D01*
X72695731Y-98730799D01*
X72533171Y-98907386D01*
X72401892Y-99108323D01*
X72305476Y-99328130D01*
X72246558Y-99560796D01*
X72246557Y-99560801D01*
X72226736Y-99800000D01*
X72246557Y-100039199D01*
X72246557Y-100039202D01*
X72246558Y-100039203D01*
X72305476Y-100271869D01*
X72305477Y-100271872D01*
X72305478Y-100271874D01*
X72401892Y-100491677D01*
X72533171Y-100692613D01*
X72695731Y-100869201D01*
X72803130Y-100952793D01*
X72825967Y-100970568D01*
X72861773Y-101014661D01*
X72874576Y-101070000D01*
X72861773Y-101125339D01*
X72825967Y-101169432D01*
X72695731Y-101270799D01*
X72533171Y-101447386D01*
X72401892Y-101648323D01*
X72305476Y-101868130D01*
X72270734Y-102005327D01*
X72246557Y-102100801D01*
X72226736Y-102340000D01*
X72246557Y-102579199D01*
X72246557Y-102579202D01*
X72246558Y-102579203D01*
X72305476Y-102811869D01*
X72305477Y-102811872D01*
X72305478Y-102811874D01*
X72401892Y-103031677D01*
X72444395Y-103096732D01*
X72533171Y-103232613D01*
X72590538Y-103294931D01*
X72695731Y-103409201D01*
X72716221Y-103425149D01*
X72885140Y-103556625D01*
X73095039Y-103670215D01*
X73096231Y-103670860D01*
X73323245Y-103748795D01*
X73559990Y-103788300D01*
X73800007Y-103788300D01*
X73800010Y-103788300D01*
X74036755Y-103748795D01*
X74263769Y-103670860D01*
X74378004Y-103609039D01*
X74474859Y-103556625D01*
X74530876Y-103513025D01*
X74664269Y-103409201D01*
X74826829Y-103232613D01*
X74958108Y-103031677D01*
X75054522Y-102811874D01*
X75113443Y-102579199D01*
X75133264Y-102340000D01*
X75113443Y-102100801D01*
X75054522Y-101868126D01*
X74958108Y-101648323D01*
X74826829Y-101447387D01*
X74664269Y-101270799D01*
X74534030Y-101169430D01*
X74498226Y-101125339D01*
X74485423Y-101070000D01*
X74498226Y-101014661D01*
X74534030Y-100970569D01*
X74664269Y-100869201D01*
X74826829Y-100692613D01*
X74958108Y-100491677D01*
X75054522Y-100271874D01*
X75113443Y-100039199D01*
X75133264Y-99800000D01*
X75113443Y-99560801D01*
X75054522Y-99328126D01*
X74958108Y-99108323D01*
X74826829Y-98907387D01*
X74664269Y-98730799D01*
X74534030Y-98629430D01*
X74498226Y-98585339D01*
X74485423Y-98530000D01*
X74498226Y-98474661D01*
X74534030Y-98430569D01*
X74664269Y-98329201D01*
X74826829Y-98152613D01*
X74958108Y-97951677D01*
X75054522Y-97731874D01*
X75113443Y-97499199D01*
X75133264Y-97260000D01*
X75113443Y-97020801D01*
X75054522Y-96788126D01*
X74958108Y-96568323D01*
X74826829Y-96367387D01*
X74664269Y-96190799D01*
X74569452Y-96117000D01*
X84545736Y-96117000D01*
X84565557Y-96356199D01*
X84565557Y-96356202D01*
X84565558Y-96356203D01*
X84624476Y-96588869D01*
X84624477Y-96588872D01*
X84624478Y-96588874D01*
X84720892Y-96808677D01*
X84720893Y-96808678D01*
X84852171Y-97009613D01*
X85014730Y-97186200D01*
X85204140Y-97333625D01*
X85415230Y-97447859D01*
X85415231Y-97447860D01*
X85642245Y-97525795D01*
X85878990Y-97565300D01*
X86119007Y-97565300D01*
X86119010Y-97565300D01*
X86355755Y-97525795D01*
X86582769Y-97447860D01*
X86697004Y-97386039D01*
X86793859Y-97333625D01*
X86888453Y-97259999D01*
X86983269Y-97186201D01*
X87145829Y-97009613D01*
X87277108Y-96808677D01*
X87288903Y-96781786D01*
X87326895Y-96732973D01*
X87383547Y-96708122D01*
X87445198Y-96713229D01*
X87496988Y-96747064D01*
X87526432Y-96801471D01*
X87526433Y-96863333D01*
X87486557Y-97020801D01*
X87466736Y-97260000D01*
X87486557Y-97499199D01*
X87486557Y-97499202D01*
X87486558Y-97499203D01*
X87545476Y-97731869D01*
X87545477Y-97731872D01*
X87545478Y-97731874D01*
X87641892Y-97951677D01*
X87773171Y-98152613D01*
X87935731Y-98329201D01*
X88043130Y-98412793D01*
X88065967Y-98430568D01*
X88101773Y-98474661D01*
X88114576Y-98530000D01*
X88101773Y-98585339D01*
X88065967Y-98629432D01*
X87935731Y-98730799D01*
X87773171Y-98907386D01*
X87641892Y-99108323D01*
X87545476Y-99328130D01*
X87486558Y-99560796D01*
X87486557Y-99560801D01*
X87466736Y-99800000D01*
X87486557Y-100039199D01*
X87486557Y-100039202D01*
X87486558Y-100039203D01*
X87545476Y-100271869D01*
X87545477Y-100271872D01*
X87545478Y-100271874D01*
X87641892Y-100491677D01*
X87773171Y-100692613D01*
X87935731Y-100869201D01*
X88043130Y-100952793D01*
X88065967Y-100970568D01*
X88101773Y-101014661D01*
X88114576Y-101070000D01*
X88101773Y-101125339D01*
X88065967Y-101169432D01*
X87935731Y-101270799D01*
X87773171Y-101447386D01*
X87641892Y-101648323D01*
X87545476Y-101868130D01*
X87510734Y-102005327D01*
X87486557Y-102100801D01*
X87466736Y-102340000D01*
X87486557Y-102579199D01*
X87486557Y-102579202D01*
X87486558Y-102579203D01*
X87545476Y-102811869D01*
X87545477Y-102811872D01*
X87545478Y-102811874D01*
X87641892Y-103031677D01*
X87684395Y-103096732D01*
X87773171Y-103232613D01*
X87830538Y-103294931D01*
X87935731Y-103409201D01*
X87956221Y-103425149D01*
X88125140Y-103556625D01*
X88335039Y-103670215D01*
X88336231Y-103670860D01*
X88563245Y-103748795D01*
X88799990Y-103788300D01*
X89040007Y-103788300D01*
X89040010Y-103788300D01*
X89276755Y-103748795D01*
X89503769Y-103670860D01*
X89618003Y-103609039D01*
X89714859Y-103556625D01*
X89770876Y-103513025D01*
X89904269Y-103409201D01*
X90066829Y-103232613D01*
X90198108Y-103031677D01*
X90294522Y-102811874D01*
X90353443Y-102579199D01*
X90373264Y-102340000D01*
X90353443Y-102100801D01*
X90294522Y-101868126D01*
X90198108Y-101648323D01*
X90066829Y-101447387D01*
X89904269Y-101270799D01*
X89774030Y-101169430D01*
X89738226Y-101125339D01*
X89725423Y-101070000D01*
X89738226Y-101014661D01*
X89774030Y-100970569D01*
X89904269Y-100869201D01*
X90066829Y-100692613D01*
X90198108Y-100491677D01*
X90294522Y-100271874D01*
X90353443Y-100039199D01*
X90373264Y-99800000D01*
X90353443Y-99560801D01*
X90294522Y-99328126D01*
X90198108Y-99108323D01*
X90066829Y-98907387D01*
X89904269Y-98730799D01*
X89774030Y-98629430D01*
X89738226Y-98585339D01*
X89725423Y-98530000D01*
X89738226Y-98474661D01*
X89774030Y-98430569D01*
X89904269Y-98329201D01*
X90066829Y-98152613D01*
X90198108Y-97951677D01*
X90294522Y-97731874D01*
X90353443Y-97499199D01*
X90373264Y-97260000D01*
X90353443Y-97020801D01*
X90294522Y-96788126D01*
X90198108Y-96568323D01*
X90066829Y-96367387D01*
X89904269Y-96190799D01*
X89774030Y-96089430D01*
X89738226Y-96045339D01*
X89725423Y-95990000D01*
X89738226Y-95934661D01*
X89774030Y-95890569D01*
X89904269Y-95789201D01*
X90066829Y-95612613D01*
X90198108Y-95411677D01*
X90294522Y-95191874D01*
X90353443Y-94959199D01*
X90373264Y-94720000D01*
X90353443Y-94480801D01*
X90294522Y-94248126D01*
X90198108Y-94028323D01*
X90066829Y-93827387D01*
X89904269Y-93650799D01*
X89774030Y-93549430D01*
X89738226Y-93505339D01*
X89725423Y-93450000D01*
X89738226Y-93394661D01*
X89774030Y-93350569D01*
X89904269Y-93249201D01*
X90066829Y-93072613D01*
X90198108Y-92871677D01*
X90294522Y-92651874D01*
X90353443Y-92419199D01*
X90373264Y-92180000D01*
X90353443Y-91940801D01*
X90294522Y-91708126D01*
X90198108Y-91488323D01*
X90066829Y-91287387D01*
X89904269Y-91110799D01*
X89774030Y-91009430D01*
X89738226Y-90965339D01*
X89725423Y-90910000D01*
X89738226Y-90854661D01*
X89774030Y-90810569D01*
X89904269Y-90709201D01*
X90066829Y-90532613D01*
X90198108Y-90331677D01*
X90294522Y-90111874D01*
X90353443Y-89879199D01*
X90373264Y-89640000D01*
X90353443Y-89400801D01*
X90294522Y-89168126D01*
X90198108Y-88948323D01*
X90066829Y-88747387D01*
X89904269Y-88570799D01*
X89774030Y-88469430D01*
X89738226Y-88425339D01*
X89725423Y-88370000D01*
X89738226Y-88314661D01*
X89774030Y-88270569D01*
X89904269Y-88169201D01*
X90066829Y-87992613D01*
X90198108Y-87791677D01*
X90294522Y-87571874D01*
X90353443Y-87339199D01*
X90373264Y-87100000D01*
X90353443Y-86860801D01*
X90294522Y-86628126D01*
X90198108Y-86408323D01*
X90066829Y-86207387D01*
X89904269Y-86030799D01*
X89774030Y-85929430D01*
X89738226Y-85885339D01*
X89725423Y-85830000D01*
X89738226Y-85774661D01*
X89774030Y-85730569D01*
X89904269Y-85629201D01*
X90066829Y-85452613D01*
X90198108Y-85251677D01*
X90294522Y-85031874D01*
X90353443Y-84799199D01*
X90373264Y-84560000D01*
X90353443Y-84320801D01*
X90294522Y-84088126D01*
X90198108Y-83868323D01*
X90066829Y-83667387D01*
X89904269Y-83490799D01*
X89774030Y-83389430D01*
X89738226Y-83345339D01*
X89725423Y-83290000D01*
X89738226Y-83234661D01*
X89774030Y-83190569D01*
X89904269Y-83089201D01*
X90066829Y-82912613D01*
X90198108Y-82711677D01*
X90294522Y-82491874D01*
X90353443Y-82259199D01*
X90373264Y-82020000D01*
X90353443Y-81780801D01*
X90294522Y-81548126D01*
X90198108Y-81328323D01*
X90066829Y-81127387D01*
X89904269Y-80950799D01*
X89774030Y-80849430D01*
X89738226Y-80805339D01*
X89725423Y-80750000D01*
X89738226Y-80694661D01*
X89774030Y-80650569D01*
X89904269Y-80549201D01*
X90066829Y-80372613D01*
X90198108Y-80171677D01*
X90294522Y-79951874D01*
X90353443Y-79719199D01*
X90373264Y-79480000D01*
X90353443Y-79240801D01*
X90294522Y-79008126D01*
X90198108Y-78788323D01*
X90066829Y-78587387D01*
X89904269Y-78410799D01*
X89773621Y-78309111D01*
X89737817Y-78265021D01*
X89725014Y-78209683D01*
X89737816Y-78154344D01*
X89748949Y-78140634D01*
X89749678Y-78128889D01*
X88920000Y-77299210D01*
X88919999Y-77299210D01*
X88090320Y-78128888D01*
X88091050Y-78140636D01*
X88102182Y-78154345D01*
X88114984Y-78209683D01*
X88102181Y-78265021D01*
X88066375Y-78309113D01*
X87935734Y-78410795D01*
X87773171Y-78587386D01*
X87641892Y-78788323D01*
X87545476Y-79008130D01*
X87486558Y-79240796D01*
X87486557Y-79240801D01*
X87466736Y-79480000D01*
X87486557Y-79719199D01*
X87486557Y-79719202D01*
X87486558Y-79719203D01*
X87545476Y-79951869D01*
X87545477Y-79951872D01*
X87545478Y-79951874D01*
X87641892Y-80171677D01*
X87773171Y-80372613D01*
X87935731Y-80549201D01*
X88043130Y-80632793D01*
X88065967Y-80650568D01*
X88101773Y-80694661D01*
X88114576Y-80750000D01*
X88101773Y-80805339D01*
X88065967Y-80849432D01*
X87935731Y-80950799D01*
X87773171Y-81127386D01*
X87641892Y-81328323D01*
X87545476Y-81548130D01*
X87486558Y-81780796D01*
X87486557Y-81780801D01*
X87486551Y-81780878D01*
X87466736Y-82019999D01*
X87486557Y-82259198D01*
X87526433Y-82416665D01*
X87526432Y-82478528D01*
X87496989Y-82532934D01*
X87445199Y-82566769D01*
X87383548Y-82571877D01*
X87326896Y-82547027D01*
X87288901Y-82498210D01*
X87277108Y-82471323D01*
X87145829Y-82270387D01*
X86983269Y-82093799D01*
X86793859Y-81946374D01*
X86582768Y-81832139D01*
X86429093Y-81779382D01*
X86355755Y-81754205D01*
X86119010Y-81714700D01*
X85878990Y-81714700D01*
X85642245Y-81754205D01*
X85642242Y-81754205D01*
X85642242Y-81754206D01*
X85415231Y-81832139D01*
X85204140Y-81946374D01*
X85014730Y-82093799D01*
X84852171Y-82270386D01*
X84720892Y-82471323D01*
X84624476Y-82691130D01*
X84568390Y-82912613D01*
X84565557Y-82923801D01*
X84545736Y-83163000D01*
X84565557Y-83402199D01*
X84565557Y-83402202D01*
X84565558Y-83402203D01*
X84624476Y-83634869D01*
X84624477Y-83634872D01*
X84624478Y-83634874D01*
X84720892Y-83854677D01*
X84852171Y-84055613D01*
X85014731Y-84232201D01*
X85122130Y-84315793D01*
X85144967Y-84333568D01*
X85180773Y-84377661D01*
X85193576Y-84433000D01*
X85180773Y-84488339D01*
X85144967Y-84532432D01*
X85014731Y-84633799D01*
X84852171Y-84810386D01*
X84720892Y-85011323D01*
X84624476Y-85231130D01*
X84568390Y-85452613D01*
X84565557Y-85463801D01*
X84545736Y-85703000D01*
X84565557Y-85942199D01*
X84565557Y-85942202D01*
X84565558Y-85942203D01*
X84624476Y-86174869D01*
X84624477Y-86174872D01*
X84624478Y-86174874D01*
X84720892Y-86394677D01*
X84817599Y-86542697D01*
X84852171Y-86595613D01*
X85014730Y-86772200D01*
X85204140Y-86919625D01*
X85415230Y-87033859D01*
X85415231Y-87033860D01*
X85642245Y-87111795D01*
X85878990Y-87151300D01*
X86119007Y-87151300D01*
X86119010Y-87151300D01*
X86355755Y-87111795D01*
X86582769Y-87033860D01*
X86697004Y-86972039D01*
X86793859Y-86919625D01*
X86839761Y-86883898D01*
X86983269Y-86772201D01*
X87145829Y-86595613D01*
X87277108Y-86394677D01*
X87373522Y-86174874D01*
X87432443Y-85942199D01*
X87452264Y-85703000D01*
X87432443Y-85463801D01*
X87392567Y-85306333D01*
X87392567Y-85244472D01*
X87422010Y-85190065D01*
X87473799Y-85156230D01*
X87535450Y-85151121D01*
X87592102Y-85175971D01*
X87630098Y-85224789D01*
X87638731Y-85244472D01*
X87641892Y-85251677D01*
X87773171Y-85452613D01*
X87935731Y-85629201D01*
X88030548Y-85703000D01*
X88065967Y-85730568D01*
X88101773Y-85774661D01*
X88114576Y-85830000D01*
X88101773Y-85885339D01*
X88065967Y-85929432D01*
X87935731Y-86030799D01*
X87773171Y-86207386D01*
X87641892Y-86408323D01*
X87545476Y-86628130D01*
X87489467Y-86849308D01*
X87486557Y-86860801D01*
X87466736Y-87100000D01*
X87486557Y-87339199D01*
X87486557Y-87339202D01*
X87486558Y-87339203D01*
X87545476Y-87571869D01*
X87545477Y-87571872D01*
X87545478Y-87571874D01*
X87641892Y-87791677D01*
X87773171Y-87992613D01*
X87935731Y-88169201D01*
X88043130Y-88252793D01*
X88065967Y-88270568D01*
X88101773Y-88314661D01*
X88114576Y-88370000D01*
X88101773Y-88425339D01*
X88065967Y-88469432D01*
X87935731Y-88570799D01*
X87773171Y-88747386D01*
X87641892Y-88948323D01*
X87545476Y-89168130D01*
X87489467Y-89389309D01*
X87486557Y-89400801D01*
X87466736Y-89640000D01*
X87486557Y-89879199D01*
X87486557Y-89879202D01*
X87486558Y-89879203D01*
X87545476Y-90111869D01*
X87545477Y-90111872D01*
X87545478Y-90111874D01*
X87641892Y-90331677D01*
X87773171Y-90532613D01*
X87935731Y-90709201D01*
X88043130Y-90792793D01*
X88065967Y-90810568D01*
X88101773Y-90854661D01*
X88114576Y-90910000D01*
X88101773Y-90965339D01*
X88065967Y-91009432D01*
X87935731Y-91110799D01*
X87773171Y-91287386D01*
X87641892Y-91488323D01*
X87545476Y-91708130D01*
X87529809Y-91770000D01*
X87486557Y-91940801D01*
X87466736Y-92180000D01*
X87486557Y-92419199D01*
X87486557Y-92419202D01*
X87486558Y-92419203D01*
X87545476Y-92651869D01*
X87545477Y-92651872D01*
X87545478Y-92651874D01*
X87641892Y-92871677D01*
X87773171Y-93072613D01*
X87935731Y-93249201D01*
X88020962Y-93315539D01*
X88065967Y-93350568D01*
X88101773Y-93394661D01*
X88114576Y-93450000D01*
X88101773Y-93505339D01*
X88065967Y-93549432D01*
X87935731Y-93650799D01*
X87773171Y-93827386D01*
X87641891Y-94028324D01*
X87630098Y-94055211D01*
X87592101Y-94104028D01*
X87535449Y-94128878D01*
X87473798Y-94123769D01*
X87422009Y-94089933D01*
X87392566Y-94035527D01*
X87392567Y-93973665D01*
X87398360Y-93950790D01*
X87432443Y-93816199D01*
X87452264Y-93577000D01*
X87432443Y-93337801D01*
X87373522Y-93105126D01*
X87277108Y-92885323D01*
X87145829Y-92684387D01*
X86983269Y-92507799D01*
X86793859Y-92360374D01*
X86582768Y-92246139D01*
X86390109Y-92179999D01*
X86355755Y-92168205D01*
X86119010Y-92128700D01*
X85878990Y-92128700D01*
X85642245Y-92168205D01*
X85642242Y-92168205D01*
X85642242Y-92168206D01*
X85415231Y-92246139D01*
X85204140Y-92360374D01*
X85014730Y-92507799D01*
X84852171Y-92684386D01*
X84720892Y-92885323D01*
X84624476Y-93105130D01*
X84571194Y-93315539D01*
X84565557Y-93337801D01*
X84545736Y-93577000D01*
X84565557Y-93816199D01*
X84565557Y-93816202D01*
X84565558Y-93816203D01*
X84624476Y-94048869D01*
X84624477Y-94048872D01*
X84624478Y-94048874D01*
X84720892Y-94268677D01*
X84852171Y-94469613D01*
X85014731Y-94646201D01*
X85109548Y-94720000D01*
X85144967Y-94747568D01*
X85180773Y-94791661D01*
X85193576Y-94847000D01*
X85180773Y-94902339D01*
X85144967Y-94946432D01*
X85014731Y-95047799D01*
X84852171Y-95224386D01*
X84720892Y-95425323D01*
X84624476Y-95645130D01*
X84566876Y-95872593D01*
X84565557Y-95877801D01*
X84545736Y-96117000D01*
X74569452Y-96117000D01*
X74534030Y-96089430D01*
X74498226Y-96045339D01*
X74485423Y-95990000D01*
X74498226Y-95934661D01*
X74534030Y-95890569D01*
X74664269Y-95789201D01*
X74826829Y-95612613D01*
X74958108Y-95411677D01*
X75054522Y-95191874D01*
X75113443Y-94959199D01*
X75133264Y-94720000D01*
X75113443Y-94480801D01*
X75054522Y-94248126D01*
X74958108Y-94028323D01*
X74826829Y-93827387D01*
X74664269Y-93650799D01*
X74534030Y-93549430D01*
X74498226Y-93505339D01*
X74485423Y-93450000D01*
X74498226Y-93394661D01*
X74534030Y-93350569D01*
X74664269Y-93249201D01*
X74826829Y-93072613D01*
X74958108Y-92871677D01*
X75054522Y-92651874D01*
X75113443Y-92419199D01*
X75133264Y-92180000D01*
X75113443Y-91940801D01*
X75054522Y-91708126D01*
X74958108Y-91488323D01*
X74826829Y-91287387D01*
X74664269Y-91110799D01*
X74534030Y-91009430D01*
X74498226Y-90965339D01*
X74485423Y-90910000D01*
X74498226Y-90854661D01*
X74534030Y-90810569D01*
X74664269Y-90709201D01*
X74826829Y-90532613D01*
X74958108Y-90331677D01*
X75054522Y-90111874D01*
X75113443Y-89879199D01*
X75133264Y-89640000D01*
X75113443Y-89400801D01*
X75054522Y-89168126D01*
X74958108Y-88948323D01*
X74826829Y-88747387D01*
X74664269Y-88570799D01*
X74534030Y-88469430D01*
X74498226Y-88425339D01*
X74485423Y-88370000D01*
X74498226Y-88314661D01*
X74534030Y-88270569D01*
X74664269Y-88169201D01*
X74826829Y-87992613D01*
X74958108Y-87791677D01*
X75054522Y-87571874D01*
X75113443Y-87339199D01*
X75133264Y-87100000D01*
X75113443Y-86860801D01*
X75054522Y-86628126D01*
X74958108Y-86408323D01*
X74826829Y-86207387D01*
X74664269Y-86030799D01*
X74534030Y-85929430D01*
X74498226Y-85885339D01*
X74485423Y-85830000D01*
X74498226Y-85774661D01*
X74534030Y-85730569D01*
X74664269Y-85629201D01*
X74826829Y-85452613D01*
X74958108Y-85251677D01*
X75054522Y-85031874D01*
X75113443Y-84799199D01*
X75133264Y-84560000D01*
X75113443Y-84320801D01*
X75054522Y-84088126D01*
X74958108Y-83868323D01*
X74826829Y-83667387D01*
X74664269Y-83490799D01*
X74533621Y-83389111D01*
X74497817Y-83345021D01*
X74485014Y-83289683D01*
X74497816Y-83234344D01*
X74508949Y-83220634D01*
X74509678Y-83208889D01*
X73680000Y-82379210D01*
X73679999Y-82379210D01*
X72850320Y-83208888D01*
X72851050Y-83220636D01*
X72862182Y-83234345D01*
X72874984Y-83289683D01*
X72862181Y-83345021D01*
X72826375Y-83389113D01*
X72695734Y-83490795D01*
X72533171Y-83667386D01*
X72410808Y-83854676D01*
X72401892Y-83868323D01*
X72374886Y-83929890D01*
X72331866Y-83982422D01*
X72267828Y-84005000D01*
X72201371Y-83991065D01*
X72151796Y-83944665D01*
X72133500Y-83879275D01*
X72133500Y-82699479D01*
X72151796Y-82634089D01*
X72201371Y-82587689D01*
X72267827Y-82573754D01*
X72331865Y-82596332D01*
X72374887Y-82648865D01*
X72402332Y-82711435D01*
X72492042Y-82848744D01*
X73320789Y-82020000D01*
X74039210Y-82020000D01*
X74867956Y-82848745D01*
X74957668Y-82711432D01*
X75054046Y-82491711D01*
X75112946Y-82259121D01*
X75132761Y-82019999D01*
X75112946Y-81780878D01*
X75054046Y-81548288D01*
X74957668Y-81328566D01*
X74867956Y-81191253D01*
X74867955Y-81191253D01*
X74039210Y-82019999D01*
X74039210Y-82020000D01*
X73320789Y-82020000D01*
X73320789Y-82019999D01*
X72492043Y-81191253D01*
X72492042Y-81191253D01*
X72402333Y-81328562D01*
X72374888Y-81391133D01*
X72331866Y-81443666D01*
X72267828Y-81466244D01*
X72201371Y-81452310D01*
X72151796Y-81405910D01*
X72133500Y-81340520D01*
X72133500Y-80160725D01*
X72151796Y-80095335D01*
X72201371Y-80048935D01*
X72267828Y-80035000D01*
X72331866Y-80057578D01*
X72374886Y-80110109D01*
X72401892Y-80171677D01*
X72533171Y-80372613D01*
X72695731Y-80549201D01*
X72826375Y-80650885D01*
X72862180Y-80694976D01*
X72874983Y-80750313D01*
X72862182Y-80805651D01*
X72851051Y-80819358D01*
X72850321Y-80831111D01*
X73679999Y-81660789D01*
X73680000Y-81660789D01*
X74509678Y-80831110D01*
X74508948Y-80819362D01*
X74497818Y-80805656D01*
X74485015Y-80750317D01*
X74497818Y-80694978D01*
X74533625Y-80650885D01*
X74533627Y-80650884D01*
X74664269Y-80549201D01*
X74826829Y-80372613D01*
X74958108Y-80171677D01*
X75054522Y-79951874D01*
X75113443Y-79719199D01*
X75133264Y-79480000D01*
X75113443Y-79240801D01*
X75054522Y-79008126D01*
X74958108Y-78788323D01*
X74826829Y-78587387D01*
X74664269Y-78410799D01*
X74664267Y-78410798D01*
X74664265Y-78410795D01*
X74534032Y-78309430D01*
X74498226Y-78265337D01*
X74485423Y-78209998D01*
X74498226Y-78154660D01*
X74534031Y-78110569D01*
X74664269Y-78009201D01*
X74826829Y-77832613D01*
X74958108Y-77631677D01*
X75054522Y-77411874D01*
X75113443Y-77179199D01*
X75133264Y-76940000D01*
X75133264Y-76939999D01*
X87467238Y-76939999D01*
X87487053Y-77179121D01*
X87545953Y-77411711D01*
X87642331Y-77631433D01*
X87732042Y-77768744D01*
X88560789Y-76940000D01*
X89279210Y-76940000D01*
X90107955Y-77768745D01*
X90107956Y-77768745D01*
X90197668Y-77631432D01*
X90294046Y-77411711D01*
X90352946Y-77179121D01*
X90372761Y-76939999D01*
X90352946Y-76700878D01*
X90294046Y-76468288D01*
X90220229Y-76300000D01*
X93106709Y-76300000D01*
X93125845Y-76555354D01*
X93182826Y-76805002D01*
X93276378Y-77043369D01*
X93404413Y-77265131D01*
X93564065Y-77465330D01*
X93564068Y-77465332D01*
X93564069Y-77465334D01*
X93644010Y-77539508D01*
X93751784Y-77639508D01*
X93884721Y-77730142D01*
X93963355Y-77783754D01*
X94017596Y-77809875D01*
X94194064Y-77894858D01*
X94248635Y-77911690D01*
X94438757Y-77970335D01*
X94691966Y-78008500D01*
X94948032Y-78008500D01*
X94948034Y-78008500D01*
X95201243Y-77970335D01*
X95445935Y-77894858D01*
X95676646Y-77783754D01*
X95888219Y-77639505D01*
X96075931Y-77465334D01*
X96235587Y-77265131D01*
X96363622Y-77043369D01*
X96457174Y-76805001D01*
X96514155Y-76555353D01*
X96514256Y-76554000D01*
X98192000Y-76554000D01*
X98192000Y-77548589D01*
X98198505Y-77609093D01*
X98249554Y-77745962D01*
X98337095Y-77862904D01*
X98454037Y-77950445D01*
X98590906Y-78001494D01*
X98651411Y-78008000D01*
X99646000Y-78008000D01*
X99646000Y-76554000D01*
X100154000Y-76554000D01*
X100154000Y-78008000D01*
X101148589Y-78008000D01*
X101209093Y-78001494D01*
X101345962Y-77950445D01*
X101462904Y-77862904D01*
X101550445Y-77745962D01*
X101601494Y-77609093D01*
X101608000Y-77548589D01*
X101608000Y-77074787D01*
X107424421Y-77074787D01*
X107583608Y-77183320D01*
X107814247Y-77294390D01*
X108058865Y-77369844D01*
X108312006Y-77408000D01*
X108567994Y-77408000D01*
X108821134Y-77369844D01*
X109065752Y-77294390D01*
X109296392Y-77183320D01*
X109455578Y-77074787D01*
X108440001Y-76059210D01*
X108439999Y-76059210D01*
X107424421Y-77074786D01*
X107424421Y-77074787D01*
X101608000Y-77074787D01*
X101608000Y-76554000D01*
X100154000Y-76554000D01*
X99646000Y-76554000D01*
X98192000Y-76554000D01*
X96514256Y-76554000D01*
X96533291Y-76300000D01*
X96514256Y-76046000D01*
X98192000Y-76046000D01*
X99646000Y-76046000D01*
X99646000Y-74592000D01*
X100154000Y-74592000D01*
X100154000Y-76046000D01*
X101608000Y-76046000D01*
X101608000Y-75700000D01*
X106727211Y-75700000D01*
X106746341Y-75955279D01*
X106803305Y-76204854D01*
X106896830Y-76443151D01*
X107024827Y-76664848D01*
X107065250Y-76715537D01*
X107065252Y-76715537D01*
X108080790Y-75700001D01*
X108799210Y-75700001D01*
X109814747Y-76715538D01*
X109814748Y-76715537D01*
X109855172Y-76664850D01*
X109983169Y-76443152D01*
X110076694Y-76204854D01*
X110133658Y-75955279D01*
X110152788Y-75700000D01*
X111806709Y-75700000D01*
X111809659Y-75739362D01*
X111825845Y-75955354D01*
X111882826Y-76205002D01*
X111976378Y-76443369D01*
X112104413Y-76665131D01*
X112264065Y-76865330D01*
X112451784Y-77039508D01*
X112608279Y-77146204D01*
X112663355Y-77183754D01*
X112771511Y-77235839D01*
X112815169Y-77256864D01*
X112867187Y-77303350D01*
X112886500Y-77370386D01*
X112886500Y-84806147D01*
X112884204Y-84826935D01*
X112886438Y-84897986D01*
X112886500Y-84901945D01*
X112886500Y-84929857D01*
X112887007Y-84933873D01*
X112887937Y-84945696D01*
X112889326Y-84989892D01*
X112894977Y-85009341D01*
X112898986Y-85028696D01*
X112901525Y-85048794D01*
X112901525Y-85048796D01*
X112901526Y-85048797D01*
X112911082Y-85072934D01*
X112917801Y-85089903D01*
X112921644Y-85101130D01*
X112933980Y-85143590D01*
X112944294Y-85161030D01*
X112952987Y-85178774D01*
X112960448Y-85197617D01*
X112960449Y-85197619D01*
X112986431Y-85233380D01*
X112992948Y-85243301D01*
X113015458Y-85281363D01*
X113029778Y-85295683D01*
X113042618Y-85310716D01*
X113054526Y-85327105D01*
X113088598Y-85355292D01*
X113097378Y-85363282D01*
X136921874Y-109187778D01*
X136954486Y-109244261D01*
X136954486Y-109309483D01*
X136944022Y-109348534D01*
X136924647Y-109570000D01*
X136944022Y-109791467D01*
X136997946Y-109992709D01*
X137001560Y-110006196D01*
X137062609Y-110137117D01*
X137095512Y-110207678D01*
X137223025Y-110389784D01*
X137380215Y-110546974D01*
X137380218Y-110546976D01*
X137380219Y-110546977D01*
X137562323Y-110674488D01*
X137672965Y-110726081D01*
X137725982Y-110772574D01*
X137745715Y-110840274D01*
X137725983Y-110907974D01*
X137672966Y-110954469D01*
X137562575Y-111005946D01*
X137499394Y-111050185D01*
X138199999Y-111750790D01*
X138200000Y-111750790D01*
X138900603Y-111050185D01*
X138900603Y-111050184D01*
X138837426Y-111005947D01*
X138727034Y-110954470D01*
X138674016Y-110907974D01*
X138654284Y-110840274D01*
X138674017Y-110772574D01*
X138727032Y-110726082D01*
X138837677Y-110674488D01*
X139019781Y-110546977D01*
X139176977Y-110389781D01*
X139304488Y-110207677D01*
X139398440Y-110006196D01*
X139455978Y-109791463D01*
X139475353Y-109570000D01*
X139455978Y-109348537D01*
X139445513Y-109309483D01*
X139412902Y-109187778D01*
X139398440Y-109133804D01*
X139304488Y-108932324D01*
X139176977Y-108750219D01*
X139176976Y-108750218D01*
X139176974Y-108750215D01*
X139019784Y-108593025D01*
X138837678Y-108465512D01*
X138787247Y-108441996D01*
X138727624Y-108414193D01*
X138674609Y-108367700D01*
X138654876Y-108300000D01*
X138674609Y-108232300D01*
X138727624Y-108185806D01*
X138837677Y-108134488D01*
X139019781Y-108006977D01*
X139176977Y-107849781D01*
X139304488Y-107667677D01*
X139398440Y-107466196D01*
X139455978Y-107251463D01*
X139475353Y-107030000D01*
X139455978Y-106808537D01*
X139398440Y-106593804D01*
X139304488Y-106392324D01*
X139297796Y-106382767D01*
X139176974Y-106210215D01*
X139019784Y-106053025D01*
X138837678Y-105925512D01*
X138787247Y-105901996D01*
X138727624Y-105874193D01*
X138674609Y-105827700D01*
X138654876Y-105760000D01*
X138674609Y-105692300D01*
X138727624Y-105645806D01*
X138837677Y-105594488D01*
X139019781Y-105466977D01*
X139176977Y-105309781D01*
X139304488Y-105127677D01*
X139398440Y-104926196D01*
X139455978Y-104711463D01*
X139475353Y-104490000D01*
X139455978Y-104268537D01*
X139445667Y-104230058D01*
X139438883Y-104204739D01*
X139398440Y-104053804D01*
X139304488Y-103852324D01*
X139176977Y-103670219D01*
X139176976Y-103670218D01*
X139176974Y-103670215D01*
X139019784Y-103513025D01*
X138837678Y-103385512D01*
X138717848Y-103329635D01*
X138636196Y-103291560D01*
X138622709Y-103287946D01*
X138421467Y-103234022D01*
X138200000Y-103214647D01*
X137978532Y-103234022D01*
X137763807Y-103291559D01*
X137763806Y-103291559D01*
X137763804Y-103291560D01*
X137729516Y-103307549D01*
X137562322Y-103385512D01*
X137380215Y-103513025D01*
X137223025Y-103670215D01*
X137095512Y-103852322D01*
X137033455Y-103985405D01*
X137009119Y-104037595D01*
X137001559Y-104053807D01*
X136944022Y-104268532D01*
X136924647Y-104490001D01*
X136929829Y-104549234D01*
X136920291Y-104609447D01*
X136883602Y-104658135D01*
X136828349Y-104683899D01*
X136767469Y-104680708D01*
X136715213Y-104649309D01*
X128111243Y-96045339D01*
X127435718Y-95369814D01*
X137499395Y-95369814D01*
X137562573Y-95414052D01*
X137763975Y-95507968D01*
X137978623Y-95565482D01*
X138200000Y-95584850D01*
X138421376Y-95565482D01*
X138636024Y-95507968D01*
X138837427Y-95414052D01*
X138900603Y-95369814D01*
X138900603Y-95369812D01*
X138200001Y-94669210D01*
X138200000Y-94669210D01*
X137499395Y-95369813D01*
X137499395Y-95369814D01*
X127435718Y-95369814D01*
X126375903Y-94309999D01*
X136925149Y-94309999D01*
X136944517Y-94531376D01*
X137002031Y-94746024D01*
X137095947Y-94947426D01*
X137140184Y-95010603D01*
X137140185Y-95010603D01*
X137840789Y-94310001D01*
X138559210Y-94310001D01*
X139259812Y-95010603D01*
X139259814Y-95010603D01*
X139304052Y-94947427D01*
X139397968Y-94746024D01*
X139455482Y-94531376D01*
X139474850Y-94310000D01*
X139455482Y-94088623D01*
X139397968Y-93873975D01*
X139304051Y-93672571D01*
X139259815Y-93609395D01*
X139259813Y-93609395D01*
X138559210Y-94310000D01*
X138559210Y-94310001D01*
X137840789Y-94310001D01*
X137840790Y-94310000D01*
X137840790Y-94309999D01*
X137140185Y-93609394D01*
X137095948Y-93672572D01*
X137002031Y-93873975D01*
X136944517Y-94088623D01*
X136925149Y-94309999D01*
X126375903Y-94309999D01*
X119270405Y-87204500D01*
X119243091Y-87163623D01*
X119233500Y-87115405D01*
X119233500Y-77534500D01*
X119250381Y-77471500D01*
X119296500Y-77425381D01*
X119359500Y-77408500D01*
X119848638Y-77408500D01*
X119909201Y-77401989D01*
X120046204Y-77350889D01*
X120163261Y-77263261D01*
X120250889Y-77146204D01*
X120277526Y-77074787D01*
X126004421Y-77074787D01*
X126163608Y-77183320D01*
X126394247Y-77294390D01*
X126638865Y-77369844D01*
X126892006Y-77408000D01*
X127147994Y-77408000D01*
X127401134Y-77369844D01*
X127645752Y-77294390D01*
X127876392Y-77183320D01*
X128035578Y-77074787D01*
X127020001Y-76059210D01*
X127019999Y-76059210D01*
X126004421Y-77074786D01*
X126004421Y-77074787D01*
X120277526Y-77074787D01*
X120301989Y-77009201D01*
X120308500Y-76948638D01*
X120308500Y-75700000D01*
X125307211Y-75700000D01*
X125326341Y-75955279D01*
X125383305Y-76204854D01*
X125476830Y-76443151D01*
X125604827Y-76664848D01*
X125645250Y-76715537D01*
X125645252Y-76715537D01*
X126660790Y-75700001D01*
X127379210Y-75700001D01*
X128394747Y-76715538D01*
X128394748Y-76715537D01*
X128435172Y-76664850D01*
X128563169Y-76443152D01*
X128656694Y-76204854D01*
X128713658Y-75955279D01*
X128732788Y-75700000D01*
X130386709Y-75700000D01*
X130405845Y-75955354D01*
X130462826Y-76205002D01*
X130556378Y-76443369D01*
X130684413Y-76665131D01*
X130844065Y-76865330D01*
X131031784Y-77039508D01*
X131188279Y-77146204D01*
X131243355Y-77183754D01*
X131351511Y-77235839D01*
X131395169Y-77256864D01*
X131447187Y-77303350D01*
X131466500Y-77370386D01*
X131466500Y-85586147D01*
X131464204Y-85606935D01*
X131466438Y-85677986D01*
X131466500Y-85681945D01*
X131466500Y-85709857D01*
X131467007Y-85713873D01*
X131467937Y-85725696D01*
X131469326Y-85769892D01*
X131474977Y-85789341D01*
X131478986Y-85808696D01*
X131481525Y-85828794D01*
X131481525Y-85828796D01*
X131481526Y-85828797D01*
X131495314Y-85863623D01*
X131497801Y-85869903D01*
X131501644Y-85881130D01*
X131513980Y-85923590D01*
X131524294Y-85941030D01*
X131532987Y-85958774D01*
X131540448Y-85977617D01*
X131540449Y-85977619D01*
X131566431Y-86013380D01*
X131572948Y-86023301D01*
X131595458Y-86061363D01*
X131609778Y-86075683D01*
X131622618Y-86090716D01*
X131634526Y-86107105D01*
X131668598Y-86135292D01*
X131677378Y-86143282D01*
X136921873Y-91387778D01*
X136954484Y-91444260D01*
X136954485Y-91509481D01*
X136944022Y-91548530D01*
X136924647Y-91770000D01*
X136944022Y-91991467D01*
X136994540Y-92179999D01*
X137001560Y-92206196D01*
X137062609Y-92337117D01*
X137095512Y-92407678D01*
X137223025Y-92589784D01*
X137380215Y-92746974D01*
X137380218Y-92746976D01*
X137380219Y-92746977D01*
X137562323Y-92874488D01*
X137672965Y-92926081D01*
X137725982Y-92972574D01*
X137745715Y-93040274D01*
X137725983Y-93107974D01*
X137672966Y-93154469D01*
X137562575Y-93205946D01*
X137499394Y-93250185D01*
X138199999Y-93950790D01*
X138200000Y-93950790D01*
X138900603Y-93250185D01*
X138900603Y-93250184D01*
X138837426Y-93205947D01*
X138727034Y-93154470D01*
X138674016Y-93107974D01*
X138654284Y-93040274D01*
X138674017Y-92972574D01*
X138727032Y-92926082D01*
X138837677Y-92874488D01*
X139019781Y-92746977D01*
X139176977Y-92589781D01*
X139304488Y-92407677D01*
X139398440Y-92206196D01*
X139455978Y-91991463D01*
X139475353Y-91770000D01*
X139455978Y-91548537D01*
X139455432Y-91546500D01*
X139412902Y-91387778D01*
X139398440Y-91333804D01*
X139304488Y-91132324D01*
X139176977Y-90950219D01*
X139176976Y-90950218D01*
X139176974Y-90950215D01*
X139019784Y-90793025D01*
X138837678Y-90665512D01*
X138787247Y-90641996D01*
X138727624Y-90614193D01*
X138674609Y-90567700D01*
X138654876Y-90500000D01*
X138674609Y-90432300D01*
X138727624Y-90385806D01*
X138837677Y-90334488D01*
X139019781Y-90206977D01*
X139176977Y-90049781D01*
X139304488Y-89867677D01*
X139398440Y-89666196D01*
X139455978Y-89451463D01*
X139475353Y-89230000D01*
X139455978Y-89008537D01*
X139398440Y-88793804D01*
X139304488Y-88592324D01*
X139176977Y-88410219D01*
X139176976Y-88410218D01*
X139176974Y-88410215D01*
X139019784Y-88253025D01*
X138837678Y-88125512D01*
X138787247Y-88101996D01*
X138727624Y-88074193D01*
X138674609Y-88027700D01*
X138654876Y-87960000D01*
X138674609Y-87892300D01*
X138727624Y-87845806D01*
X138837677Y-87794488D01*
X139019781Y-87666977D01*
X139176977Y-87509781D01*
X139304488Y-87327677D01*
X139398440Y-87126196D01*
X139455978Y-86911463D01*
X139475353Y-86690000D01*
X139455978Y-86468537D01*
X139447693Y-86437619D01*
X139421839Y-86341130D01*
X139398440Y-86253804D01*
X139304488Y-86052324D01*
X139176977Y-85870219D01*
X139176976Y-85870218D01*
X139176974Y-85870215D01*
X139019784Y-85713025D01*
X138837678Y-85585512D01*
X138767117Y-85552609D01*
X138636196Y-85491560D01*
X138622709Y-85487946D01*
X138421467Y-85434022D01*
X138200000Y-85414647D01*
X137978532Y-85434022D01*
X137763807Y-85491559D01*
X137763806Y-85491559D01*
X137763804Y-85491560D01*
X137703442Y-85519707D01*
X137562322Y-85585512D01*
X137380215Y-85713025D01*
X137223025Y-85870215D01*
X137095512Y-86052322D01*
X137038368Y-86174869D01*
X137003642Y-86249341D01*
X137001559Y-86253807D01*
X136944022Y-86468532D01*
X136924647Y-86690000D01*
X136929829Y-86749233D01*
X136920291Y-86809446D01*
X136883602Y-86858134D01*
X136828349Y-86883898D01*
X136767469Y-86880707D01*
X136715213Y-86849308D01*
X135770405Y-85904500D01*
X135743091Y-85863623D01*
X135733500Y-85815405D01*
X135733500Y-78094594D01*
X135743091Y-78046376D01*
X135770405Y-78005499D01*
X136330499Y-77445405D01*
X136371376Y-77418091D01*
X136419594Y-77408500D01*
X138428638Y-77408500D01*
X138489201Y-77401989D01*
X138626204Y-77350889D01*
X138743261Y-77263261D01*
X138830889Y-77146204D01*
X138881989Y-77009201D01*
X138888500Y-76948638D01*
X138888500Y-74451362D01*
X138881989Y-74390799D01*
X138830889Y-74253796D01*
X138830888Y-74253794D01*
X138743261Y-74136738D01*
X138626205Y-74049111D01*
X138557702Y-74023560D01*
X138489201Y-73998011D01*
X138428638Y-73991500D01*
X135931362Y-73991500D01*
X135870799Y-73998011D01*
X135733794Y-74049111D01*
X135616738Y-74136738D01*
X135529111Y-74253794D01*
X135478011Y-74390799D01*
X135471500Y-74451362D01*
X135471500Y-76460404D01*
X135461909Y-76508622D01*
X135434595Y-76549500D01*
X134711333Y-77272760D01*
X134695016Y-77285832D01*
X134646370Y-77337635D01*
X134643620Y-77340473D01*
X134623868Y-77360226D01*
X134623864Y-77360230D01*
X134623865Y-77360230D01*
X134621379Y-77363433D01*
X134613687Y-77372439D01*
X134583413Y-77404678D01*
X134573652Y-77422434D01*
X134562801Y-77438952D01*
X134550385Y-77454959D01*
X134532824Y-77495539D01*
X134527604Y-77506195D01*
X134506304Y-77544940D01*
X134501267Y-77564559D01*
X134494864Y-77583261D01*
X134486818Y-77601855D01*
X134479901Y-77645524D01*
X134477495Y-77657144D01*
X134466500Y-77699970D01*
X134466500Y-77720224D01*
X134464949Y-77739934D01*
X134461779Y-77759942D01*
X134465941Y-77803961D01*
X134466500Y-77815819D01*
X134466500Y-86046147D01*
X134464204Y-86066935D01*
X134466438Y-86137986D01*
X134466500Y-86141945D01*
X134466500Y-86169857D01*
X134467007Y-86173873D01*
X134467937Y-86185696D01*
X134469326Y-86229892D01*
X134474977Y-86249341D01*
X134478986Y-86268696D01*
X134481525Y-86288794D01*
X134497801Y-86329903D01*
X134501644Y-86341130D01*
X134513980Y-86383590D01*
X134524294Y-86401030D01*
X134532987Y-86418774D01*
X134540448Y-86437617D01*
X134540449Y-86437619D01*
X134566431Y-86473380D01*
X134572948Y-86483301D01*
X134595458Y-86521363D01*
X134609778Y-86535683D01*
X134622618Y-86550716D01*
X134634526Y-86567105D01*
X134668598Y-86595292D01*
X134677378Y-86603282D01*
X136921873Y-88847778D01*
X136954484Y-88904260D01*
X136954485Y-88969481D01*
X136944022Y-89008530D01*
X136924647Y-89230001D01*
X136929829Y-89289234D01*
X136920291Y-89349447D01*
X136883602Y-89398135D01*
X136828349Y-89423899D01*
X136767469Y-89420708D01*
X136715213Y-89389309D01*
X134855796Y-87529892D01*
X132770405Y-85444500D01*
X132743091Y-85403623D01*
X132733500Y-85355405D01*
X132733500Y-77370386D01*
X132752813Y-77303350D01*
X132804831Y-77256864D01*
X132821626Y-77248775D01*
X132956646Y-77183754D01*
X133168219Y-77039505D01*
X133355931Y-76865334D01*
X133515587Y-76665131D01*
X133643622Y-76443369D01*
X133737174Y-76205001D01*
X133794155Y-75955353D01*
X133813291Y-75700000D01*
X133794155Y-75444647D01*
X133737174Y-75194999D01*
X133643622Y-74956631D01*
X133515587Y-74734869D01*
X133447551Y-74649554D01*
X133355934Y-74534669D01*
X133266150Y-74451362D01*
X133168219Y-74360495D01*
X132956646Y-74216246D01*
X132956645Y-74216245D01*
X132956643Y-74216244D01*
X132725935Y-74105141D01*
X132544286Y-74049111D01*
X132481243Y-74029665D01*
X132228034Y-73991500D01*
X131971966Y-73991500D01*
X131718757Y-74029665D01*
X131705551Y-74033738D01*
X131474064Y-74105141D01*
X131243354Y-74216246D01*
X131031784Y-74360491D01*
X130844065Y-74534669D01*
X130684413Y-74734868D01*
X130556378Y-74956630D01*
X130462826Y-75194997D01*
X130405845Y-75444645D01*
X130386709Y-75700000D01*
X128732788Y-75700000D01*
X128732788Y-75699999D01*
X128713658Y-75444720D01*
X128656694Y-75195145D01*
X128563169Y-74956847D01*
X128435172Y-74735150D01*
X128394748Y-74684461D01*
X128394747Y-74684460D01*
X127379210Y-75699999D01*
X127379210Y-75700001D01*
X126660790Y-75700001D01*
X126660790Y-75699999D01*
X125645252Y-74684461D01*
X125645250Y-74684461D01*
X125604827Y-74735151D01*
X125476830Y-74956848D01*
X125383305Y-75195145D01*
X125326341Y-75444720D01*
X125307211Y-75700000D01*
X120308500Y-75700000D01*
X120308500Y-74451362D01*
X120301989Y-74390799D01*
X120277526Y-74325212D01*
X126004421Y-74325212D01*
X127019999Y-75340790D01*
X127020001Y-75340790D01*
X128035578Y-74325211D01*
X127876392Y-74216679D01*
X127645752Y-74105609D01*
X127401134Y-74030155D01*
X127147994Y-73992000D01*
X126892006Y-73992000D01*
X126638865Y-74030155D01*
X126394247Y-74105609D01*
X126163606Y-74216681D01*
X126004421Y-74325210D01*
X126004421Y-74325212D01*
X120277526Y-74325212D01*
X120250889Y-74253796D01*
X120250888Y-74253794D01*
X120163261Y-74136738D01*
X120046205Y-74049111D01*
X119977702Y-74023560D01*
X119909201Y-73998011D01*
X119848638Y-73991500D01*
X117351362Y-73991500D01*
X117290799Y-73998011D01*
X117153794Y-74049111D01*
X117036738Y-74136738D01*
X116949111Y-74253794D01*
X116898011Y-74390799D01*
X116891500Y-74451362D01*
X116891500Y-76948638D01*
X116898011Y-77009200D01*
X116949111Y-77146205D01*
X117036738Y-77263261D01*
X117153794Y-77350888D01*
X117153795Y-77350888D01*
X117153796Y-77350889D01*
X117290799Y-77401989D01*
X117351362Y-77408500D01*
X117840500Y-77408500D01*
X117903500Y-77425381D01*
X117949619Y-77471500D01*
X117966500Y-77534500D01*
X117966500Y-87346147D01*
X117964204Y-87366935D01*
X117966438Y-87437986D01*
X117966500Y-87441945D01*
X117966500Y-87469857D01*
X117967007Y-87473873D01*
X117967937Y-87485696D01*
X117969326Y-87529892D01*
X117974977Y-87549341D01*
X117978986Y-87568696D01*
X117981525Y-87588794D01*
X117997801Y-87629903D01*
X118001644Y-87641130D01*
X118013980Y-87683590D01*
X118024294Y-87701030D01*
X118032987Y-87718774D01*
X118040448Y-87737617D01*
X118040449Y-87737619D01*
X118066431Y-87773380D01*
X118072948Y-87783301D01*
X118095458Y-87821363D01*
X118109778Y-87835683D01*
X118122618Y-87850716D01*
X118134526Y-87867105D01*
X118134527Y-87867106D01*
X118134528Y-87867107D01*
X118160315Y-87888440D01*
X118168598Y-87895292D01*
X118177378Y-87903282D01*
X136921873Y-106647778D01*
X136954484Y-106704260D01*
X136954485Y-106769481D01*
X136944022Y-106808530D01*
X136924647Y-107030001D01*
X136929829Y-107089234D01*
X136920291Y-107149447D01*
X136883602Y-107198135D01*
X136828349Y-107223899D01*
X136767469Y-107220708D01*
X136715213Y-107189309D01*
X125571243Y-96045339D01*
X114190405Y-84664500D01*
X114163091Y-84623623D01*
X114153500Y-84575405D01*
X114153500Y-77370386D01*
X114172813Y-77303350D01*
X114224831Y-77256864D01*
X114241626Y-77248775D01*
X114376646Y-77183754D01*
X114588219Y-77039505D01*
X114775931Y-76865334D01*
X114935587Y-76665131D01*
X115063622Y-76443369D01*
X115157174Y-76205001D01*
X115214155Y-75955353D01*
X115233291Y-75700000D01*
X115214155Y-75444647D01*
X115157174Y-75194999D01*
X115063622Y-74956631D01*
X114935587Y-74734869D01*
X114867551Y-74649554D01*
X114775934Y-74534669D01*
X114686150Y-74451362D01*
X114588219Y-74360495D01*
X114376646Y-74216246D01*
X114376645Y-74216245D01*
X114376643Y-74216244D01*
X114145935Y-74105141D01*
X113964286Y-74049111D01*
X113901243Y-74029665D01*
X113648034Y-73991500D01*
X113391966Y-73991500D01*
X113138757Y-74029665D01*
X113125551Y-74033738D01*
X112894064Y-74105141D01*
X112663354Y-74216246D01*
X112451784Y-74360491D01*
X112264065Y-74534669D01*
X112104413Y-74734868D01*
X111976378Y-74956630D01*
X111882826Y-75194997D01*
X111825845Y-75444645D01*
X111816385Y-75570884D01*
X111806709Y-75700000D01*
X110152788Y-75700000D01*
X110133658Y-75444720D01*
X110076694Y-75195145D01*
X109983169Y-74956847D01*
X109855172Y-74735150D01*
X109814748Y-74684461D01*
X109814747Y-74684460D01*
X108799210Y-75699999D01*
X108799210Y-75700001D01*
X108080790Y-75700001D01*
X108080790Y-75699999D01*
X107065252Y-74684461D01*
X107065250Y-74684461D01*
X107024827Y-74735151D01*
X106896830Y-74956848D01*
X106803305Y-75195145D01*
X106746341Y-75444720D01*
X106727211Y-75700000D01*
X101608000Y-75700000D01*
X101608000Y-75051411D01*
X101601494Y-74990906D01*
X101550445Y-74854037D01*
X101462904Y-74737095D01*
X101345962Y-74649554D01*
X101209093Y-74598505D01*
X101148589Y-74592000D01*
X100154000Y-74592000D01*
X99646000Y-74592000D01*
X98651411Y-74592000D01*
X98590906Y-74598505D01*
X98454037Y-74649554D01*
X98337095Y-74737095D01*
X98249554Y-74854037D01*
X98198505Y-74990906D01*
X98192000Y-75051411D01*
X98192000Y-76046000D01*
X96514256Y-76046000D01*
X96514155Y-76044647D01*
X96457174Y-75794999D01*
X96363622Y-75556631D01*
X96235587Y-75334869D01*
X96155839Y-75234868D01*
X96075934Y-75134669D01*
X96075931Y-75134666D01*
X95888219Y-74960495D01*
X95676646Y-74816246D01*
X95676645Y-74816245D01*
X95676643Y-74816244D01*
X95445935Y-74705141D01*
X95265722Y-74649554D01*
X95201243Y-74629665D01*
X94948034Y-74591500D01*
X94691966Y-74591500D01*
X94438757Y-74629665D01*
X94438753Y-74629666D01*
X94438754Y-74629666D01*
X94194064Y-74705141D01*
X93963354Y-74816246D01*
X93751784Y-74960491D01*
X93564065Y-75134669D01*
X93404413Y-75334868D01*
X93276378Y-75556630D01*
X93182826Y-75794997D01*
X93125845Y-76044645D01*
X93106709Y-76300000D01*
X90220229Y-76300000D01*
X90197668Y-76248566D01*
X90107956Y-76111254D01*
X89279210Y-76939999D01*
X89279210Y-76940000D01*
X88560789Y-76940000D01*
X88560789Y-76939999D01*
X87732043Y-76111253D01*
X87732042Y-76111253D01*
X87642333Y-76248562D01*
X87545951Y-76468293D01*
X87487053Y-76700878D01*
X87467238Y-76939999D01*
X75133264Y-76939999D01*
X75113443Y-76700801D01*
X75054522Y-76468126D01*
X74958108Y-76248323D01*
X74826829Y-76047387D01*
X74664269Y-75870799D01*
X74534030Y-75769430D01*
X74498226Y-75725339D01*
X74485423Y-75670000D01*
X74498226Y-75614661D01*
X74534030Y-75570569D01*
X74664269Y-75469201D01*
X74826829Y-75292613D01*
X74958108Y-75091677D01*
X75054522Y-74871874D01*
X75113443Y-74639199D01*
X75133264Y-74400000D01*
X75113443Y-74160801D01*
X75054522Y-73928126D01*
X74958108Y-73708323D01*
X74826829Y-73507387D01*
X74826824Y-73507382D01*
X74823776Y-73502716D01*
X74803367Y-73439007D01*
X74818445Y-73373831D01*
X74864761Y-73325559D01*
X74929259Y-73307800D01*
X75069965Y-73307800D01*
X75306634Y-73268306D01*
X75533567Y-73190401D01*
X75744587Y-73076203D01*
X75779678Y-73048889D01*
X75779677Y-73048888D01*
X76660320Y-73048888D01*
X76660321Y-73048889D01*
X76695413Y-73076203D01*
X76906432Y-73190401D01*
X77133365Y-73268306D01*
X77370035Y-73307800D01*
X77609965Y-73307800D01*
X77846634Y-73268306D01*
X78073567Y-73190401D01*
X78284587Y-73076203D01*
X78319678Y-73048889D01*
X77490000Y-72219210D01*
X77489999Y-72219210D01*
X76660320Y-73048888D01*
X75779677Y-73048888D01*
X74950000Y-72219210D01*
X74590790Y-71860000D01*
X75309210Y-71860000D01*
X76137957Y-72688745D01*
X76155460Y-72686930D01*
X76160026Y-72682727D01*
X76219996Y-72667539D01*
X76279966Y-72682724D01*
X76284535Y-72686930D01*
X76302042Y-72688745D01*
X77130789Y-71860000D01*
X77849210Y-71860000D01*
X78677957Y-72688745D01*
X78695683Y-72686907D01*
X78699726Y-72683185D01*
X78759696Y-72667996D01*
X78819667Y-72683181D01*
X78865182Y-72725079D01*
X78883171Y-72752613D01*
X78887011Y-72756784D01*
X79045730Y-72929200D01*
X79235140Y-73076625D01*
X79432398Y-73183374D01*
X79446231Y-73190860D01*
X79673245Y-73268795D01*
X79909990Y-73308300D01*
X80150007Y-73308300D01*
X80150010Y-73308300D01*
X80386755Y-73268795D01*
X80613769Y-73190860D01*
X80728004Y-73129039D01*
X80824859Y-73076625D01*
X80927789Y-72996511D01*
X81014269Y-72929201D01*
X81176829Y-72752613D01*
X81194518Y-72725537D01*
X81240031Y-72683640D01*
X81300000Y-72668454D01*
X81359969Y-72683640D01*
X81405481Y-72725537D01*
X81423171Y-72752613D01*
X81427011Y-72756784D01*
X81585730Y-72929200D01*
X81775140Y-73076625D01*
X81972398Y-73183374D01*
X81986231Y-73190860D01*
X82213245Y-73268795D01*
X82449990Y-73308300D01*
X82690007Y-73308300D01*
X82690010Y-73308300D01*
X82926755Y-73268795D01*
X83153769Y-73190860D01*
X83268004Y-73129039D01*
X83364859Y-73076625D01*
X83467789Y-72996511D01*
X83554269Y-72929201D01*
X83716829Y-72752613D01*
X83734518Y-72725537D01*
X83780031Y-72683640D01*
X83840000Y-72668454D01*
X83899969Y-72683640D01*
X83945481Y-72725537D01*
X83963171Y-72752613D01*
X83967011Y-72756784D01*
X84125730Y-72929200D01*
X84315140Y-73076625D01*
X84512398Y-73183374D01*
X84526231Y-73190860D01*
X84753245Y-73268795D01*
X84989990Y-73308300D01*
X85230007Y-73308300D01*
X85230010Y-73308300D01*
X85466755Y-73268795D01*
X85693769Y-73190860D01*
X85808004Y-73129039D01*
X85904859Y-73076625D01*
X86007789Y-72996511D01*
X86094269Y-72929201D01*
X86256829Y-72752613D01*
X86274518Y-72725537D01*
X86320031Y-72683640D01*
X86380000Y-72668454D01*
X86439969Y-72683640D01*
X86485481Y-72725537D01*
X86503171Y-72752613D01*
X86507011Y-72756784D01*
X86665730Y-72929200D01*
X86855140Y-73076625D01*
X87052398Y-73183374D01*
X87066231Y-73190860D01*
X87293245Y-73268795D01*
X87529990Y-73308300D01*
X87529993Y-73308300D01*
X87670414Y-73308300D01*
X87734912Y-73326059D01*
X87781228Y-73374331D01*
X87796306Y-73439507D01*
X87775897Y-73503216D01*
X87773174Y-73507383D01*
X87773171Y-73507387D01*
X87641891Y-73708323D01*
X87641892Y-73708323D01*
X87545476Y-73928130D01*
X87492650Y-74136739D01*
X87486557Y-74160801D01*
X87466736Y-74400000D01*
X87486557Y-74639199D01*
X87486557Y-74639202D01*
X87486558Y-74639203D01*
X87545476Y-74871869D01*
X87545477Y-74871872D01*
X87545478Y-74871874D01*
X87641892Y-75091677D01*
X87709395Y-75194997D01*
X87773171Y-75292613D01*
X87924159Y-75456631D01*
X87935731Y-75469201D01*
X88066375Y-75570885D01*
X88102180Y-75614976D01*
X88114983Y-75670313D01*
X88102182Y-75725651D01*
X88091051Y-75739358D01*
X88090321Y-75751111D01*
X88919999Y-76580789D01*
X88920000Y-76580789D01*
X89749678Y-75751110D01*
X89748948Y-75739362D01*
X89737818Y-75725656D01*
X89725015Y-75670317D01*
X89737818Y-75614978D01*
X89773625Y-75570885D01*
X89773627Y-75570884D01*
X89904269Y-75469201D01*
X90066829Y-75292613D01*
X90198108Y-75091677D01*
X90294522Y-74871874D01*
X90353443Y-74639199D01*
X90373264Y-74400000D01*
X90367067Y-74325212D01*
X107424421Y-74325212D01*
X108439999Y-75340790D01*
X108440001Y-75340790D01*
X109455578Y-74325211D01*
X109296392Y-74216679D01*
X109065752Y-74105609D01*
X108821134Y-74030155D01*
X108567994Y-73992000D01*
X108312006Y-73992000D01*
X108058865Y-74030155D01*
X107814247Y-74105609D01*
X107583606Y-74216681D01*
X107424421Y-74325210D01*
X107424421Y-74325212D01*
X90367067Y-74325212D01*
X90353443Y-74160801D01*
X90294522Y-73928126D01*
X90198108Y-73708323D01*
X90066829Y-73507387D01*
X89904269Y-73330799D01*
X89897537Y-73325559D01*
X89714859Y-73183374D01*
X89503768Y-73069139D01*
X89350093Y-73016382D01*
X89276755Y-72991205D01*
X89040010Y-72951700D01*
X88899586Y-72951700D01*
X88835088Y-72933941D01*
X88788772Y-72885669D01*
X88773694Y-72820493D01*
X88794103Y-72756784D01*
X88796825Y-72752616D01*
X88796829Y-72752613D01*
X88928108Y-72551677D01*
X89024522Y-72331874D01*
X89083443Y-72099199D01*
X89103264Y-71860000D01*
X89083443Y-71620801D01*
X89024522Y-71388126D01*
X88928108Y-71168323D01*
X88796829Y-70967387D01*
X88634269Y-70790799D01*
X88634268Y-70790798D01*
X88444859Y-70643374D01*
X88233768Y-70529139D01*
X88008176Y-70451693D01*
X88006755Y-70451205D01*
X87770010Y-70411700D01*
X87529990Y-70411700D01*
X87293245Y-70451205D01*
X87293242Y-70451205D01*
X87293242Y-70451206D01*
X87066231Y-70529139D01*
X86855140Y-70643374D01*
X86665730Y-70790799D01*
X86503170Y-70967388D01*
X86485482Y-70994462D01*
X86439969Y-71036359D01*
X86380000Y-71051545D01*
X86320031Y-71036359D01*
X86274518Y-70994462D01*
X86256829Y-70967387D01*
X86094269Y-70790799D01*
X86094268Y-70790798D01*
X85904859Y-70643374D01*
X85693768Y-70529139D01*
X85468176Y-70451693D01*
X85466755Y-70451205D01*
X85230010Y-70411700D01*
X84989990Y-70411700D01*
X84753245Y-70451205D01*
X84753242Y-70451205D01*
X84753242Y-70451206D01*
X84526231Y-70529139D01*
X84315140Y-70643374D01*
X84125730Y-70790799D01*
X83963170Y-70967388D01*
X83945482Y-70994462D01*
X83899969Y-71036359D01*
X83840000Y-71051545D01*
X83780031Y-71036359D01*
X83734518Y-70994462D01*
X83716829Y-70967387D01*
X83554269Y-70790799D01*
X83554268Y-70790798D01*
X83364859Y-70643374D01*
X83153768Y-70529139D01*
X82928176Y-70451693D01*
X82926755Y-70451205D01*
X82690010Y-70411700D01*
X82449990Y-70411700D01*
X82213245Y-70451205D01*
X82213242Y-70451205D01*
X82213242Y-70451206D01*
X81986231Y-70529139D01*
X81775140Y-70643374D01*
X81585730Y-70790799D01*
X81423170Y-70967388D01*
X81405482Y-70994462D01*
X81359969Y-71036359D01*
X81300000Y-71051545D01*
X81240031Y-71036359D01*
X81194518Y-70994462D01*
X81176829Y-70967387D01*
X81014269Y-70790799D01*
X81014268Y-70790798D01*
X80824859Y-70643374D01*
X80613768Y-70529139D01*
X80388176Y-70451693D01*
X80386755Y-70451205D01*
X80150010Y-70411700D01*
X79909990Y-70411700D01*
X79673245Y-70451205D01*
X79673242Y-70451205D01*
X79673242Y-70451206D01*
X79446231Y-70529139D01*
X79235140Y-70643374D01*
X79045730Y-70790799D01*
X78883170Y-70967388D01*
X78865183Y-70994919D01*
X78819670Y-71036816D01*
X78759701Y-71052002D01*
X78699733Y-71036817D01*
X78695686Y-71033092D01*
X78677957Y-71031253D01*
X77849210Y-71860000D01*
X77130789Y-71860000D01*
X77130789Y-71859999D01*
X76302043Y-71031253D01*
X76284533Y-71033069D01*
X76279964Y-71037275D01*
X76219996Y-71052459D01*
X76160028Y-71037272D01*
X76155462Y-71033068D01*
X76137955Y-71031253D01*
X75309210Y-71859999D01*
X75309210Y-71860000D01*
X74590790Y-71860000D01*
X73762043Y-71031253D01*
X73762042Y-71031253D01*
X73672333Y-71168562D01*
X73575951Y-71388293D01*
X73517053Y-71620878D01*
X73497238Y-71860000D01*
X73517053Y-72099121D01*
X73575953Y-72331711D01*
X73672333Y-72551436D01*
X73806493Y-72756785D01*
X73826902Y-72820493D01*
X73811824Y-72885670D01*
X73765507Y-72933941D01*
X73701010Y-72951700D01*
X73559990Y-72951700D01*
X73323245Y-72991205D01*
X73323242Y-72991205D01*
X73323242Y-72991206D01*
X73096231Y-73069139D01*
X72885140Y-73183374D01*
X72695730Y-73330799D01*
X72533171Y-73507386D01*
X72483924Y-73582763D01*
X72401892Y-73708323D01*
X72401889Y-73708328D01*
X72401179Y-73709416D01*
X72355665Y-73751314D01*
X72295696Y-73766500D01*
X71883853Y-73766500D01*
X71863064Y-73764204D01*
X71792014Y-73766438D01*
X71788055Y-73766500D01*
X71760139Y-73766500D01*
X71756123Y-73767007D01*
X71744304Y-73767937D01*
X71700111Y-73769326D01*
X71680658Y-73774978D01*
X71661304Y-73778986D01*
X71641205Y-73781525D01*
X71627090Y-73787113D01*
X71600091Y-73797802D01*
X71588874Y-73801643D01*
X71546407Y-73813982D01*
X71528964Y-73824297D01*
X71511217Y-73832990D01*
X71492384Y-73840446D01*
X71456611Y-73866437D01*
X71446693Y-73872951D01*
X71408638Y-73895457D01*
X71394309Y-73909785D01*
X71379286Y-73922616D01*
X71362893Y-73934527D01*
X71334706Y-73968598D01*
X71326719Y-73977375D01*
X71111331Y-74192762D01*
X71095017Y-74205832D01*
X71046369Y-74257636D01*
X71043620Y-74260473D01*
X71023868Y-74280226D01*
X71023864Y-74280230D01*
X71023865Y-74280230D01*
X71021379Y-74283433D01*
X71013687Y-74292439D01*
X70983413Y-74324678D01*
X70973652Y-74342434D01*
X70962801Y-74358952D01*
X70950385Y-74374959D01*
X70932824Y-74415539D01*
X70927604Y-74426195D01*
X70906304Y-74464940D01*
X70901267Y-74484559D01*
X70894864Y-74503261D01*
X70886818Y-74521855D01*
X70879901Y-74565524D01*
X70877495Y-74577144D01*
X70866500Y-74619970D01*
X70866500Y-74640224D01*
X70864949Y-74659934D01*
X70861779Y-74679942D01*
X70865941Y-74723961D01*
X70866500Y-74735819D01*
X70866500Y-89185406D01*
X70856909Y-89233624D01*
X70829595Y-89274501D01*
X67011336Y-93092757D01*
X66995016Y-93105833D01*
X66946370Y-93157635D01*
X66943620Y-93160473D01*
X66923868Y-93180226D01*
X66923864Y-93180230D01*
X66923865Y-93180230D01*
X66921379Y-93183433D01*
X66913687Y-93192439D01*
X66883413Y-93224678D01*
X66873652Y-93242434D01*
X66862801Y-93258952D01*
X66850385Y-93274959D01*
X66832824Y-93315539D01*
X66827604Y-93326195D01*
X66806304Y-93364940D01*
X66801267Y-93384559D01*
X66794864Y-93403261D01*
X66786818Y-93421855D01*
X66779901Y-93465524D01*
X66777495Y-93477144D01*
X66766500Y-93519970D01*
X66766500Y-93540224D01*
X66764949Y-93559934D01*
X66761779Y-93579942D01*
X66765941Y-93623961D01*
X66766500Y-93635819D01*
X66766500Y-101303723D01*
X66749131Y-101367561D01*
X66701813Y-101413799D01*
X66637590Y-101429689D01*
X66574170Y-101410851D01*
X66549196Y-101395388D01*
X66352628Y-101319237D01*
X66352627Y-101319236D01*
X66352625Y-101319236D01*
X66145405Y-101280500D01*
X65934595Y-101280500D01*
X65727375Y-101319236D01*
X65727373Y-101319236D01*
X65727371Y-101319237D01*
X65530799Y-101395390D01*
X65351569Y-101506364D01*
X65195775Y-101648389D01*
X65068736Y-101816615D01*
X64974767Y-102005330D01*
X64917077Y-102208091D01*
X64897626Y-102417999D01*
X58900000Y-102417999D01*
X58900000Y-77448638D01*
X61391500Y-77448638D01*
X61398011Y-77509201D01*
X61407447Y-77534500D01*
X61449111Y-77646205D01*
X61536738Y-77763261D01*
X61653794Y-77850888D01*
X61653795Y-77850888D01*
X61653796Y-77850889D01*
X61790799Y-77901989D01*
X61851362Y-77908500D01*
X64348638Y-77908500D01*
X64409201Y-77901989D01*
X64546204Y-77850889D01*
X64663261Y-77763261D01*
X64750889Y-77646204D01*
X64801989Y-77509201D01*
X64808500Y-77448638D01*
X64808500Y-76200000D01*
X66466709Y-76200000D01*
X66485845Y-76455354D01*
X66542826Y-76705002D01*
X66636378Y-76943369D01*
X66764413Y-77165131D01*
X66924065Y-77365330D01*
X66924068Y-77365332D01*
X66924069Y-77365334D01*
X67010365Y-77445405D01*
X67111784Y-77539508D01*
X67246613Y-77631432D01*
X67323355Y-77683754D01*
X67399086Y-77720224D01*
X67554064Y-77794858D01*
X67583576Y-77803961D01*
X67798757Y-77870335D01*
X68051966Y-77908500D01*
X68308032Y-77908500D01*
X68308034Y-77908500D01*
X68561243Y-77870335D01*
X68805935Y-77794858D01*
X69036646Y-77683754D01*
X69248219Y-77539505D01*
X69435931Y-77365334D01*
X69595587Y-77165131D01*
X69723622Y-76943369D01*
X69817174Y-76705001D01*
X69874155Y-76455353D01*
X69893291Y-76200000D01*
X69874155Y-75944647D01*
X69817174Y-75694999D01*
X69723622Y-75456631D01*
X69595587Y-75234869D01*
X69555673Y-75184818D01*
X69435934Y-75034669D01*
X69434674Y-75033500D01*
X69248219Y-74860495D01*
X69036646Y-74716246D01*
X69036645Y-74716245D01*
X69036643Y-74716244D01*
X68805935Y-74605141D01*
X68624286Y-74549111D01*
X68561243Y-74529665D01*
X68308034Y-74491500D01*
X68051966Y-74491500D01*
X67798757Y-74529665D01*
X67798753Y-74529666D01*
X67798754Y-74529666D01*
X67554064Y-74605141D01*
X67323354Y-74716246D01*
X67111784Y-74860491D01*
X66924065Y-75034669D01*
X66764413Y-75234868D01*
X66636378Y-75456630D01*
X66542826Y-75694997D01*
X66485845Y-75944645D01*
X66466709Y-76200000D01*
X64808500Y-76200000D01*
X64808500Y-74951362D01*
X64801989Y-74890799D01*
X64750889Y-74753796D01*
X64737432Y-74735819D01*
X64663261Y-74636738D01*
X64546205Y-74549111D01*
X64473129Y-74521855D01*
X64409201Y-74498011D01*
X64348638Y-74491500D01*
X61851362Y-74491500D01*
X61790799Y-74498011D01*
X61653794Y-74549111D01*
X61536738Y-74636738D01*
X61449111Y-74753794D01*
X61405070Y-74871874D01*
X61398011Y-74890799D01*
X61391500Y-74951362D01*
X61391500Y-77448638D01*
X58900000Y-77448638D01*
X58900000Y-70671110D01*
X74120321Y-70671110D01*
X74949999Y-71500789D01*
X74950000Y-71500789D01*
X75779678Y-70671110D01*
X76660321Y-70671110D01*
X77489999Y-71500789D01*
X77490000Y-71500789D01*
X78319678Y-70671110D01*
X78284585Y-70643796D01*
X78073567Y-70529598D01*
X77846634Y-70451693D01*
X77609965Y-70412200D01*
X77370035Y-70412200D01*
X77133365Y-70451693D01*
X76906432Y-70529598D01*
X76695414Y-70643795D01*
X76660321Y-70671109D01*
X76660321Y-70671110D01*
X75779678Y-70671110D01*
X75744585Y-70643796D01*
X75533567Y-70529598D01*
X75306634Y-70451693D01*
X75069965Y-70412200D01*
X74830035Y-70412200D01*
X74593365Y-70451693D01*
X74366432Y-70529598D01*
X74155414Y-70643795D01*
X74120321Y-70671109D01*
X74120321Y-70671110D01*
X58900000Y-70671110D01*
X58900000Y-67826000D01*
X58916881Y-67763000D01*
X58963000Y-67716881D01*
X59026000Y-67700000D01*
X143174000Y-67700000D01*
X143237000Y-67716881D01*
G37*
G04 #@! TD.AperFunction*
M02*
